<svg id="Layer_1" data-name="Layer 1" xmlns="http://www.w3.org/2000/svg" xmlns:xlink="http://www.w3.org/1999/xlink" width="16" height="16" viewBox="0 0 16 16">
  <defs>
    <style>
      .cls-1 {
        fill: none;
      }

      .cls-2 {
        fill: #f8991d;
      }

      .cls-12, .cls-16, .cls-2, .cls-6, .cls-9 {
        fill-rule: evenodd;
      }

      .cls-3 {
        clip-path: url(#clip-path);
      }

      .cls-4 {
        fill: #975e25;
      }

      .cls-5 {
        fill: #989798;
      }

      .cls-6 {
        fill: #f26722;
      }

      .cls-7 {
        clip-path: url(#clip-path-2);
      }

      .cls-8 {
        fill: #974121;
      }

      .cls-9 {
        fill: #ffcd05;
      }

      .cls-10 {
        clip-path: url(#clip-path-3);
      }

      .cls-11 {
        fill: #987c2e;
      }

      .cls-12 {
        fill: #50bcc5;
      }

      .cls-13 {
        clip-path: url(#clip-path-4);
      }

      .cls-14 {
        fill: #317177;
      }

      .cls-15 {
        clip-path: url(#clip-path-5);
      }

      .cls-16 {
        fill: #3167ac;
      }

      .cls-17 {
        clip-path: url(#clip-path-6);
      }

      .cls-18 {
        fill: #1d3e67;
      }

      .cls-19 {
        clip-path: url(#clip-path-7);
      }
    </style>
    <clipPath id="clip-path">
      <path class="cls-1" d="M6,8.44l1.75,1.74a.41.41,0,0,0,.58,0h0L10,8.44a.39.39,0,0,0,.12-.3V7.87a.38.38,0,0,1-.12.29L8.29,9.91a.42.42,0,0,1-.59,0L6,8.16a.38.38,0,0,1-.12-.29v.27A.39.39,0,0,0,6,8.44Z"/>
    </clipPath>
    <clipPath id="clip-path-2">
      <path class="cls-1" d="M.45,8.44l1.74,1.74a.41.41,0,0,0,.58,0h0L4.52,8.44a.42.42,0,0,0,.12-.3V7.87a.38.38,0,0,1-.12.29L2.78,9.91a.41.41,0,0,1-.58,0L.45,8.16a.38.38,0,0,1-.12-.29v.27A.42.42,0,0,0,.45,8.44Z"/>
    </clipPath>
    <clipPath id="clip-path-3">
      <path class="cls-1" d="M11.47,8.44l1.75,1.74a.41.41,0,0,0,.58,0h0l1.74-1.74a.39.39,0,0,0,.12-.3V7.87a.38.38,0,0,1-.12.29L13.8,9.91a.41.41,0,0,1-.58,0L11.47,8.16a.38.38,0,0,1-.12-.29v.27A.42.42,0,0,0,11.47,8.44Z"/>
    </clipPath>
    <clipPath id="clip-path-4">
      <path class="cls-1" d="M8.72,5.68l1.74,1.75a.42.42,0,0,0,.59,0l1.74-1.75a.39.39,0,0,0,.12-.3V5.12a.4.4,0,0,1-.12.29L11.05,7.16a.42.42,0,0,1-.59,0L8.72,5.41a.4.4,0,0,1-.12-.29v.26A.37.37,0,0,0,8.72,5.68Z"/>
    </clipPath>
    <clipPath id="clip-path-5">
      <path class="cls-1" d="M8.72,11.2l1.74,1.74a.42.42,0,0,0,.59,0l1.74-1.74a.39.39,0,0,0,.12-.3v-.27a.42.42,0,0,1-.12.3l-1.74,1.75a.42.42,0,0,1-.59,0L8.72,10.93a.4.4,0,0,1-.12-.29v.27A.42.42,0,0,0,8.72,11.2Z"/>
    </clipPath>
    <clipPath id="clip-path-6">
      <path class="cls-1" d="M6,2.94,7.71,4.68a.41.41,0,0,0,.58,0L10,2.94a.42.42,0,0,0,.12-.3V2.37a.42.42,0,0,1-.12.3L8.29,4.42a.41.41,0,0,1-.58,0h0L6,2.65a.38.38,0,0,1-.12-.29v.27A.43.43,0,0,0,6,2.94Z"/>
    </clipPath>
    <clipPath id="clip-path-7">
      <path class="cls-1" d="M6,14,7.71,15.7a.41.41,0,0,0,.58,0L10,14a.42.42,0,0,0,.12-.3v-.27a.43.43,0,0,1-.12.29L8.29,15.42a.41.41,0,0,1-.58,0L6,13.67a.38.38,0,0,1-.12-.29v.27A.42.42,0,0,0,6,14Z"/>
    </clipPath>
  </defs>
  <title>logo-fav</title>
  <g id="g150">
    <path id="path4" class="cls-2" d="M10.16,7.86A.38.38,0,0,0,10,7.57L8.29,5.82a.41.41,0,0,0-.58,0L6,7.57a.38.38,0,0,0-.12.29v.28a.42.42,0,0,0,.12.3l1.75,1.75a.41.41,0,0,0,.58,0L10,8.44a.42.42,0,0,0,.12-.3V7.86Z"/>
    <g id="g22">
      <g class="cls-3">
        <g id="g20">
          <g id="g18">
            <path id="path12" class="cls-4" d="M8.08,10.32H7.93l0,0a.41.41,0,0,1-.2-.12L6,8.47a.94.94,0,0,1-.12-.18l0,0V7.89h4.33v.38a.55.55,0,0,1-.15.24L8.34,10.16a.1.1,0,0,1-.06.05Z"/>
            <path id="path14" class="cls-5" d="M8.08,10.32l.2-.11.06-.05L10,8.5a.51.51,0,0,0,.16-.25m0,0v0Z"/>
            <path id="path16" class="cls-5" d="M5.85,8.23a.08.08,0,0,0,0,0A.81.81,0,0,0,6,8.46L7.7,10.18a.56.56,0,0,0,.2.12H5.85Z"/>
          </g>
        </g>
      </g>
    </g>
    <path id="path24" class="cls-6" d="M4.65,7.86a.38.38,0,0,0-.12-.29L2.78,5.82a.41.41,0,0,0-.58,0h0L.45,7.57a.38.38,0,0,0-.12.29v.28a.42.42,0,0,0,.12.3l1.74,1.75a.42.42,0,0,0,.59,0L4.52,8.44a.39.39,0,0,0,.12-.3V7.86Z"/>
    <g id="g42">
      <g class="cls-7">
        <g id="g40">
          <g id="g38">
            <path id="path32" class="cls-8" d="M2.57,10.32H2.41s0,0,0,0a.39.39,0,0,1-.19-.12L.48,8.47a.63.63,0,0,1-.13-.2s0,0,0,0V7.89H4.66v.36a.53.53,0,0,1-.17.25L2.83,10.16l-.06.05Z"/>
            <path id="path34" class="cls-5" d="M2.57,10.32l.2-.11.06-.05L4.48,8.5a.53.53,0,0,0,.17-.25v2.07Z"/>
            <path id="path36" class="cls-5" d="M.33,8.23a.05.05,0,0,1,0,0,.63.63,0,0,0,.13.2l1.71,1.71a.41.41,0,0,0,.2.12H.33Z"/>
          </g>
        </g>
      </g>
    </g>
    <path id="path44" class="cls-9" d="M15.67,7.86a.38.38,0,0,0-.12-.29L13.8,5.82a.41.41,0,0,0-.58,0L11.48,7.57a.39.39,0,0,0-.13.29v.28a.47.47,0,0,0,.12.3l1.75,1.75a.41.41,0,0,0,.58,0l1.75-1.75a.42.42,0,0,0,.12-.3Z"/>
    <g id="g62">
      <g class="cls-10">
        <g id="g60">
          <g id="g58">
            <path id="path52" class="cls-11" d="M13.59,10.32h-.16s0,0,0,0h0a.55.55,0,0,1-.24-.15L11.51,8.49l-.06-.07-.1-.18V7.88h4.32v.37a.42.42,0,0,1-.16.25L14,10a.78.78,0,0,1-.37.27Z"/>
            <path id="path54" class="cls-5" d="M13.59,10.32a.85.85,0,0,0,.37-.27L15.51,8.5a.47.47,0,0,0,.16-.25v2.07Z"/>
            <path id="path56" class="cls-5" d="M11.36,8.23a1.14,1.14,0,0,0,.1.19l.06.07,1.66,1.66a.61.61,0,0,0,.24.15l0,0H11.36V8.23Z"/>
          </g>
        </g>
      </g>
    </g>
    <path id="path64" class="cls-12" d="M12.91,5.1a.39.39,0,0,0-.12-.3L11.05,3.06a.41.41,0,0,0-.58,0h0L8.72,4.8a.44.44,0,0,0-.14.3v.28a.5.5,0,0,0,.12.31l1.75,1.74a.41.41,0,0,0,.58,0h0l1.74-1.74a.39.39,0,0,0,.12-.31V5.1Z"/>
    <g id="g86">
      <g class="cls-13">
        <g id="g84">
          <g id="g82">
            <path id="path72" class="cls-14" d="M10.83,7.56h-.14a.72.72,0,0,1-.24-.14L8.75,5.71a.46.46,0,0,1-.13-.2V5.13h4.31v.34a.71.71,0,0,1-.24.35L11.15,7.34A.64.64,0,0,1,10.83,7.56Z"/>
            <path id="path74" class="cls-4" d="M10,7.56H8.6V6.14l0,0L10,7.53Z"/>
            <path id="path76" class="cls-11" d="M12.92,6.14V7.56H11.51l0,0L12.9,6.17l0,0Z"/>
            <path id="path78" class="cls-5" d="M12.92,6.14l0,0L11.54,7.52l0,0h-.67a.6.6,0,0,0,.32-.22l1.53-1.52a.79.79,0,0,0,.24-.35Z"/>
            <path id="path80" class="cls-5" d="M10,7.56l0,0L8.63,6.15l0,0V5.48l0,0a.59.59,0,0,0,.12.2l1.71,1.71a.72.72,0,0,0,.24.14Z"/>
          </g>
        </g>
      </g>
    </g>
    <path id="path88" class="cls-12" d="M12.91,10.61a.4.4,0,0,0-.12-.29L11.05,8.57a.42.42,0,0,0-.59,0L8.72,10.32a.4.4,0,0,0-.12.29v.29a.44.44,0,0,0,.12.3l1.74,1.74a.42.42,0,0,0,.59,0l1.74-1.74a.39.39,0,0,0,.12-.3Z"/>
    <g id="g106">
      <g class="cls-15">
        <g id="g104">
          <g id="g102">
            <path id="path96" class="cls-14" d="M8.6,11v-.35h4.32V11a.79.79,0,0,1-.24.35l-1.53,1.53a.72.72,0,0,1-.33.21h-.13a.72.72,0,0,1-.24-.14L8.74,11.22a.37.37,0,0,1-.12-.2Z"/>
            <path id="path98" class="cls-5" d="M10.83,13.07a.62.62,0,0,0,.32-.21l1.53-1.53a.71.71,0,0,0,.24-.35v2.09Z"/>
            <path id="path100" class="cls-5" d="M8.6,11l0,0a.37.37,0,0,0,.12.2l1.71,1.71a.58.58,0,0,0,.24.14H8.61V11Z"/>
          </g>
        </g>
      </g>
    </g>
    <path id="path108" class="cls-16" d="M10.16,2.34A.4.4,0,0,0,10,2.05L8.29.3a.41.41,0,0,0-.58,0L6,2.05a.4.4,0,0,0-.12.29v.29A.45.45,0,0,0,6,2.94L7.71,4.68a.41.41,0,0,0,.58,0L10,2.94a.42.42,0,0,0,.12-.3v-.3Z"/>
    <g id="g128">
      <g class="cls-17">
        <g id="g126">
          <g id="g124">
            <path id="path116" class="cls-18" d="M8.08,4.8H7.91a.55.55,0,0,1-.24-.15L6,3A.23.23,0,0,1,6,2.91a1.14,1.14,0,0,1-.1-.19V2.38h4.32v.36A.6.6,0,0,1,10,3L8.34,4.64a.12.12,0,0,1-.06.06A1.24,1.24,0,0,1,8.08,4.8Z"/>
            <path id="path118" class="cls-5" d="M5.85,2.72a1.14,1.14,0,0,0,.1.19L6,3,7.67,4.64a.55.55,0,0,0,.24.15l0,0H5.85Z"/>
            <path id="path120" class="cls-14" d="M10.18,3.38V4.8H8.74l0,0,1.33-1.35Z"/>
            <path id="path122" class="cls-5" d="M10.18,3.38l0,0L8.81,4.76s0,0,0,0H8.08l.2-.1a.34.34,0,0,0,.06-.06L10,3a.5.5,0,0,0,.15-.25v.64Z"/>
          </g>
        </g>
      </g>
    </g>
    <path id="path130" class="cls-16" d="M10.16,13.36a.42.42,0,0,0-.12-.29L8.29,11.33a.41.41,0,0,0-.58,0h0L6,13.07a.42.42,0,0,0-.12.29v.29A.41.41,0,0,0,6,14L7.71,15.7a.41.41,0,0,0,.58,0L10,14a.42.42,0,0,0,.12-.3Z"/>
    <g id="g148">
      <g class="cls-19">
        <g id="g146">
          <g id="g144">
            <path id="path138" class="cls-18" d="M8.08,15.83H7.91a.49.49,0,0,1-.24-.16L6,14A.27.27,0,0,1,6,13.94l-.1-.18v-.37h4.32v.35h0A.54.54,0,0,1,10,14L8.34,15.66l-.06.06Z"/>
            <path id="path140" class="cls-5" d="M8.08,15.83l.2-.11.06-.05L10,14a.47.47,0,0,0,.16-.25v2.07Z"/>
            <path id="path142" class="cls-5" d="M5.85,13.75l.1.18L6,14l1.65,1.65a.41.41,0,0,0,.24.15l0,0H5.85Z"/>
          </g>
        </g>
      </g>
    </g>
  </g>
</svg>
