<svg xmlns="http://www.w3.org/2000/svg" xmlns:xlink="http://www.w3.org/1999/xlink" version="1.1" x="0px" y="0px" viewBox="0 0 100 125" enable-background="new 0 0 100 100" xml:space="preserve" fill="#337ab7"><path fill="#337ab7" fill-rule="evenodd" clip-rule="evenodd" d="M71.651,43.375H60.617V31.936c0-1.238-1.263-2.242-2.5-2.24  c-1.237,0-2.5,1.006-2.5,2.24v11.439H44.583c-1.238,0-2.24,1.261-2.24,2.5c0.002,1.239,1.004,2.5,2.242,2.5h11.032v10.629  c0,1.238,1.261,2.24,2.5,2.24c1.239-0.002,2.5-1.004,2.5-2.242V48.375h11.034c1.238,0,2.242-1.263,2.24-2.5  C73.892,44.638,72.886,43.375,71.651,43.375z"/><path fill-rule="evenodd" clip-rule="evenodd" d="M83.508,8.999H60.227h-27.5c-7.561,0-8.314,7.166-8.314,8.313v0.001v7.624h-1.909  h-4.149h-0.535c-4.592,0-8.314,3.723-8.314,8.314v50.435c0,4.59,3.723,8.313,8.314,8.313h50.78c4.592,0,8.32-3.719,8.474-8.313  v-4.633v-2.992h6.436c8.314,0,8.314-8.314,8.314-8.314V40.619V17.312C91.822,12.723,88.1,8.999,83.508,8.999z M46.541,13.75  c1.056,0,1.911,0.855,1.911,1.912c0,1.056-0.855,1.911-1.911,1.911c-1.057,0-1.912-0.855-1.912-1.911  C44.629,14.605,45.484,13.75,46.541,13.75z M39.872,13.75c1.056,0,1.911,0.855,1.911,1.912c0,1.056-0.855,1.911-1.911,1.911  c-1.057,0-1.912-0.855-1.912-1.911C37.96,14.605,38.815,13.75,39.872,13.75z M33.203,13.75c1.056,0,1.911,0.855,1.911,1.912  c0,1.056-0.855,1.911-1.911,1.911c-1.057,0-1.912-0.855-1.912-1.911C31.291,14.605,32.146,13.75,33.203,13.75z M72.614,81.191  c0,4.004-2.527,6.532-6.533,6.532H20.336c-4.006,0-6.533-2.528-6.533-6.532V38.188h10.609v6.253v23.307  c0,4.59,3.723,8.313,8.314,8.313h23.281h16.588l0.019,2.992V81.191z M87.523,40.619v24.633c0,4.006-2.527,6.532-6.533,6.532H56.006  v0.001H35.244c-4.006,0-6.533-2.528-6.533-6.532V44.441V22.25h58.812V40.619z"/></svg>