<svg id="Layer_1" data-name="Layer 1" xmlns="http://www.w3.org/2000/svg" xmlns:xlink="http://www.w3.org/1999/xlink" width="244.3" height="59" viewBox="0 0 244.3 59"><defs><style>.cls-1{fill:none;}.cls-2{fill:#f8991d;}.cls-12,.cls-16,.cls-2,.cls-6,.cls-9{fill-rule:evenodd;}.cls-3{clip-path:url(#clip-path);}.cls-4{fill:#975e25;}.cls-5{fill:#989798;}.cls-6{fill:#f26722;}.cls-7{clip-path:url(#clip-path-2);}.cls-8{fill:#974121;}.cls-9{fill:#ffcd05;}.cls-10{clip-path:url(#clip-path-3);}.cls-11{fill:#987c2e;}.cls-12{fill:#50bcc5;}.cls-13{clip-path:url(#clip-path-4);}.cls-14{fill:#317177;}.cls-15{clip-path:url(#clip-path-5);}.cls-16{fill:#3167ac;}.cls-17{clip-path:url(#clip-path-6);}.cls-18{fill:#1d3e67;}.cls-19{clip-path:url(#clip-path-7);}.cls-20{fill:#010101;}</style><clipPath id="clip-path"><path class="cls-1" d="M21.15,31.15,27.7,37.7a1.55,1.55,0,0,0,2.18,0h0l6.56-6.55A1.55,1.55,0,0,0,36.89,30V29a1.54,1.54,0,0,1-.45,1.09l-6.56,6.57a1.56,1.56,0,0,1-2.19,0l-6.55-6.57A1.54,1.54,0,0,1,20.69,29v1A1.45,1.45,0,0,0,21.15,31.15Z"/></clipPath><clipPath id="clip-path-2"><path class="cls-1" d="M.46,31.15,7,37.7a1.55,1.55,0,0,0,2.18,0h0l6.56-6.55A1.55,1.55,0,0,0,16.19,30V29a1.54,1.54,0,0,1-.45,1.09L9.2,36.68a1.56,1.56,0,0,1-2.19,0L.46,30.11A1.49,1.49,0,0,1,0,29v1A1.56,1.56,0,0,0,.46,31.15Z"/></clipPath><clipPath id="clip-path-3"><path class="cls-1" d="M41.84,31.15,48.4,37.7a1.55,1.55,0,0,0,2.18,0h0l6.55-6.55A1.55,1.55,0,0,0,57.58,30V29a1.54,1.54,0,0,1-.45,1.09l-6.55,6.56a1.56,1.56,0,0,1-2.19,0l-6.56-6.56A1.54,1.54,0,0,1,41.38,29v1A1.52,1.52,0,0,0,41.84,31.15Z"/></clipPath><clipPath id="clip-path-4"><path class="cls-1" d="M31.49,20.8l6.56,6.56a1.56,1.56,0,0,0,2.19,0l6.55-6.56a1.47,1.47,0,0,0,.45-1.12v-1a1.51,1.51,0,0,1-.44,1.1l-6.56,6.55a1.56,1.56,0,0,1-2.19,0L31.5,19.78a1.57,1.57,0,0,1-.46-1.1v1A1.51,1.51,0,0,0,31.49,20.8Z"/></clipPath><clipPath id="clip-path-5"><path class="cls-1" d="M31.49,41.5l6.56,6.56a1.56,1.56,0,0,0,2.19,0l6.55-6.56a1.46,1.46,0,0,0,.45-1.13v-1a1.5,1.5,0,0,1-.44,1.13l-6.56,6.56a1.56,1.56,0,0,1-2.19,0L31.5,40.5a1.54,1.54,0,0,1-.45-1.09v1A1.49,1.49,0,0,0,31.49,41.5Z"/></clipPath><clipPath id="clip-path-6"><path class="cls-1" d="M21.15,10.5l6.55,6.55a1.56,1.56,0,0,0,2.19,0l6.56-6.55a1.55,1.55,0,0,0,.45-1.13v-1a1.55,1.55,0,0,1-.45,1.13l-6.56,6.56a1.55,1.55,0,0,1-2.18,0h0L21.15,9.43a1.54,1.54,0,0,1-.45-1.09v1A1.54,1.54,0,0,0,21.15,10.5Z"/></clipPath><clipPath id="clip-path-7"><path class="cls-1" d="M21.15,51.84,27.7,58.4a1.56,1.56,0,0,0,2.19,0l6.56-6.56a1.55,1.55,0,0,0,.45-1.13v-1a1.54,1.54,0,0,1-.45,1.09l-6.56,6.56a1.56,1.56,0,0,1-2.19,0L21.15,50.8a1.54,1.54,0,0,1-.45-1.09v1A1.55,1.55,0,0,0,21.15,51.84Z"/></clipPath></defs><g id="g150"><path id="path4" class="cls-2" d="M36.91,29a1.54,1.54,0,0,0-.45-1.09L29.89,21.3a1.56,1.56,0,0,0-2.19,0l-6.55,6.57A1.54,1.54,0,0,0,20.7,29V30a1.55,1.55,0,0,0,.45,1.13l6.55,6.56a1.56,1.56,0,0,0,2.19,0l6.56-6.56A1.51,1.51,0,0,0,36.9,30V29Z"/><g id="g22"><g class="cls-3"><g id="g20"><g id="g18"><path id="path12" class="cls-4" d="M29.11,38.2h-.58a.24.24,0,0,0-.11-.06,1.83,1.83,0,0,1-.74-.45l-6.43-6.44a3.26,3.26,0,0,1-.43-.66,1.08,1.08,0,0,1-.08-.19V29.08H37V30.5a2,2,0,0,1-.59.93L30.1,37.6a1.15,1.15,0,0,1-.23.21Z"/><path id="path14" class="cls-5" d="M29.11,38.2c.26-.13.51-.26.75-.4l.23-.2,6.22-6.23a1.84,1.84,0,0,0,.59-.93m0-.05v0Z"/><path id="path16" class="cls-5" d="M20.73,30.38a.66.66,0,0,0,.09.19,4.25,4.25,0,0,0,.43.67l6.43,6.43a1.58,1.58,0,0,0,.74.45l.1.06H20.73Z"/></g></g></g></g><path id="path24" class="cls-6" d="M16.22,29a1.54,1.54,0,0,0-.45-1.09L9.2,21.3A1.56,1.56,0,0,0,7,21.3H7L.46,27.87A1.55,1.55,0,0,0,0,29V30a1.59,1.59,0,0,0,.45,1.13L7,37.71a1.56,1.56,0,0,0,2.19,0l6.55-6.56A1.46,1.46,0,0,0,16.19,30V29Z"/><g id="g42"><g class="cls-7"><g id="g40"><g id="g38"><path id="path32" class="cls-8" d="M8.42,38.2H7.83a.24.24,0,0,0-.11-.06A1.6,1.6,0,0,1,7,37.69L.56,31.25A1.58,1.58,0,0,1,.1,30.5a.27.27,0,0,0-.1-.11V29.07H16.25v1.37a2,2,0,0,1-.61.94L9.39,37.6a.83.83,0,0,1-.22.2Z"/><path id="path34" class="cls-5" d="M8.42,38.2l.75-.4a.8.8,0,0,0,.21-.2l6.22-6.22a2,2,0,0,0,.61-.94v7.77Z"/><path id="path36" class="cls-5" d="M0,30.38a.29.29,0,0,1,.1.12,1.58,1.58,0,0,0,.46.75L7,37.68a1.58,1.58,0,0,0,.74.45.24.24,0,0,1,.11.06H0Z"/></g></g></g></g><path id="path44" class="cls-9" d="M57.61,29a1.54,1.54,0,0,0-.45-1.09L50.6,21.31a1.56,1.56,0,0,0-2.19,0l-6.55,6.56A1.49,1.49,0,0,0,41.4,29V30a1.55,1.55,0,0,0,.45,1.13l6.55,6.56a1.56,1.56,0,0,0,2.19,0l6.56-6.56A1.56,1.56,0,0,0,57.61,30Z"/><g id="g62"><g class="cls-10"><g id="g60"><g id="g58"><path id="path52" class="cls-11" d="M49.8,38.2h-.59a.06.06,0,0,0-.06-.06h0a2,2,0,0,1-.9-.57Q45.15,34.5,42,31.35a2,2,0,0,1-.24-.26l-.38-.7V29.06H57.62v1.38a2,2,0,0,1-.61.95l-5.78,5.77a3,3,0,0,1-1.39,1Z"/><path id="path54" class="cls-5" d="M49.8,38.2a3.26,3.26,0,0,0,1.4-1L57,31.39a2,2,0,0,0,.61-.95V38.2Z"/><path id="path56" class="cls-5" d="M41.42,30.38c.12.24.24.47.38.7a1.2,1.2,0,0,0,.24.26l6.22,6.22a2,2,0,0,0,.89.58.16.16,0,0,1,.08.06h-7.8V30.38Z"/></g></g></g></g><path id="path64" class="cls-12" d="M47.25,18.61a1.49,1.49,0,0,0-.45-1.11L40.25,11a1.55,1.55,0,0,0-2.18,0h0L31.49,17.5A1.6,1.6,0,0,0,31,18.61v1.07a1.63,1.63,0,0,0,.45,1.13L38,27.36a1.55,1.55,0,0,0,2.18,0h0l6.55-6.55a1.51,1.51,0,0,0,.45-1.13V18.61Z"/><g id="g86"><g class="cls-13"><g id="g84"><g id="g82"><path id="path72" class="cls-14" d="M39.42,27.85h-.51a2.29,2.29,0,0,1-.9-.53c-2.13-2.15-4.27-4.28-6.4-6.42a1.68,1.68,0,0,1-.47-.75.24.24,0,0,0-.06-.11V18.72H47.29V20a3,3,0,0,1-.92,1.32L40.65,27A2.63,2.63,0,0,1,39.42,27.85Z"/><path id="path74" class="cls-4" d="M36.42,27.85H31.07V22.5a.39.39,0,0,1,.1.08l5.15,5.15Z"/><path id="path76" class="cls-11" d="M47.29,22.5v5.35H42l.13-.17,5.06-5.05.15-.13Z"/><path id="path78" class="cls-5" d="M47.29,22.5l-.15.13-5.06,5.05a1.09,1.09,0,0,0-.13.17H39.43A2.55,2.55,0,0,0,40.65,27l5.72-5.72A3,3,0,0,0,47.29,20Z"/><path id="path80" class="cls-5" d="M36.42,27.85a.64.64,0,0,0-.1-.13l-5.15-5.15-.1-.08V20a.24.24,0,0,1,.06.11,1.77,1.77,0,0,0,.47.76L38,27.31a2.49,2.49,0,0,0,.9.53Z"/></g></g></g></g><path id="path88" class="cls-12" d="M47.25,39.3a1.54,1.54,0,0,0-.45-1.09l-6.55-6.56a1.56,1.56,0,0,0-2.19,0L31.5,38.21a1.54,1.54,0,0,0-.45,1.09v1.07a1.63,1.63,0,0,0,.45,1.13l6.56,6.56a1.56,1.56,0,0,0,2.19,0L46.8,41.5a1.44,1.44,0,0,0,.45-1.12Z"/><g id="g106"><g class="cls-15"><g id="g104"><g id="g102"><path id="path96" class="cls-14" d="M31.07,40.73V39.41H47.28v1.28A3,3,0,0,1,46.36,42l-5.73,5.74a2.51,2.51,0,0,1-1.22.8H38.9A2.58,2.58,0,0,1,38,48l-6.42-6.43a1.58,1.58,0,0,1-.46-.75A.14.14,0,0,0,31.07,40.73Z"/><path id="path98" class="cls-5" d="M39.42,48.55a2.53,2.53,0,0,0,1.22-.81q2.85-2.87,5.73-5.73a2.76,2.76,0,0,0,.92-1.31v7.85Z"/><path id="path100" class="cls-5" d="M31.07,40.73a.24.24,0,0,1,.06.11,1.6,1.6,0,0,0,.47.75L38,48a2.35,2.35,0,0,0,.89.52H31.08V40.73Z"/></g></g></g></g><path id="path108" class="cls-16" d="M36.91,8.26a1.54,1.54,0,0,0-.45-1.09L29.89.6A1.56,1.56,0,0,0,27.7.6L21.15,7.17a1.54,1.54,0,0,0-.45,1.09V9.33a1.54,1.54,0,0,0,.45,1.17l6.55,6.55a1.56,1.56,0,0,0,2.19,0l6.56-6.55a1.55,1.55,0,0,0,.45-1.13V8.26Z"/><g id="g128"><g class="cls-17"><g id="g126"><g id="g124"><path id="path116" class="cls-18" d="M29.11,17.5h-.58s-.05-.05-.07-.05a1.9,1.9,0,0,1-.89-.58l-6.2-6.2a1.73,1.73,0,0,1-.26-.28c-.14-.23-.25-.47-.38-.7V8.38H36.94V9.75a2,2,0,0,1-.59.93L30.09,16.9a.93.93,0,0,1-.23.21C29.62,17.25,29.37,17.37,29.11,17.5Z"/><path id="path118" class="cls-5" d="M20.73,9.69c.13.24.24.48.38.71a3.45,3.45,0,0,0,.26.28l6.2,6.19a1.93,1.93,0,0,0,.9.58.09.09,0,0,1,.07.06h-7.8C20.73,14.9,20.73,12.3,20.73,9.69Z"/><path id="path120" class="cls-14" d="M37,12.15V17.5H31.6l.14-.16,5-5.06Z"/><path id="path122" class="cls-5" d="M37,12.15l-.16.13-5,5.06a1.07,1.07,0,0,0-.14.16H29.11l.74-.39a1.15,1.15,0,0,0,.23-.21l6.22-6.22a1.84,1.84,0,0,0,.59-.93v2.4Z"/></g></g></g></g><path id="path130" class="cls-16" d="M36.91,49.64a1.54,1.54,0,0,0-.45-1.09L29.9,42a1.55,1.55,0,0,0-2.18,0h0l-6.55,6.55a1.54,1.54,0,0,0-.45,1.09v1.07a1.58,1.58,0,0,0,.44,1.13l6.56,6.56a1.56,1.56,0,0,0,2.19,0l6.55-6.56a1.51,1.51,0,0,0,.45-1.13Z"/><g id="g148"><g class="cls-19"><g id="g146"><g id="g144"><path id="path138" class="cls-18" d="M29.11,58.89h-.65a1.9,1.9,0,0,1-.89-.58L21.36,52.1a1.32,1.32,0,0,1-.25-.28c-.13-.22-.25-.46-.38-.7V49.75H36.94v1.32h0a2,2,0,0,1-.59.93L30.1,58.27a1.15,1.15,0,0,1-.23.21C29.62,58.63,29.36,58.76,29.11,58.89Z"/><path id="path140" class="cls-5" d="M29.11,58.89l.75-.39a1.51,1.51,0,0,0,.23-.21l6.22-6.22a1.84,1.84,0,0,0,.59-.93V58.9Z"/><path id="path142" class="cls-5" d="M20.73,51.08l.38.7a2.16,2.16,0,0,0,.25.27q3.09,3.12,6.21,6.22a1.83,1.83,0,0,0,.89.57l.07.06h-7.8Z"/></g></g></g></g></g><path class="cls-20" d="M90.61,19.93V28.5h-4a5.44,5.44,0,0,0-2-3.78,6.34,6.34,0,0,0-4-1.31,6.23,6.23,0,0,0-4.88,2.12,8.13,8.13,0,0,0-1.88,5.57,9.45,9.45,0,0,0,1.78,5.67,6,6,0,0,0,5.16,2.45,7.11,7.11,0,0,0,6.81-4.46l3.74,1.74q-3,6.78-10.67,6.78a10.49,10.49,0,0,1-8.49-3.69,12.78,12.78,0,0,1-3.1-8.49,11.47,11.47,0,0,1,3.38-8.48,10.75,10.75,0,0,1,7.78-3.34,9.48,9.48,0,0,1,6.39,2.22V19.9Z"/><path class="cls-20" d="M116.31,38.68v4h-7.79V39.87A10.14,10.14,0,0,1,101.29,43a7.9,7.9,0,0,1-5.38-2,6.94,6.94,0,0,1-.51-9.79,7.76,7.76,0,0,1,.65-.63,8.71,8.71,0,0,1,5.85-2.09,11.21,11.21,0,0,1,6.17,1.92V28.17a9,9,0,0,0-.32-2.68,3.51,3.51,0,0,0-1.54-1.69,5.91,5.91,0,0,0-3.16-.75,5.15,5.15,0,0,0-4.85,2.68L93.93,24.6q2.83-5.3,9.8-5.3a12.8,12.8,0,0,1,4.43.69,6.43,6.43,0,0,1,2.77,1.78,5.9,5.9,0,0,1,1.24,2.36,18.51,18.51,0,0,1,.31,4V38.68Zm-8.24-4.48a9.36,9.36,0,0,0-5.84-2.26A4.53,4.53,0,0,0,99.14,33a3.52,3.52,0,0,0-1.25,2.79A3.63,3.63,0,0,0,99,38.5a4,4,0,0,0,3,1.08,8.85,8.85,0,0,0,6.12-2.72Z"/><path class="cls-20" d="M115.93,23.9v-4h3V16.44l4.45-4.08v7.57h4.18v4h-4.2v11a10,10,0,0,0,.3,3.27c.19.42.68.63,1.46.63a6.62,6.62,0,0,0,2.44-.47v4.06a10.26,10.26,0,0,1-3.42.6,5.61,5.61,0,0,1-3.31-.9,3.8,3.8,0,0,1-1.6-2.26,23,23,0,0,1-.32-4.69V23.9Z"/><path class="cls-20" d="M129.94,42.64V34.85h4v.75a3.68,3.68,0,0,0,1.72,2.63,6.21,6.21,0,0,0,3.58,1,6.8,6.8,0,0,0,3.45-.75A2.33,2.33,0,0,0,144,36.39a2,2,0,0,0-1.07-1.9,14.87,14.87,0,0,0-4.23-1.12c-3.14-.53-5.37-1.39-6.7-2.56a5.8,5.8,0,0,1-2-4.59,6,6,0,0,1,2.17-4.72,8.37,8.37,0,0,1,5.74-1.91,11,11,0,0,1,5.54,1.32v-1h4V27.5h-4V26.08a5.89,5.89,0,0,0-5.25-2.79,5.07,5.07,0,0,0-2.9.76,2.32,2.32,0,0,0-1.14,2,1.75,1.75,0,0,0,1,1.77,20.84,20.84,0,0,0,4.49,1,23.36,23.36,0,0,1,5,1.2,6.44,6.44,0,0,1,2.81,2.3,6.51,6.51,0,0,1,1.12,3.8,6,6,0,0,1-2.43,5,11.55,11.55,0,0,1-12.23.21v1.28Z"/><path class="cls-20" d="M160.05,42.74V34.91h4v.76a3.73,3.73,0,0,0,1.74,2.64,6.22,6.22,0,0,0,3.59,1,6.89,6.89,0,0,0,3.47-.76,2.32,2.32,0,0,0,1.3-2.1,2.06,2.06,0,0,0-1.07-1.91,14.81,14.81,0,0,0-4.26-1.13c-3.15-.53-5.39-1.39-6.74-2.57a5.89,5.89,0,0,1-2-4.62,6.12,6.12,0,0,1,2.19-4.78A8.46,8.46,0,0,1,168,19.56a11.07,11.07,0,0,1,5.57,1.33v-1h4v7.57h-4V26.09a5.92,5.92,0,0,0-5.29-2.8,5.12,5.12,0,0,0-2.91.76,2.35,2.35,0,0,0-1.14,2,1.78,1.78,0,0,0,1,1.78,20.94,20.94,0,0,0,4.51,1,23.1,23.1,0,0,1,5,1.21,6.2,6.2,0,0,1,2.81,2.31,6.42,6.42,0,0,1,1.12,3.76,6,6,0,0,1-2.44,5.06,11.58,11.58,0,0,1-12.3.22v1.28Z"/><path class="cls-20" d="M180.45,23.9v-4h3V16.4l4.48-4.1v7.61h4.23v4H187.9V35a10.27,10.27,0,0,0,.3,3.29q.3.63,1.47.63a6.8,6.8,0,0,0,2.46-.47v4.08a10.21,10.21,0,0,1-3.45.61,5.55,5.55,0,0,1-3.32-.91,3.85,3.85,0,0,1-1.61-2.27,23.07,23.07,0,0,1-.33-4.72V23.9Z"/><path class="cls-20" d="M217.34,32.46h-19.2a8.38,8.38,0,0,0,2.5,5.12,7.47,7.47,0,0,0,5.31,2,8.69,8.69,0,0,0,7.43-3.78l4,1.75a11.92,11.92,0,0,1-5,4.44,15,15,0,0,1-6.46,1.45,13.11,13.11,0,0,1-9-3.26,11.14,11.14,0,0,1-3.72-8.81,11.37,11.37,0,0,1,3.62-8.66,11.82,11.82,0,0,1,8.32-3.39,12.25,12.25,0,0,1,8.33,3.31Q217.2,25.91,217.34,32.46Zm-4.62-3.25a8.22,8.22,0,0,0-2.5-4.36,6.94,6.94,0,0,0-5-1.94,6.54,6.54,0,0,0-4.6,1.76,7.48,7.48,0,0,0-2.33,4.54Z"/><path class="cls-20" d="M220.46,51V23.9h-3.84v-4h8.32V23.5a10.29,10.29,0,0,1,8.12-3.94,10.55,10.55,0,0,1,8,3.3,11.91,11.91,0,0,1,3.14,8.59,11.42,11.42,0,0,1-3.41,8.75,11,11,0,0,1-15.81-.29V49Zm4.41-19.33a8.65,8.65,0,0,0,.78,3.61,7.06,7.06,0,0,0,2.48,2.89,6.91,6.91,0,0,0,4,1.16,7.08,7.08,0,0,0,5.3-2.14,8.11,8.11,0,0,0,2.09-5.9,7.44,7.44,0,0,0-2.19-5.71,7.07,7.07,0,0,0-5-2.05,7.18,7.18,0,0,0-5.22,2.23A7.93,7.93,0,0,0,224.87,31.66Z"/></svg>