<?xml version="1.0" encoding="utf-8"?>
<!-- Generator: Adobe Illustrator 19.1.0, SVG Export Plug-In . SVG Version: 6.00 Build 0)  -->
<svg version="1.1" xmlns="http://www.w3.org/2000/svg" xmlns:xlink="http://www.w3.org/1999/xlink" x="0px" y="0px"
	 viewBox="0 0 800 559.5" style="enable-background:new 0 0 800 559.5;" xml:space="preserve" preserveAspectRatio="none">
<style type="text/css">
	.st0{fill:#B07F48;}
	.st1{fill:#845F37;}
	.st2{fill:#7AC2DE;}
	.st3{fill:#5CAFDE;}
	.st4{fill:#EB2A7B;}
	.st5{fill:#662D8E;}
	.st6{fill:#39B24A;}
	.st7{fill:#F6DC32;}
	.st8{fill:#F0F1F2;}
	.st9{fill:#FFFFFF;}
	.st10{fill:#213228;}
	.st11{fill:none;stroke:#A4A6A9;stroke-width:2;stroke-miterlimit:10;}
	.st12{fill:#E0E0E0;}
	.st13{fill:#C4C5C6;stroke:#C4C5C6;stroke-width:3.1293;stroke-linecap:round;stroke-linejoin:round;}
	.st14{fill:#C8D6EC;stroke:#FFFFFF;stroke-width:3.1293;}
	.st15{fill:#BCA30B;}
	.st16{fill:#213A8F;}
	.st17{fill:none;stroke:#FFFFFF;stroke-width:1.5647;}
</style>
<g id="background">
	<rect y="-1.6" class="st0" width="800" height="561"/>
</g>
<g id="object">
	<path class="st1" d="M783.1,503.4c0,8.9-7.3,16.3-16.3,16.2L36.2,519c-8.9,0-16.2-7.3-16.2-16.3l0.3-447c0-8.9,7.3-16.3,16.3-16.2
		l730.6,0.6c8.9,0,16.3,7.3,16.2,16.3L783.1,503.4z"/>
	<path class="st2" d="M778.5,499.4c0,8.9-7.3,16.3-16.3,16.2L31.7,515c-8.9,0-16.2-7.3-16.2-16.3l0.3-447c0-8.9,7.3-16.3,16.3-16.2
		l730.6,0.6c8.9,0,16.3,7.3,16.2,16.3L778.5,499.4z"/>
	<rect x="360.7" y="35.9" class="st3" width="50.7" height="479.5"/>
	<g>
		<path class="st4" d="M135.4,86.4c0,4-3.2,7.2-7.2,7.2H78c-4,0-7.2-3.2-7.2-7.2V67.7c0-4,3.2-7.2,7.2-7.2h50.2c4,0,7.2,3.2,7.2,7.2
			V86.4z"/>
		<path class="st5" d="M198.6,86.4c0,4-3.2,7.2-7.2,7.2h-50.2c-4,0-7.2-3.2-7.2-7.2V67.7c0-4,3.2-7.2,7.2-7.2h50.2
			c4,0,7.2,3.2,7.2,7.2V86.4z"/>
		<path class="st6" d="M261.8,86.4c0,4-3.2,7.2-7.2,7.2h-50.2c-4,0-7.2-3.2-7.2-7.2V67.7c0-4,3.2-7.2,7.2-7.2h50.2
			c4,0,7.2,3.2,7.2,7.2V86.4z"/>
		<path class="st7" d="M325,86.4c0,4-3.2,7.2-7.2,7.2h-50.2c-4,0-7.2-3.2-7.2-7.2V67.7c0-4,3.2-7.2,7.2-7.2h50.2
			c4,0,7.2,3.2,7.2,7.2V86.4z"/>
	</g>
	<polygon class="st8" points="61,491.3 377,491.6 377.6,77.9 61.7,77.7 	"/>
	<polygon class="st8" points="393.6,77.9 393.2,491.8 626.8,492 709.2,492.1 709.2,455.4 709.6,78.1 	"/>
	<polygon class="st9" points="66.7,491.3 382.7,491.6 383,77.9 67.1,77.7 	"/>
	<polygon class="st9" points="388.1,77.9 387.8,491.6 621.3,491.8 703.8,491.9 703.8,455.2 704.1,78.2 	"/>
	<g>
		<g>
			<g>
				<g>
					<g>
						<path class="st3" d="M369.2,435.8c4.5,0,8.2,3.7,8.2,8.2c0,4.5-3.7,8.2-8.2,8.2c-4.5,0-8.2-3.7-8.2-8.2
							C361,439.4,364.6,435.8,369.2,435.8z"/>
					</g>
				</g>
				<g>
					<g>
						<path class="st3" d="M369.2,402.9c4.5,0,8.2,3.7,8.2,8.2c0,4.5-3.7,8.2-8.2,8.2c-4.5,0-8.2-3.7-8.2-8.2
							C361,406.5,364.7,402.9,369.2,402.9z"/>
					</g>
				</g>
				<g>
					<g>
						<path class="st3" d="M369.2,370c4.5,0,8.2,3.7,8.2,8.2c0,4.5-3.7,8.2-8.2,8.2c-4.5,0-8.2-3.7-8.2-8.2
							C361,373.7,364.7,370,369.2,370z"/>
					</g>
				</g>
				<g>
					<g>
						<path class="st3" d="M369.2,337.1c4.5,0,8.2,3.7,8.2,8.2c0,4.5-3.7,8.2-8.2,8.2c-4.5,0-8.2-3.7-8.2-8.2
							C361,340.8,364.7,337.1,369.2,337.1z"/>
					</g>
				</g>
				<g>
					<g>
						<path class="st3" d="M369.3,304.2c4.5,0,8.2,3.7,8.2,8.2c0,4.5-3.7,8.2-8.2,8.2c-4.5,0-8.2-3.7-8.2-8.2
							C361.1,307.9,364.7,304.2,369.3,304.2z"/>
					</g>
				</g>
				<g>
					<g>
						<path class="st3" d="M369.3,271.4c4.5,0,8.2,3.7,8.2,8.2c0,4.5-3.7,8.2-8.2,8.2c-4.5,0-8.2-3.7-8.2-8.2
							C361.1,275,364.8,271.4,369.3,271.4z"/>
					</g>
				</g>
				<g>
					<g>
						<path class="st3" d="M369.3,238.5c4.5,0,8.2,3.7,8.2,8.2c0,4.5-3.7,8.2-8.2,8.2c-4.5,0-8.2-3.7-8.2-8.2
							C361.1,242.1,364.8,238.5,369.3,238.5z"/>
					</g>
				</g>
				<g>
					<g>
						<path class="st3" d="M369.3,205.6c4.5,0,8.2,3.7,8.2,8.2c0,4.5-3.7,8.2-8.2,8.2c-4.5,0-8.2-3.7-8.2-8.2
							C361.2,209.3,364.8,205.6,369.3,205.6z"/>
					</g>
				</g>
				<g>
					<g>
						<path class="st3" d="M369.4,172.7c4.5,0,8.2,3.7,8.2,8.2c0,4.5-3.7,8.2-8.2,8.2c-4.5,0-8.2-3.7-8.2-8.2
							C361.2,176.4,364.9,172.7,369.4,172.7z"/>
					</g>
				</g>
				<g>
					<g>
						<path class="st3" d="M369.4,139.9c4.5,0,8.2,3.7,8.2,8.2c0,4.5-3.7,8.2-8.2,8.2c-4.5,0-8.2-3.7-8.2-8.2
							C361.2,143.5,364.9,139.9,369.4,139.9z"/>
					</g>
				</g>
				<g>
					<g>
						<path class="st3" d="M369.4,107c4.5,0,8.2,3.7,8.2,8.2c0,4.5-3.7,8.2-8.2,8.2c-4.5,0-8.2-3.7-8.2-8.2
							C361.2,110.6,364.9,107,369.4,107z"/>
					</g>
				</g>
			</g>
			<g>
				<g>
					<g>
						<path class="st3" d="M401.4,435.8c-4.5,0-8.2,3.7-8.2,8.2c0,4.5,3.7,8.2,8.2,8.2c4.5,0,8.2-3.7,8.2-8.2
							C409.6,439.5,406,435.8,401.4,435.8z"/>
					</g>
				</g>
				<g>
					<g>
						<path class="st3" d="M401.5,402.9c-4.5,0-8.2,3.7-8.2,8.2c0,4.5,3.7,8.2,8.2,8.2c4.5,0,8.2-3.7,8.2-8.2
							C409.7,406.6,406,402.9,401.5,402.9z"/>
					</g>
				</g>
				<g>
					<g>
						<path class="st3" d="M401.5,370c-4.5,0-8.2,3.7-8.2,8.2c0,4.5,3.7,8.2,8.2,8.2c4.5,0,8.2-3.7,8.2-8.2
							C409.7,373.7,406,370,401.5,370z"/>
					</g>
				</g>
				<g>
					<g>
						<path class="st3" d="M401.5,337.1c-4.5,0-8.2,3.7-8.2,8.2c0,4.5,3.7,8.2,8.2,8.2c4.5,0,8.2-3.7,8.2-8.2
							C409.7,340.8,406,337.1,401.5,337.1z"/>
					</g>
				</g>
				<g>
					<g>
						<path class="st3" d="M401.6,304.3c-4.5,0-8.2,3.7-8.2,8.2c0,4.5,3.7,8.2,8.2,8.2c4.5,0,8.2-3.7,8.2-8.2
							C409.7,307.9,406.1,304.3,401.6,304.3z"/>
					</g>
				</g>
				<g>
					<g>
						<path class="st3" d="M401.6,271.4c-4.5,0-8.2,3.7-8.2,8.2c0,4.5,3.7,8.2,8.2,8.2c4.5,0,8.2-3.7,8.2-8.2
							C409.8,275.1,406.1,271.4,401.6,271.4z"/>
					</g>
				</g>
				<g>
					<g>
						<path class="st3" d="M401.6,238.5c-4.5,0-8.2,3.7-8.2,8.2c0,4.5,3.7,8.2,8.2,8.2c4.5,0,8.2-3.7,8.2-8.2
							C409.8,242.2,406.1,238.5,401.6,238.5z"/>
					</g>
				</g>
				<g>
					<g>
						<path class="st3" d="M401.6,205.6c-4.5,0-8.2,3.7-8.2,8.2c0,4.5,3.7,8.2,8.2,8.2c4.5,0,8.2-3.7,8.2-8.2
							C409.8,209.3,406.1,205.6,401.6,205.6z"/>
					</g>
				</g>
				<g>
					<g>
						<path class="st3" d="M401.7,172.8c-4.5,0-8.2,3.7-8.2,8.2c0,4.5,3.7,8.2,8.2,8.2c4.5,0,8.2-3.7,8.2-8.2
							C409.8,176.4,406.2,172.8,401.7,172.8z"/>
					</g>
				</g>
				<g>
					<g>
						<path class="st3" d="M401.7,139.9c-4.5,0-8.2,3.7-8.2,8.2c0,4.5,3.7,8.2,8.2,8.2c4.5,0,8.2-3.7,8.2-8.2
							C409.9,143.6,406.2,139.9,401.7,139.9z"/>
					</g>
				</g>
				<g>
					<g>
						<path class="st3" d="M401.7,107c-4.5,0-8.2,3.7-8.2,8.2c0,4.5,3.7,8.2,8.2,8.2c4.5,0,8.2-3.7,8.2-8.2
							C409.9,110.7,406.2,107,401.7,107z"/>
					</g>
				</g>
			</g>
		</g>
	</g>
	<g>
		<g>
			<path class="st10" d="M397.1,373.1l-7.6,0l-8.3,0l-0.8,0l-6.8,0c-1.9,0-3.4,1.9-3.4,4.4c0,2.5,1.5,4.4,3.4,4.4l6.8,0l0.8,0l8.3,0
				l7.6,0c1.9,0,3.4-1.9,3.4-4.4C400.5,375,399,373.1,397.1,373.1z M397.1,379.5l-7.6,0l-8.3,0l-3.8,0l-3.7,0
				c-0.5,0-1.2-0.9-1.2-2.1c0-1.2,0.6-2.1,1.1-2.1l5.3,0l2.3,0l8.3,0l7.6,0c0.5,0,1.2,0.9,1.2,2.1
				C398.2,378.6,397.6,379.5,397.1,379.5z"/>
			<path class="st10" d="M397.8,110.7l-7.6,0l-8.3,0l-0.8,0l-6.8,0c-1.9,0-3.4,1.9-3.4,4.4c0,2.5,1.5,4.4,3.4,4.4l6.8,0l0.8,0l8.3,0
				l7.6,0c1.9,0,3.4-1.9,3.4-4.4C401.2,112.6,399.7,110.7,397.8,110.7z M397.8,117.1l-7.6,0l-8.3,0l-3.8,0l-3.7,0
				c-0.5,0-1.2-0.9-1.2-2.1c0-1.2,0.6-2.1,1.2-2.1l5.3,0l2.3,0l8.3,0l7.6,0c0.5,0,1.2,0.9,1.2,2.1
				C399,116.2,398.4,117.1,397.8,117.1z"/>
			<path class="st10" d="M397,405.6l-7.6,0l-8.3,0h-0.8l-6.8,0c-1.9,0-3.4,1.9-3.4,4.4c0,2.5,1.5,4.4,3.4,4.4l6.8,0h0.8l8.3,0l7.6,0
				c1.9,0,3.4-1.9,3.5-4.4C400.5,407.5,399,405.6,397,405.6z M397,412.1l-7.6,0l-8.3,0l-3.8,0l-3.7,0c-0.5,0-1.2-0.9-1.2-2.1
				c0-1.2,0.6-2.1,1.2-2.1l5.3,0l2.3,0l8.3,0l7.6,0c0.6,0,1.2,0.9,1.2,2.1C398.2,411.2,397.6,412.1,397,412.1z"/>
			<path class="st10" d="M397.1,438.4l-7.6,0l-8.3,0l-0.8,0l-6.8,0c-1.9,0-3.4,1.9-3.4,4.4c0,2.5,1.5,4.4,3.4,4.4l6.8,0l0.8,0l8.3,0
				l7.6,0c1.9,0,3.4-1.9,3.4-4.4C400.5,440.3,399,438.4,397.1,438.4z M397.1,444.8l-7.6,0l-8.3,0l-3.8,0l-3.7,0
				c-0.5,0-1.1-0.9-1.1-2.1c0-1.2,0.6-2.1,1.2-2.1l5.3,0h2.3l8.3,0l7.6,0c0.5,0,1.2,0.9,1.2,2.1
				C398.2,443.9,397.6,444.8,397.1,444.8z"/>
			<path class="st10" d="M397.8,144.2l-7.6,0l-8.3,0l-0.8,0l-6.8,0c-1.9,0-3.4,1.9-3.4,4.4c0,2.5,1.5,4.4,3.4,4.4l6.8,0l0.8,0l8.3,0
				l7.6,0c1.9,0,3.4-1.9,3.4-4.4C401.3,146.2,399.8,144.2,397.8,144.2z M397.8,150.7l-7.6,0l-8.3,0l-3.8,0l-3.7,0
				c-0.5,0-1.2-0.9-1.1-2.1c0-1.2,0.6-2.1,1.2-2.1l5.3,0l2.3,0l8.3,0l7.6,0c0.5,0,1.2,0.9,1.2,2.1
				C399,149.8,398.4,150.7,397.8,150.7z"/>
			<path class="st10" d="M397.6,177.4l-7.6,0l-8.3,0l-0.8,0l-6.8,0c-1.9,0-3.4,1.9-3.4,4.4c0,2.5,1.5,4.4,3.4,4.4l6.8,0l0.8,0l8.3,0
				l7.6,0c1.9,0,3.5-1.9,3.5-4.4C401.1,179.3,399.6,177.4,397.6,177.4z M397.6,183.9l-7.6,0l-8.3,0l-3.8,0l-3.7,0
				c-0.5,0-1.2-0.9-1.2-2.1c0-1.2,0.6-2.1,1.2-2.1l5.3,0l2.3,0l8.3,0l7.6,0c0.5,0,1.2,0.9,1.2,2.1
				C398.8,183,398.2,183.9,397.6,183.9z"/>
			<path class="st10" d="M397.5,209.8l-7.6,0l-8.3,0l-0.8,0l-6.8,0c-1.9,0-3.4,1.9-3.4,4.4c0,2.5,1.5,4.4,3.4,4.4l6.8,0l0.8,0l8.3,0
				l7.6,0c1.9,0,3.4-1.9,3.4-4.4C401,211.7,399.5,209.8,397.5,209.8z M397.5,216.2l-7.6,0l-8.3,0l-3.8,0h-3.7
				c-0.5,0-1.2-0.9-1.2-2.1c0-1.2,0.6-2.1,1.2-2.1l5.3,0l2.3,0l8.3,0l7.6,0c0.5,0,1.2,0.9,1.2,2.1
				C398.7,215.3,398.1,216.2,397.5,216.2z"/>
			<path class="st10" d="M397.4,242.6l-7.6,0l-8.3,0l-0.8,0l-6.8,0c-1.9,0-3.4,1.9-3.4,4.4c0,2.5,1.5,4.4,3.4,4.4l6.8,0h0.8l8.3,0
				l7.6,0c1.9,0,3.4-1.9,3.4-4.4C400.9,244.6,399.4,242.6,397.4,242.6z M397.4,249.1l-7.6,0l-8.3,0l-3.8,0l-3.7,0
				c-0.5,0-1.2-0.9-1.2-2.1c0-1.2,0.6-2.1,1.2-2.1l5.3,0l2.3,0l8.3,0l7.6,0c0.5,0,1.2,0.9,1.2,2.1
				C398.6,248.2,398,249.1,397.4,249.1z"/>
			<path class="st10" d="M397.3,275.2l-7.6,0l-8.3,0h-0.8l-6.8,0c-1.9,0-3.4,1.9-3.4,4.4c0,2.5,1.5,4.4,3.4,4.4l6.8,0h0.8l8.3,0
				l7.6,0c1.9,0,3.4-1.9,3.4-4.4C400.8,277.2,399.3,275.2,397.3,275.2z M397.3,281.7l-7.6,0l-8.3,0l-3.8,0l-3.7,0
				c-0.5,0-1.2-0.9-1.1-2.1c0-1.2,0.6-2.1,1.2-2.1l5.3,0l2.3,0l8.3,0l7.6,0c0.5,0,1.2,0.9,1.2,2.1
				C398.5,280.8,397.9,281.7,397.3,281.7z"/>
			<path class="st10" d="M397.3,307.8l-7.6,0l-8.3,0l-0.8,0l-6.8,0c-1.9,0-3.4,1.9-3.4,4.4c0,2.5,1.5,4.4,3.4,4.4l6.8,0l0.8,0l8.3,0
				l7.6,0c1.9,0,3.4-1.9,3.4-4.4C400.7,309.8,399.2,307.8,397.3,307.8z M397.3,314.3l-7.6,0l-8.3,0l-3.8,0l-3.7,0
				c-0.5,0-1.1-0.9-1.1-2.1c0-1.2,0.6-2.1,1.2-2.1l5.3,0l2.3,0l8.3,0l7.6,0c0.5,0,1.2,0.9,1.2,2.1
				C398.4,313.4,397.8,314.3,397.3,314.3z"/>
			<path class="st10" d="M397.2,340.5l-7.6,0l-8.3,0l-0.8,0l-6.8,0c-1.9,0-3.4,1.9-3.4,4.4c0,2.5,1.5,4.4,3.4,4.4l6.8,0l0.8,0l8.3,0
				l7.6,0c1.9,0,3.4-1.9,3.4-4.4C400.6,342.4,399.1,340.5,397.2,340.5z M397.2,346.9l-7.6,0l-8.3,0l-3.8,0l-3.7,0
				c-0.5,0-1.2-0.9-1.2-2.1c0-1.2,0.6-2.1,1.2-2.1l5.3,0l2.3,0l8.3,0l7.6,0c0.5,0,1.2,0.9,1.2,2.1
				C398.3,346,397.7,346.9,397.2,346.9z"/>
		</g>
	</g>
	<line class="st11" x1="79.2" y1="473.1" x2="340.7" y2="473.1"/>
	<line class="st11" x1="429.6" y1="473.1" x2="691.2" y2="473.1"/>
</g>
<g id="Pen">
	<g>
		<g>
			<g>
				<path class="st12" d="M740.9,153.4l6.1-18.9c1.5,4.4,6.2,18.7,6.2,18.7L740.9,153.4z"/>
				<polygon class="st3" points="737.9,454.9 736.1,187.8 739,154.5 754.6,154.4 757.7,187.8 759.7,455 				"/>
			</g>
			<g>
				<path class="st12" d="M739.9,155.3l7-25.6c1.5,4.4,7.3,24.5,7.3,24.5L739.9,155.3z"/>
				<line class="st2" x1="757.7" y1="192.7" x2="758.2" y2="259.8"/>
				<polyline class="st12" points="736.9,311.5 736.1,187.8 739,154.5 754.6,154.4 757.7,187.8 757.7,192.7 743.5,188.9 				"/>
			</g>
		</g>
		<path class="st12" d="M744.8,136.6l0-4.7c0-1.2,1-2.2,2.1-2.2l0,0c1.2,0,2.2,0.9,2.2,2.1l0,4.7L744.8,136.6z"/>
		<g>
			<g>
				<path class="st12" d="M740.9,153.4l6.1-18.9c1.5,4.4,6.2,18.7,6.2,18.7L740.9,153.4z"/>
			</g>
			<g>
				<path class="st12" d="M739.9,155.3l7-25.6c1.5,4.4,7.3,24.5,7.3,24.5L739.9,155.3z"/>
				<polyline class="st3" points="736.9,311.5 736.1,187.8 739,154.5 754.6,154.4 757.7,187.8 757.7,192.7 743.5,188.9 				"/>
			</g>
		</g>
	</g>
	<g>
		<g>
			<g>
				<path class="st12" d="M740.9,153.4l6.1-18.9c1.5,4.4,6.2,18.7,6.2,18.7L740.9,153.4z"/>
			</g>
			<g>
				<path class="st3" d="M739.9,155.3l7-25.6c1.5,4.4,7.3,24.5,7.3,24.5L739.9,155.3z"/>
				<line class="st12" x1="736.9" y1="311.5" x2="736.1" y2="187.8"/>
			</g>
		</g>
		<path class="st3" d="M744.8,136.6l0-4.7c0-1.2,1-2.2,2.1-2.2l0,0c1.2,0,2.2,0.9,2.2,2.1l0,4.7L744.8,136.6z"/>
	</g>
	<g>
		<g>
			<g>
				<g>
					<path class="st13" d="M736.3,149.3l6.1-18.9c1.5,4.4,6.2,18.7,6.2,18.7L736.3,149.3z"/>
					<polygon class="st14" points="733.3,450.7 731.5,183.7 734.3,150.4 750,150.2 753.1,183.7 755.1,450.8 					"/>
				</g>
			</g>
		</g>
	</g>
	<path class="st15" d="M740.3,131.6l0-4.7c0-1.2,1-2.2,2.1-2.2l0,0c1.2,0,2.2,0.9,2.2,2.1l0,4.7L740.3,131.6z"/>
	<polygon class="st16" points="740.8,311.4 739.1,152 743.9,151.9 746,311.3 	"/>
	<path class="st16" d="M754.6,453.1l-22,0.3c0,0,3.1,5.7,11.2,5.8S754.6,453.1,754.6,453.1z"/>
	<polygon class="st16" points="739.9,449.3 740,438.5 749.7,438.2 749.6,449 	"/>
	<line class="st17" x1="737" y1="151.6" x2="740.1" y2="450.6"/>
	<line class="st17" x1="746" y1="151" x2="749.2" y2="450"/>
	<path class="st16" d="M740.2,126.8c0-1.2,1-2.2,2.1-2.2l0,0c1.2,0,2.2,0.9,2.2,2.1"/>
</g>
</svg>
