<?xml version="1.0" encoding="utf-8"?>
<!-- Generator: Adobe Illustrator 19.1.0, SVG Export Plug-In . SVG Version: 6.00 Build 0)  -->
<svg version="1.1" id="Layer_1" xmlns="http://www.w3.org/2000/svg" xmlns:xlink="http://www.w3.org/1999/xlink" x="0px" y="0px"
	 width="800px" height="94.4px" viewBox="0 0 800 94.4" style="enable-background:new 0 0 800 94.4;" xml:space="preserve" preserveAspectRatio="none">
<style type="text/css">
	.st0{fill:#B07F48;}
	.st1{fill:#845F37;}
	.st2{fill:#7AC2DE;}
	.st3{fill:#5CAFDE;}
	.st4{fill:#F0F1F2;}
	.st5{fill:#FFFFFF;}
</style>
<polyline class="st0" points="0,0 0,94.4 800,94.4 800,0 "/>
<path class="st1" d="M20,0l0,37.7c0,9,7.3,16.3,16.2,16.3l730.6,0.6c9,0.1,16.3-7.3,16.3-16.2l0-38.4"/>
<path class="st2" d="M15.5,0l0,33.7c0,9,7.3,16.3,16.2,16.3l730.5,0.6c9,0.1,16.3-7.3,16.3-16.2l0-34.4"/>
<polyline class="st3" points="360.7,0 360.7,50.4 411.4,50.4 411.4,0 "/>
<polyline class="st4" points="61,0 61,26.3 377,26.6 377,0 "/>
<polyline class="st4" points="393.2,0 393.2,26.8 626.8,27 709.2,27.1 709.2,0 "/>
<polyline class="st5" points="66.7,0 66.7,26.3 382.7,26.6 382.7,0 "/>
<polyline class="st5" points="387.8,0 387.8,26.6 621.3,26.8 703.8,26.9 703.8,0 "/>
</svg>
