<?xml version="1.0" encoding="utf-8"?>
<!-- Generator: Adobe Illustrator 19.1.0, SVG Export Plug-In . SVG Version: 6.00 Build 0)  -->
<svg version="1.1" id="Layer_1" xmlns="http://www.w3.org/2000/svg" xmlns:xlink="http://www.w3.org/1999/xlink" x="0px" y="0px"
	 width="800px" height="95.2px" viewBox="0 0 800 95.2" style="enable-background:new 0 0 800 95.2;" xml:space="preserve" preserveAspectRatio="none">
<style type="text/css">
	.st0{fill:#B07F48;}
	.st1{fill:#845F37;}
	.st2{fill:#7AC2DE;}
	.st3{fill:#5CAFDE;}
	.st4{fill:#EB2A7B;}
	.st5{fill:#662D8E;}
	.st6{fill:#39B24A;}
	.st7{fill:#F6DC32;}
	.st8{fill:#F0F1F2;}
	.st9{fill:#FFFFFF;}
</style>
<polyline class="st0" points="800,95.2 800,0 0,0 0,95.2 "/>
<path class="st1" d="M783.4,95.2l0-37.2c0.1-9-7.3-16.3-16.2-16.3L36.6,41.1c-9-0.1-16.3,7.3-16.3,16.2l0,37.9"/>
<path class="st2" d="M778.9,95.2l0-41.2c0.1-9-7.3-16.3-16.2-16.3L32.1,37.1c-9-0.1-16.3,7.3-16.3,16.2l0,41.9"/>
<polyline class="st3" points="411.4,95.2 411.4,37.5 360.7,37.5 360.7,95.2 "/>
<path class="st4" d="M135.4,88V69.3c0-4-3.2-7.2-7.2-7.2H78c-4,0-7.2,3.2-7.2,7.2V88"/>
<path class="st5" d="M198.6,88V69.3c0-4-3.2-7.2-7.2-7.2h-50.2c-4,0-7.2,3.2-7.2,7.2V88"/>
<path class="st6" d="M261.8,88V69.3c0-4-3.2-7.2-7.2-7.2h-50.2c-4,0-7.2,3.2-7.2,7.2V88"/>
<path class="st7" d="M325,88V69.3c0-4-3.2-7.2-7.2-7.2h-50.2c-4,0-7.2,3.2-7.2,7.2V88"/>
<polyline class="st8" points="377.6,95.2 377.6,79.5 61.7,79.3 61.7,95.2 "/>
<polyline class="st8" points="709.6,95.2 709.6,79.7 393.6,79.5 393.6,95.2 "/>
<polyline class="st9" points="383,95.2 383,79.5 67.1,79.3 67.1,95.2 "/>
<polyline class="st9" points="704.1,95.2 704.1,79.8 388.1,79.5 388.1,95.2 "/>
</svg>
