<?xml version="1.0" encoding="utf-8"?>
<!-- Generator: Adobe Illustrator 19.1.0, SVG Export Plug-In . SVG Version: 6.00 Build 0)  -->
<svg version="1.1" id="Layer_1" xmlns="http://www.w3.org/2000/svg" xmlns:xlink="http://www.w3.org/1999/xlink" x="0px" y="0px"
	 width="452px" height="74.7px" viewBox="-253 243.3 452 74.7" style="enable-background:new -253 243.3 452 74.7;"
	 xml:space="preserve" preserveAspectRatio="none">
<style type="text/css">
	.st0{fill:#B07F48;}
	.st1{fill:#845F37;}
	.st2{fill:#7AC2DE;}
	.st3{fill:#5CAFDE;}
	.st4{fill:#F0F1F2;}
	.st5{fill:#FFFFFF;}
	.st6{fill:none;stroke:#A4A6A9;stroke-width:2;stroke-miterlimit:10;}
</style>
<rect x="-253" y="243.3" class="st0" width="382.9" height="74.7"/>
<rect x="129.9" y="243.3" class="st0" width="69.1" height="74.7"/>
<path class="st1" d="M-233,243.3v41.4c0,9,7.3,16.3,16.2,16.3l346.7,0.3v-58"/>
<path class="st2" d="M-221.3,297l351.2,0.3v-54h-367.4v37.4C-237.5,289.7-230.2,297-221.3,297z"/>
<polyline class="st3" points="107.7,243.3 107.7,297.4 129.9,297.4 129.9,243.3 "/>
<polyline class="st4" points="-191.9,243.3 -192,273.3 124,273.6 124,243.3 "/>
<polyline class="st5" points="-233,243.3 -233,273.3 129.7,273.6 129.7,243.3 "/>
<line class="st6" x1="-173.8" y1="255.1" x2="87.7" y2="255.1"/>
</svg>
