<?xml version="1.0" encoding="utf-8"?>
<!-- Generator: Adobe Illustrator 19.1.0, SVG Export Plug-In . SVG Version: 6.00 Build 0)  -->
<svg version="1.1" id="Layer_1" xmlns="http://www.w3.org/2000/svg" xmlns:xlink="http://www.w3.org/1999/xlink" x="0px" y="0px"
	 width="800px" height="371.4px" viewBox="0 0 800 371.4" style="enable-background:new 0 0 800 371.4;" xml:space="preserve" preserveAspectRatio="none">
<style type="text/css">
	.st0{fill:#B07F48;}
	.st1{fill:#845F37;}
	.st2{fill:#7AC2DE;}
	.st3{fill:#5CAFDE;}
	.st4{fill:#F0F1F2;}
	.st5{fill:#FFFFFF;}
	.st6{fill:#213228;}
	.st7{fill:#E0E0E0;}
	.st8{fill:none;}
	.st9{fill:#C4C5C6;stroke:#C4C5C6;stroke-width:3.1293;stroke-linecap:round;stroke-linejoin:round;}
	.st10{fill:#C8D6EC;stroke:#FFFFFF;stroke-width:3.1293;}
	.st11{fill:#BCA30B;}
	.st12{fill:#213A8F;}
	.st13{fill:none;stroke:#FFFFFF;stroke-width:1.5647;}
</style>
<rect class="st0" width="800" height="371.4"/>
<line class="st0" x1="800" y1="371.4" x2="0" y2="371.4"/>
<polygon class="st1" points="20.3,0 20,371.4 783.1,371.4 783.4,0 "/>
<line class="st1" x1="783.1" y1="371.4" x2="20" y2="371.4"/>
<polygon class="st2" points="15.8,0 15.5,371.4 778.5,371.4 778.9,0 "/>
<line class="st2" x1="778.5" y1="371.4" x2="15.5" y2="371.4"/>
<rect x="360.7" class="st3" width="50.7" height="371.4"/>
<line class="st3" x1="411.4" y1="371.4" x2="360.7" y2="371.4"/>
<polygon class="st4" points="61.7,0 61,371.4 377,371.4 377.6,0 "/>
<line class="st4" x1="377" y1="371.4" x2="61" y2="371.4"/>
<polygon class="st4" points="709.6,0 393.6,0 393.2,371.4 709.2,371.4 709.2,361.8 "/>
<line class="st4" x1="709.2" y1="371.4" x2="393.2" y2="371.4"/>
<polygon class="st5" points="67.1,0 66.7,371.4 382.7,371.4 383,0 "/>
<line class="st5" x1="382.7" y1="371.4" x2="66.7" y2="371.4"/>
<polygon class="st5" points="704.1,0 388.1,0 387.8,371.4 703.8,371.4 703.8,361.6 "/>
<line class="st5" x1="703.8" y1="371.4" x2="387.8" y2="371.4"/>
<g>
	<g>
		<path class="st3" d="M369.2,342.2c-4.6,0-8.2,3.6-8.2,8.2c0,4.5,3.7,8.2,8.2,8.2s8.2-3.7,8.2-8.2S373.7,342.2,369.2,342.2z"/>
	</g>
</g>
<g>
	<g>
		<path class="st3" d="M369.2,309.3c-4.5,0-8.2,3.6-8.2,8.2c0,4.5,3.7,8.2,8.2,8.2s8.2-3.7,8.2-8.2S373.7,309.3,369.2,309.3z"/>
	</g>
</g>
<g>
	<g>
		<path class="st3" d="M369.2,276.4c-4.5,0-8.2,3.7-8.2,8.2s3.7,8.2,8.2,8.2s8.2-3.7,8.2-8.2S373.7,276.4,369.2,276.4z"/>
	</g>
</g>
<g>
	<g>
		<path class="st3" d="M369.2,243.5c-4.5,0-8.2,3.7-8.2,8.2s3.7,8.2,8.2,8.2s8.2-3.7,8.2-8.2S373.7,243.5,369.2,243.5z"/>
	</g>
</g>
<g>
	<g>
		<path class="st3" d="M369.3,210.6c-4.6,0-8.2,3.7-8.2,8.2c0,4.5,3.7,8.2,8.2,8.2s8.2-3.7,8.2-8.2S373.8,210.6,369.3,210.6z"/>
	</g>
</g>
<g>
	<g>
		<path class="st3" d="M369.3,177.8c-4.5,0-8.2,3.6-8.2,8.2c0,4.5,3.7,8.2,8.2,8.2s8.2-3.7,8.2-8.2S373.8,177.8,369.3,177.8z"/>
	</g>
</g>
<g>
	<g>
		<path class="st3" d="M369.3,144.9c-4.5,0-8.2,3.6-8.2,8.2c0,4.5,3.7,8.2,8.2,8.2s8.2-3.7,8.2-8.2S373.8,144.9,369.3,144.9z"/>
	</g>
</g>
<g>
	<g>
		<path class="st3" d="M369.3,112c-4.5,0-8.1,3.7-8.2,8.2c0,4.5,3.7,8.2,8.2,8.2s8.2-3.7,8.2-8.2S373.8,112,369.3,112z"/>
	</g>
</g>
<g>
	<g>
		<path class="st3" d="M369.4,79.1c-4.5,0-8.2,3.7-8.2,8.2s3.7,8.2,8.2,8.2s8.2-3.7,8.2-8.2S373.9,79.1,369.4,79.1z"/>
	</g>
</g>
<g>
	<g>
		<path class="st3" d="M369.4,46.3c-4.5,0-8.2,3.6-8.2,8.2c0,4.5,3.7,8.2,8.2,8.2s8.2-3.7,8.2-8.2S373.9,46.3,369.4,46.3z"/>
	</g>
</g>
<g>
	<g>
		<path class="st3" d="M401.4,342.2c-4.5,0-8.2,3.7-8.2,8.2s3.7,8.2,8.2,8.2s8.2-3.7,8.2-8.2S406,342.2,401.4,342.2z"/>
	</g>
</g>
<g>
	<g>
		<path class="st3" d="M401.5,309.3c-4.5,0-8.2,3.7-8.2,8.2s3.7,8.2,8.2,8.2s8.2-3.7,8.2-8.2S406,309.3,401.5,309.3z"/>
	</g>
</g>
<g>
	<g>
		<path class="st3" d="M401.5,276.4c-4.5,0-8.2,3.7-8.2,8.2s3.7,8.2,8.2,8.2s8.2-3.7,8.2-8.2S406,276.4,401.5,276.4z"/>
	</g>
</g>
<g>
	<g>
		<path class="st3" d="M401.5,243.5c-4.5,0-8.2,3.7-8.2,8.2s3.7,8.2,8.2,8.2s8.2-3.7,8.2-8.2S406,243.5,401.5,243.5z"/>
	</g>
</g>
<g>
	<g>
		<path class="st3" d="M401.6,210.7c-4.5,0-8.2,3.7-8.2,8.2s3.7,8.2,8.2,8.2s8.2-3.7,8.2-8.2C409.7,214.3,406.1,210.7,401.6,210.7z"
			/>
	</g>
</g>
<g>
	<g>
		<path class="st3" d="M401.6,177.8c-4.5,0-8.2,3.7-8.2,8.2s3.7,8.2,8.2,8.2s8.2-3.7,8.2-8.2C409.8,181.5,406.1,177.8,401.6,177.8z"
			/>
	</g>
</g>
<g>
	<g>
		<path class="st3" d="M401.6,144.9c-4.5,0-8.2,3.7-8.2,8.2s3.7,8.2,8.2,8.2s8.2-3.7,8.2-8.2C409.8,148.6,406.1,144.9,401.6,144.9z"
			/>
	</g>
</g>
<g>
	<g>
		<path class="st3" d="M401.6,112c-4.5,0-8.2,3.7-8.2,8.2s3.7,8.2,8.2,8.2s8.2-3.7,8.2-8.2C409.8,115.7,406.1,112,401.6,112z"/>
	</g>
</g>
<g>
	<g>
		<path class="st3" d="M401.7,79.2c-4.5,0-8.2,3.7-8.2,8.2s3.7,8.2,8.2,8.2s8.2-3.7,8.2-8.2C409.8,82.8,406.2,79.2,401.7,79.2z"/>
	</g>
</g>
<g>
	<g>
		<path class="st3" d="M401.7,46.3c-4.5,0-8.2,3.7-8.2,8.2s3.7,8.2,8.2,8.2s8.2-3.7,8.2-8.2S406.2,46.3,401.7,46.3z"/>
	</g>
</g>
<path class="st6" d="M397.1,279.5h-7.6h-8.3h-0.8h-6.8c-1.9,0-3.4,1.9-3.4,4.4s1.5,4.4,3.4,4.4h6.8h0.8h8.3h7.6
	c1.9,0,3.4-1.9,3.4-4.4S399,279.5,397.1,279.5z M397.1,285.9h-7.6h-8.3h-3.8h-3.7c-0.5,0-1.2-0.9-1.2-2.1s0.6-2.1,1.1-2.1h5.3h2.3
	h8.3h7.6c0.5,0,1.2,0.9,1.2,2.1C398.2,285,397.6,285.9,397.1,285.9z"/>
<path class="st6" d="M397,312h-7.6h-8.3h-0.8h-6.8c-1.9,0-3.4,1.9-3.4,4.4s1.5,4.4,3.4,4.4h6.8h0.8h8.3h7.6c1.9,0,3.4-1.9,3.5-4.4
	C400.5,313.9,399,312,397,312z M397,318.5h-7.6h-8.3h-3.8h-3.7c-0.5,0-1.2-0.9-1.2-2.1s0.6-2.1,1.2-2.1h5.3h2.3h8.3h7.6
	c0.6,0,1.2,0.9,1.2,2.1C398.2,317.6,397.6,318.5,397,318.5z"/>
<path class="st6" d="M397.1,344.8h-7.6h-8.3h-0.8h-6.8c-1.9,0-3.4,1.9-3.4,4.4s1.5,4.4,3.4,4.4h6.8h0.8h8.3h7.6
	c1.9,0,3.4-1.9,3.4-4.4S399,344.8,397.1,344.8z M397.1,351.2h-7.6h-8.3h-3.8h-3.7c-0.5,0-1.1-0.9-1.1-2.1s0.6-2.1,1.2-2.1h5.3h2.3
	h8.3h7.6c0.5,0,1.2,0.9,1.2,2.1C398.2,350.3,397.6,351.2,397.1,351.2z"/>
<path class="st6" d="M397.8,50.6h-7.6h-8.3h-0.8h-6.8c-1.9,0-3.4,1.9-3.4,4.4s1.5,4.4,3.4,4.4h6.8h0.8h8.3h7.6
	c1.9,0,3.4-1.9,3.4-4.4C401.3,52.6,399.8,50.6,397.8,50.6z M397.8,57.1h-7.6h-8.3h-3.8h-3.7c-0.5,0-1.2-0.9-1.1-2.1
	c0-1.2,0.6-2.1,1.2-2.1h5.3h2.3h8.3h7.6c0.5,0,1.2,0.9,1.2,2.1C399,56.2,398.4,57.1,397.8,57.1z"/>
<path class="st6" d="M397.6,83.8H390h-8.3h-0.8h-6.8c-1.9,0-3.4,1.9-3.4,4.4s1.5,4.4,3.4,4.4h6.8h0.8h8.3h7.6c1.9,0,3.5-1.9,3.5-4.4
	S399.6,83.8,397.6,83.8z M397.6,90.3H390h-8.3h-3.8h-3.7c-0.5,0-1.2-0.9-1.2-2.1s0.6-2.1,1.2-2.1h5.3h2.3h8.3h7.6
	c0.5,0,1.2,0.9,1.2,2.1C398.8,89.4,398.2,90.3,397.6,90.3z"/>
<path class="st6" d="M397.5,116.2h-7.6h-8.3h-0.8H374c-1.9,0-3.4,1.9-3.4,4.4s1.5,4.4,3.4,4.4h6.8h0.8h8.3h7.6
	c1.9,0,3.4-1.9,3.4-4.4C401,118.1,399.5,116.2,397.5,116.2z M397.5,122.6h-7.6h-8.3h-3.8h-3.7c-0.5,0-1.2-0.9-1.2-2.1
	s0.6-2.1,1.2-2.1h5.3h2.3h8.3h7.6c0.5,0,1.2,0.9,1.2,2.1C398.7,121.7,398.1,122.6,397.5,122.6z"/>
<path class="st6" d="M397.4,149h-7.6h-8.3h-0.8h-6.8c-1.9,0-3.4,1.9-3.4,4.4s1.5,4.4,3.4,4.4h6.8h0.8h8.3h7.6c1.9,0,3.4-1.9,3.4-4.4
	C400.9,151,399.4,149,397.4,149z M397.4,155.5h-7.6h-8.3h-3.8H374c-0.5,0-1.2-0.9-1.2-2.1s0.6-2.1,1.2-2.1h5.3h2.3h8.3h7.6
	c0.5,0,1.2,0.9,1.2,2.1C398.6,154.6,398,155.5,397.4,155.5z"/>
<path class="st6" d="M397.3,181.6h-7.6h-8.3h-0.8h-6.8c-1.9,0-3.4,1.9-3.4,4.4s1.5,4.4,3.4,4.4h6.8h0.8h8.3h7.6
	c1.9,0,3.4-1.9,3.4-4.4C400.8,183.6,399.3,181.6,397.3,181.6z M397.3,188.1h-7.6h-8.3h-3.8h-3.7c-0.5,0-1.2-0.9-1.1-2.1
	c0-1.2,0.6-2.1,1.2-2.1h5.3h2.3h8.3h7.6c0.5,0,1.2,0.9,1.2,2.1C398.5,187.2,397.9,188.1,397.3,188.1z"/>
<path class="st6" d="M397.3,214.2h-7.6h-8.3h-0.8h-6.8c-1.9,0-3.4,1.9-3.4,4.4s1.5,4.4,3.4,4.4h6.8h0.8h8.3h7.6
	c1.9,0,3.4-1.9,3.4-4.4C400.7,216.2,399.2,214.2,397.3,214.2z M397.3,220.7h-7.6h-8.3h-3.8h-3.7c-0.5,0-1.1-0.9-1.1-2.1
	s0.6-2.1,1.2-2.1h5.3h2.3h8.3h7.6c0.5,0,1.2,0.9,1.2,2.1C398.4,219.8,397.8,220.7,397.3,220.7z"/>
<path class="st6" d="M397.2,246.9h-7.6h-8.3h-0.8h-6.8c-1.9,0-3.4,1.9-3.4,4.4s1.5,4.4,3.4,4.4h6.8h0.8h8.3h7.6
	c1.9,0,3.4-1.9,3.4-4.4S399.1,246.9,397.2,246.9z M397.2,253.3h-7.6h-8.3h-3.8h-3.7c-0.5,0-1.2-0.9-1.2-2.1s0.6-2.1,1.2-2.1h5.3h2.3
	h8.3h7.6c0.5,0,1.2,0.9,1.2,2.1C398.3,252.4,397.7,253.3,397.2,253.3z"/>
<g>
	<g>
		<g>
			<path class="st7" d="M740.9,59.8l12.3-0.2c0,0-4.7-14.3-6.2-18.7L740.9,59.8z"/>
			<polygon class="st3" points="754.6,60.8 739,60.9 736.1,94.2 737.9,361.3 759.7,361.4 757.7,94.2 			"/>
		</g>
		<g>
			<path class="st7" d="M739.9,61.7l14.3-1.1c0,0-5.8-20.1-7.3-24.5L739.9,61.7z"/>
			<line class="st8" x1="757.7" y1="99.1" x2="758.2" y2="166.2"/>
			<polygon class="st7" points="739,60.9 736.1,94.2 736.9,217.9 743.5,95.3 757.7,99.1 757.7,94.2 754.6,60.8 			"/>
		</g>
	</g>
	<path class="st7" d="M746.9,36.1c-1.1,0-2.1,1-2.1,2.2V43l4.3-0.1v-4.7C749.1,37,748.1,36.1,746.9,36.1z"/>
	<g>
		<g>
			<path class="st7" d="M740.9,59.8l12.3-0.2c0,0-4.7-14.3-6.2-18.7L740.9,59.8z"/>
		</g>
		<g>
			<path class="st7" d="M739.9,61.7l14.3-1.1c0,0-5.8-20.1-7.3-24.5L739.9,61.7z"/>
			<polygon class="st3" points="739,60.9 736.1,94.2 736.9,217.9 743.5,95.3 757.7,99.1 757.7,94.2 754.6,60.8 			"/>
		</g>
	</g>
</g>
<g>
	<g>
		<g>
			<path class="st7" d="M740.9,59.8l12.3-0.2c0,0-4.7-14.3-6.2-18.7L740.9,59.8z"/>
		</g>
		<g>
			<path class="st3" d="M739.9,61.7l14.3-1.1c0,0-5.8-20.1-7.3-24.5L739.9,61.7z"/>
			<line class="st8" x1="736.9" y1="217.9" x2="736.1" y2="94.2"/>
		</g>
	</g>
	<path class="st3" d="M746.9,36.1c-1.1,0-2.1,1-2.1,2.2V43l4.3-0.1v-4.7C749.1,37,748.1,36.1,746.9,36.1z"/>
</g>
<g>
	<g>
		<g>
			<g>
				<path class="st9" d="M736.3,55.7l12.3-0.2c0,0-4.7-14.3-6.2-18.7L736.3,55.7z"/>
				<polygon class="st10" points="750,56.6 734.3,56.8 731.5,90.1 733.3,357.1 755.1,357.2 753.1,90.1 				"/>
			</g>
		</g>
	</g>
</g>
<polygon class="st11" points="740.3,38 744.6,37.9 744.6,33.2 740.3,33.3 "/>
<polygon class="st12" points="739.1,58.4 740.8,217.8 746,217.7 743.9,58.3 "/>
<path class="st12" d="M743.8,365.6c8.1,0.1,10.8-6.1,10.8-6.1l-22,0.3C732.6,359.8,735.7,365.5,743.8,365.6z"/>
<polygon class="st12" points="739.9,355.7 749.6,355.4 749.7,344.6 740,344.9 "/>
<line class="st13" x1="737" y1="58" x2="740.1" y2="357"/>
<line class="st13" x1="746" y1="57.4" x2="749.2" y2="356.4"/>
</svg>
