<?xml version="1.0" encoding="utf-8"?>
<!-- Generator: Adobe Illustrator 19.1.0, SVG Export Plug-In . SVG Version: 6.00 Build 0)  -->
<svg version="1.1" id="Layer_1" xmlns="http://www.w3.org/2000/svg" xmlns:xlink="http://www.w3.org/1999/xlink" x="0px" y="0px"
	 width="452px" height="379.3px" viewBox="-253 91.7 452 379.3" style="enable-background:new -253 91.7 452 379.3;"
	 xml:space="preserve" preserveAspectRatio="none">
<style type="text/css">
	.st0{fill:#B07F48;}
	.st1{fill:#845F37;}
	.st2{fill:#7AC2DE;}
	.st3{fill:#5CAFDE;}
	.st4{fill:#EB2A7B;}
	.st5{fill:#662D8E;}
	.st6{fill:#39B24A;}
	.st7{fill:#F6DC32;}
	.st8{fill:#F0F1F2;}
	.st9{fill:#FFFFFF;}
	.st10{fill:#213228;}
	.st11{fill:#E0E0E0;}
	.st12{fill:none;}
	.st13{fill:#C4C5C6;stroke:#C4C5C6;stroke-width:3.1293;stroke-linecap:round;stroke-linejoin:round;}
	.st14{fill:#C8D6EC;stroke:#FFFFFF;stroke-width:3.1293;}
	.st15{fill:#BCA30B;}
	.st16{fill:#213A8F;}
	.st17{fill:none;stroke:#FFFFFF;stroke-width:1.5647;}
</style>
<polyline class="st0" points="-253,91.7 -253,471 129.9,471 129.9,91.7 "/>
<polyline class="st0" points="129.9,91.7 129.9,471 199,471 199,91.7 "/>
<polyline class="st1" points="-232.7,91.7 -233,471 129.9,471 129.9,91.7 "/>
<polyline class="st2" points="-237.2,91.7 -237.5,471 129.9,471 129.9,91.7 "/>
<polyline class="st3" points="107.7,91.7 107.7,471 129.9,471 129.9,91.7 "/>
<path class="st4" d="M-182.2,91.7v4.4c0,4,3.2,7.2,7.2,7.2h50.2c4,0,7.2-3.2,7.2-7.2v-4.4"/>
<path class="st5" d="M-119,91.7v4.4c0,4,3.2,7.2,7.2,7.2h50.2c4,0,7.2-3.2,7.2-7.2v-4.4"/>
<path class="st6" d="M-55.8,91.7v4.4c0,4,3.2,7.2,7.2,7.2H1.6c4,0,7.2-3.2,7.2-7.2v-4.4"/>
<path class="st7" d="M7.4,91.7v4.4c0,4,3.2,7.2,7.2,7.2h50.2c4,0,7.2-3.2,7.2-7.2v-4.4"/>
<polyline class="st8" points="-191.3,91.7 -191.9,471 124,471 124.6,91.7 "/>
<polyline class="st9" points="-232.6,91.7 -233.1,471 129.7,471 129.9,225.5 129.9,91.7 "/>
<polyline class="st9" points="129.9,91.7 129.9,225.5 130,91.7 "/>
<g>
	<g>
		<g>
			<g>
				<g>
					<path class="st3" d="M116.2,445.5c4.5,0,8.2,3.7,8.2,8.2s-3.7,8.2-8.2,8.2s-8.2-3.7-8.2-8.2C108,449.1,111.6,445.5,116.2,445.5
						z"/>
				</g>
			</g>
			<g>
				<g>
					<path class="st3" d="M116.2,412.6c4.5,0,8.2,3.7,8.2,8.2s-3.7,8.2-8.2,8.2s-8.2-3.7-8.2-8.2C108,416.2,111.7,412.6,116.2,412.6
						z"/>
				</g>
			</g>
			<g>
				<g>
					<path class="st3" d="M116.2,379.7c4.5,0,8.2,3.7,8.2,8.2s-3.7,8.2-8.2,8.2s-8.2-3.7-8.2-8.2S111.7,379.7,116.2,379.7z"/>
				</g>
			</g>
			<g>
				<g>
					<path class="st3" d="M116.2,346.8c4.5,0,8.2,3.7,8.2,8.2s-3.7,8.2-8.2,8.2s-8.2-3.7-8.2-8.2C108,350.5,111.7,346.8,116.2,346.8
						z"/>
				</g>
			</g>
			<g>
				<g>
					<path class="st3" d="M116.3,313.9c4.5,0,8.2,3.7,8.2,8.2s-3.7,8.2-8.2,8.2s-8.2-3.7-8.2-8.2
						C108.1,317.6,111.7,313.9,116.3,313.9z"/>
				</g>
			</g>
			<g>
				<g>
					<path class="st3" d="M116.3,281.1c4.5,0,8.2,3.7,8.2,8.2s-3.7,8.2-8.2,8.2s-8.2-3.7-8.2-8.2
						C108.1,284.7,111.8,281.1,116.3,281.1z"/>
				</g>
			</g>
			<g>
				<g>
					<path class="st3" d="M116.3,248.2c4.5,0,8.2,3.7,8.2,8.2c0,4.5-3.7,8.2-8.2,8.2s-8.2-3.7-8.2-8.2
						C108.1,251.8,111.8,248.2,116.3,248.2z"/>
				</g>
			</g>
			<g>
				<g>
					<path class="st3" d="M116.3,215.3c4.5,0,8.2,3.7,8.2,8.2s-3.7,8.2-8.2,8.2s-8.2-3.7-8.2-8.2C108.2,219,111.8,215.3,116.3,215.3
						z"/>
				</g>
			</g>
			<g>
				<g>
					<path class="st3" d="M116.4,182.4c4.5,0,8.2,3.7,8.2,8.2s-3.7,8.2-8.2,8.2s-8.2-3.7-8.2-8.2
						C108.2,186.1,111.9,182.4,116.4,182.4z"/>
				</g>
			</g>
			<g>
				<g>
					<path class="st3" d="M116.4,149.6c4.5,0,8.2,3.7,8.2,8.2c0,4.5-3.7,8.2-8.2,8.2s-8.2-3.7-8.2-8.2
						C108.2,153.2,111.9,149.6,116.4,149.6z"/>
				</g>
			</g>
			<g>
				<g>
					<path class="st3" d="M116.4,116.7c4.5,0,8.2,3.7,8.2,8.2s-3.7,8.2-8.2,8.2s-8.2-3.7-8.2-8.2
						C108.2,120.3,111.9,116.7,116.4,116.7z"/>
				</g>
			</g>
		</g>
	</g>
</g>
<g>
	<g>
		<path class="st10" d="M128.2,389.2h-3.8h-3.7c-0.5,0-1.2-0.9-1.2-2.1s0.6-2.1,1.1-2.1h5.3h2.3h1.7v-2.2h-1.7h-0.8h-6.8
			c-1.9,0-3.4,1.9-3.4,4.4s1.5,4.4,3.4,4.4h6.8h0.8h1.7v-2.4L128.2,389.2L128.2,389.2z"/>
		<path class="st10" d="M144.1,391.6c1.9,0,3.4-1.9,3.4-4.4s-1.5-4.4-3.4-4.4h-7.6h-6.6v2.2h6.6h7.6c0.5,0,1.2,0.9,1.2,2.1
			c-0.1,1.2-0.7,2.1-1.2,2.1h-7.6h-6.6v2.4h6.6L144.1,391.6L144.1,391.6z"/>
		<path class="st10" d="M128.9,126.8h-3.8h-3.7c-0.5,0-1.2-0.9-1.2-2.1s0.6-2.1,1.2-2.1h5.3h2.3h0.9v-2.2h-1h-0.8h-6.8
			c-1.9,0-3.4,1.9-3.4,4.4s1.5,4.4,3.4,4.4h6.8h0.8h1v-2.4H128.9z"/>
		<path class="st10" d="M144.8,129.2c1.9,0,3.4-1.9,3.4-4.4s-1.5-4.4-3.4-4.4h-7.6h-7.3v2.2h7.4h7.6c0.5,0,1.2,0.9,1.2,2.1
			c-0.1,1.2-0.7,2.1-1.3,2.1h-7.6h-7.3v2.4h7.3H144.8z"/>
		<path class="st10" d="M128.1,421.8h-3.8h-3.7c-0.5,0-1.2-0.9-1.2-2.1s0.6-2.1,1.2-2.1h5.3h2.3h1.7v-2.3h-1.8h-0.8h-6.8
			c-1.9,0-3.4,1.9-3.4,4.4s1.5,4.4,3.4,4.4h6.8h0.8h1.8v-2.3H128.1z"/>
		<path class="st10" d="M144,424.1c1.9,0,3.4-1.9,3.5-4.4c0-2.5-1.5-4.4-3.5-4.4h-7.6h-6.5v2.3h6.6h7.6c0.6,0,1.2,0.9,1.2,2.1
			c-0.1,1.2-0.7,2.1-1.3,2.1h-7.6h-6.5v2.3h6.5H144z"/>
		<path class="st10" d="M128.2,454.5h-3.8h-3.7c-0.5,0-1.1-0.9-1.1-2.1s0.6-2.1,1.2-2.1h5.3h2.3h1.5v-2.2h-1.7h-0.8h-6.8
			c-1.9,0-3.4,1.9-3.4,4.4s1.5,4.4,3.4,4.4h6.8h0.8h1.7v-2.4L128.2,454.5L128.2,454.5z"/>
		<path class="st10" d="M144.1,456.9c1.9,0,3.4-1.9,3.4-4.4s-1.5-4.4-3.4-4.4h-7.6h-6.6v2.2h6.8h7.6c0.5,0,1.2,0.9,1.2,2.1
			c-0.3,1.2-0.9,2.1-1.4,2.1h-7.6h-6.6v2.4h6.6L144.1,456.9L144.1,456.9z"/>
		<path class="st10" d="M128.9,160.4h-3.8h-3.7c-0.5,0-1.2-0.9-1.1-2.1c0-1.2,0.6-2.1,1.2-2.1h5.3h2.3h0.8v-2.3h-1h-0.8h-6.8
			c-1.9,0-3.4,1.9-3.4,4.4s1.5,4.4,3.4,4.4h6.8h0.8h1v-2.3H128.9z"/>
		<path class="st10" d="M144.8,162.7c1.9,0,3.4-1.9,3.4-4.4c0.1-2.4-1.4-4.4-3.4-4.4h-7.6h-7.3v2.3h7.5h7.6c0.5,0,1.2,0.9,1.2,2.1
			c-0.2,1.2-0.8,2.1-1.4,2.1h-7.6h-7.3v2.3h7.3H144.8z"/>
		<path class="st10" d="M128.7,193.6h-3.8h-3.7c-0.5,0-1.2-0.9-1.2-2.1s0.6-2.1,1.2-2.1h5.3h2.3h1.1v-2.3h-1.2h-0.8h-6.8
			c-1.9,0-3.4,1.9-3.4,4.4s1.5,4.4,3.4,4.4h6.8h0.8h1.2v-2.3H128.7z"/>
		<path class="st10" d="M144.6,195.9c1.9,0,3.5-1.9,3.5-4.4s-1.5-4.4-3.5-4.4H137h-7.1v2.3h7.2h7.6c0.5,0,1.2,0.9,1.2,2.1
			c-0.1,1.2-0.7,2.1-1.3,2.1H137h-7.1v2.3h7.1H144.6z"/>
		<path class="st10" d="M128.6,225.9h-3.8h-3.7c-0.5,0-1.2-0.9-1.2-2.1s0.6-2.1,1.2-2.1h5.3h2.3h1.2v-2.2h-1.3h-0.8H121
			c-1.9,0-3.4,1.9-3.4,4.4s1.5,4.4,3.4,4.4h6.8h0.8h1.3v-2.4L128.6,225.9L128.6,225.9z"/>
		<path class="st10" d="M144.5,228.3c1.9,0,3.4-1.9,3.4-4.4c0.1-2.5-1.4-4.4-3.4-4.4h-7.6h-7v2.2h7.1h7.6c0.5,0,1.2,0.9,1.2,2.1
			c-0.1,1.2-0.7,2.1-1.3,2.1h-7.6h-7v2.4h7L144.5,228.3L144.5,228.3z"/>
		<path class="st10" d="M128.5,258.8h-3.8H121c-0.5,0-1.2-0.9-1.2-2.1s0.6-2.1,1.2-2.1h5.3h2.3h1.3v-2.3h-1.4h-0.8h-6.8
			c-1.9,0-3.4,1.9-3.4,4.4c0,2.5,1.5,4.4,3.4,4.4h6.8h0.8h1.4v-2.3L128.5,258.8L128.5,258.8z"/>
		<path class="st10" d="M144.4,261.1c1.9,0,3.4-1.9,3.4-4.4c0.1-2.4-1.4-4.4-3.4-4.4h-7.6h-6.9v2.3h7h7.6c0.5,0,1.2,0.9,1.2,2.1
			c-0.1,1.2-0.7,2.1-1.3,2.1h-7.6h-6.9v2.3h6.9L144.4,261.1L144.4,261.1z"/>
		<path class="st10" d="M128.4,291.4h-3.8h-3.7c-0.5,0-1.2-0.9-1.1-2.1c0-1.2,0.6-2.1,1.2-2.1h5.3h2.3h1.3v-2.3h-1.5h-0.8h-6.8
			c-1.9,0-3.4,1.9-3.4,4.4s1.5,4.4,3.4,4.4h6.8h0.8h1.5v-2.3L128.4,291.4L128.4,291.4z"/>
		<path class="st10" d="M144.3,293.7c1.9,0,3.4-1.9,3.4-4.4c0.1-2.4-1.4-4.4-3.4-4.4h-7.6h-6.8v2.3h7h7.6c0.5,0,1.2,0.9,1.2,2.1
			c-0.2,1.2-0.8,2.1-1.4,2.1h-7.6h-6.8v2.3h6.8L144.3,293.7L144.3,293.7z"/>
		<path class="st10" d="M128.4,324h-3.8h-3.7c-0.5,0-1.1-0.9-1.1-2.1s0.6-2.1,1.2-2.1h5.3h2.3h1.3v-2.3h-1.5h-0.8h-6.8
			c-1.9,0-3.4,1.9-3.4,4.4s1.5,4.4,3.4,4.4h6.8h0.8h1.5V324H128.4L128.4,324z"/>
		<path class="st10" d="M144.3,326.3c1.9,0,3.4-1.9,3.4-4.4c0-2.4-1.5-4.4-3.4-4.4h-7.6h-6.8v2.3h7h7.6c0.5,0,1.2,0.9,1.2,2.1
			c-0.3,1.2-0.9,2.1-1.4,2.1h-7.6h-6.8v2.3h6.8L144.3,326.3L144.3,326.3z"/>
		<path class="st10" d="M128.3,356.6h-3.8h-3.7c-0.5,0-1.2-0.9-1.2-2.1s0.6-2.1,1.2-2.1h5.3h2.3h1.5v-2.2h-1.6h-0.8h-6.8
			c-1.9,0-3.4,1.9-3.4,4.4s1.5,4.4,3.4,4.4h6.8h0.8h1.6v-2.4L128.3,356.6L128.3,356.6z"/>
		<path class="st10" d="M144.2,359c1.9,0,3.4-1.9,3.4-4.4s-1.5-4.4-3.4-4.4h-7.6h-6.7v2.2h6.8h7.6c0.5,0,1.2,0.9,1.2,2.1
			c-0.2,1.2-0.8,2.1-1.3,2.1h-7.6h-6.7v2.4h6.7L144.2,359L144.2,359z"/>
	</g>
</g>
<g id="Pen">
	<g>
		<g>
			<g>
				<path class="st11" d="M168.9,144.1l12.3-0.2c0,0-4.7-14.3-6.2-18.7L168.9,144.1z"/>
				<polygon class="st1" points="182.5,145.1 167,145.2 164,178.5 165.9,445.6 187.7,445.7 185.7,178.5 				"/>
			</g>
			<g>
				<path class="st11" d="M167.9,146l14.3-1.1c0,0-5.8-20.1-7.3-24.5L167.9,146z"/>
				<line class="st12" x1="185.7" y1="183.4" x2="186.2" y2="250.5"/>
				<polygon class="st11" points="167,145.2 164,178.5 164.9,302.2 171.5,179.6 185.7,183.4 185.7,178.5 182.5,145.1 				"/>
			</g>
		</g>
		<path class="st11" d="M174.8,120.4c-1.1,0-2.1,1-2.1,2.2v4.7l4.3-0.1v-4.7C177,121.3,176,120.4,174.8,120.4z"/>
		<g>
			<g>
				<path class="st11" d="M168.9,144.1l12.3-0.2c0,0-4.7-14.3-6.2-18.7L168.9,144.1z"/>
			</g>
			<g>
				<path class="st11" d="M167.9,146l14.3-1.1c0,0-5.8-20.1-7.3-24.5L167.9,146z"/>
				<polygon class="st1" points="167,145.2 164,178.5 164.9,302.2 171.5,179.6 185.7,183.4 185.7,178.5 182.5,145.1 				"/>
			</g>
		</g>
	</g>
	<g>
		<g>
			<g>
				<path class="st11" d="M168.9,144.1l12.3-0.2c0,0-4.7-14.3-6.2-18.7L168.9,144.1z"/>
			</g>
			<g>
				<path class="st1" d="M167.9,146l14.3-1.1c0,0-5.8-20.1-7.3-24.5L167.9,146z"/>
				<line class="st12" x1="164.9" y1="302.2" x2="164" y2="178.5"/>
			</g>
		</g>
		<path class="st1" d="M174.8,120.4c-1.1,0-2.1,1-2.1,2.2v4.7l4.3-0.1v-4.7C177,121.3,176,120.4,174.8,120.4z"/>
	</g>
	<g>
		<g>
			<g>
				<g>
					<path class="st13" d="M164.3,140l12.3-0.2c0,0-4.7-14.3-6.2-18.7L164.3,140z"/>
					<polygon class="st14" points="178,140.9 162.3,141.1 159.5,174.4 161.3,441.4 183,441.5 181,174.4 					"/>
				</g>
			</g>
		</g>
	</g>
	<path class="st15" d="M170.3,115.4c-1.1,0-2.1,1-2.1,2.2v4.7l4.3-0.1v-4.7C172.5,116.3,171.5,115.4,170.3,115.4z"/>
	<polygon class="st16" points="167,142.7 168.8,302.1 174,302 171.9,142.6 	"/>
	<path class="st16" d="M171.8,449.9c8.1,0.1,10.8-6.1,10.8-6.1l-22,0.3C160.5,444.1,163.6,449.8,171.8,449.9z"/>
	<polygon class="st16" points="167.9,440 177.5,439.7 177.7,428.9 168,429.2 	"/>
	<line class="st17" x1="165" y1="142.3" x2="168" y2="441.3"/>
	<line class="st17" x1="174" y1="141.7" x2="177.2" y2="440.7"/>
	<path class="st16" d="M170.3,115.3c-1.1,0-2.1,1-2.1,2.2l4.3-0.1C172.5,116.2,171.5,115.3,170.3,115.3z"/>
</g>
</svg>
