<?xml version="1.0" encoding="utf-8"?>
<!-- Generator: Adobe Illustrator 19.1.0, SVG Export Plug-In . SVG Version: 6.00 Build 0)  -->
<svg version="1.1" id="Layer_1" xmlns="http://www.w3.org/2000/svg" xmlns:xlink="http://www.w3.org/1999/xlink" x="0px" y="0px"
	 width="452px" height="66px" viewBox="-253 248 452 66" style="enable-background:new -253 248 452 66;" xml:space="preserve" preserveAspectRatio="none">
<style type="text/css">
	.st0{fill:#B07F48;}
	.st1{fill:#845F37;}
	.st2{fill:#7AC2DE;}
	.st3{fill:#5CAFDE;}
	.st4{fill:#EB2A7B;}
	.st5{fill:#662D8E;}
	.st6{fill:#39B24A;}
	.st7{fill:#F6DC32;}
	.st8{fill:#F0F1F2;}
	.st9{fill:#FFFFFF;}
</style>
<rect x="-253" y="248" class="st0" width="382.9" height="66"/>
<rect x="129.9" y="248" class="st0" width="69.1" height="66"/>
<path class="st1" d="M129.9,314v-42.2l-346.3-0.3c-9-0.1-16.3,7.3-16.3,16.2V314"/>
<path class="st2" d="M-220.9,267.5c-9-0.1-16.3,7.3-16.3,16.2V314h367.1v-46.2L-220.9,267.5z"/>
<polyline class="st3" points="129.9,314 129.9,267.9 107.7,267.9 107.7,314 "/>
<path class="st4" d="M-117.6,314v-14.3c0-4-3.2-7.2-7.2-7.2H-175c-4,0-7.2,3.2-7.2,7.2V314"/>
<path class="st5" d="M-54.4,314v-14.3c0-4-3.2-7.2-7.2-7.2h-50.2c-4,0-7.2,3.2-7.2,7.2V314"/>
<path class="st6" d="M8.8,314v-14.3c0-4-3.2-7.2-7.2-7.2h-50.2c-4,0-7.2,3.2-7.2,7.2V314"/>
<path class="st7" d="M72,314v-14.3c0-4-3.2-7.2-7.2-7.2H14.6c-4,0-7.2,3.2-7.2,7.2V314"/>
<polyline class="st8" points="124.6,314 124.6,309.9 -191.3,309.7 -191.3,314 "/>
<polyline class="st9" points="129.9,314 129.9,309.9 -232.7,309.7 -232.7,314 "/>
<polyline class="st9" points="130,314 130,309.9 129.9,309.9 129.9,314 "/>
</svg>
