<?xml version="1.0" encoding="utf-8"?>
<!-- Generator: Adobe Illustrator 19.1.0, SVG Export Plug-In . SVG Version: 6.00 Build 0)  -->
<svg version="1.1" id="Layer_1" xmlns="http://www.w3.org/2000/svg" xmlns:xlink="http://www.w3.org/1999/xlink" x="0px" y="0px"
	 width="254.7px" height="27.9px" viewBox="0 0 254.7 27.9" style="enable-background:new 0 0 254.7 27.9;" xml:space="preserve" preserveAspectRatio="none">
<style type="text/css">
	.st0{fill:#D4D8DA;}
	.st1{fill:#AFAFAF;}
	.st2{fill:none;stroke:#AFAFAF;stroke-width:0.6666;}
	.st3{fill:#FFFFFF;stroke:#C6C7C8;stroke-width:0.6666;}
	.st4{fill:none;stroke:#AFAFAF;stroke-width:1.9998;}
	.st5{fill:none;stroke:#AFAFAF;stroke-width:1.3332;stroke-linecap:round;stroke-linejoin:round;}
	.st6{fill:#9C9E9F;}
	.st7{fill:#EF0917;stroke:#D10000;stroke-width:0.1903;stroke-linecap:round;stroke-linejoin:round;}
	.st8{fill:#FFD600;stroke:#FFBC0C;stroke-width:0.1903;stroke-linecap:round;stroke-linejoin:round;}
	.st9{fill:#009D2E;stroke:#00742E;stroke-width:0.1903;stroke-linecap:round;stroke-linejoin:round;}
	.st10{fill:none;stroke:#9C9E9F;stroke-width:0.4638;stroke-linecap:round;stroke-linejoin:round;}
	.st11{fill:none;stroke:#9C9E9F;stroke-width:0.2666;stroke-linecap:round;stroke-linejoin:round;}
	.st12{fill:#808080;}
	.st13{fill:none;stroke:#808080;stroke-width:0.7103;stroke-linecap:round;stroke-linejoin:round;}
	.st14{fill:#D4D8DA;stroke:#9C9E9F;stroke-width:0.2253;stroke-linecap:round;stroke-linejoin:round;}
	.st15{fill:none;stroke:#9C9E9F;stroke-width:0.2253;stroke-linecap:round;stroke-linejoin:round;}
	.st16{fill:none;stroke:#808080;stroke-width:0.6001;stroke-linecap:round;stroke-linejoin:round;}
	.st17{fill:#D4D8DA;stroke:#9C9E9F;stroke-width:0.2528;stroke-linecap:round;stroke-linejoin:round;}
	.st18{fill:none;stroke:#AFAFAF;stroke-width:0.2528;stroke-linecap:round;stroke-linejoin:round;}
	.st19{fill:none;stroke:#FFFFFF;stroke-width:0.5057;stroke-linecap:round;stroke-linejoin:round;}
	.st20{fill:none;stroke:#9C9E9F;stroke-width:0.2666;stroke-linejoin:round;}
	.st21{fill:#D4D8DA;stroke:#9C9E9F;stroke-width:0.2482;stroke-linecap:round;stroke-linejoin:round;}
	.st22{fill:none;stroke:#9C9E9F;stroke-width:0.2482;stroke-linecap:round;stroke-linejoin:round;}
	.st23{fill:none;stroke:#808080;stroke-width:0.6611;stroke-linecap:round;stroke-linejoin:round;}
</style>
<path class="st0" d="M254.7,28.2V2.9c0-1.5-1-2.8-2.3-2.8L2.3,0C1,0,0,1.2,0,2.8v25.4"/>
<rect y="12.1" class="st1" width="254.7" height="0.5"/>
<line class="st2" x1="214.3" y1="14.5" x2="214.3" y2="25.9"/>
<line class="st2" x1="52.5" y1="14.5" x2="52.5" y2="25.9"/>
<line class="st2" x1="93.4" y1="14.5" x2="93.4" y2="25.9"/>
<g>
	<rect x="234.1" y="16.4" class="st3" width="7.2" height="7.2"/>
	<g>
		<g>
			<polyline class="st4" points="226.5,18.4 230.1,18.4 230.1,21.7 223.4,21.7 			"/>
			<polygon class="st1" points="224.1,24.2 224.1,19.2 219.8,21.7 			"/>
		</g>
	</g>
	<polyline class="st5" points="235.7,20 236.2,22 239.7,17.7 	"/>
</g>
<polygon class="st6" points="11.1,22.2 12.9,18.6 9.3,18.6 "/>
<g>
	<path class="st6" d="M22,22.9l-1.7-4.4h-0.2l-1.7,4.2c-0.1,0.3-0.2,0.4-0.3,0.5c-0.1,0.1-0.2,0.1-0.4,0.1v0.2h1.8v-0.2h-0.2
		c-0.2,0-0.3,0-0.4-0.1c0-0.1-0.1-0.2-0.1-0.3s0-0.2,0.1-0.4l0.2-0.6H21l0.4,1V23c0,0,0,0.1-0.1,0.1c-0.1,0.1-0.2,0.1-0.4,0.1h-0.2
		v0.2h1.9v-0.2h-0.2C22.2,23.2,22.1,23.1,22,22.9z M19.2,21.6l0.9-2.2l0.8,2.2H19.2z"/>
</g>
<g>
	<path class="st6" d="M33.1,22.8L31,17.5h-0.3l-1.9,4.8c-0.1,0.3-0.3,0.5-0.4,0.6c-0.1,0-0.3,0.1-0.5,0.1v0.3H30V23h-0.2
		c-0.2,0-0.4,0-0.5-0.1c-0.1-0.1-0.2-0.2-0.2-0.3s0-0.2,0.1-0.4l0.3-0.7h2.3l0.5,1.2v0.1c0,0.1,0,0.2-0.1,0.2
		c-0.1,0.1-0.3,0.1-0.5,0.1h-0.2v0.3h2.3v-0.3h-0.2C33.4,23.1,33.2,23,33.1,22.8z M29.6,21.2l1-2.6l1.1,2.6H29.6z"/>
</g>
<g>
	<path class="st6" d="M45.3,22.7l-2.4-6.2h-0.3l-2.5,5.7c-0.1,0.4-0.3,0.6-0.4,0.7c-0.1,0.1-0.3,0.2-0.6,0.2v0.3h2.5v-0.3h-0.2
		c-0.3,0-0.5-0.1-0.6-0.2c-0.1-0.1-0.2-0.3-0.2-0.4c0-0.1,0-0.3,0.1-0.5l0.3-0.8h2.7l0.6,1.4c0,0.1,0,0.1,0,0.2c0,0.1,0,0.2-0.1,0.2
		c-0.1,0.1-0.3,0.1-0.6,0.1h-0.2v0.3h2.7v-0.3h-0.2C45.6,23.1,45.4,23,45.3,22.7z M41.2,20.8l1.2-3l1.2,3H41.2z"/>
</g>
<g>
	<path class="st6" d="M63.8,21.2c-0.3-0.2-0.7-0.4-1.3-0.5c0.4-0.1,0.8-0.3,1-0.5s0.3-0.5,0.3-0.8c0-0.4-0.1-0.7-0.4-0.9
		c-0.3-0.3-0.7-0.4-1.2-0.4H59v0.4h0.4c0.2,0,0.2,0.1,0.3,0.1c0.1,0.1,0.1,0.1,0.1,0.2v4.1c0,0,0,0.1-0.1,0.2
		c-0.1,0.1-0.1,0.1-0.2,0.1H59v0.3h3.1c0.4,0,0.8-0.1,1.1-0.2c0.3-0.1,0.6-0.2,0.7-0.4c0.2-0.2,0.3-0.5,0.3-0.8
		C64.2,21.7,64.1,21.4,63.8,21.2z M60.9,18.7c0-0.1,0-0.2,0.1-0.2c0-0.1,0.2-0.1,0.4-0.1c0.5,0,0.8,0.1,1,0.2
		c0.2,0.1,0.3,0.4,0.3,0.7c0,0.4-0.1,0.7-0.3,0.9c-0.2,0.2-0.5,0.3-0.9,0.3h-0.6V18.7z M62.7,22.7c-0.2,0.2-0.5,0.3-0.8,0.3h-0.7
		c-0.1,0-0.1-0.1-0.2-0.1c-0.1,0-0.1-0.1-0.1-0.2v-1.9v-0.1h0.9c0.4,0,0.7,0.1,0.9,0.3c0.2,0.2,0.3,0.5,0.3,0.9
		C63,22.2,62.9,22.5,62.7,22.7z"/>
</g>
<g>
	<path class="st6" d="M72.2,18.5h0.5c0.2,0,0.2,0,0.3,0.1c0.1,0.1,0.1,0.1,0.1,0.2v0.1L72,23.1c-0.1,0.2-0.2,0.3-0.5,0.3h-0.3
		l-0.1,0.3h2.5l0.1-0.3h-0.4c-0.1,0-0.2,0-0.3-0.1c-0.1-0.1-0.1-0.1-0.1-0.2c0-0.1,0-0.2,0-0.2l1.1-4.1c0-0.2,0-0.2,0.1-0.3
		c0.1-0.1,0.2-0.1,0.3-0.1h0.4l0.1-0.3h-2.4L72.2,18.5z"/>
</g>
<g>
	<path class="st6" d="M85.3,18.4c0.2,0,0.3,0,0.4,0c0.1,0,0.1,0,0.2,0.1c0,0.1,0.1,0.2,0.1,0.3c0,0.1,0,0.3,0,0.5v2.5
		c0,0.4-0.1,0.7-0.4,1c-0.2,0.3-0.6,0.4-1.1,0.4c-0.4,0-0.7-0.1-0.9-0.2c-0.3-0.2-0.4-0.4-0.5-0.6C83,22.3,83,22,83,21.7v-3
		c0-0.1,0-0.2,0.1-0.2c0.1-0.1,0.2-0.1,0.3-0.1h0.5v-0.3h-2.5l0,0.3h0.5c0.2,0,0.2,0.1,0.3,0.1c0.1,0.1,0.1,0.1,0.1,0.2v3.2
		c0,0.3,0.1,0.6,0.2,0.8c0.2,0.2,0.4,0.5,0.7,0.6c0.4,0.1,0.8,0.2,1.3,0.2c0.6,0,1.1-0.2,1.5-0.5c0.3-0.3,0.5-0.7,0.5-1.3v-2.6
		c0-0.2,0.1-0.4,0.2-0.5c0.1-0.1,0.3-0.2,0.5-0.2h0.1v-0.3h-2V18.4z"/>
</g>
<circle class="st7" cx="7.1" cy="5.8" r="2"/>
<circle class="st8" cx="13" cy="5.8" r="2"/>
<circle class="st9" cx="18.9" cy="5.8" r="2"/>
<path class="st10" d="M227.2,6.1L224.3,9c-0.4,0.4-1.3,0.3-1.6,0l0,0c-0.3-0.3-0.3-1.3,0-1.6l3.6-3.6c0.3-0.3,0.9-0.2,1.2,0l0,0
	c0.3,0.3,0.3,0.9,0,1.1l-2.7,2.7c-0.2,0.2-0.6,0.4-0.9,0.2c-0.3-0.3,0-0.7,0.1-0.9c0.1-0.1,2.2-2.2,2.2-2.2"/>
<g>
	<g>
		<rect x="164.6" y="3.8" class="st11" width="6.9" height="4.3"/>
		<line class="st11" x1="168.8" y1="6" x2="171.5" y2="7.9"/>
		<line class="st11" x1="164.8" y1="8" x2="167.4" y2="6"/>
		<polygon class="st11" points="168.1,6.5 171.5,3.8 164.6,3.8 		"/>
	</g>
	<g>
		<path class="st12" d="M172.6,9.6c0.8-0.6,1.8-1.1,3-1.3c-1.2-0.3-2.2-0.8-3-1.3V9.6z"/>
		<line class="st13" x1="171.8" y1="8.3" x2="174.1" y2="8.3"/>
	</g>
</g>
<g>
	<g>
		<rect x="185.3" y="4.6" class="st14" width="5.8" height="3.6"/>
		<polyline class="st15" points="185.4,8.2 188.2,6 191,8.1 		"/>
		<polygon class="st14" points="188.2,6.9 191.1,4.6 185.3,4.6 		"/>
	</g>
	<g>
		<rect x="182.9" y="3.9" class="st14" width="5.8" height="3.6"/>
		<polyline class="st15" points="183.1,7.4 185.8,5.3 188.7,7.4 		"/>
		<polygon class="st14" points="185.8,6.2 188.7,3.9 182.9,3.9 		"/>
	</g>
	<g>
		<path class="st12" d="M192,9.6c0.7-0.5,1.5-0.9,2.5-1.1c-1-0.2-1.8-0.7-2.5-1.1V9.6z"/>
		<line class="st16" x1="191.3" y1="8.4" x2="193.2" y2="8.4"/>
	</g>
</g>
<g>
	<g>
		<g>
			<rect x="239.8" y="4" class="st17" width="6.6" height="4.1"/>
			<polyline class="st18" points="240.1,8 243.1,5.6 246.3,7.9 			"/>
			<polygon class="st17" points="243.1,6.6 246.4,4 239.8,4 			"/>
		</g>
	</g>
	<g>
		<circle class="st6" cx="246.4" cy="8" r="1.5"/>
		<g>
			<line class="st19" x1="245.6" y1="7.2" x2="247.2" y2="8.8"/>
			<line class="st19" x1="247.1" y1="7.2" x2="245.6" y2="8.8"/>
		</g>
	</g>
</g>
<g>
	<rect x="148.8" y="3.5" class="st20" width="4.3" height="5.9"/>
	<line class="st20" x1="149.8" y1="4.2" x2="152.4" y2="4.2"/>
	<g>
		<line class="st20" x1="149.8" y1="4.8" x2="152.4" y2="4.8"/>
		<line class="st20" x1="149.8" y1="5.5" x2="152.4" y2="5.5"/>
		<line class="st20" x1="149.8" y1="6.1" x2="152.4" y2="6.1"/>
		<line class="st20" x1="149.8" y1="6.7" x2="152.4" y2="6.7"/>
		<line class="st20" x1="149.8" y1="7.4" x2="152.4" y2="7.4"/>
		<line class="st20" x1="149.8" y1="8" x2="152.4" y2="8"/>
	</g>
	<line class="st20" x1="149.8" y1="8.6" x2="152.4" y2="8.6"/>
</g>
<g>
	<rect x="200.1" y="3.5" class="st20" width="4.3" height="5.9"/>
	<line class="st20" x1="201.1" y1="4.2" x2="203.7" y2="4.2"/>
	<g>
		<line class="st20" x1="201.1" y1="4.8" x2="203.7" y2="4.8"/>
		<line class="st20" x1="201.1" y1="5.5" x2="203.7" y2="5.5"/>
		<line class="st20" x1="201.1" y1="6.1" x2="203.7" y2="6.1"/>
		<line class="st20" x1="201.1" y1="6.7" x2="203.7" y2="6.7"/>
		<line class="st20" x1="201.1" y1="7.4" x2="203.7" y2="7.4"/>
		<line class="st20" x1="201.1" y1="8" x2="203.7" y2="8"/>
	</g>
	<line class="st20" x1="201.1" y1="8.6" x2="203.7" y2="8.6"/>
</g>
<polyline class="st1" points="254.7,28.2 254.7,27.7 0,27.7 0,28.2 "/>
<path class="st2" d="M249.8,2.7h-12.7c-0.8,0-1.4,0.6-1.4,1.4V9c0,0.8,0.6,1.4,1.4,1.4h12.7c0.7,0,1.4-0.6,1.4-1.4V4.1
	C251.2,3.3,250.6,2.7,249.8,2.7z"/>
<path class="st2" d="M231.3,2.7h-12.7c-0.8,0-1.4,0.6-1.4,1.4V9c0,0.8,0.6,1.4,1.4,1.4h12.7c0.7,0,1.4-0.6,1.4-1.4V4.1
	C232.7,3.3,232.1,2.7,231.3,2.7z"/>
<path class="st2" d="M214.1,4.1c0-0.8-0.6-1.4-1.4-1.4H200c-0.8,0-1.4,0.6-1.4,1.4V9c0,0.8,0.6,1.4,1.4,1.4h12.7
	c0.8,0,1.5-0.6,1.4-1.4V4.1z"/>
<path class="st2" d="M195.6,4.1c0-0.8-0.6-1.4-1.4-1.4h-12.7c-0.8,0-1.4,0.6-1.4,1.4V9c0,0.8,0.6,1.4,1.4,1.4h12.7
	c0.8,0,1.5-0.6,1.4-1.4V4.1z"/>
<path class="st2" d="M175.7,2.7H163c-0.8,0-1.4,0.6-1.4,1.4V9c0,0.8,0.6,1.4,1.4,1.4h12.7c0.8,0,1.4-0.6,1.4-1.4V4.1
	C177.1,3.3,176.5,2.7,175.7,2.7z"/>
<path class="st2" d="M157.2,2.7h-12.7c-0.8,0-1.4,0.6-1.4,1.4V9c0,0.8,0.6,1.4,1.4,1.4h12.7c0.8,0,1.4-0.6,1.4-1.4V4.1
	C158.6,3.3,158,2.7,157.2,2.7z"/>
<g>
	<g>
		<rect x="202.6" y="4.2" class="st21" width="6.4" height="4"/>
		<line class="st22" x1="206.5" y1="6.2" x2="209" y2="8.1"/>
		<line class="st22" x1="202.9" y1="8.1" x2="205.2" y2="6.3"/>
		<polygon class="st21" points="205.9,6.7 209.1,4.2 202.6,4.2 		"/>
	</g>
	<g>
		<path class="st12" d="M210.1,9.7c0.7-0.5,1.7-1,2.8-1.2c-1.1-0.2-2-0.7-2.8-1.2V9.7z"/>
		<line class="st23" x1="209.3" y1="8.4" x2="211.4" y2="8.4"/>
	</g>
</g>
</svg>
