<?xml version="1.0" encoding="utf-8"?>
<!-- Generator: Adobe Illustrator 19.1.0, SVG Export Plug-In . SVG Version: 6.00 Build 0)  -->
<svg version="1.1" id="Layer_1" xmlns="http://www.w3.org/2000/svg" xmlns:xlink="http://www.w3.org/1999/xlink" x="0px" y="0px"
	 width="268.9px" height="360.7px" viewBox="-345 90.5 268.9 360.7" style="enable-background:new -345 90.5 268.9 360.7;"
	 xml:space="preserve" preserveAspectRatio="none">
<style type="text/css">
	.st0{fill:#B07F48;}
	.st1{fill:#845F37;}
	.st2{fill:#FFFFFF;}
	.st3{fill:#E0E0E0;}
	.st4{fill:none;}
	.st5{fill:#C4C5C6;stroke:#C4C5C6;stroke-width:1.775;stroke-linecap:round;stroke-linejoin:round;}
	.st6{fill:#C8D6EC;stroke:#FFFFFF;stroke-width:1.775;}
	.st7{fill:#BCA30B;}
	.st8{fill:#213A8F;}
	.st9{fill:none;stroke:#FFFFFF;stroke-width:0.8875;}
</style>
<g id="Background">
	<rect x="-345" y="90.5" class="st0" width="268.9" height="360.7"/>
</g>
<g id="Paper">
	<rect x="-332.2" y="114.4" class="st1" width="248.4" height="321.6"/>
	<rect x="-334.7" y="110.6" class="st2" width="248.4" height="321.6"/>
</g>
<g id="Pen">
	<path class="st1" d="M-84.2,269.7c0,0,1.8,0,3.6-2c1.5-1.6,1.5-3.7,1.5-3.7l1.5-0.7l-6.2-22.7L-84.2,269.7z"/>
	<g>
		<g>
			<g>
				<path class="st3" d="M-128.7,113l0.5-10.4c1.4,2,5.7,8.6,5.7,8.6L-128.7,113z"/>
				<polygon class="st1" points="-88.8,266.3 -126.4,131.1 -129.5,113.9 -121.6,111.6 -115.5,128.2 -77.7,263.3 				"/>
			</g>
			<g>
				<path class="st3" d="M-128.9,114.1v-13.9c1.4,2,7.1,11.4,7.1,11.4L-128.9,114.1z"/>
				<line class="st4" x1="-114.8" y1="130.6" x2="-105.3" y2="164.6"/>
				<polyline class="st1" points="-109,193.7 -126.4,131.1 -129.5,113.9 -121.6,111.6 -115.5,128.2 -114.8,130.6 -122.5,130.6 				
					"/>
			</g>
		</g>
		<path class="st3" d="M-129,104l-0.7-2.4c-0.2-0.6,0.2-1.2,0.8-1.4l0,0c0.6-0.2,1.2,0.2,1.4,0.8l0.7,2.4L-129,104z"/>
		<g>
			<g>
				<path class="st3" d="M-128.7,113l0.5-10.4c1.4,2,5.7,8.6,5.7,8.6L-128.7,113z"/>
				<polygon class="st3" points="-97.2,236.2 -126.4,131.1 -129.5,113.9 -121.6,111.6 -115.5,128.2 -86.3,232.6 -86.3,238.5 				"/>
			</g>
			<g>
				<path class="st3" d="M-128.9,114.1v-13.9c1.4,2,7.1,11.4,7.1,11.4L-128.9,114.1z"/>
				<line class="st4" x1="-114.8" y1="130.6" x2="-105.3" y2="164.6"/>
				<polyline class="st1" points="-109,193.7 -126.4,131.1 -129.5,113.9 -121.6,111.6 -115.5,128.2 -114.8,130.6 -122.5,130.6 				
					"/>
			</g>
		</g>
	</g>
	<g>
		<g>
			<g>
				<path class="st3" d="M-128.7,113l0.5-10.4c1.4,2,5.7,8.6,5.7,8.6L-128.7,113z"/>
			</g>
			<g>
				<path class="st1" d="M-128.9,114.1v-13.9c1.4,2,7.1,11.4,7.1,11.4L-128.9,114.1z"/>
				<line class="st4" x1="-109" y1="193.7" x2="-126.4" y2="131.1"/>
			</g>
		</g>
		<path class="st1" d="M-129,104l-0.7-2.4c-0.2-0.6,0.2-1.2,0.8-1.4l0,0c0.6-0.2,1.2,0.2,1.4,0.8l0.7,2.4L-129,104z"/>
	</g>
	<g>
		<g>
			<g>
				<g>
					<path class="st5" d="M-131.6,111.5l0.5-10.4c1.4,2,5.7,8.6,5.7,8.6L-131.6,111.5z"/>
					<polygon class="st6" points="-91.7,264.8 -129.3,129.7 -132.5,112.4 -124.5,110.1 -118.4,126.7 -80.7,261.9 					"/>
				</g>
			</g>
		</g>
	</g>
	<path class="st7" d="M-132,102l-0.7-2.4c-0.2-0.6,0.2-1.2,0.8-1.4l0,0c0.6-0.2,1.2,0.2,1.4,0.8l0.7,2.4L-132,102z"/>
	<polygon class="st8" points="-107.1,193.1 -129.8,112.5 -127.4,111.9 -104.5,192.4 	"/>
	<path class="st8" d="M-80.6,263l-11.1,3.1c0,0,2.3,2.5,6.5,1.4C-81.1,266.6-80.6,263-80.6,263z"/>
	<polygon class="st8" points="-88.6,263.2 -90,257.7 -85.1,256.2 -83.7,261.7 	"/>
	<line class="st9" x1="-130.9" y1="112.6" x2="-88.3" y2="263.8"/>
	<line class="st9" x1="-126.4" y1="111.1" x2="-83.8" y2="262.2"/>
	<path class="st8" d="M-132.7,99.6c-0.2-0.6,0.2-1.2,0.8-1.4l0,0c0.6-0.2,1.2,0.2,1.4,0.8"/>
</g>
</svg>
