<?xml version="1.0" encoding="utf-8"?>
<!-- Generator: Adobe Illustrator 18.1.0, SVG Export Plug-In . SVG Version: 6.00 Build 0)  -->
<svg version="1.1" xmlns="http://www.w3.org/2000/svg" xmlns:xlink="http://www.w3.org/1999/xlink" x="0px" y="0px"
	 viewBox="-295 70.2 268.9 380.5" preserveAspectRatio="none"  style="enable-background:new -295 70.2 268.9 380.5;" xml:space="preserve">
<style type="text/css">
	.st0{fill:#B07F48;}
	.st1{fill:#845F37;}
	.st2{fill:#FFFFFF;}
	.st3{fill:#E0E0E0;}
	.st4{fill:#C4C5C6;stroke:#C4C5C6;stroke-width:2;stroke-linecap:round;stroke-linejoin:round;}
	.st5{fill:#C8D6EC;stroke:#FFFFFF;stroke-width:2;}
	.st6{fill:#BCA30B;}
	.st7{fill:#213A8F;}
	.st8{fill:none;stroke:#FFFFFF;}
</style>
<g id="Background">
	<rect x="-295" y="70.2" class="st0" width="268.9" height="380.5"/>
</g>
<g id="Paper">
	<path class="st1" d="M-40.8,110.8l0,10c-1.3,0.3-2.5,0.7-3.8,1.1c-0.6,0.2-1,0.5-1.3,0.9l0-6.1l-17.3,0l0,17.3l17.3,0l0-6.8
		c0.7,0.8,1.7,1.2,3,0.7c0.7-0.2,1.4-0.5,2.1-0.7l0,32c-1.7-0.1-3.4-0.3-5.2-0.6l0-5.7l-17.3,0l0,17.3l17.3,0l0-5.4
		c1.7,0.2,3.4,0.4,5.2,0.5l0,24.8c-1.7,0.2-3.4,0.7-5.2,1l0-1.9l-17.3,0l0,17.3l17.3,0l0-3c0.4,0.2,0.9,0.3,1.4,0.3
		c1.3,0,2.5,0,3.8,0l0,22.4c-1.8,0.3-3.6,0.7-5.3,1.3l0-2.1l-17.3,0l0,17.3l17.3,0l0-8.7c0.2,0,0.4-0.1,0.6-0.1
		c1.6-0.5,3.1-1,4.7-1.3l0,33.2c-1.1-0.1-2.1-0.3-3.2-0.3c-0.8,0-1.6,0.3-2.2,0.9l0-4.7l-17.3,0l0,17.3l17.3,0l0-3.8
		c0.2,0.3,0.5,0.6,0.9,0.7c1.2,0.7,2.5,1.1,3.9,0.6c0.2-0.1,0.4-0.2,0.6-0.3l0,26c-0.3-0.1-0.6-0.1-0.9-0.1c-1.6,0-3.1,0.4-4.6,1
		l0-5.1l-17.3,0l0,17.3l17.1,0c1,0.7,2.3,0.7,3.5,0.2c0.8-0.4,1.6-0.9,2.2-1.6l0,5.7c-0.8,0.1-1.6,0.5-2.1,1.5
		c-1.5,2.6-0.7,4.2-0.9,7c-0.1,1.3-0.5,2.7-1.1,4c-0.3,0.1-0.6,0.2-1,0.4c-1,0.5-2.1,1.2-3.1,1.8l-14.7,0l0,17.3l17.3,0l0-1.1
		c0.3,0.3,0.6,0.6,1,0.8c0.4,0.3,0.8,0.5,1.2,0.7c0.5,1.3,0.9,2.7,1.1,4.4c0.2,1.5,1.1,2.5,2.3,2.8l0,12.8c-0.1,0.1-0.3,0.1-0.4,0.2
		c-1.7,1.3-3.3,2.9-5.2,4.1l0-5.8l-17.3,0l0,17.3l17.3,0l0-1.4c1.9,0.1,3.8-0.3,5.6-0.9l0,23.5c-0.6,0.2-1.1,0.6-1.6,1.2
		c-0.6,0.9-3,1.1-4.1,1.4l0-4.8l-17.3,0l0,17.3l10.6,0c-0.1,0.5-0.1,1,0,1.6c0.5,2.1,1.4,4.1,2,6.1l-226.3,0l0-321.6L-40.8,110.8z"
		/>
	<path class="st2" d="M-42.7,108.5l0,10c-1.3,0.3-2.5,0.7-3.8,1.1c-0.6,0.2-1,0.5-1.3,0.9l0-6.1l-17.3,0l0,17.3l17.3,0l0-6.8
		c0.7,0.8,1.7,1.2,3,0.7c0.7-0.2,1.4-0.5,2.1-0.7l0,32c-1.7-0.1-3.4-0.3-5.2-0.6l0-5.7l-17.3,0l0,17.3l17.3,0l0-5.4
		c1.7,0.2,3.4,0.4,5.2,0.5l0,24.8c-1.7,0.2-3.4,0.7-5.2,1l0-1.9l-17.3,0l0,17.3l17.3,0l0-3c0.4,0.2,0.9,0.3,1.4,0.3
		c1.3,0,2.5,0,3.8,0l0,22.4c-1.8,0.3-3.6,0.7-5.3,1.3l0-2.1l-17.3,0l0,17.3l17.3,0l0-8.7c0.2,0,0.4-0.1,0.6-0.1
		c1.6-0.5,3.1-1,4.7-1.3l0,33.2c-1.1-0.1-2.1-0.3-3.2-0.3c-0.8,0-1.6,0.3-2.2,0.9l0-4.7l-17.3,0l0,17.3l17.3,0l0-3.8
		c0.2,0.3,0.5,0.6,0.9,0.7c1.2,0.7,2.5,1.1,3.9,0.6c0.2-0.1,0.4-0.2,0.6-0.3l0,26c-0.3-0.1-0.6-0.1-0.9-0.1c-1.6,0-3.1,0.4-4.6,1
		l0-5.1l-17.3,0l0,17.3l17.1,0c1,0.7,2.3,0.7,3.5,0.2c0.8-0.4,1.6-0.9,2.2-1.6l0,5.7c-0.8,0.1-1.6,0.5-2.1,1.5
		c-1.5,2.6-0.7,4.2-0.9,7c-0.1,1.3-0.5,2.7-1.1,4c-0.3,0.1-0.6,0.2-1,0.4c-1,0.5-2.1,1.2-3.1,1.8l-14.7,0l0,17.3l17.3,0l0-1.1
		c0.3,0.3,0.6,0.6,1,0.8c0.4,0.3,0.8,0.5,1.2,0.7c0.5,1.3,0.9,2.7,1.1,4.4c0.2,1.5,1.1,2.5,2.3,2.8l0,12.8c-0.1,0.1-0.3,0.1-0.4,0.2
		c-1.7,1.3-3.3,2.9-5.2,4.1l0-5.8l-17.3,0l0,17.3l17.3,0l0-1.4c1.9,0.1,3.8-0.3,5.6-0.9l0,23.5c-0.6,0.2-1.1,0.6-1.6,1.2
		c-0.6,0.9-3,1.1-4.1,1.4l0-4.8l-17.3,0l0,17.3l10.6,0c-0.1,0.5-0.1,1,0,1.6c0.5,2.1,1.4,4.1,2,6.1l-226.3,0l0-321.6L-42.7,108.5z"
		/>
</g>
<g id="Pen">
	<g>
		<g>
			<g>
				<path class="st3" d="M-227.7,117l-12.4-2.5c2.7-1.3,11.3-5.2,11.3-5.2L-227.7,117z"/>
				<polygon class="st3" points="-37.4,98 -205.7,117.6 -226.9,118.1 -228.1,108.3 -207.2,104 -38.9,84.2 				"/>
			</g>
			<g>
				<path class="st3" d="M-226.4,117.5l-16.6-2.7c2.7-1.3,15-6.3,15-6.3L-226.4,117.5z"/>
				<polyline class="st3" points="-127.8,108.5 -205.7,117.6 -226.9,118.1 -228.1,108.3 -207.2,104 -161.8,98.7 				"/>
				<polygon class="st1" points="-161.8,98.7 -38.9,84.2 -37.4,98 -127.8,108.5 -150.4,108.5 				"/>
			</g>
		</g>
		<path class="st3" d="M-238.6,115.7l-3,0.4c-0.8,0.1-1.4-0.5-1.5-1.2l0,0c-0.1-0.8,0.4-1.4,1.2-1.5l3-0.4L-238.6,115.7z"/>
	</g>
	<g>
		<g>
			<g>
				<g>
					<path class="st4" d="M-230.8,113.9l-12.4-2.6c2.7-1.3,11.3-5.2,11.3-5.2L-230.8,113.9z"/>
					<polygon class="st5" points="-40.5,94.9 -208.8,114.5 -230,115.1 -231.2,105.2 -210.3,100.9 -42,81.1 					"/>
				</g>
			</g>
		</g>
	</g>
	<path class="st6" d="M-242.3,112.6l-3,0.4c-0.8,0.1-1.4-0.5-1.5-1.2l0,0c-0.1-0.8,0.4-1.4,1.2-1.5l3-0.4L-242.3,112.6z"/>
	<polygon class="st7" points="-128.9,99.8 -229.3,111.9 -229.7,108.9 -129.3,96.6 	"/>
	<path class="st7" d="M-40.5,81.3l1.7,13.8c0,0,3.4-2.3,2.9-7.5C-36.4,82.5-40.5,81.3-40.5,81.3z"/>
	<polygon class="st7" points="-41.9,90.8 -48.7,91.5 -49.5,85.4 -42.7,84.7 	"/>
	<line class="st8" x1="-229.4" y1="113.3" x2="-41.1" y2="90.6"/>
	<line class="st8" x1="-230.4" y1="107.6" x2="-42.1" y2="84.9"/>
	<path class="st7" d="M-245.2,113c-0.8,0.1-1.4-0.5-1.5-1.2l0,0c-0.1-0.8,0.4-1.4,1.2-1.5"/>
</g>
</svg>
