<?xml version="1.0" encoding="utf-8"?>
<!-- Generator: Adobe Illustrator 19.1.0, SVG Export Plug-In . SVG Version: 6.00 Build 0)  -->
<svg version="1.1" id="Layer_1" xmlns="http://www.w3.org/2000/svg" xmlns:xlink="http://www.w3.org/1999/xlink" x="0px" y="0px"
	 width="390px" height="407.3px" viewBox="-274.7 80 390 407.3" style="enable-background:new -274.7 80 390 407.3;"
	 xml:space="preserve" preserveAspectRatio="none">
<style type="text/css">
	.st0{fill:#66FFFF;}
	.st1{fill:#8E8E8E;}
	.st2{fill:#808080;}
	.st3{fill:url(#SVGID_1_);stroke:#E6E6E6;stroke-miterlimit:10;}
	.st4{fill:url(#SVGID_2_);}
	.st5{fill:url(#SVGID_3_);}
	.st6{fill:url(#SVGID_4_);}
</style>
<g>
	<g>
		
			<rect x="-238.8" y="50.7" transform="matrix(-0.9953 9.690759e-002 -9.690759e-002 -0.9953 -331.623 170.5976)" class="st0" width="137.7" height="53.1"/>
	</g>
</g>
<g>
	<g>
		<g>
			<g>
				<polygon class="st1" points="93.1,71.3 96.6,74.8 94.8,494.3 91.3,490.8 				"/>
			</g>
			<g>
				<polygon class="st2" points="91.3,490.8 94.8,494.3 -215.3,494.4 -218.8,491 				"/>
			</g>
			<g>
				<linearGradient id="SVGID_1_" gradientUnits="userSpaceOnUse" x1="-218.8" y1="281.15" x2="93.1" y2="281.15">
					<stop  offset="0" style="stop-color:#949494"/>
					<stop  offset="0.1398" style="stop-color:#FFFFFF"/>
				</linearGradient>
				<path class="st3" d="M-63.4,71.4l156.5-0.1l-1.8,419.5l-310.1,0.2l1.8-419.5c1.8,0,36.9,0,48,0c0.5,0,0.9,0,1.3,0
					c1.2,0,1.8,0,1.8,0c1.9,0,37.8,0,46.8,0c1.2,0,1.9,0,1.9,0L-63.4,71.4z"/>
			</g>
		</g>
		<g>
			<g>
				<g>
					
						<linearGradient id="SVGID_2_" gradientUnits="userSpaceOnUse" x1="-274.4102" y1="510.2198" x2="-203.0994" y2="510.2198" gradientTransform="matrix(0.9994 3.489950e-002 3.489950e-002 -0.9994 -12.8745 575.2809)">
						<stop  offset="0" style="stop-color:#BDBDBD"/>
						<stop  offset="6.198652e-003" style="stop-color:#BABABA"/>
						<stop  offset="8.664469e-002" style="stop-color:#929292"/>
						<stop  offset="0.1507" style="stop-color:#7A7A7A"/>
						<stop  offset="0.19" style="stop-color:#717171"/>
						<stop  offset="0.2" style="stop-color:#686868"/>
						<stop  offset="0.2776" style="stop-color:#747474"/>
						<stop  offset="0.4189" style="stop-color:#959595"/>
						<stop  offset="0.6065" style="stop-color:#C9C9C9"/>
						<stop  offset="0.64" style="stop-color:#D3D3D3"/>
						<stop  offset="0.6409" style="stop-color:#D4D4D4"/>
						<stop  offset="0.6584" style="stop-color:#E2E2E2"/>
						<stop  offset="0.6802" style="stop-color:#EAEAEA"/>
						<stop  offset="0.72" style="stop-color:#ECECEC"/>
						<stop  offset="0.8469" style="stop-color:#D9D9D9"/>
						<stop  offset="1" style="stop-color:#C7C7C7"/>
					</linearGradient>
					<path class="st4" d="M-198.2,62.7c-0.1,3.2-13.7,0.5-32.3-0.1c-18.6-0.6-38.9-4-38.8-7.2s20.6-5.1,39.2-4.4
						S-198.1,59.5-198.2,62.7z"/>
					
						<linearGradient id="SVGID_3_" gradientUnits="userSpaceOnUse" x1="-259.9459" y1="68.6478" x2="-202.9112" y2="68.6478" gradientTransform="matrix(0.9994 3.489950e-002 3.489950e-002 -0.9994 -12.8745 575.2809)">
						<stop  offset="0" style="stop-color:#BDBDBD"/>
						<stop  offset="6.198652e-003" style="stop-color:#BABABA"/>
						<stop  offset="8.664469e-002" style="stop-color:#929292"/>
						<stop  offset="0.1507" style="stop-color:#7A7A7A"/>
						<stop  offset="0.19" style="stop-color:#717171"/>
						<stop  offset="0.2" style="stop-color:#686868"/>
						<stop  offset="0.2776" style="stop-color:#747474"/>
						<stop  offset="0.4189" style="stop-color:#959595"/>
						<stop  offset="0.6065" style="stop-color:#C9C9C9"/>
						<stop  offset="0.64" style="stop-color:#D3D3D3"/>
						<stop  offset="0.6409" style="stop-color:#D4D4D4"/>
						<stop  offset="0.6584" style="stop-color:#E2E2E2"/>
						<stop  offset="0.6802" style="stop-color:#EAEAEA"/>
						<stop  offset="0.72" style="stop-color:#ECECEC"/>
						<stop  offset="0.8469" style="stop-color:#D9D9D9"/>
						<stop  offset="1" style="stop-color:#C7C7C7"/>
					</linearGradient>
					<path class="st5" d="M-213.2,499.6c-0.1,1.8-12.9,2.8-28.6,2.3s-28.5-2.5-28.4-4.3s12.9-2.8,28.6-2.3S-213.2,497.8-213.2,499.6
						z"/>
					
						<linearGradient id="SVGID_4_" gradientUnits="userSpaceOnUse" x1="-274.4927" y1="288.9702" x2="-203.0994" y2="288.9702" gradientTransform="matrix(0.9994 3.489950e-002 3.489950e-002 -0.9994 -12.8745 575.2809)">
						<stop  offset="0" style="stop-color:#BDBDBD"/>
						<stop  offset="6.198652e-003" style="stop-color:#BABABA"/>
						<stop  offset="8.664469e-002" style="stop-color:#929292"/>
						<stop  offset="0.1507" style="stop-color:#7A7A7A"/>
						<stop  offset="0.19" style="stop-color:#717171"/>
						<stop  offset="0.2" style="stop-color:#686868"/>
						<stop  offset="0.2776" style="stop-color:#747474"/>
						<stop  offset="0.4189" style="stop-color:#959595"/>
						<stop  offset="0.6065" style="stop-color:#C9C9C9"/>
						<stop  offset="0.64" style="stop-color:#D3D3D3"/>
						<stop  offset="0.6409" style="stop-color:#D4D4D4"/>
						<stop  offset="0.6584" style="stop-color:#E2E2E2"/>
						<stop  offset="0.6802" style="stop-color:#EAEAEA"/>
						<stop  offset="0.72" style="stop-color:#ECECEC"/>
						<stop  offset="0.8469" style="stop-color:#D9D9D9"/>
						<stop  offset="1" style="stop-color:#C7C7C7"/>
					</linearGradient>
					<polyline class="st6" points="-198.2,62.7 -213.5,500.4 -270.3,498.4 -269.4,55.9 					"/>
				</g>
			</g>
		</g>
	</g>
</g>
</svg>
