<?xml version="1.0" encoding="utf-8"?>
<!-- Generator: Adobe Illustrator 19.1.0, SVG Export Plug-In . SVG Version: 6.00 Build 0)  -->
<svg version="1.1" id="Layer_1" xmlns="http://www.w3.org/2000/svg" xmlns:xlink="http://www.w3.org/1999/xlink" x="0px" y="0px"
	 width="268.9px" height="127.9px" viewBox="0 0 268.9 127.9" style="enable-background:new 0 0 268.9 127.9;" preserveAspectRatio="none" xml:space="preserve"
	>
<style type="text/css">
	.st0{fill:#B6E8F2;}
	.st1{fill:#A7DDE9;}
	.st2{fill:#F7F7F7;}
	.st3{fill:none;stroke:#000000;stroke-width:1.3041;stroke-miterlimit:10;}
</style>
<rect class="st0" width="268.9" height="127.9"/>
<rect class="st0" width="268.9" height="127.9"/>
<path class="st1" d="M9.3,69.1C9.3,69,9.3,69,9.3,69.1C9.3,69.1,9.3,69.1,9.3,69.1z"/>
<path class="st1" d="M9.4,82.4C9.4,82.4,9.4,82.3,9.4,82.4C9.4,82.3,9.4,82.3,9.4,82.4C9.4,82.4,9.4,82.4,9.4,82.4z"/>
<path class="st1" d="M9.9,94.7C9.9,94.6,9.9,94.6,9.9,94.7C9.8,94.6,9.8,94.6,9.9,94.7z"/>
<path class="st1" d="M9.4,82.9c0-0.1,0-0.2,0-0.3c0.2-0.1,0-0.1,0-0.3c-0.1,0.1-0.1,0.2-0.1,0.5C9.3,82.9,9.3,83,9.4,82.9z"/>
<path class="st1" d="M10.2,94.7c-0.1,0-0.2,0-0.3-0.1C9.9,94.7,10.1,94.7,10.2,94.7z"/>
<path class="st1" d="M16.8,3.7c0-0.2-0.1-0.4-0.2-0.6C16.5,3.4,16.7,3.5,16.8,3.7z"/>
<path class="st1" d="M13,21.7c0,0,0,0.1,0,0.1C13,21.8,13,21.8,13,21.7z"/>
<path class="st1" d="M16.8,3.7C16.8,3.7,16.8,3.7,16.8,3.7C16.8,3.7,16.8,3.7,16.8,3.7C16.8,3.7,16.8,3.7,16.8,3.7z"/>
<path class="st1" d="M9.2,57.7C9.2,57.7,9.2,57.7,9.2,57.7C9.2,57.7,9.2,57.7,9.2,57.7z"/>
<path class="st1" d="M9.5,63.5C9.5,63.5,9.5,63.4,9.5,63.5C9.5,63.4,9.5,63.5,9.5,63.5C9.5,63.5,9.5,63.5,9.5,63.5z"/>
<path class="st1" d="M266.7,75.1c0-9.2,0.8-19.1,0.9-27.7c0.3-12.3,0.4-25.7,0.9-37.7c0-0.3-0.2-0.5,0-0.7c0,0,0.1,0.1,0.1,0
	c-0.3-2.3,0.1-5,0.1-7.7L17,1.7c0.2,0.1,0.5,0.4,0.2,0.5c-0.1,0,0-0.2-0.2-0.2c0,0.3-0.2,0.6-0.2,1c0.1,0.1,0.2,0.2,0.3,0.3
	c-0.3,0.1,0,0.2,0,0.3c-0.1,0.1-0.2,0-0.3,0.1c0,0.1,0.1,0.2,0,0.4C16.6,4,16.5,4.2,16.3,4c0.3,0.5,0,1.6-0.1,2.2
	c0-0.1,0.2,0,0.2,0.1c-0.1,0.2-0.3,0.9,0,0.7c0,0.1,0,0.2,0,0.2c-0.1,0-0.2-0.1-0.3,0c0.1,0.3,0.3,0.1,0.4,0.3
	c-0.1,0.1-0.2,0.4-0.4,0.4c0.4,0.1,0.1,0.2,0.4,0.3c-0.4,0-0.2,0.4-0.6,0.5c0.5,0.1,0.3,0.4,0.5,0.6c-0.1,0.1-0.2,0.1-0.2,0.2
	c0.1,0,0.2,0,0.2,0.1c-0.2,0-0.1,0.3-0.1,0.5c-0.1-0.2-0.2,0.1-0.4,0.1c0.6,0.3-0.1,0.6,0.2,1.1c-0.2,0-0.5-0.3-0.3-0.1
	c0,0.1,0.2,0.1,0.3,0.2c-0.1,0.2,0.1,0.2,0.1,0.4c-0.3,0.3,0,0.7-0.1,1c-0.3,0.2-0.4-0.1-0.5-0.1c0.1,0.1,0.1,0.1,0.1,0.3
	c0.1,0,0.2,0,0.3,0c-0.3,0.1,0.2,0.4-0.1,0.5c0-0.1,0-0.2,0-0.2c-0.1,0.3-0.1,0.8-0.3,0.4c0,0.3,0.3,0.4,0.2,0.7
	c-0.5-0.1,0,0.6-0.5,0.7c0.1,0,0.2,0.1,0.2,0.2c0,0.1-0.1,0.2-0.1,0.3c-0.2-0.2-0.5,0-0.8,0.1c0.3,0.1,0.4,0.2,0.5,0.4
	c-0.1,0.1-0.3,0.1-0.4,0.2c0-0.2-0.1-0.1-0.3-0.3c0.1,0.3,0.1,0.3-0.2,0.4c0.2,0,0.4,0.1,0.5,0.2c0,0.3,0.1,0.7,0.3,0.7
	c0,0.1,0,0.3,0,0.3c-0.2,0-0.6-0.2-0.6,0.1c0.8,0.1,0.2,0.7-0.3,0.7c0.2,0.2-0.1,0.2-0.2,0.3c0.1,0.1,0.3-0.2,0.3,0.1
	c-0.2,0-0.3,0.5-0.5,0.3c0,0.3,0,0.5,0.2,0.7c-0.2-0.1-0.4-0.3-0.4,0c0.4,0.1,0.4,0.5,0.1,0.6c0.1,0,0.1,0,0.2,0
	c0,0.5-0.4,0.4-0.2,0.7c-0.1-0.1-0.3-0.4-0.4-0.2c0,0.1,0.3,0.1,0.3,0.3c-0.1,0.1-0.3-0.1-0.3,0c0.1,0,0.1,0.2,0.1,0.3
	c-0.1-0.1-0.1-0.1-0.2-0.1c-0.1,0.2,0.1,0.5-0.1,0.5c0,0,0-0.1,0-0.1c-0.1,0.1-0.4,0.1-0.2,0.3c0.1-0.1,0.2-0.2,0.4-0.1
	c-0.1,0.1-0.2,0.3-0.4,0.5c0.1,0.1,0.4,0,0.4,0.2c-0.2,0-0.4,0.3-0.3,0.4c0.1-0.1,0.2-0.3,0.3-0.3c-0.1,0.2,0.2,0.5-0.1,0.6
	c-0.1-0.2,0-0.2-0.1-0.3c0,0.1-0.4,0.2-0.2,0.4c0.1-0.3,0.3,0.4,0.4,0.5c-0.2,0,0.1,0.6-0.2,0.6c0.2-1-0.2-0.2,0,0.3
	c-0.3,0.3-0.2,0.6-0.4,0.9c-0.2-0.1-0.3,0-0.3,0.2c0.2,0,0.2,0.1,0.2,0.3c-0.1,0-0.1-0.2-0.2-0.1c0.4,0.9-0.5,2.3,0.1,3.1
	c-0.1,0.3-0.6-0.2-0.4,0c0.1,0.1,0.2,0.1,0.2,0.2c-0.7,0.3-0.4,1.9-0.6,1.8c-0.1,0.2,0.1,0.3,0.3,0.3c0.3,0.6-0.3,1.2,0.1,1.4
	c-0.1,0.1-0.2,0.6-0.2,0.7c0.1-0.2,0.3,0,0.4,0.1c-0.1,0,0.3,0.4,0,0.4c-0.2-0.1-0.1-0.4-0.3-0.4c-0.1,0.4,0.4,0.5,0.4,0.8
	c0,0.1-0.2,0-0.2,0.2c0.2,0,0.2,0.2,0.2,0.4c-0.1-0.1,0-0.2-0.2-0.1c0,0.3,0.2,0.2-0.1,0.3c0.1,0.1,0.2,0.2,0.3,0.3
	c0,0.1-0.2,0.1-0.3,0.2c0.1,0.1,0.3,0.1,0.2,0.2c-0.2-0.1-0.3,0-0.3,0.1c0.1,0.1,0.3,0.2,0.2,0.4c-0.1-0.1-0.4-0.5-0.5-0.4
	c0.1,0.1,0.3,0.2,0.3,0.4c-0.1,0.3-0.1,0.6,0,1c-0.3,0.2-0.3,0.4-0.4,0.9c-0.2-0.1-0.3-0.1-0.3,0c0.3,0.2,0.1,0.6-0.1,0.7
	c0.2,0,0.2,0.2,0.3,0.3c-0.5-0.1,0.1,0.3-0.3,0.4c0-0.1-0.1-0.2-0.1-0.3c-0.1,0.3,0.3,0.4,0.3,0.5c-0.2,0.1,0,0.4-0.3,0.1
	c0.1,0.5-0.4,0.7-0.3,1.1c0-0.1,0.1-0.2,0.2-0.1c-0.1,0.2-0.2,0.4-0.3,0.5c0.3,0,0.2,0.5,0.1,0.5c0-0.4-0.2-0.8-0.4-0.9
	c0.2,0.1-0.1,0.4,0,0.5c0.3-0.1,0.3,0.9-0.1,0.6c0.4,0.1-0.3,0.4,0,0.3c0.1-0.1,0.2,0,0.3,0c0.1,0.5,0.1,0.7-0.4,0.6
	c0.4,0.2,0.5,0.5,0.6,0.8c-0.2-0.1-0.1-0.4-0.4-0.5c-0.1,0.3,0.2,0.4,0.1,0.7c-0.4,0-0.6-0.3-0.9,0c0.5-0.1,0.9,0.5,1.2,0.4
	c-0.2,0.2,0.1,1.1-0.4,0.8c0.2,0.2-0.1,0.5-0.2,0.4c0.2,0,0.2,0.2,0.3,0.3c-0.2-0.1-0.3,0-0.4,0.1c0.6,0.1-0.4,0.5,0.2,0.4
	c-0.2,0.5-0.3,0.6-0.4,1.1c0.3,0.2,0.1-0.3,0.3-0.2c0.1,0.2-0.1,0.2,0,0.4c-0.1,0-0.1-0.1-0.2,0c0.1,0.1,0.4,0.1,0.3,0.2
	c-0.2-0.1-0.2-0.2-0.4,0c0.4,0.1,0.3,0.3,0.1,0.4c0.1,0,0.2,0,0.3,0c-0.1,0.3,0.1,0.5,0,0.9c-0.1,0-0.2-0.1-0.2-0.2
	c0.2,0.8-0.3,1.9,0,2.3c0,0.2-0.2,0.2-0.3,0.3c0.3,0.1,0.3,0,0.4,0.2c0.1-0.1-0.1-0.2,0.1-0.2c0.1,0.2-0.2,0.6-0.2,0.7
	c-0.2-0.2-0.4-0.9-0.6-0.9c0.3,0.4,0.5,0.8,0.7,1.2c-0.2,0-0.3,0-0.3,0c0.2,0.2,0,0.1,0.3,0.2c-0.3,0.2,0,0.5-0.3,0.4
	c0,0.3,0.2,0.3,0,0.5c0.1,0.1,0.3-0.1,0.3,0.1c-0.2,0-0.5-0.1-0.5,0.2c0.2,0.2,0.1-0.2,0.3,0c-0.3,0.3-0.3,0.6-0.7,0.4
	c0.1,0.1,0.3,0.2,0.4,0.3c0-0.1,0.1-0.2,0.2-0.1c-0.3,0.2,0.3,0.4,0.1,0.8c-0.2,0-0.4-0.1-0.4-0.2c0,0.3,0.4,0.3,0.4,0.6
	c-0.1,0.4-0.1,1.1,0.1,1.2c-0.2,0.2-0.6,0.1-0.7,0.3c0,0,0,0,0,0c0,0.2,0-0.2,0.4-0.1c0.1,0.1,0.1,0.2,0.2,0.2c-0.1,0-0.2,0-0.3,0.1
	c0.2,0.5,0.3,0.9,0.1,1.3c-0.2-0.1-0.2-0.2-0.3-0.3c0,0.3,0.6,0.7,0.2,1.1c0.6,0.3,0.1,0.9,0,1.2c0-0.1,0.1-0.2,0.2-0.2
	c-0.1,0.2,0.1,0.3,0,0.6c-0.1,0-0.1-0.1-0.2,0c0,0.2,0.3,0.2,0.1,0.4c-0.1,0-0.5-0.1-0.3,0c0.2,0.3,0,0.3-0.1,0.8
	c0.1,0.1,0.2,0,0.3,0c0,0.1,0.3,0.5,0,0.5c-0.1,0,0-0.2-0.1-0.2c0,0.1-0.1,0.3-0.1,0.4c0,0,0.1,0,0.1,0c0,0,0,0,0,0c0,0,0,0,0,0
	c0.1,0,0.1-0.1,0.2-0.1c-0.1,0.1,0.2,0.3-0.1,0.3c0-0.1,0-0.2-0.1-0.2c0,0,0,0,0,0c0,0.5-0.1,1.1-0.3,1.2c0.3-0.1-0.3,0.5,0.3,0.3
	c0.1,0.4-0.2,0.8-0.5,0.9c0.3,0.1,0.5,0,0.4,0.4c-0.1,0-0.1,0-0.2-0.1c0,0.1,0,0.3,0.1,0.4c0-0.3,0.2,0,0.2,0.2
	c-0.1-0.3-0.4,0.2-0.2,0.3c0-0.2,0.2-0.1,0.3-0.2c-0.2,0.5,0.1,1.4-0.5,1.5c0.5,0.1,0.6,0.3,0.5,0.7c-0.1-0.1-0.2,0-0.3,0
	c0.1,0,0.2,0.1,0.2,0.2c-0.1,0.4-0.4,0-0.6,0.2c0.2,0,0.3,0.1,0.5,0.1c0,0.4,0.1,0.9,0.2,1c-0.1,0-0.2,0.2-0.3,0.2V71
	c0.4-0.2,0,0.6,0.4,0.2c-0.1,0.2,0.2,0.2,0.1,0.4c-0.1,0-0.2-0.1-0.2,0c0.3,0,0,0.3,0,0.4c0.1,0.1,0.3-0.2,0.3,0.1
	c-0.1,0-0.6,0-0.3,0.3c0-0.1,0.2-0.1,0.2,0c-0.4,0.1-0.1,0.3,0.1,0.3c0,0.1,0,0.1,0,0.1c-0.1,0-0.3-0.3-0.4-0.1
	c0.1,0,0.3,0.1,0.3,0.2c-0.4,0-0.3-0.3-0.4-0.5c0,0.1-0.3,0.2-0.1,0.4c0.1-0.2,0.2,0.2,0,0.2c0.2,0,0.5,0.1,0.7,0
	c0,0.1,0.1,0.2,0.1,0.3c-0.1-0.1-0.8,0.2-0.7,0.4c0.2-0.2,0.5-0.2,0.8-0.3c-0.2,0.1-0.1,0.3,0,0.4c-0.2,0-0.2-0.1-0.3-0.1
	c-0.1,0.4,0.4,0.2,0.3,0.6c-0.2,0-0.2-0.2-0.3-0.2c0,0.2-0.1,0.4,0.1,0.4c0-0.1,0.2-0.2,0.2,0c0.2,0.5-0.6,0.5-0.3,0.8
	c-0.3,0.1-0.7,0.5-0.7,0.7c0-0.1,0.2-0.1,0.2,0c-0.1,0-0.1,0.1,0,0.2c0.1-0.2,0.2-0.4,0.4-0.4c0,0.1,0.1,0.2,0.1,0.4
	c-0.2,0.1-0.2,0.3-0.3,0.4c-0.1-0.1-0.2-0.2-0.3-0.3c0,0.2,0.1,0.3-0.1,0.4c0.1,0.1,0.3,0.2,0.4,0.4c-0.1,0-0.2,0.3,0,0.4
	c0-0.1,0-0.2,0.1-0.2c-0.2,0.3-0.1,0.4,0,0.7c-0.4,0.3-0.4,0.5-0.8,1c0.4-0.1,1-0.1,0.6,0.3c0.1,0,0.2,0,0.2,0
	c0.3,0.3,0.2,1.1,0.6,1.3c-0.2,0-0.2,0.2-0.3,0.3c0.2,0.1,0.3,0,0.4,0.2c0,0.1-0.6-0.1-0.3,0.1c0.1,0,0.2,0.1,0.2,0.2
	c-0.3-0.1,0,0.1-0.1,0.2c-0.1,0-0.2,0-0.3-0.1c0,0.2-0.1,0.2-0.3,0.3c0,0.2-0.1,0.3-0.2,0.5c0.1-0.1,0.3-0.1,0.3-0.3
	c-0.2,0,0-0.2,0.1-0.2c0.4,0.9,0.2,1.5,0.4,2.2c0-0.1,0.1-0.2,0.2,0c0,0.1-0.1,0.1-0.2,0.1C10,84.1,10,84,9.9,84
	c0,0.3,0.3,0.3,0.4,0.5c-0.2,0.3-0.7-0.4-0.6-0.2c0.4,0.3,0.1,0.5,0.4,0.8c-0.1,0.1-0.2,0.3,0,0.1c0,0.2-0.2,0.1-0.3,0.3
	c0.2,0,0.5,0.3,0.3,0.4c-0.1,0,0-0.2-0.2-0.2c0.1,0.3-0.1,0.6-0.1,1c0.1,0.1,0.2,0.2,0.3,0.3c-0.3,0.1,0,0.2,0.1,0.2
	c0,0.1-0.2,0.1-0.3,0.1c0-0.2-0.1-0.4-0.3-0.5c-0.1,0.4,0.4,0.5,0.3,0.9c-0.2,0-0.2,0.1-0.5,0c0.4,0.5,0.2,1.6,0.2,2.2
	c0-0.1,0.2-0.1,0.2,0c-0.1,0.2-0.2,0.9,0.1,0.7c0,0.1,0,0.2,0.1,0.2c-0.1,0-0.2-0.1-0.2,0c0.1,0.2,0.3,0.1,0.4,0.2
	c-0.1,0.1-0.1,0.4-0.3,0.4c0.4,0.1,0.1,0.2,0.4,0.2c-0.4,0-0.1,0.4-0.5,0.5c0.5,0,0.3,0.3,0.5,0.5c0,0.1-0.2,0.1-0.2,0.2
	c0.1,0,0.2,0,0.2,0.1c-0.2,0,0,0.4-0.1,0.5c-0.2-0.2-0.2,0.1-0.3,0.2c0.6,0.2,0,0.6,0.3,1.1c-0.1,0.2,0.1,0.2,0.1,0.3
	c-0.2,0.4,0.1,0.7,0.1,1c-0.2,0.2-0.4-0.1-0.5,0c0.1,0.1,0.2,0.1,0.1,0.3c0.1,0,0.2,0,0.2,0c-0.3,0.1,0.2,0.4-0.1,0.5
	c0-0.1,0-0.2-0.1-0.2c0,0.3,0,0.8-0.3,0.4c0.1,0.2,0.3,0.4,0.3,0.7c-0.5,0,0.1,0.6-0.4,0.8c0.1,0,0.2,0,0.2,0.1c0,0.1,0,0.2,0,0.3
	c-0.2-0.2-0.5,0.1-0.7,0.2c0.3,0,0.5,0.1,0.6,0.3c-0.1,0.1-0.3,0.1-0.4,0.3c0-0.2-0.1-0.1-0.4-0.3c0.1,0.3,0.2,0.3-0.1,0.4
	c0.2,0,0.4,0,0.6,0.1c0.1,0.2,0.2,0.7,0.3,0.6c0,0.1,0,0.3,0,0.3c-0.2,0-0.6-0.2-0.6,0.2c0.8,0,0.2,0.6-0.2,0.8
	c0.2,0.1-0.1,0.2-0.1,0.3c0.1,0.1,0.3-0.2,0.3,0c-0.2,0-0.3,0.6-0.5,0.4c0.1,0.2,0.1,0.5,0.3,0.7c-0.2-0.1-0.4-0.2-0.4,0.1
	c0.4,0,0.4,0.5,0.2,0.6c0.1,0,0.1,0,0.2,0c0.1,0.5-0.3,0.4-0.1,0.7c-0.1-0.1-0.4-0.3-0.5-0.2c0,0.1,0.3,0.1,0.3,0.2
	c0,0.1-0.3-0.1-0.3,0.1c0.1,0,0.1,0.2,0.1,0.3c-0.1-0.1-0.1-0.1-0.2,0c-0.1,0.2,0.2,0.5-0.1,0.6c0-0.1,0-0.2-0.1-0.2
	c0.1,0.3-0.4,0.3-0.1,0.5c0.1-0.1,0.1-0.2,0.3-0.2c-0.1,0.2-0.1,0.4-0.3,0.5c0.1,0.1,0.4,0,0.4,0.1c0,0.2,0.3,0.5,0,0.6
	c-0.1-0.2,0-0.2-0.1-0.3c0,0.1-0.3,0.3-0.1,0.4c0.1-0.3,0.3,0.3,0.4,0.4c-0.2,0,0.1,0.6-0.1,0.6c0,0.1,0,0.1,0.1,0.2
	c-0.2,0.4-0.1,0.6-0.2,1c-0.2,0-0.3,0-0.3,0.2c0.2,0,0.3,0.1,0.2,0.3c-0.1,0-0.1-0.2-0.2-0.1c0.5,0.9-0.2,2.4,0.5,3.1
	c0,0.3-0.6-0.1-0.4,0.1c0.1,0.1,0.2,0.1,0.2,0.2c-0.7,0.4-0.1,1.9-0.4,1.8c-0.1,0.2,0.2,0.3,0.3,0.2c0.4,0.6-0.1,1.2,0.3,1.4
	c-0.1,0.1-0.1,0.6-0.1,0.7c0-0.2,0.3-0.1,0.4,0.1c-0.1,0,0.3,0.3,0.1,0.4c-0.2,0-0.1-0.4-0.4-0.4c0,0.4,0.5,0.4,0.5,0.8
	c0,0.1-0.2,0-0.2,0.2c0.2,0,0.2,0.2,0.2,0.3c-0.2-0.1,0-0.2-0.2-0.1c0,0.3,0.2,0.2,0,0.3c0.1,0.1,0.2,0.2,0.3,0.3
	c0,0.1-0.2,0.1-0.3,0.3c0.1,0,0.3,0,0.2,0.2c-0.2-0.1-0.2,0.1-0.3,0.2c0.1,0.1,0.3,0.1,0.3,0.4c-0.2-0.1-0.4-0.5-0.5-0.3
	c0.1,0.1,0.3,0.2,0.4,0.3c-0.1,0.3,0,0.6,0.1,1c-0.3,0.2-0.3,0.4-0.2,0.9c-0.2-0.1-0.3,0-0.3,0.1c0.3,0.2,0.1,0.6,0,0.7
	c0.2,0,0.2,0.2,0.3,0.3c-0.5-0.1,0.1,0.3-0.3,0.4c0.1,0.1,0.2,0.1,0.3,0.1c-0.2,0.1,0.1,0.4-0.3,0.1c0.2,0.4-0.3,0.8-0.1,1.2
	c0-0.1,0-0.2,0.2-0.1c-0.1,0.2-0.1,0.4-0.2,0.5c0.3,0,0.3,0.5,0.2,0.5c-0.1-0.4-0.3-0.7-0.6-0.8c0.2,0.1,0,0.4,0.1,0.5
	c0.3-0.2,0.4,0.9,0,0.6c0.2,0.1,0.1,0.2,0,0.3c0.1,0,0.2,0,0.3,0c0.1,0.5,0.2,0.7-0.3,0.7c0.2,0.1,0.4,0.1,0.5,0.3v0.4h0.3v0.1
	h257.8V75.1z"/>
<path class="st2" d="M7.3,93C7.2,93,7.1,93,7,93C7,93,7.2,93,7.3,93z"/>
<path class="st2" d="M7,93C7,92.9,7,92.9,7,93C6.9,92.9,6.9,92.9,7,93z"/>
<path class="st2" d="M6.5,80.7C6.5,80.7,6.5,80.6,6.5,80.7C6.5,80.6,6.5,80.6,6.5,80.7C6.5,80.7,6.5,80.7,6.5,80.7z"/>
<path class="st2" d="M6.5,81.2c0-0.1,0-0.2,0-0.3c0.2-0.1,0-0.1,0-0.3c-0.1,0.1-0.1,0.2-0.1,0.5C6.4,81.2,6.4,81.3,6.5,81.2z"/>
<path class="st2" d="M6.4,67.4C6.4,67.3,6.4,67.3,6.4,67.4C6.4,67.4,6.4,67.4,6.4,67.4z"/>
<path class="st2" d="M6.6,61.8C6.6,61.8,6.6,61.7,6.6,61.8C6.6,61.7,6.6,61.8,6.6,61.8C6.6,61.8,6.6,61.8,6.6,61.8z"/>
<path class="st2" d="M6.3,56C6.3,56,6.3,56,6.3,56C6.3,56,6.3,56,6.3,56z"/>
<path class="st2" d="M263.8,71.4c0-9.2,0.8-19.1,0.9-27.7C265,31.4,265.1,18,265.6,6c0-0.3-0.2-0.5,0-0.7c0,0,0.1,0.1,0.1,0
	c-0.3-2.2,0.1-4.8,0.1-7.3L14.2-0.4c-0.3,0.1,0,0.2,0,0.3C14.1,0,14-0.1,13.9,0c0,0.1,0.1,0.2,0,0.4c-0.2-0.1-0.3,0.1-0.5-0.1
	c0.3,0.5,0,1.6-0.1,2.2c0-0.1,0.2,0,0.2,0.1c-0.1,0.2-0.3,0.9,0,0.7c0,0.1,0,0.2,0,0.2c-0.1,0-0.2-0.1-0.3,0
	c0.1,0.3,0.3,0.1,0.4,0.3c-0.1,0.1-0.2,0.4-0.4,0.4c0.4,0.1,0.1,0.2,0.4,0.3c-0.4,0-0.2,0.4-0.6,0.5c0.5,0.1,0.3,0.4,0.5,0.6
	c-0.1,0.1-0.2,0.1-0.2,0.2c0.1,0,0.2,0,0.2,0.1c-0.2,0-0.1,0.3-0.1,0.5c-0.1-0.2-0.2,0.1-0.4,0.1c0.6,0.3-0.1,0.6,0.2,1.1
	c-0.2,0-0.5-0.3-0.3-0.1c0,0.1,0.2,0.1,0.3,0.2c-0.1,0.2,0.1,0.2,0.1,0.4c-0.3,0.3,0,0.7-0.1,1C12.9,9.3,12.8,9,12.7,9
	c0.1,0.1,0.1,0.1,0.1,0.3c0.1,0,0.2,0,0.3,0c-0.3,0.1,0.2,0.4-0.1,0.5c0-0.1,0-0.2,0-0.2c-0.1,0.3-0.1,0.8-0.3,0.4
	c0,0.3,0.3,0.4,0.2,0.7c-0.5-0.1,0,0.6-0.5,0.7c0.1,0,0.2,0.1,0.2,0.2s-0.1,0.2-0.1,0.3c-0.2-0.2-0.5,0-0.8,0.1
	c0.3,0.1,0.4,0.2,0.5,0.4c-0.1,0.1-0.3,0.1-0.4,0.2c0-0.2-0.1-0.1-0.3-0.3c0.1,0.3,0.1,0.3-0.2,0.4c0.2,0,0.4,0.1,0.5,0.2
	c0,0.3,0.1,0.7,0.3,0.7c0,0.1,0,0.3,0,0.3c-0.2,0-0.6-0.2-0.6,0.1c0.8,0.1,0.2,0.7-0.3,0.7c0.2,0.2-0.1,0.2-0.2,0.3
	c0.1,0.1,0.3-0.2,0.3,0.1c-0.2,0-0.3,0.5-0.5,0.3c0,0.3,0,0.5,0.2,0.7c-0.2-0.1-0.4-0.3-0.4,0c0.4,0.1,0.4,0.5,0.1,0.6
	c0.1,0,0.1,0,0.2,0c0,0.5-0.4,0.4-0.2,0.7c-0.1-0.1-0.3-0.4-0.4-0.2c0,0.1,0.3,0.1,0.3,0.3c-0.1,0.1-0.3-0.1-0.3,0
	c0.1,0,0.1,0.2,0.1,0.3c-0.1-0.1-0.1-0.1-0.2-0.1c-0.1,0.2,0.1,0.5-0.1,0.5c0,0,0-0.1,0-0.1c-0.1,0.1-0.4,0.1-0.2,0.3
	c0.1-0.1,0.2-0.2,0.4-0.1c-0.1,0.1-0.2,0.3-0.4,0.5c0.1,0.1,0.4,0,0.4,0.2c-0.2,0-0.4,0.3-0.3,0.4c0.1-0.1,0.2-0.3,0.3-0.3
	c-0.1,0.2,0.2,0.5-0.1,0.6c-0.1-0.2,0-0.2-0.1-0.3c0,0.1-0.4,0.2-0.2,0.4c0.1-0.3,0.3,0.4,0.4,0.5c-0.2,0,0.1,0.6-0.2,0.6
	c0.2-1-0.2-0.2,0,0.3c-0.3,0.3-0.2,0.6-0.4,0.9c-0.2-0.1-0.3,0-0.3,0.2c0.2,0,0.2,0.1,0.2,0.3c-0.1,0-0.1-0.2-0.2-0.1
	c0.4,0.9-0.5,2.3,0.1,3.1c-0.1,0.3-0.6-0.2-0.4,0c0.1,0.1,0.2,0.1,0.2,0.2c-0.7,0.3-0.4,1.9-0.6,1.8c-0.1,0.2,0.1,0.3,0.3,0.3
	c0.3,0.6-0.3,1.2,0.1,1.4C9,29.4,8.9,29.9,8.9,30c0.1-0.2,0.3,0,0.4,0.1c-0.1,0,0.3,0.4,0,0.4c-0.2-0.1-0.1-0.4-0.3-0.4
	c-0.1,0.4,0.4,0.5,0.4,0.8c0,0.1-0.2,0-0.2,0.2c0.2,0,0.2,0.2,0.2,0.4c-0.1-0.1,0-0.2-0.2-0.1c0,0.3,0.2,0.2-0.1,0.3
	c0.1,0.1,0.2,0.2,0.3,0.3c0,0.1-0.2,0.1-0.3,0.2c0.1,0.1,0.3,0.1,0.2,0.2c-0.2-0.1-0.3,0-0.3,0.1c0.1,0.1,0.3,0.2,0.2,0.4
	c-0.1-0.1-0.4-0.5-0.5-0.4C8.8,32.6,9,32.7,9,32.9c-0.1,0.3-0.1,0.6,0,1c-0.3,0.2-0.3,0.4-0.4,0.9c-0.2-0.1-0.3-0.1-0.3,0
	c0.3,0.2,0.1,0.6-0.1,0.7c0.2,0,0.2,0.2,0.3,0.3c-0.5-0.1,0.1,0.3-0.3,0.4c0-0.1-0.1-0.2-0.1-0.3c-0.1,0.3,0.3,0.4,0.3,0.5
	c-0.2,0.1,0,0.4-0.3,0.1c0.1,0.5-0.4,0.7-0.3,1.1c0-0.1,0.1-0.2,0.2-0.1c-0.1,0.2-0.2,0.4-0.3,0.5c0.3,0,0.2,0.5,0.1,0.5
	c0-0.4-0.2-0.8-0.4-0.9c0.2,0.1-0.1,0.4,0,0.5C7.7,38,7.7,39,7.3,38.7c0.4,0.1-0.3,0.4,0,0.3c0.1-0.1,0.2,0,0.3,0
	c0.1,0.5,0.1,0.7-0.4,0.6c0.4,0.2,0.5,0.5,0.6,0.8c-0.2-0.1-0.1-0.4-0.4-0.5c-0.1,0.3,0.2,0.4,0.1,0.7c-0.4,0-0.6-0.3-0.9,0
	c0.5-0.1,0.9,0.5,1.2,0.4c-0.2,0.2,0.1,1.1-0.4,0.8c0.2,0.2-0.1,0.5-0.2,0.4c0.2,0,0.2,0.2,0.3,0.3c-0.2-0.1-0.3,0-0.4,0.1
	c0.6,0.1-0.4,0.5,0.2,0.4c-0.2,0.5-0.3,0.6-0.4,1.1c0.3,0.2,0.1-0.3,0.3-0.2c0.1,0.2-0.1,0.2,0,0.4c-0.1,0-0.1-0.1-0.2,0
	c0.1,0.1,0.4,0.1,0.3,0.2c-0.2-0.1-0.2-0.2-0.4,0c0.4,0.1,0.3,0.3,0.1,0.4c0.1,0,0.2,0,0.3,0c-0.1,0.3,0.1,0.5,0,0.9
	c-0.1,0-0.2-0.1-0.2-0.2c0.2,0.8-0.3,1.9,0,2.3c0,0.2-0.2,0.2-0.3,0.3c0.3,0.1,0.3,0,0.4,0.2c0.1-0.1-0.1-0.2,0.1-0.2
	c0.1,0.2-0.2,0.6-0.2,0.7C6.9,48.7,6.7,48,6.5,48c0.3,0.4,0.5,0.8,0.7,1.2c-0.2,0-0.3,0-0.3,0c0.2,0.2,0,0.1,0.3,0.2
	c-0.3,0.2,0,0.5-0.3,0.4c0,0.3,0.2,0.3,0,0.5c0.1,0.1,0.3-0.1,0.3,0.1c-0.2,0-0.5-0.1-0.5,0.2c0.2,0.2,0.1-0.2,0.3,0
	c-0.3,0.3-0.3,0.6-0.7,0.4c0.1,0.1,0.3,0.2,0.4,0.3c0-0.1,0.1-0.2,0.2-0.1C6.6,51.4,7.2,51.6,7,52c-0.2,0-0.4-0.1-0.4-0.2
	c0,0.3,0.4,0.3,0.4,0.6c-0.1,0.4-0.1,1.1,0.1,1.2c-0.2,0.2-0.6,0.1-0.7,0.3c0,0,0,0,0,0c0,0.2,0-0.2,0.4-0.1C6.9,53.9,6.9,54,7,54
	c-0.1,0-0.2,0-0.3,0.1C6.9,54.6,7,55,6.8,55.4c-0.2-0.1-0.2-0.2-0.3-0.3c0,0.3,0.6,0.7,0.2,1.1c0.6,0.3,0.1,0.9,0,1.2
	c0-0.1,0.1-0.2,0.2-0.2c-0.1,0.2,0.1,0.3,0,0.6c-0.1,0-0.1-0.1-0.2,0C6.7,58,7,58,6.8,58.2c-0.1,0-0.5-0.1-0.3,0
	c0.2,0.3,0,0.3-0.1,0.8c0.1,0.1,0.2,0,0.3,0c0,0.1,0.3,0.5,0,0.5c-0.1,0,0-0.2-0.1-0.2c0,0.1-0.1,0.3-0.1,0.4c0,0,0.1,0,0.1,0
	c0,0,0,0,0,0c0,0,0,0,0,0c0.1,0,0.1-0.1,0.2-0.1c-0.1,0.1,0.2,0.3-0.1,0.3c0-0.1,0-0.2-0.1-0.2c0,0,0,0,0,0c0,0.5-0.1,1.1-0.3,1.2
	c0.3-0.1-0.3,0.5,0.3,0.3c0.1,0.4-0.2,0.8-0.5,0.9c0.3,0.1,0.5,0,0.4,0.4c-0.1,0-0.1,0-0.2-0.1c0,0.1,0,0.3,0.1,0.4
	c0-0.3,0.2,0,0.2,0.2c-0.1-0.3-0.4,0.2-0.2,0.3c0-0.2,0.2-0.1,0.3-0.2c-0.2,0.5,0.1,1.4-0.5,1.5c0.5,0.1,0.6,0.3,0.5,0.7
	c-0.1-0.1-0.2,0-0.3,0c0.1,0,0.2,0.1,0.2,0.2c-0.1,0.4-0.4,0-0.6,0.2c0.2,0,0.3,0.1,0.5,0.1c0,0.4,0.1,0.9,0.2,1
	c-0.1,0-0.2,0.2-0.3,0.2v0.3c0.4-0.2,0,0.6,0.4,0.2c-0.1,0.2,0.2,0.2,0.1,0.4c-0.1,0-0.2-0.1-0.2,0c0.3,0,0,0.3,0,0.4
	C6.8,68.4,7,68.1,7,68.4c-0.1,0-0.6,0-0.3,0.3c0-0.1,0.2-0.1,0.2,0C6.5,68.8,6.8,69,7,69c0,0.1,0,0.1,0,0.1c-0.1,0-0.3-0.3-0.4-0.1
	c0.1,0,0.3,0.1,0.3,0.2c-0.4,0-0.3-0.3-0.4-0.5c0,0.1-0.3,0.2-0.1,0.4c0.1-0.2,0.2,0.2,0,0.2c0.2,0,0.5,0.1,0.7,0
	c0,0.1,0.1,0.2,0.1,0.3c-0.1-0.1-0.8,0.2-0.7,0.4c0.2-0.2,0.5-0.2,0.8-0.3c-0.2,0.1-0.1,0.3,0,0.4C7.1,70.1,7.1,70,7,70
	c-0.1,0.4,0.4,0.2,0.3,0.6c-0.2,0-0.2-0.2-0.3-0.2c0,0.2-0.1,0.4,0.1,0.4c0-0.1,0.2-0.2,0.2,0c0.2,0.5-0.6,0.5-0.3,0.8
	c-0.3,0.1-0.7,0.5-0.7,0.7c0-0.1,0.2-0.1,0.2,0c-0.1,0-0.1,0.1,0,0.2c0.1-0.2,0.2-0.4,0.4-0.4c0,0.1,0.1,0.2,0.1,0.4
	c-0.2,0.1-0.2,0.3-0.3,0.4c-0.1-0.1-0.2-0.2-0.3-0.3c0,0.2,0.1,0.3-0.1,0.4c0.1,0.1,0.3,0.2,0.4,0.4c-0.1,0-0.2,0.3,0,0.4
	c0-0.1,0-0.2,0.1-0.2c-0.2,0.3-0.1,0.4,0,0.7c-0.4,0.3-0.4,0.5-0.8,1c0.4-0.1,1-0.1,0.6,0.3c0.1,0,0.2,0,0.2,0
	c0.3,0.3,0.2,1.1,0.6,1.3c-0.2,0-0.2,0.2-0.3,0.3c0.2,0.1,0.3,0,0.4,0.2c0,0.1-0.6-0.1-0.3,0.1c0.1,0,0.2,0.1,0.2,0.2
	c-0.3-0.1,0,0.1-0.1,0.2c-0.1,0-0.2,0-0.3-0.1C7,78,6.9,78,6.7,78.1c0,0.2-0.1,0.3-0.2,0.5c0.1-0.1,0.3-0.1,0.3-0.3
	c-0.2,0,0-0.2,0.1-0.2c0.4,0.9,0.2,1.5,0.4,2.2c0-0.1,0.1-0.2,0.2,0c0,0.1-0.1,0.1-0.2,0.1c-0.2,0-0.2-0.1-0.3-0.1
	c0,0.3,0.3,0.3,0.4,0.5c-0.2,0.3-0.7-0.4-0.6-0.2c0.4,0.3,0.1,0.5,0.4,0.8c-0.1,0.1-0.2,0.3,0,0.1c0,0.2-0.2,0.1-0.3,0.3
	c0.2,0,0.5,0.3,0.3,0.4c-0.1,0,0-0.2-0.2-0.2c0.1,0.3-0.1,0.6-0.1,1c0.1,0.1,0.2,0.2,0.3,0.3c-0.3,0.1,0,0.2,0.1,0.2
	c0,0.1-0.2,0.1-0.3,0.1c0-0.2-0.1-0.4-0.3-0.5C6.6,83.5,7.1,83.6,7,84c-0.2,0-0.2,0.1-0.5,0c0.4,0.5,0.2,1.6,0.2,2.2
	c0-0.1,0.2-0.1,0.2,0c-0.1,0.2-0.2,0.9,0.1,0.7c0,0.1,0,0.2,0.1,0.2c-0.1,0-0.2-0.1-0.2,0c0.1,0.2,0.3,0.1,0.4,0.2
	c-0.1,0.1-0.1,0.4-0.3,0.4c0.4,0.1,0.1,0.2,0.4,0.2c-0.4,0-0.1,0.4-0.5,0.5c0.5,0,0.3,0.3,0.5,0.5c0,0.1-0.2,0.1-0.2,0.2
	c0.1,0,0.2,0,0.2,0.1c-0.2,0,0,0.4-0.1,0.5c-0.2-0.2-0.2,0.1-0.3,0.2c0.6,0.2,0,0.6,0.3,1.1c-0.1,0.2,0.1,0.2,0.1,0.3
	c-0.2,0.4,0.1,0.7,0.1,1c-0.2,0.2-0.4-0.1-0.5,0c0.1,0.1,0.2,0.1,0.1,0.3c0.1,0,0.2,0,0.2,0C7,92.7,7.5,93,7.2,93.1
	c0-0.1,0-0.2-0.1-0.2c0,0.3,0,0.8-0.3,0.4c0.1,0.2,0.3,0.4,0.3,0.7c-0.5,0,0.1,0.6-0.4,0.8c0.1,0,0.2,0,0.2,0.1c0,0.1,0,0.2,0,0.3
	c-0.2-0.2-0.5,0.1-0.7,0.2c0.3,0,0.5,0.1,0.6,0.3c-0.1,0.1-0.3,0.1-0.4,0.3c0-0.2-0.1-0.1-0.4-0.3C6.1,96,6.2,96,5.9,96.1
	c0.2,0,0.4,0,0.6,0.1c0.1,0.2,0.2,0.7,0.3,0.6c0,0.1,0,0.3,0,0.3c-0.2,0-0.6-0.2-0.6,0.2c0.8,0,0.2,0.6-0.2,0.8
	c0.2,0.1-0.1,0.2-0.1,0.3c0.1,0.1,0.3-0.2,0.3,0c-0.2,0-0.3,0.6-0.5,0.4C5.8,99,5.8,99.3,6,99.5c-0.2-0.1-0.4-0.2-0.4,0.1
	c0.4,0,0.4,0.5,0.2,0.6c0.1,0,0.1,0,0.2,0c0.1,0.5-0.3,0.4-0.1,0.7c-0.1-0.1-0.4-0.3-0.5-0.2c0,0.1,0.3,0.1,0.3,0.2
	c0,0.1-0.3-0.1-0.3,0.1c0.1,0,0.1,0.2,0.1,0.3c-0.1-0.1-0.1-0.1-0.2,0c-0.1,0.2,0.2,0.5-0.1,0.6c0-0.1,0-0.2-0.1-0.2
	c0.1,0.3-0.4,0.3-0.1,0.5c0.1-0.1,0.1-0.2,0.3-0.2c-0.1,0.2-0.1,0.4-0.3,0.5c0.1,0.1,0.4,0,0.4,0.1c0,0.2,0.3,0.5,0,0.6
	c-0.1-0.2,0-0.2-0.1-0.3c0,0.1-0.3,0.3-0.1,0.4c0.1-0.3,0.3,0.3,0.4,0.4c-0.2,0,0.1,0.6-0.1,0.6c0,0.1,0,0.1,0.1,0.2
	c-0.2,0.4-0.1,0.6-0.2,1c-0.2,0-0.3,0-0.3,0.2c0.2,0,0.3,0.1,0.2,0.3c-0.1,0-0.1-0.2-0.2-0.1c0.5,0.9-0.2,2.4,0.5,3.1
	c0,0.3-0.6-0.1-0.4,0.1c0.1,0.1,0.2,0.1,0.2,0.2c-0.7,0.4-0.1,1.9-0.4,1.8c-0.1,0.2,0.2,0.3,0.3,0.2c0.4,0.6-0.1,1.2,0.3,1.4
	c-0.1,0.1-0.1,0.6-0.1,0.7c0-0.2,0.3-0.1,0.4,0.1c-0.1,0,0.3,0.3,0.1,0.4c-0.2,0-0.1-0.4-0.4-0.4c0,0.4,0.5,0.4,0.5,0.8
	c0,0.1-0.2,0-0.2,0.2c0.2,0,0.2,0.2,0.2,0.3c-0.2-0.1,0-0.2-0.2-0.1c0,0.3,0.2,0.2,0,0.3c0.1,0.1,0.2,0.2,0.3,0.3
	c0,0.1-0.2,0.1-0.3,0.3c0.1,0,0.3,0,0.2,0.2c-0.2-0.1-0.2,0.1-0.3,0.2c0.1,0.1,0.3,0.1,0.3,0.4c-0.2-0.1-0.4-0.5-0.5-0.3
	c0.1,0.1,0.3,0.2,0.4,0.3c-0.1,0.3,0,0.6,0.1,1c-0.3,0.2-0.3,0.4-0.2,0.9c-0.2-0.1-0.3,0-0.3,0.1c0.3,0.2,0.1,0.6,0,0.7
	c0.2,0,0.2,0.2,0.3,0.3c-0.5-0.1,0.1,0.3-0.3,0.4c0.1,0.1,0.2,0.1,0.3,0.1C5.7,120,6,120.3,5.6,120c0.2,0.4-0.3,0.8-0.1,1.2
	c0-0.1,0-0.2,0.2-0.1c-0.1,0.2-0.1,0.4-0.2,0.5c0.3,0,0.3,0.5,0.2,0.5c-0.1-0.4-0.3-0.7-0.6-0.8c0.2,0.1,0,0.4,0.1,0.5
	c0.3-0.2,0.4,0.9,0,0.6c0.2,0.1,0.1,0.2,0,0.3c0.1,0,0.2,0,0.3,0c0.1,0.5,0.2,0.7-0.3,0.7c0.2,0.1,0.4,0.1,0.5,0.3v0.4H6v0.6
	c0.2,0,0.3,0.1,0.3,0.3c-0.2-0.3-0.1,0.8,0,0.5c-0.1,0.2-0.3,0.4-0.4,0.5c0.2,0,0.3,0.3,0.2,0.4c0,0,0,0.1,0,0.1
	c-0.3,0.3-0.4,0.4-0.3,0.8c0-0.1,0.4-0.3,0.4,0c-0.3,0-1.2,0.6-1,0.5c0.4-0.1,0.6-0.4,1-0.3c-0.1,0.1,0,0.3,0,0.4h257.6V71.4z"/>
<path class="st2" d="M10.1,20c0,0,0,0.1,0,0.1C10.1,20.1,10.1,20.1,10.1,20z"/>
<path class="st2" d="M13.9,2C13.9,2,13.9,2,13.9,2C13.9,2,13.9,2,13.9,2C13.9,2,13.9,2,13.9,2z"/>
<path class="st2" d="M13.7,1.4c-0.1,0.2,0.1,0.4,0.2,0.6C13.9,1.8,13.8,1.6,13.7,1.4"/>
<path class="st3" d="M140.9,33.3"/>
<path class="st3" d="M28,33.3"/>
</svg>
