<?xml version="1.0" encoding="utf-8"?>
<!-- Generator: Adobe Illustrator 19.1.0, SVG Export Plug-In . SVG Version: 6.00 Build 0)  -->
<svg version="1.1" id="Layer_1" xmlns="http://www.w3.org/2000/svg" xmlns:xlink="http://www.w3.org/1999/xlink" x="0px" y="0px"
	 width="268.9px" height="29.8px" viewBox="0 0 268.9 29.8" style="enable-background:new 0 0 268.9 29.8;" xml:space="preserve" preserveAspectRatio="none">
<style type="text/css">
	.st0{fill:#B6E8F2;}
	.st1{fill:#A7DDE9;}
	.st2{fill:#F7F7F7;}
</style>
<g id="Background">
	<rect class="st0" width="268.9" height="29.8"/>
</g>
<polyline class="st0" points="268.9,29.8 268.9,0 0,0 0,29.8 "/>
<path class="st1" d="M73.7,20.1c0-0.1,0-0.1,0-0.2c0,0-0.1,0-0.1,0.1C73.6,20,73.6,20.1,73.7,20.1z"/>
<path class="st1" d="M200.3,25.4c0,0,0,0.1,0.1,0.1C200.3,25.4,200.4,25.2,200.3,25.4z"/>
<path class="st1" d="M200.4,25.5C200.4,25.5,200.4,25.6,200.4,25.5C200.4,25.6,200.4,25.5,200.4,25.5z"/>
<path class="st1" d="M204,24.1C204,24.1,204,24.1,204,24.1C203.9,24,203.9,24,204,24.1z"/>
<path class="st1" d="M195.7,26.1C195.7,26.1,195.7,26.1,195.7,26.1C195.8,26,195.8,26,195.7,26.1z"/>
<path class="st1" d="M243.5,15.4C243.5,15.4,243.5,15.4,243.5,15.4C243.6,15.4,243.6,15.4,243.5,15.4z"/>
<polygon class="st1" points="180.8,24.9 180.8,24.9 180.8,24.9 "/>
<path class="st1" d="M268.7,29.8c0.1-0.7,0.2-1.6,0.2-2.3c-0.8-3.6-0.7-6.6-0.7-9.6c0-1.9,0-3.8,0.1-5.6c-0.3,0-0.4,0.1-0.5-0.1
	c0-0.2,0.4-0.1,0.1-0.3c-0.2,0.2-0.3-0.2-0.4-0.3c-0.4,0.5,0.4,1-0.2,1.2c0.1-0.5-0.4,0.2-0.5-0.2c-0.2,0.2-0.3,0.4-0.5,0.4
	c0.2-0.1,0-0.4-0.1-0.4c-0.1,0.4-0.6,0.1-0.6,0.2c0-0.2,0.3,0,0.3-0.2c-0.5,0,0-0.3-0.3-0.5c0,0.4-0.4,0.2-0.4,0.5
	c0.2,0.1,0.3-0.4,0.3-0.1c-0.1,0-0.1,0.3-0.2,0.3c-0.1-0.2-0.4-0.2-0.3-0.5c-0.7,0.5-0.7,0-1.4,0.1c0,0.2,0.1,0.4-0.2,0.4
	c0-0.1,0.1-0.2,0.1-0.2c-0.1,0-0.4,0.3-0.5,0c0-0.1,0.1,0,0.2-0.1c-0.2-0.2-0.3,0.2-0.6,0.1c0-0.2,0.3-0.3,0-0.3
	c-0.2,0.3-0.4,0.4-0.7,0.6c0.1-0.3,0.2-0.2,0.3-0.5c-0.3,0-0.4,0.4-0.7,0.6c0.1,0.2,0.1,0.1,0.2,0.2c-0.2,0-0.1,0.2-0.3,0.2
	c-0.1-0.4-0.1-0.3-0.2,0c0-0.3-0.3,0-0.3-0.4c-0.1,0.2-0.3,0.3-0.4,0.4c-0.2-0.3-0.3-0.2-0.3,0c-0.2,0-0.1-0.2-0.3-0.2
	c-0.2,0.1-0.3,0.3-0.5,0.2c-0.1,0.3,0.2,0.2,0.1,0.4c-0.2-0.1-0.5,0.2-0.6,0.4c-0.2-0.1-0.2-0.4-0.3-0.5c-0.3,0.1,0.3,0.5,0,0.6
	c-0.1-0.2-0.2-0.1-0.3-0.4c0,0.2-0.2,0.2-0.2,0.4c0.1,0,0.2,0.1,0.1,0.2c0,0.1-0.1,0.1-0.2,0.1c0-0.1,0-0.2,0-0.2
	c0,0.1-0.1,0.3-0.2,0.3c0-0.1-0.1-0.2-0.1-0.3c0.1,0,0.2,0.1,0.2,0.1c0.1-0.2-0.1-0.2-0.3-0.3c-0.1,0.1,0,0.3-0.2,0.3
	c-0.1-0.6,0.1-0.1-0.3,0c-0.2,0-0.5-0.2-0.7,0.1c0-0.2,0-0.4-0.1-0.6c-0.2,0.2-0.4,0.6-0.8,0.6c0.2-0.2-0.2-0.1-0.1-0.4
	c-0.3,0.5-0.3,0.3-0.7,0.5c0.1-0.1,0.1-0.2,0-0.3c-0.1,0.4-0.2,0.1-0.4,0c0,0.2,0.2,0.2-0.1,0.4c0-0.4,0,0.2-0.3,0
	c0-0.2,0.2-0.2,0.2-0.2c0.7-1-0.1-0.4-0.4,0.3c0-0.3,0.1-0.3-0.1-0.5c-0.1,0.4-0.2,0.3-0.3,0.5c0,0,0-0.1-0.1-0.2
	c0,0.2,0.1,0.5-0.1,0.7c0-0.3-0.3-0.7-0.6-0.3c0.4-0.5-0.5-0.7-0.8-0.5c0.3-0.1,0.4,0.1,0.5,0.4c-0.2,0,0-0.3-0.3-0.3
	c-0.2,0.2,0.1,0.4-0.1,0.4c-0.2,0-0.4-0.3-0.5-0.4c0,0,0,0.1,0,0.1c-0.1,0-0.2,0.1-0.3,0.1c-0.1-0.2-0.5-0.2-0.8-0.1
	c0.4,0.1,0.7,0.2,0.9,0.3c-0.3,0.1-0.5,0.3-0.8,0.5c0.1-0.3-0.1-0.3-0.3-0.3c0.2,0.4-0.4-0.1-0.4,0c0.1,0,0,0.3-0.1,0.3
	c-0.2-0.1-0.1-0.8-0.4-0.6c0.1,0.1,0.1,0.3,0.1,0.5c-0.2,0-0.2-0.1-0.3-0.1c0,0.1,0,0.2-0.1,0.2c0-0.1,0-0.4,0-0.6
	c-0.3,0.1-0.4,0.5-0.6,0.6c-0.2,0-0.1-0.2-0.3-0.3c0,0.4,0.2,0.6,0.2,1c-0.1,0-0.1-0.1-0.3-0.1c-0.1,0.3,0.3,0.1,0.3,0.3
	c-0.1,0-0.2,0.1-0.4,0.1c-0.1-0.4-0.4-0.6-0.5-0.7c-0.1,0.3,0.1,0.4-0.1,0.6c0.1-0.1-0.1-0.4-0.2-0.3c0.2,0,0,0.4-0.2,0.3
	c-0.2-0.1-0.2-0.4-0.3-0.5c-0.1,0.2,0.2,0.2,0.1,0.4c-0.2-0.4-0.2,0-0.3,0c-0.3,0-0.2-0.6-0.8-0.5c0.1-0.1,0.2-0.3,0-0.3
	c-0.2,0.5-0.7-0.1-0.9,0.4c-0.2,0-0.4-0.4-0.6-0.1c-0.2-0.2-0.3-0.3-0.3-0.4c0,0.1-0.2,0.2-0.2,0.1c0.1-0.3-0.1-0.3-0.1-0.4
	c-0.1,0.2,0,0.6-0.2,0.6c-0.4-0.2-0.4-0.2-0.8-0.4c-0.2,0.5-0.4-0.2-0.5,0.2c0.2,0-0.2,0.7,0.1,0.5c0-0.2,0.1-0.3,0.2-0.3
	c0,0.1,0,0.1,0,0.2c-0.2,0.1-0.4,0.3-0.5,0.5c0.1,0,0.2,0.1,0,0.2c-0.2-0.1,0-0.4-0.2-0.4c0,0.3-0.4,0-0.4,0.2
	c0.3,0,0.3,0.2,0.3,0.4c-0.1-0.2-0.2-0.2-0.4-0.2c-0.3-0.7-0.4-0.6-0.1,0.1c0.2,0.1,0.4-0.1,0.4,0.1c-0.1,0.2-0.1,0.4-0.2,0.5
	c-0.2,0,0.2-0.4-0.1-0.4c-0.2,0.3-0.1,0.4-0.1,0.6c-0.3,0-0.4,0.3-0.6,0.4c0.1,0,0,0.2,0,0.3c-0.2-0.2-0.1-0.1-0.1,0.1
	c-0.3,0-0.5,0.3-0.7,0c0,0.2,0,0.4,0.1,0.5c-0.4,0.3-0.2,0.1-0.5,0.3c0.1-0.2-0.2-0.6-0.1-0.3c-0.1,0.2,0.1,0.2,0,0.3
	c-0.8-0.3-0.7-0.1-1.2-0.3c0.1,0.3-0.1,0.5-0.3,0.7c-0.2,0-0.1-0.3-0.2-0.4c0,0.3-0.3,0.1-0.3,0.4c0.3,0,0.6,0.1,0.4,0.3
	c0-0.3-0.4-0.2-0.4,0c0-0.3-0.1-0.3-0.3-0.1c0-0.2-0.4-0.3-0.4-0.2c0.1,0,0.1,0.1,0.1,0.3c-0.4-0.1-0.3-0.2-0.5,0.1
	c0.1-0.3,0-0.2,0.1-0.5c-0.2,0-0.3-0.3-0.4,0c0.5,0.1-0.1,0.3-0.2,0.4c0-0.2,0.3-0.2,0-0.2c0,0.2-0.1,0.3-0.3,0.2
	c0,0.2,0,0.3-0.2,0.4c0-0.1-0.1-0.1-0.2,0c0,0,0.1,0.1,0,0.1c-0.1-0.1,0-0.3-0.2-0.3c-0.3,0.4-0.5-0.3-0.6-0.3
	c-0.1,0.4-0.6,0.2-0.7,0.5c0-0.3,0.2-0.2,0.3-0.4c-0.3,0.2-0.8,0.2-0.8,0.6c-0.3-0.1-0.4,0.2-0.6,0c-0.1,0.5-1.2,0.2-0.7,0.7
	c-0.1,0-0.2-0.1-0.2-0.1c-0.1,0.3,0.1,0.4-0.3,0.4c0-0.1,0.1-0.3,0-0.3c-0.2,0-0.1,0.4-0.3,0.4c-0.1-0.2-0.1,0-0.2,0
	c-0.1-0.2-0.1-0.3-0.2-0.4c-0.1,0.3,0.1,0.3,0.1,0.3c0,0.1,0,0.2-0.1,0.2c-0.1-0.4-0.3-0.5-0.7-0.4c-0.1-0.3-0.1-0.5-0.3-0.7
	c0,0.2-0.1,0.4-0.2,0.4c0-0.3,0-0.2,0.1-0.4c-0.1,0-0.1-0.1-0.3-0.1c-0.1,0.2,0.1,0.6-0.1,0.4c0,0.3,0,0.4,0.3,0.3
	c-0.1,0.1,0,0.5-0.2,0.5c-0.3-0.1-0.2-0.3,0-0.3c-0.3-0.3-0.4,0.3-0.7,0.3c0-0.2,0.1-0.4-0.1-0.4c0,0.2-0.1,0.3-0.2,0.1
	c0.1,0.3-0.4,0.4-0.9,0.4c0.1-0.3,0-0.6-0.2-0.8c0.2,0.7-0.1,0.8-0.1,1.1c-0.3-0.1-0.2,0.2-0.3,0.2c0-0.1-0.1-0.1-0.1-0.2
	c0-0.2,0.3-0.5,0.1-0.3c-0.1,0.1-0.1,0.3-0.3,0.2c0.1-0.2,0-0.3-0.1-0.4c-0.2,0.2,0.2,0.4-0.1,0.4c0.1-0.3-0.1,0-0.2,0
	c0.1-0.2,0.3-0.3,0-0.4c-0.1,0.1,0,0.4-0.2,0.4c0.1-0.1-0.7-0.2-0.6-0.8c-0.3,0.3-0.2,0.7-0.5,1c0-0.1,0.1-0.3-0.1-0.3
	c0,0.9-0.7,0.3-0.8,0.9c-0.3-0.1,0-0.3-0.3,0c-0.1-0.1,0.1-0.4-0.1-0.5c-0.1,0.3-0.2-0.1-0.3,0.1c0.1,0,0,0.2,0.1,0.3
	c-0.2-0.4-0.3,0.2-0.6,0.2c0-0.3,0.3-0.3,0.3-0.5c-0.4,0.1-0.5,0.1-0.8,0.2c0-0.2-0.3,0-0.3-0.4c-0.2,0.8-0.6,0.6-0.9,1.2
	c0-0.3,0.3-0.6,0.2-0.7c-0.3,0.2-0.1,0.4-0.4,0.6c-0.2-0.1-0.1-0.4-0.3-0.5c0,0.1,0,0.3,0,0.3c-0.3-0.1-0.3,0.2-0.5,0.1
	c0.1-0.4-0.2-0.6-0.3-0.9c-0.3,0.4-1,0.4-1.3,0.9c-0.2-0.1-0.8,0-1.1,0.2c0.1,0,0.5,0.1,0.7,0c0,0.1,0,0.1,0,0.2
	c-0.2-0.1-0.2,0.3-0.4,0.2c0.1-0.3-0.1,0-0.2-0.3c-0.1,0.2-0.1,0.4-0.3,0.4c0-0.4-0.3-0.6-0.5-0.6c0.1,0,0.4-0.4,0.1-0.2
	c-0.3,0.2-0.7,0.1-0.9,0.1c0.2,0-0.1,0.2-0.1,0.2c-0.1-0.1-0.2-0.2-0.3-0.2c-0.2,0.6-0.3-0.2-0.5,0c0,0.1,0.3,0.3,0.1,0.3
	s-0.1-0.3-0.3-0.3c-0.1,0.6-0.2,0.7-0.6,0.7c0-0.2-0.1-0.7-0.3-0.5c0.3,0.3-0.3,0.5,0,0.7c-0.1,0-0.2,0-0.3,0
	c0.3-0.3-0.2-0.3-0.1-0.1c-0.3-0.2,0.3-0.6,0.1-0.7c-0.4,0.4-0.1,0.3-0.3,0.8c0-0.2-0.1-0.3-0.3-0.4c0,0.1-0.1,0.2-0.2,0.2
	c0-0.1-0.1-0.1-0.1-0.2c0.1,0,0.1,0.1,0.1,0.1c0.1-0.3,0.2-0.3,0.1-0.5c0,0.1-0.1,0.2-0.2,0.1c-0.1,0.1,0,0.4-0.2,0.3
	c0-0.2,0.3-0.4,0.1-0.6c-0.1,0.4-0.4,0.3-0.4,0c-0.1,0-0.1,0.3-0.2,0.3c-0.1,0-0.6-0.2-0.8,0c0.2,0,0.3,0.1,0.3,0.3
	c-0.1,0-0.1,0-0.2,0c0.1-0.4-0.2,0-0.3,0c-0.1-0.1-0.1-0.2,0.1-0.3c-0.2-0.1-0.2,0.2-0.4,0.2c-0.1-0.2,0-1.1-0.2-0.4
	c0,0.6,0,0.2-0.4,0c0,0.1,0,0.2,0,0.3c-0.5,0-0.3,0-0.6-0.3c-0.1,0.1,0,0.5-0.2,0.5c-0.1,0-0.1-0.1-0.1-0.2c0.2,0.2,0.3-0.2,0.1-0.2
	c-0.1,0.1-0.3,0.1-0.4,0.2c-0.1-0.2,0.3-0.3,0.1-0.4c-0.1,0.2-0.4,0.3-0.4-0.1c-0.3,0.3-0.6,0.3-0.8,0.7c0.1-0.2-0.1-0.3-0.2-0.4
	c0,0.1,0,0.2-0.1,0.2c-0.1-0.1-0.1-0.2-0.2-0.3c-0.3,0.4-0.9,0.6-1.2,0.5c-0.1,0.1,0.2,0.3-0.1,0.3c-0.1,0-0.1-0.1-0.1-0.2
	c0.1-0.4,0.4-0.5,0.7-0.7c-0.5,0-0.8,0.5-0.9,0.7c-0.2-0.1,0.1-0.6-0.1-0.8c-0.2,0.3,0,0.7-0.3,0.7c0.1,0.1,0.2,0.3,0.1,0.5
	c-0.2-0.3-0.3,0-0.4,0.1c-0.1-0.4,0,0-0.2,0c0,0-0.1-0.1-0.1-0.2c-0.1,0.1,0,0.5-0.2,0.5c0.2-0.5-0.3,0.3-0.4-0.2
	c0,0.3-0.2,0.5-0.5,0.4c0.2,0.2-0.2,0.3-0.3,0.4c0.1-0.3-0.4-0.2-0.4-0.5c-0.1,0.1-0.1-0.1-0.2,0c0.1,0,0.1,0.1,0,0.3
	c-0.3-0.3,0.1,0.1-0.2,0.1c-0.1-0.1-0.4-0.5-0.3-0.3c0.1,0.1,0,0.3,0.1,0.4c-0.3,0-0.3,0.4-0.4,0c0,0.2,0.1,0.2,0,0.3
	c-0.3,0.1-0.5,0-0.7-0.2c0,0.1,0,0.3-0.1,0.3c0,0,0,0,0,0c0,0,0,0-0.1,0c-0.1-0.1-0.1-0.2-0.3-0.3c0,0.2,0,0.4,0,0.7
	c-0.2-0.1-0.4-0.2-0.6,0c-0.2,0-0.3-0.6-0.3-0.4c0,0.1,0,0.2-0.1,0.2c-0.8-0.1-1.3,0.1-1.8,0.4c-0.2-0.4-0.3,0-0.6-0.2
	c0,0.3-0.2,0.4-0.2,0.6c0.1-0.3-0.1-0.4-0.2-0.5c0,0.3-0.1,0.3-0.3,0.3c0.1-0.4,0-0.1-0.2,0c0-0.1-0.2-0.1-0.2-0.2
	c0,0,0.1-0.1,0.2-0.1c-0.2-0.1-0.3,0.2-0.3-0.1c0.2-1.1,0,0-0.1,0.3c-0.2-0.3-0.3-0.7-0.5-1c0,0.2-0.3,0.3-0.3,0.1
	c0.4,0.1,0-0.8-0.1-0.6c0.1,0.1,0.2,0.2,0.1,0.4c-0.1-0.2-0.1,0-0.3,0c-0.1-0.2-0.1-0.2,0-0.5c-0.1,0-0.1-0.1-0.2-0.2
	c0,0.2,0,0.5-0.2,0.5c-0.4,0-0.4,0-0.7,0c0.1-0.3-0.1,0-0.2-0.1c0-0.2-0.2-0.4-0.2-0.5c0,0.1-0.1,0.2-0.2,0.3c0.1,0,0.2,0,0.2,0.1
	c0,0.3-0.3,0.2-0.4,0.3c0-0.2,0-0.5,0.1-0.6c-0.5,0-0.1,0.6-0.4,0.7c0.1-0.1,0-0.2-0.1-0.1c0.1-0.1,0-0.1,0.1-0.3
	c-0.2,0-0.8-0.3-0.7-0.1c0.1,0,0.3,0,0.3,0.1c-0.1,0.2-0.3,0.1-0.6,0.1c0-0.1,0-0.2-0.1-0.3c0,0.1-0.1,0.1-0.2,0
	c0,0.2-0.1,0.5-0.3,0.4c-0.1-0.1,0-0.6-0.1-0.4c0.1,0.2-0.2,0.3,0,0.5c-0.2,0-0.2-0.2-0.4-0.2c0,0.2,0.1,0.2,0.1,0.3
	c-0.1,0.1-0.1,0.2-0.2,0.2c0-0.2,0.1-0.4-0.1-0.5c-0.2,0.3,0.2,0.5-0.1,0.6c-0.1-0.1-0.1-0.3-0.3-0.4c-0.2,0.3,0.1,0.3,0.1,0.5
	c-0.4-0.1-0.3,0-0.6,0c0-0.2-0.2-0.3-0.2-0.5c0,0.2,0.1,0.3,0,0.5c-0.3-0.1-0.3,0-0.4,0.1c-0.1-0.3-0.3-0.3-0.4-0.2
	c0.2,0.3-0.1,0.1-0.2,0.2c0.1,0.1,0.2,0.1,0.2,0.2c-0.1,0-0.3,0-0.4-0.1c0-0.1,0.1-0.1,0.1-0.2c-0.4,0-0.4,0.3-0.5,0.4
	c0.1-0.2-0.1-0.3,0-0.5c-0.3,0.1-1-0.1-1,0.2c-0.3-0.1-0.1-0.6-0.3-0.7c-0.1,0.2,0.2,0.5-0.1,0.6c-0.1-0.3-0.3-0.2-0.4-0.4
	c-0.1,0.3,0.1,0.3,0,0.6c-0.3-0.1,0,0.1-0.1,0.2c-0.1-0.2-0.3,0.1-0.1-0.2c-0.3-0.2-0.1,0.3-0.3,0.3c-0.3,0-0.3-0.1-0.3-0.2
	c-0.2,0.1,0,0.3-0.2,0.3c-0.1-0.2,0-0.4-0.1-0.5c-0.1,0.1-0.1,0.5-0.3,0.5c-0.2,0,0-0.3-0.2-0.3c0,0.2,0.1,0.3-0.1,0.3
	c0-0.1,0.1-0.4-0.1-0.5c-0.1,0.1-0.1,0.4-0.3,0.4c-0.3,0-0.3-0.2-0.4-0.3c-0.2,0.1,0.1,0.4-0.2,0.5c-0.1-0.1-0.1-0.3-0.2-0.4
	c-0.1,0.1,0,0.4-0.2,0.4s0-0.4-0.3-0.2c0.1-0.1,0-0.7-0.2-0.3c-0.3-0.4-0.3-1.1-0.5-1.3c0.1,0.1,0,0.3,0,0.5c-0.1,0-0.2-0.4-0.3-0.1
	c0,0,0,0,0,0c0.1,0,0.3,0.4,0.1,0.4c-0.1-0.1,0-0.3-0.1-0.4c0,0,0,0,0,0c0,0,0,0,0,0c0,0-0.1-0.1-0.1-0.1c0,0.1-0.2,0-0.2,0
	c0,0.2-0.1,0.3-0.2,0.3c0.1-0.1-0.2-0.3-0.2-0.1c0.2,0.2,0,0.1-0.2,0c0,0.2,0,0.4-0.2,0.5c0-0.4-0.1-0.3-0.1-0.5
	c-0.1-1.1,0,0.3-0.1,0.8c-0.4,0.2-0.8,0.1-1,0.4c-0.1,0,0-0.2-0.1-0.3c-0.1,0.3-0.2,0.4-0.4,0.4c0.1,0,0,0.5-0.1,0.5
	c0-0.1,0-0.3-0.1-0.4c-0.1,0.1-0.1-0.1-0.2-0.1c0,0.1,0,0.3-0.1,0.3c-0.2-0.5-0.1-0.8-0.5-0.2c0.1,0,0,0.5-0.1,0.5
	c-0.1,0-0.1-0.4-0.2-0.1c0.3,0.2-0.1,0.2-0.2,0.3c0-0.1-0.1-0.1-0.2,0c0-0.1,0.1-0.2,0-0.3c0,0.4-0.4,0.2-0.6,0.4c0,0,0.1,0.1,0,0.1
	c-0.3,0,0-0.4-0.2-0.4c0,0.2-0.1,0.4-0.3,0.4c-0.2-0.4-0.1-0.2-0.3,0c0-0.2-0.2-0.6-0.2-0.5c-0.1,0.4-0.1,0.6-0.3,0.8
	c0-0.2-0.4-0.2-0.4-0.4c0,0.4-0.3,0-0.4,0l-0.1,0.2c-0.5,0.1-0.5-0.4-0.6-0.5c-0.2-0.1,0,0.4-0.2,0.3c0-0.1,0-0.2,0.1-0.3
	c-0.3,0-0.5-0.1-0.7-0.3c0.2,0.1,0.3-0.3,0.1-0.4c0,0.1,0,0.2,0,0.3c-0.3,0.1-0.6-0.1-0.7-0.3c-0.1,0.4-0.5,0.3-0.2,0.6
	c-0.3,0-0.2-0.3-0.4-0.4c0,0.3-0.2,0.1-0.3,0c-0.1,0.2,0,0.3,0,0.4c0,0,0,0,0.1,0.1c0,0-0.1-0.1-0.1-0.1c0,0-0.1,0.1-0.2,0
	c-0.1-0.2,0.1-0.2,0-0.3c-0.3,0.2-0.1,0.6-0.5,0.6c0.2-0.2,0.1-0.4-0.1-0.2c0-0.1,0.1-0.3,0-0.3c-0.1,0.3-0.2,0-0.4,0.2
	c0.1-0.2-0.7-0.4-0.2-0.6c-0.2,0-0.3-0.1-0.4-0.2c0,0.2,0.3,0.6,0,0.8c-0.4,0-0.2-0.3-0.2-0.5c-0.2,0.3-0.3,0.7-0.5,0.9
	c0-0.2,0.1-0.4-0.1-0.4c-0.1,0.1,0,0.4-0.2,0.4c-0.1-0.2-0.3-0.2-0.4-0.4c0,0.1,0,0.2-0.1,0.2c-0.2-0.1-0.1-0.3-0.2-0.4
	c-0.1,0.2,0.1,0.5,0,0.5c-0.2-0.3-0.4-0.7-0.9-0.8c-0.2,0.3,0.3,0.1,0.3,0.3c0,0.1,0,0.2-0.1,0.3c-0.2,0-0.2,0-0.3,0
	c-0.2-0.2-0.1-0.2-0.4-0.2c-0.3,0.1,0.2,0.3-0.1,0.3c-0.1,0,0-0.2-0.2-0.2c0,0.4-0.2,0.5-0.3,0.5c0.2,0.1,0,0.2,0.1,0.4
	c-0.3-0.2-0.4-0.2-0.6,0c0.1-0.3-0.4-0.3-0.4-0.7c-0.2,0.3,0,0.4-0.3,0.5c0.1-0.2,0-0.3-0.1-0.3c-0.1,0.1-0.2,0.2-0.3,0.3
	c-0.1-0.3,0.4-0.2,0.2-0.4c-0.1,0.1-0.1,0.1-0.3,0.1c0.1-0.2,0-0.6-0.2-0.4c0.1,0.2,0.2,0.3,0.2,0.6c-0.2-0.3-0.4-0.3-0.5-0.6
	c-0.5,0.3-0.5-0.6-0.5-0.6c-0.1,0.1,0,0.3-0.2,0.3c-0.3-0.1-0.1-0.5-0.3-0.6c-0.2,0.2,0.1,0.5-0.1,0.5s-0.1-0.2-0.3-0.2
	c-0.2,0.3-0.5,0.4-0.7,0.4c0.1,0,0,0.1,0,0.3c-0.3-0.4-0.5,0.6-0.8,0.2c0,0.1,0,0.2,0,0.3c-0.1,0-0.2,0-0.2,0c0-0.1,0-0.2-0.1-0.2
	c-0.1,0.2,0.1,0.3,0.2,0.4c-0.1,0-0.1,0-0.2,0c-0.1-0.3-0.1-0.5-0.2-0.8c-0.1,0.3,0,0.4-0.2,0.5c0-0.2-0.1-0.3-0.2-0.4
	c-0.1,0.1,0.2,0.3-0.1,0.3c-0.3-0.1-0.2-0.4-0.3-0.6c-0.2,0.3-0.1-0.5-0.2-0.2c0,0.2,0,0.5,0.1,0.6c0,0,0.1-0.1,0.1,0
	c-0.3,0.3-0.6,0.2-0.8-0.1c0,0.2-0.1,0.4-0.1,0.5c-0.1,0-0.1-0.2-0.2-0.2c-0.1,0.2,0.1,0.4-0.1,0.4c-0.1-0.3-0.3-0.6-0.6-0.8
	c-0.1,0.2,0.2,0.2,0.2,0.4c-0.1,0-0.3-0.4-0.4-0.2c0.4,0.1,0.1,0.6,0.4,0.8c0,0-0.1,0-0.1,0.1c-0.2-0.3-0.3-0.5-0.4-0.9
	c-0.1,0.1-0.1,0.3-0.2,0.3c-0.1-0.2-0.2-0.1-0.3-0.2c0-0.1,0.1-0.3,0.1-0.4c0.2,0.1,0.3,0,0.4-0.1c-0.5-0.2-0.6,0.4-0.9,0.6
	c-0.2-0.1,0-0.4-0.2-0.5c-0.1,0.2,0.1,0.2,0,0.4c-0.3-0.2-0.1,0.3-0.3,0.3c-0.1-0.2,0.1-0.3,0.2-0.5c-0.2,0-0.1-0.1-0.2-0.2
	c-0.1,0.2,0,0.5-0.2,0.5c0.1-0.3-0.1-0.4-0.3-0.5c-0.2,0.2,0.3,0.4,0.1,0.8c-0.1,0-0.1,0-0.2,0c-0.1-0.1-0.2-0.2-0.2-0.4
	c0,0.1,0,0.2-0.1,0.2c-0.2-0.2-0.5-0.5-0.7-0.2c-0.1-0.2-0.2-0.4-0.3-0.6c-0.2,0.2-0.1,0.3-0.3,0.4c-0.2-0.3-0.1,0.1-0.3,0.1
	c0.1-0.1,0-0.2-0.1-0.3c0,0.5-0.3,0.5-0.3,0.9c-0.2-0.2-0.3-0.5-0.3-0.7c0,0.4-0.2,0-0.3,0.2c0.1,0,0.1,0.1,0,0.2
	c-0.5-0.1-0.8,0.6-1.1,0.4c-0.1,0.2-0.1,0.3-0.3,0.4c0-0.1-0.2-0.1-0.2-0.2c-0.1,0.1,0.2,0.3-0.1,0.3c-0.1-0.3,0-0.6-0.2-0.8
	c0.1,0.6,0.1,0.7-0.1,0.9c-0.2-0.1,0-0.3,0.1-0.4c-0.3-0.1-0.2,0.3-0.4,0.2c0-0.1,0.2-0.2,0-0.2s-0.2,0.4-0.3,0.4
	c-0.2-0.3-0.4-0.6-0.6-0.8c0.1,0.1-0.2,0.4-0.4,0.5c0-0.2,0.3-0.3,0.1-0.5c-0.1,0.1-0.1-0.1-0.1-0.1c-0.1,0.7-0.8,2.3-1,1.8"/>
<path class="st1" d="M16.6,28.8c0-0.1,0.1-0.2,0.1-0.3c0.2-0.1,0-0.1,0.1-0.3c0.1-0.1,0.3-0.1,0.4-0.2c-0.2,0,0.1-0.2,0.1-0.2
	c0.2,0.8,0.1,1.4,0.1,2"/>
<path class="st1" d="M124.5,29.4c-0.1-0.4-0.3-0.6-0.2-0.9c-0.6-0.2-0.8-0.6-1.1-0.9c0-0.1,0.3-0.1,0.1-0.2
	c-0.2,0.3-0.3-0.2-0.4-0.3c0,0.4-1.3,0.4-1.2,0c0,0.2-0.4,0.2-0.4,0c0.2-0.2,0.6-0.7,0.5-0.9c-0.1,0.3-0.4,0.5-0.6,0.6
	c0-0.1-0.1-0.1-0.1-0.2c0-0.1,0.2,0,0.2-0.1c-0.4-0.2-0.6,0.8-1.2,0.9c0.2-1-0.2,0-0.3,0.2c0.1,0,0.1,0,0.1,0.1
	c0,0.1-0.1,0.1-0.2,0.1c-0.2-0.1-0.1-0.3-0.3-0.4c-0.1,0.1,0,0.4-0.2,0.4c-0.2-0.3-0.8-0.4-0.6-0.8c-0.1,0.2-0.2,0.4-0.4,0.4
	c-0.3-0.3-0.5-0.2-0.9-0.2c0.1-0.2-0.1-0.2-0.1-0.3c0.1,0,0.2,0.1,0.2,0.1c0-0.1,0-0.3-0.1-0.4c-0.3,0.2-0.2,0.3-0.1,0.6
	c-0.1,0-0.1,0.1-0.3,0c0.3-0.3-0.1-0.2-0.3-0.2c0.1-0.4-0.5-0.4-0.8-0.7c-0.1,0.2,0.3,0.4,0,0.4c0-0.3-1.4-0.4-1.9-0.5
	c0-0.2,0-0.3-0.1-0.4c-0.1,0.4-0.5,0.5-0.8,0.3c0,0.2,0,0.4-0.1,0.6c-0.4-0.2-0.5,0.2-0.8,0.3c-0.1-0.1,0-0.4-0.1-0.4
	c0,0.4-0.3-0.1-0.6,0.1c0-0.1-0.1-0.1-0.1-0.2c0-0.2,0.4-0.4,0.3-0.5c-0.1,0.2-0.3,0.2-0.4,0.5c-0.5,0-0.2,0.2-0.7,0
	c-0.1,0.1,0.1,0.2-0.1,0.2c-0.1,0-0.1-0.1-0.1-0.2c-0.2,0-0.4,0.5-0.5,0.3c0-0.1,0.2,0,0.2-0.2c-0.2,0-0.3,0-0.5,0
	c0-0.1,0-0.2,0-0.3c-0.2,0-0.6-0.1-0.7,0.1c0-0.1,0.1-0.2,0-0.3c-0.2,0.1,0.1,0.2-0.1,0.2c0-0.5-0.5,0-0.8-0.3c0,0.1,0,0.2,0,0.2
	c-0.1,0-0.1-0.1-0.3-0.1c0,0.2-0.1,0.3-0.2,0.3c0-0.1,0.1-0.2,0-0.3c-0.1,0.3-0.3,0.2-0.6,0.1c-0.4,0.5-0.8,0.2-1.4,0.3
	c0.1,0,0.1,0.2,0,0.3c-0.3-0.3-0.4,0.2-0.5,0.3c0.1-0.1-0.1-0.4-0.2-0.2c0.1,0,0.2,0.4,0,0.3c-0.1-0.6,0.2-1.3-0.4-0.3
	c-0.2,0,0.2-0.8,0-0.6c0,0.5-0.2,0.2-0.3,0c-0.2,0.3,0.1,0.5-0.1,0.6c-0.2-0.3-0.3-0.2-0.4-0.5c0,0.1-0.1,0.1-0.2,0
	c-0.1,0.2,0.1,0.3,0.1,0.4c-0.1-0.2-0.3-0.1-0.5-0.1c0.1-0.1,0.3-0.4,0-0.5c0,0.4-0.4,0.1-0.4,0c0.1,0.3-0.1,0.2-0.3,0.4
	c-0.3-0.1,0.2-0.6,0-0.6c-0.1,0.4-0.2,0.2-0.3,0.1c-0.1,0.2-0.2,0.3-0.3,0.4c0-0.1,0.1-0.3-0.1-0.3c0,0.2,0,0.3-0.2,0.4
	c0-0.1,0-0.2-0.1-0.3c0,0.2,0.1,0.4-0.3,0.3c-0.1-0.3,0,0-0.3-0.1c0-0.4,0.1-0.2,0.2-0.3c-0.1,0,0-0.2-0.1-0.3
	c-0.1,0.4-0.4,0.4-0.4,0.6c-0.1-0.1-0.2-0.4,0.1-0.6c-0.2,0-0.4,0.2-0.6-0.1c-0.1,0.3-0.2,0.3,0,0.4c-0.2,0.2-0.3-0.2-0.3-0.4
	c0.1,0,0.3-0.4,0.2-0.5c-0.2,0.1-0.1,0.5-0.4,0.6c-0.1-0.1,0.1-0.3-0.1-0.4c-0.1,0.3-0.1,0.6-0.4,0.6c0-0.1-0.1,0-0.2-0.1
	c0-0.4-0.3-0.1-0.4-0.4c0,0.3,0.3,0.3,0.2,0.6c-0.1,0.2-0.2,0.3-0.3,0.4c-0.4-0.1-0.4-0.9-0.6-0.4c-0.4,0-0.1-0.4-0.2-0.5
	c-0.1,0.2,0,0.3-0.3,0.3c-0.3-0.3-0.4-0.7-0.8-0.9c-0.1,0.3,0.3,0.2,0.2,0.4c-0.1,0-0.1,0.1-0.3,0c-0.1-0.2,0-0.1,0.1-0.3h-0.1
	c0-0.1,0-0.1-0.1-0.1c0,0.1-0.1,0.2-0.2,0.2c0-0.1,0-0.2-0.1-0.2c0,0.3,0.2,0.7-0.2,0.8c-0.1-0.2,0-0.2,0.1-0.4
	c-0.1,0-0.2-0.1-0.2-0.1c-0.1,0.2,0,0.5-0.2,0.5c-0.2-0.1,0-0.4-0.1-0.6c-0.2,0-0.1,0.6-0.2,0.5c-0.4-0.4-0.4-0.9-0.7-1.4
	c0,0.1-0.1,0-0.2,0c0,0.5,0.4,0.7,0.4,1.2c-0.3-0.3-0.2,0.2-0.4,0.2c-0.2-0.2-0.2-0.4-0.5-0.5c-0.2,0.2,0.3,0.1,0.1,0.4
	c-0.2-0.1-0.2,0.1-0.3,0.1c0.1-0.3,0.1-0.5,0-0.7c-0.2,0.4-0.1-0.4-0.4-0.3c-0.1,0.2,0.3,0.4,0,0.5c0-0.4-0.3-0.6-0.5-0.9
	c0,0.1,0,0.3-0.1,0.3c-0.3-0.3-0.4-0.2-0.7-0.4c0,0.3,0.4,0.2,0.2,0.6c-0.3,0-0.2-0.1-0.4,0c-0.1-0.3-0.2-0.6-0.4-0.9
	c0,0.4,0.1,0.6,0.2,1c-0.2,0.1-0.4-0.2-0.5-0.4c0.1,0.3-0.1,0.4-0.3,0.5c0-0.3-0.2-0.5-0.2-0.8c-0.2,0.4,0,0.8-0.3,0.9
	c-0.1-0.4-0.4-0.6-0.6-0.9c0,0.4,0.6,0.8,0.1,1.1c-0.1-0.4-0.8-0.9-0.2-1.1c-0.6,0.1-0.5-0.3-0.9-0.5c0,0.1-0.1,0.2-0.2,0.3
	c0.2,0.1,0.4,0.2,0.3,0.4c-0.2-0.3-0.3-0.2-0.4,0c-0.2-0.1,0-0.4-0.2-0.5c-0.1,0.2,0.2,0.4-0.1,0.4c-0.3-0.1-0.1-0.5-0.4-0.6
	c-0.2,0.2,0,0.3-0.2,0.4c0-0.2-0.3-0.3-0.4-0.5c-0.3,0,0.1,0.4-0.1,0.4c-0.3,0-0.2-0.3-0.3-0.4c0,0-0.1,0.1-0.2,0
	c-0.1,0.2,0.3,0.3,0,0.3c0-0.1-0.1-0.2-0.2-0.3c-0.1,0.1,0,0.3-0.2,0.3c0.1-0.2-0.2-0.2-0.2-0.3c0-0.1,0.1-0.3,0-0.2
	c-0.2,0.3,0.1,0.5-0.2,0.5c0-0.1,0-0.2-0.1-0.3c0.1,0.5-0.6-0.1-0.4,0.2c0.2,0.1-0.1,0.3-0.2,0.4c0.1-0.4,0-0.1-0.2-0.1
	c0.1-0.2,0.2-0.2,0-0.4c-0.1,0.4-0.5,0.1-0.5-0.2c-0.3,0.4-0.2,0.5,0,0.7c-0.2-0.2-0.1,0-0.3,0c-0.1-0.1,0.1-0.3-0.1-0.4
	c0,0.1-0.1,0.1-0.2,0.1c-0.2-0.3-0.2-0.7-0.5-0.9c0,0.2,0.3,0.5,0,0.6c-0.1-0.3-0.1-0.6-0.2-0.9c0,0.3-0.1,0.4-0.3,0.6
	c-0.1-0.1,0-0.6-0.1-0.5c-0.1,0.2-0.1,0.4,0,0.5c-0.4-0.1-0.5,0.1-0.7,0.3c-0.3-0.3-1.1-0.7-1-1.2c-0.4,0-0.2-0.3-0.3-0.3
	c-0.2,0-0.1,0.2-0.2,0.3c-0.1-0.4,0-0.2-0.3-0.6c-0.1,0.1-0.1,0.3-0.3,0.4c-0.1-0.2-0.7-0.5-0.5-0.1c-0.1-0.1-0.2-0.1-0.2-0.2
	c0.1-0.2,0-0.6-0.1-0.4c0,0.1,0.1,0.4-0.1,0.3c-0.2-0.3-0.9-0.7-0.8-1.1c-0.2,0.4-0.3-0.2-0.6-0.1c-0.1,0.2,0.2,0.1,0.1,0.4
	c-0.1-0.2-0.1,0-0.3,0c0.1-0.2,0-0.5-0.1-0.4c0.1,0.5-0.3,0.4-0.3,0.5c-0.1,0-0.1,0-0.2,0c0-0.1,0.1-0.1,0.1-0.1
	c-0.2-0.1-0.4,0.4-0.6,0.1c0-0.1,0.1-0.2,0.3-0.1c-0.2-0.4-1.1-0.1-1.4-0.8c0,0,0,0.2-0.1,0.1c0-0.1,0.1-0.2,0.1-0.2
	c-0.9-0.3-0.8-1.4-1.5-1.5c0.3,0.3,0.4,0.8,0.6,1.2c0,0-0.1,0-0.1,0c0,0.1,0,0.1,0,0.2c0.1,0,0.2,0.1,0.2,0.1
	c-0.1,0.1,0.1,0.2,0,0.2c-0.1,0-0.2-0.2-0.2-0.3c-0.1,0-0.1,0-0.1-0.1c0.1-0.1,0.1-0.1,0.1-0.1c0,0,0,0,0,0c-0.7,0-1.3-0.9-1.9-0.5
	c0.1-0.3-0.1,0-0.3-0.2c0-0.1,0.2-0.4-0.1-0.4c-0.2,0,0,0.2,0,0.4c-0.1,0-0.3-0.1-0.4-0.1c-0.1-0.1,0-0.2,0-0.3
	c-0.3-0.6-0.2-0.2-0.2,0.3c-0.1-0.1-0.1-0.6-0.2-0.4c0.1,0.1,0,0.3-0.1,0.3h-0.1c0.3-0.2-0.5-0.5-0.3-0.2c0.1-0.2,0.3,0.1,0.2,0.2
	c-0.3-0.2-0.4,0-0.5,0.1c-0.2-0.3-0.3-0.5-0.4-0.2c-0.2-0.4-0.8-0.7-1.2-0.6c0.6,0.2,1.1,0.7,1.3,0.9c-0.1,0-0.1,0-0.2,0
	c-0.1,0,0-0.3-0.2-0.3c0.2,0.4-0.4,0.3-0.2,0.7c-0.2-0.1-0.5,0-0.4,0.1c0-0.1,0.2,0,0.2,0.1c-0.1,0-0.2,0.1-0.1,0.1
	c0.1-0.3,0.1,0.3,0,0.2c0-0.1-0.2-0.4-0.3-0.2c0.2,0.1,0.4,0.2,0.3,0.5c-0.1,0-0.1,0-0.2,0c-0.1-0.1-0.1-0.3-0.2-0.4
	c-0.2,0.3-0.1,0.2,0,0.3c-0.1,0-0.3,0.1-0.3-0.1v-0.1c0,0.2,0,0.4-0.1,0.6c-0.1,0-0.1-0.1-0.2-0.1c-0.1,0.2,0.2,0.4-0.1,0.5
	c-0.1-0.3-0.1-0.7-0.4-1c0.1,0.4-0.4,0.4-0.1,0.6c0-0.1,0-0.2,0.1-0.2c0,0.3-0.2,0.4-0.5,0.3c0,0,0-0.1,0-0.1c0,0.1,0,0.1-0.1,0.2
	c0,0,0,0,0,0c0,0,0,0,0,0c0,0,0,0,0,0c0,0,0,0,0,0c0-0.1-0.2-0.2-0.2-0.1c0,0,0,0,0,0.1c0,0,0-0.1,0-0.1c0-0.2-0.3-0.3-0.1-0.6
	c-0.4,0-0.3-0.7-0.7-0.9c-0.1,0.6-0.1-0.2-0.3,0c0.1,0.1,0.2,0.5,0,0.5c0-0.6-0.5-0.5-0.7-0.9c0,0.2,0.1,0.8,0,0.9
	c-0.2-0.7-0.9,0.1-1.2-0.4c0,0,0,0.1-0.1,0.2c-0.1,0-0.1,0,0,0.1c0-0.2,0.3,0.1,0.2,0.2c-0.4-0.1-0.6-0.3-0.7-0.4
	c0.1,0.2-0.2,0.3-0.2,0.4c-0.2-0.2-0.4,0.1-0.4-0.4c-0.1,0.2,0,0.3,0,0.5c-0.1,0-0.1,0-0.2,0c-0.3-0.3-0.2-0.7-0.4-1
	c-0.1,0.2,0.2,0.4,0,0.5c0.1-0.3-0.1-0.2-0.3-0.3c-0.2,0.2,0.3,0.1,0.2,0.3c-0.1,0-0.1,0-0.1,0c0,0,0,0,0,0c0,0,0,0,0,0
	c0,0.1,0.2,0.3,0,0.3c0-0.1-0.1-0.2,0-0.3c0,0,0,0,0,0c-0.3,0-0.3-0.1-0.5,0c0.1-0.3,0-0.2-0.1-0.1c0-0.1,0-0.2-0.1-0.3
	c0,0.4-0.2,0-0.4,0c0,0.2,0.1,0.3-0.1,0.3c-0.1-0.6-0.5,0-0.6-0.1c0.2,0.6-0.5,0.2-0.7,0.2c0-0.2-0.1-0.7-0.3-0.6
	c0.1,0.2,0,0.7-0.2,0.8c0-0.3-0.3-0.3-0.3-0.4c0-0.1,0.3-0.5,0.1-0.3c-0.1,0.2-0.1,0.3-0.3,0.3c0-0.2,0.1-0.3-0.1-0.4
	c-0.1,0.2-0.4,0-0.5,0.2c-0.1-0.1-0.2-0.2-0.3-0.3c0,0.1,0,0.2,0,0.3c-0.1,0-0.2,0-0.3,0c-0.2,0,0-0.3-0.2-0.3
	c-0.1,0.1-0.4-0.1-0.4,0.1c0.2,0,0.2,0.1,0.2,0.3c-0.2,0.2-0.3-0.1-0.5,0c0.4,0.1,0,0.3-0.1,0.4c-0.1-0.2-0.3-0.3-0.5-0.5
	c0,0.3,0.3,0.3,0.3,0.6c-0.1,0-0.1-0.2-0.2-0.1c0,0,0,0,0,0c0,0,0.1,0.1,0,0.1c0,0,0-0.1,0-0.1c0,0,0,0,0,0c0,0,0,0,0,0
	c0-0.2-0.2-0.3-0.3-0.2c0.2,0.2,0.3,0.5,0,0.5c0.3,0,0.2,0.3,0.3,0.5c-0.1-0.2-0.1,0-0.4-0.1c-0.1-0.1-0.1-0.6-0.3-0.4
	c0.1,0,0.2,0.2,0,0.2c-0.2-0.2-0.3-0.4-0.4-0.6c-0.1,0.4,0.3,0.5,0.3,0.8c-0.3,0-0.1-0.3-0.3-0.4C54,20,54.4,20.2,54,20.2
	c-0.2-0.2,0.3-0.5,0-0.5c-0.1,0,0,0.4-0.3,0.2c0-0.1,0.1-0.3,0.1-0.4c-0.3-0.2-0.2,0.2-0.4,0.1c0-0.4,0-0.3-0.2-0.1
	c-0.2-0.1,0-0.5-0.2-0.6c-0.1,0.5-0.2-0.3-0.3-0.1c0,0.1,0.1,0.1,0,0.2c-0.1-0.2-0.2-0.1-0.3,0c0-0.1,0-0.2,0.1-0.3
	c-0.3-0.2-0.3,0.1-0.4,0.2c-0.4,0-0.2-0.3-0.3-0.4c-0.1,0.2-0.3,0.4-0.5,0.5c0.1-0.1,0.1-0.5-0.1-0.3c0.3,0.2-0.2,0.3-0.3,0.1
	c-0.3,0.1,0.2,0.3-0.1,0.3c-0.2-0.1-0.5-0.6-0.5-0.6c0,0.1,0.1,0.3-0.1,0.3c0-0.3-0.3-0.3-0.4-0.5c-0.1,0.1-0.1,0.3-0.3,0.2
	c-0.2-0.2-0.3-0.3-0.4,0c0-0.4-0.2-0.3-0.4-0.4c0.1,0.4-0.2,0.5-0.1,0.7c-0.4-0.3-0.7-0.7-0.8-1.1c-0.6-0.2-0.7-0.6-1-0.4
	c-0.3,0.2-0.1,0.5-0.4,0.3c0,0.1,0.2,0.5,0.1,0.4c-0.1-0.3-0.2-0.2-0.4-0.5c0,0.1,0,0.2-0.1,0.2c0-0.3-0.5,0.1-0.6-0.6
	c-0.1,0.4,0.2,0.6,0.5,0.8c-0.3,0.1-0.2,0-0.5-0.1c-0.1,0.2-0.3,0.1-0.5,0.3c-0.1-0.1-0.1-0.2-0.2-0.3c-0.1,0.1,0,0.5-0.2,0.4
	c-0.2-0.2-0.1-0.3-0.2-0.1c-0.3,0-0.1-0.4-0.4-0.4c0,0.2-0.1,0.4-0.3,0.2c0.3-0.4-0.1-0.1-0.1-0.4c0.2-0.1,0.1-0.5,0-0.7
	c0,0.4-0.3,0.7,0,0.8c0,0.3-0.2,0.3-0.3,0.3c0.1-0.2,0.1-0.6-0.1-0.4c0.1,0,0,0.2,0,0.3c-0.2-0.1-0.4,0.2-0.4,0
	c0.1-0.3,0.2,0.1,0.2-0.3c-0.2,0-0.4,0.2-0.7,0.1c0.1-0.3,0-0.2-0.2-0.1c0-0.1,0.1-0.2,0-0.3c-0.2,0.5,0-0.4-0.2-0.1
	c-0.1,0.2,0.1,0.2,0,0.4c-0.2-0.3-0.1,0.2-0.4,0.1c0.2-0.2,0-0.4,0-0.6c-0.5,0.1-1.3,0.2-1.5-0.3c-0.3,0,0,0.3-0.4,0.2
	c-0.1-0.4-0.3-0.4-0.3-0.8c-0.2,0.1,0,0.3-0.1,0.5c-0.1-0.4-0.6,0.1-0.7-0.4c0.1-0.1-0.1-0.3-0.1-0.4c-0.1,0.5-0.4,0-0.7,0.2
	c-0.1-0.3-0.6,0-0.8-0.3c0-0.1,0.3-0.1,0.1-0.2c-0.3,0.3-0.4,0.3-0.9,0.3c0-0.1-0.1-0.2-0.1-0.3c-0.2,0.1-0.1,0.3-0.2,0.4
	c0-0.1,0-0.2-0.2-0.2c-0.3,0.2,0.3,0.6-0.1,0.6c0-0.2-0.2-0.4,0-0.6c-0.3-0.2-0.1,0.2-0.3,0.2c-0.1-0.2-0.3,0.1-0.3-0.2
	c0.1,0,0.2,0,0.2-0.1c-0.3-0.2-0.3-0.3-0.6-0.3c0,0,0.1,0,0-0.1c-0.2,0-0.1,0.5-0.3,0.3c0-0.1,0.1-0.1,0.1-0.2c0,0-0.1,0.1-0.2,0
	c0.1-0.1,0.4-0.2,0.3-0.3c-0.2,0-0.2,0.3-0.4,0.3c-0.2-0.2,0.4-0.2,0.1-0.5c-0.2,0.2-0.4,0.4-0.7,0.4c0-0.3-0.1-0.5-0.3-0.8
	c-0.1,0.3,0.4,0.6,0.1,0.9c-0.1-0.2,0-0.3-0.3-0.3c0-0.1,0-0.2,0-0.3c-0.3,0.2-0.3-0.4-0.6-0.3c0.1,0.3,0.3,0.4,0.2,0.8
	c-0.1,0-0.1-0.1-0.2-0.1c-0.1,0.2-0.3,0.5,0,0.3c-0.1,0.2,0.1,0.4-0.1,0.4c-0.2-0.3-0.1-0.4-0.4-0.2c-0.1-0.3,0.4-0.3,0.2-0.5
	c-0.1,0.2-0.2,0.3-0.4,0.2c0-0.6-0.3-0.3-0.4-1c0,0.3,0.2,0.7,0,0.9c0-0.3,0-0.6-0.1-0.8c-0.1,0.2,0.1,0.6-0.1,0.6
	c0-0.2-0.2-0.7-0.4-0.6c0.1,0.5,0.2,0.4,0,0.8c-0.2-0.4-0.5-0.3-0.1-0.8c-0.2-0.2-0.3,0-0.4,0c0.1-0.3-0.1-0.2-0.2-0.2
	c0.1-0.3,0-0.4-0.1-0.6c-0.3,0.1-0.3-0.5-0.7-0.6c0,0.2,0.1,0.4,0.1,0.6c-0.3-0.2-0.2,0.2-0.7,0c0.1-0.3-0.3-0.3-0.2-0.6
	c-0.3,0.1-0.4-0.5-0.8-0.3c-0.1-0.3-0.3-0.6-0.6-0.9c0.1,0,0.1-0.1,0-0.1c-0.4,0.8-1.3,0.8-2,1.2c0.1-0.2-0.1-0.2-0.2-0.3
	c-0.3,0.1-0.1,0.3-0.3,0.4c0-0.2-0.2-0.4-0.4-0.5c-0.1,1-1.8,0.5-2.2,0.1c-0.1,0.2-0.3,0.2-0.4,0.4c-0.1-0.2,0.1-0.2,0-0.3
	c0,0.1-0.1,0.1-0.2,0.2c-0.1-0.1,0-0.3-0.2-0.3c-0.1,0.1,0.1,0.2,0,0.2c-0.7-0.2-0.8,0.7-1.1,1.3c-0.3-0.1-0.1,0-0.2,0.3
	c-0.2-0.3-0.2,0.2-0.3-0.1c0,0.3-0.1,0.1-0.2,0.3c0.3,0.3-0.3,0.6-0.1,0.6c0-0.1,0.2,0,0.2,0.1c-0.3,0.5-0.2,0.5-0.8,0.7
	c-0.1,0.4,0.1,0.4,0.2,0.6c-0.1,0.3-0.3,0.5-0.5,0.6c0.5-0.2-0.1,0.5,0.3,0.3c-0.1,0.2,0.2,0.2,0.1,0.4c-0.1,0-0.2-0.1-0.3,0
	c0.3,0.1,0,0.3,0,0.4c0.1,0.1,0.3-0.1,0.3,0.1c-0.1,0-0.6,0-0.4,0.2c0-0.1,0.2,0,0.2,0.1c-0.4,0-0.1,0.3,0,0.3v0.1
	c-0.1,0-0.3-0.2-0.4-0.1c0,0,0,0,0,0c0.1,0,0.3,0.1,0.3,0.3c-0.2-0.1-0.3-0.2-0.3-0.3c0,0,0,0,0,0c0,0,0,0,0,0c0-0.1,0-0.1,0-0.2
	c0,0.1-0.4,0.2-0.2,0.4c0.2-0.2,0.2,0.3-0.1,0.2c0.2,0.1,0.5,0.2,0.6,0.1c0,0.1,0.1,0.2,0,0.3c-0.1-0.1-0.8,0.1-0.7,0.3
	c0.2-0.1,0.5-0.1,0.8-0.2c-0.2,0.1-0.1,0.3,0,0.4c-0.2,0-0.2-0.1-0.3-0.2c-0.2,0.3,0.4,0.3,0.2,0.6c-0.3,0-0.2-0.2-0.3-0.3
	c-0.1,0.2-0.1,0.4,0.1,0.4c0.1-0.1,0.2-0.1,0.2,0c0.2,0.5-0.7,0.4-0.4,0.8c-0.3,0-0.8,0.4-0.8,0.6c0-0.1,0.2,0,0.2,0.1
	c-0.1,0-0.1,0.1,0,0.2c0.1-0.2,0.2-0.4,0.5-0.3c0,0.1,0.1,0.2,0.1,0.4c-0.3,0.1-0.2,0.2-0.3,0.4c-0.1-0.1-0.2-0.2-0.3-0.3
	c0,0.2,0,0.3-0.2,0.4c0.1,0.1,0.2,0.3,0.3,0.4c-0.1,0-0.3,0.3-0.1,0.4c0,0,0,0,0,0c0-0.1,0-0.2,0.1-0.2c0,0.1-0.1,0.1-0.1,0.2
	c0,0,0,0,0,0c0,0,0,0,0,0c-0.1,0.2,0,0.3,0,0.5c-0.4,0.2-0.5,0.4-0.9,0.8c0.4-0.1,1,0,0.6,0.4c0.1,0,0.2,0,0.3,0
	c0.3,0.3,0.1,1.1,0.4,1.3c-0.2,0-0.2,0.2-0.3,0.2c0.2,0.2,0.3,0.1,0.4,0.2c0,0.1-0.6-0.1-0.3,0c0.1,0,0.2,0.1,0.2,0.2
	c-0.3-0.1,0,0-0.1,0.2c-0.1,0-0.2-0.1-0.3-0.1c0,0.2-0.2,0.2-0.3,0.2c-0.1,0.4-0.4,0.4-0.4,0.9c0,0.1,0,0.2,0.1,0.1"/>
<path class="st1" d="M125.4,28.8c-0.1,0-0.2-0.1-0.2-0.1c-0.2,0.1-0.3,0.6-0.4,0.2"/>
<path class="st1" d="M170.6,26.8C170.6,26.8,170.7,26.9,170.6,26.8C170.7,26.8,170.6,26.8,170.6,26.8z"/>
<path class="st1" d="M251.3,14.6c0-0.1,0-0.1,0-0.2C251.3,14.5,251.3,14.5,251.3,14.6z"/>
<path class="st1" d="M248.8,15C248.9,15,248.9,15,248.8,15C248.9,15,248.9,15,248.8,15z"/>
<path class="st1" d="M253.2,14.7c0,0,0-0.1,0-0.1C253.1,14.5,253.1,14.6,253.2,14.7z"/>
<polygon class="st1" points="17.2,23.9 17.2,23.9 17.2,23.9 "/>
<path class="st1" d="M66.5,20.8C66.5,20.8,66.5,20.9,66.5,20.8C66.5,20.9,66.5,20.8,66.5,20.8z"/>
<path class="st1" d="M66.6,20.7C66.7,20.3,66.8,19.8,66.6,20.7L66.6,20.7z"/>
<path class="st1" d="M135.6,28.8c0-0.2,0.1-0.4-0.1-0.4c-0.1,0.6-0.2-0.2-0.3,0c0,0.1-0.1,0.8-0.3,0.8"/>
<path class="st1" d="M136,28.8c0.2-0.4-0.2,0.1-0.4,0"/>
<path class="st1" d="M136.2,28.9c0.4-0.6,0.3-0.3-0.2-0.1"/>
<path class="st1" d="M140.2,28.9c-0.1-0.1-0.1-0.4-0.3-0.3c0-0.1,0.1-0.1,0-0.2c-0.1-0.1-0.2,0-0.3,0c0.1-0.3-0.2-0.6-0.3-0.5
	c0.2,0,0.2,0.6,0,0.3c-0.1,0.3,0.1,0.3,0.2,0.4c-0.1,0-0.1,0.1-0.2,0.1c-0.1-0.2-0.2-0.5-0.3-0.7c-0.1,0.3,0.2,0.4,0.1,0.7
	c-0.3-0.1-0.2-0.2-0.4,0c0-0.2,0-0.3-0.2-0.3c-0.1,0.2-0.4,0.1-0.6,0.3c0-0.1,0.1-0.2,0-0.2c0,0,0,0.1-0.1,0c0,0-0.1,0-0.1,0.1
	c0.2,0.9-0.3,0.1-0.4-0.1c0.1,0,0.1,0,0.1-0.1c-0.3-0.1-0.2,0.2-0.3,0.3c-0.3-0.1-0.7,0.3-0.9,0.2"/>
<path class="st1" d="M142.5,28.8c-0.2-0.2-0.3-0.4-0.3-0.7c-0.2,0.2-0.6,0.2-0.9,0.5c0-0.2-0.1-0.4-0.3-0.2c0-0.1,0-0.5-0.1-0.3
	c0,0.2,0.1,0.3,0.1,0.5c-0.2,0.1-0.2,0-0.4-0.1c0,0.1,0.1,0.5-0.1,0.5"/>
<path class="st1" d="M142.7,28.8c0-0.2,0.2-0.5,0-0.6c-0.2,0.3,0,0.5-0.2,0.6"/>
<path class="st1" d="M143.3,29c-0.3-0.4,0.4-0.5,0.2-0.7c-0.1,0.2-1,0.3-0.4,0.3c0,0.1,0,0.3-0.1,0.3"/>
<path class="st1" d="M143.7,28.9c-0.1-0.1-0.1-0.2-0.2-0.3c-0.1,0.1,0,0.4-0.2,0.4"/>
<path class="st1" d="M144.1,29c-0.1-0.2-0.2-0.1-0.3-0.3c0,0.1,0,0.2-0.1,0.2"/>
<path class="st1" d="M66.3,20.8C66.3,20.8,66.3,20.7,66.3,20.8C66.3,20.7,66.3,20.8,66.3,20.8z"/>
<path class="st1" d="M55.2,19.5C55.2,19.5,55.2,19.5,55.2,19.5C55.2,19.5,55.2,19.5,55.2,19.5C55.2,19.5,55.2,19.5,55.2,19.5z"/>
<path class="st1" d="M119.8,27.6C119.7,27.6,119.7,27.6,119.8,27.6C119.7,27.7,119.7,27.7,119.8,27.6z"/>
<path class="st1" d="M61.3,19.4C61.3,19.4,61.3,19.4,61.3,19.4C61.3,19.4,61.3,19.4,61.3,19.4C61.3,19.4,61.3,19.4,61.3,19.4z"/>
<path class="st1" d="M17.9,19C17.9,19,17.9,19,17.9,19C17.9,19,17.9,19,17.9,19C17.9,19,17.9,19,17.9,19z"/>
<path class="st2" d="M265.8,30.2c-0.2-0.8,0.2-2.3,0.2-3.4c-0.8-3.6-0.7-6.6-0.7-9.6c0-1.9,0-3.8,0.1-5.6c-0.3,0-0.4,0.1-0.5-0.1
	c0-0.2,0.4-0.1,0.1-0.3c-0.2,0.2-0.3-0.2-0.4-0.3c-0.4,0.5,0.4,1-0.2,1.2c0.1-0.5-0.4,0.2-0.5-0.2c-0.2,0.2-0.3,0.4-0.5,0.4
	c0.2-0.1,0-0.4-0.1-0.4c-0.1,0.4-0.6,0.1-0.6,0.2c0-0.2,0.3,0,0.3-0.2c-0.5,0,0-0.3-0.3-0.5c0,0.4-0.4,0.2-0.4,0.5
	c0.2,0.1,0.3-0.4,0.3-0.1c-0.1,0-0.1,0.3-0.2,0.3c-0.1-0.2-0.4-0.2-0.3-0.5c-0.7,0.5-0.7,0-1.4,0.1c0,0.2,0.1,0.4-0.2,0.4
	c0-0.1,0.1-0.2,0.1-0.2c-0.1,0-0.4,0.3-0.5,0c0-0.1,0.1,0,0.2-0.1c-0.2-0.2-0.3,0.2-0.6,0.1c0-0.2,0.3-0.3,0-0.3
	c-0.2,0.3-0.4,0.4-0.7,0.6c0.1-0.3,0.2-0.2,0.3-0.5c-0.3,0-0.4,0.4-0.7,0.6c0.1,0.2,0.1,0.1,0.2,0.2c-0.2,0-0.1,0.2-0.3,0.2
	c-0.1-0.4-0.1-0.3-0.2,0c0-0.3-0.3,0-0.3-0.4c-0.1,0.2-0.3,0.3-0.4,0.4c-0.2-0.3-0.3-0.2-0.3,0c-0.2,0-0.1-0.2-0.3-0.2
	c-0.2,0.1-0.3,0.3-0.5,0.2c-0.1,0.3,0.2,0.2,0.1,0.4c-0.2-0.1-0.5,0.2-0.6,0.4c-0.2-0.1-0.2-0.4-0.3-0.5c-0.3,0.1,0.3,0.5,0,0.6
	c-0.1-0.2-0.2-0.1-0.3-0.4c0,0.2-0.2,0.2-0.2,0.4c0.1,0,0.2,0.1,0.1,0.2c0,0.1-0.1,0.1-0.2,0.1c0-0.1,0-0.2,0-0.2
	c0,0.1-0.1,0.3-0.2,0.3c0-0.1-0.1-0.2-0.1-0.3c0.1,0,0.2,0.1,0.2,0.1c0.1-0.2-0.1-0.2-0.3-0.3c-0.1,0.1,0,0.3-0.2,0.3
	c-0.1-0.6,0.1-0.1-0.3,0c-0.2,0-0.5-0.2-0.7,0.1c0-0.2,0-0.4-0.1-0.6c-0.2,0.2-0.4,0.6-0.8,0.6c0.2-0.2-0.2-0.1-0.1-0.4
	c-0.3,0.5-0.3,0.3-0.7,0.5c0.1-0.1,0.1-0.2,0-0.3c-0.1,0.4-0.2,0.1-0.4,0c0,0.2,0.2,0.2-0.1,0.4c0-0.4,0,0.2-0.3,0
	c0-0.2,0.2-0.2,0.2-0.2c0.7-1-0.1-0.4-0.4,0.3c0-0.3,0.1-0.3-0.1-0.5c-0.1,0.4-0.2,0.3-0.3,0.5c0,0,0-0.1-0.1-0.2
	c0,0.2,0.1,0.5-0.1,0.7c0-0.3-0.3-0.7-0.6-0.3c0.4-0.5-0.5-0.7-0.8-0.5c0.3-0.1,0.4,0.1,0.5,0.4c-0.2,0,0-0.3-0.3-0.3
	c-0.2,0.2,0.1,0.4-0.1,0.4c-0.2,0-0.4-0.3-0.5-0.4c0,0,0,0.1,0,0.1c-0.1,0-0.2,0.1-0.3,0.1c-0.1-0.2-0.5-0.2-0.8-0.1
	c0.4,0.1,0.7,0.2,0.9,0.3c-0.3,0.1-0.5,0.3-0.8,0.5c0.1-0.3-0.1-0.3-0.3-0.3c0.2,0.4-0.4-0.1-0.4,0c0.1,0,0,0.3-0.1,0.3
	c-0.2-0.1-0.1-0.8-0.4-0.6c0.1,0.1,0.1,0.3,0.1,0.5c-0.2,0-0.2-0.1-0.3-0.1c0,0.1,0,0.2-0.1,0.2c0-0.1,0-0.4,0-0.6
	c-0.3,0.1-0.4,0.5-0.6,0.6c-0.2,0-0.1-0.2-0.3-0.3c0,0.4,0.2,0.6,0.2,1c-0.1,0-0.1-0.1-0.3-0.1c-0.1,0.3,0.3,0.1,0.3,0.3
	c-0.1,0-0.2,0.1-0.4,0.1c-0.1-0.4-0.4-0.6-0.5-0.7c-0.1,0.3,0.1,0.4-0.1,0.6c0.1-0.1-0.1-0.4-0.2-0.3c0.2,0,0,0.4-0.2,0.3
	c-0.2-0.1-0.2-0.4-0.3-0.5c-0.1,0.2,0.2,0.2,0.1,0.4c-0.2-0.4-0.2,0-0.3,0c-0.3,0-0.2-0.6-0.8-0.5c0.1-0.1,0.2-0.3,0-0.3
	c-0.2,0.5-0.7-0.1-0.9,0.4c-0.2,0-0.4-0.4-0.6-0.1c-0.2-0.2-0.3-0.3-0.3-0.4c0,0.1-0.2,0.2-0.2,0.1c0.1-0.3-0.1-0.3-0.1-0.4
	c-0.1,0.2,0,0.6-0.2,0.6c-0.4-0.2-0.4-0.2-0.8-0.4c-0.2,0.5-0.4-0.2-0.5,0.2c0.2,0-0.2,0.7,0.1,0.5c0-0.2,0.1-0.3,0.2-0.3
	c0,0.1,0,0.1,0,0.2c-0.2,0.1-0.4,0.3-0.5,0.5c0.1,0,0.2,0.1,0,0.2c-0.2-0.1,0-0.4-0.2-0.4c0,0.3-0.4,0-0.4,0.2
	c0.3,0,0.3,0.2,0.3,0.4c-0.1-0.2-0.2-0.2-0.4-0.2c-0.3-0.7-0.4-0.6-0.1,0.1c0.2,0.1,0.4-0.1,0.4,0.1c-0.1,0.2-0.1,0.4-0.2,0.5
	c-0.2,0,0.2-0.4-0.1-0.4c-0.2,0.3-0.1,0.4-0.1,0.6c-0.3,0-0.4,0.3-0.6,0.4c0.1,0,0,0.2,0,0.3c-0.2-0.2-0.1-0.1-0.1,0.1
	c-0.3,0-0.5,0.3-0.7,0c0,0.2,0,0.4,0.1,0.5c-0.4,0.3-0.2,0.1-0.5,0.3c0.1-0.2-0.2-0.6-0.1-0.3c-0.1,0.2,0.1,0.2,0,0.3
	c-0.8-0.3-0.7-0.1-1.2-0.3c0.1,0.3-0.1,0.5-0.3,0.7c-0.2,0-0.1-0.3-0.2-0.4c0,0.3-0.3,0.1-0.3,0.4c0.3,0,0.6,0.1,0.4,0.3
	c0-0.3-0.4-0.2-0.4,0c0-0.3-0.1-0.3-0.3-0.1c0-0.2-0.4-0.3-0.4-0.2c0.1,0,0.1,0.1,0.1,0.3c-0.4-0.1-0.3-0.2-0.5,0.1
	c0.1-0.3,0-0.2,0.1-0.5c-0.2,0-0.3-0.3-0.4,0c0.5,0.1-0.1,0.3-0.2,0.4c0-0.2,0.3-0.2,0-0.2c0,0.2-0.1,0.3-0.3,0.2
	c0,0.2,0,0.3-0.2,0.4c0-0.1-0.1-0.1-0.2,0c0,0,0.1,0.1,0,0.1c-0.1-0.1,0-0.3-0.2-0.3c-0.3,0.4-0.5-0.3-0.6-0.3
	c-0.1,0.4-0.6,0.2-0.7,0.5c0-0.3,0.2-0.2,0.3-0.4c-0.3,0.2-0.8,0.2-0.8,0.6c-0.3-0.1-0.4,0.2-0.6,0c-0.1,0.5-1.2,0.2-0.7,0.7
	c-0.1,0-0.2-0.1-0.2-0.1c-0.1,0.3,0.1,0.4-0.3,0.4c0-0.1,0.1-0.3,0-0.3c-0.2,0-0.1,0.4-0.3,0.4c-0.1-0.2-0.1,0-0.2,0
	c-0.1-0.2-0.1-0.3-0.2-0.4c-0.1,0.3,0.1,0.3,0.1,0.3c0,0.1,0,0.2-0.1,0.2c-0.1-0.4-0.3-0.5-0.7-0.4c-0.1-0.3-0.1-0.5-0.3-0.7
	c0,0.2-0.1,0.4-0.2,0.4c0-0.3,0-0.2,0.1-0.4c-0.1,0-0.1-0.1-0.3-0.1c-0.1,0.2,0.1,0.6-0.1,0.4c0,0.3,0,0.4,0.3,0.3
	c-0.1,0.1,0,0.5-0.2,0.5c-0.3-0.1-0.2-0.3,0-0.3c-0.3-0.3-0.4,0.3-0.7,0.3c0-0.2,0.1-0.4-0.1-0.4c0,0.2-0.1,0.3-0.2,0.1
	c0.1,0.3-0.4,0.4-0.9,0.4c0.1-0.3,0-0.6-0.2-0.8c0.2,0.7-0.1,0.8-0.1,1.1c-0.3-0.1-0.2,0.2-0.3,0.2c0-0.1-0.1-0.1-0.1-0.2
	c0-0.2,0.3-0.5,0.1-0.3c-0.1,0.1-0.1,0.3-0.3,0.2c0.1-0.2,0-0.3-0.1-0.4c-0.2,0.2,0.2,0.4-0.1,0.4c0.1-0.3-0.1,0-0.2,0
	c0.1-0.2,0.3-0.3,0-0.4c-0.1,0.1,0,0.4-0.2,0.4c0.1-0.1-0.7-0.2-0.6-0.8c-0.3,0.3-0.2,0.7-0.5,1c0-0.1,0.1-0.3-0.1-0.3
	c0,0.9-0.7,0.3-0.8,0.9c-0.3-0.1,0-0.3-0.3,0c-0.1-0.1,0.1-0.4-0.1-0.5c-0.1,0.3-0.2-0.1-0.3,0.1c0.1,0,0,0.2,0.1,0.3
	c-0.2-0.4-0.3,0.2-0.6,0.2c0-0.3,0.3-0.3,0.3-0.5c-0.4,0.1-0.5,0.1-0.8,0.2c0-0.2-0.3,0-0.3-0.4c-0.2,0.8-0.6,0.6-0.9,1.2
	c0-0.3,0.3-0.6,0.2-0.7c-0.3,0.2-0.1,0.4-0.4,0.6c-0.2-0.1-0.1-0.4-0.3-0.5c0,0.1,0,0.3,0,0.3c-0.3-0.1-0.3,0.2-0.5,0.1
	c0.1-0.4-0.2-0.6-0.3-0.9c-0.3,0.4-1,0.4-1.3,0.9c-0.2-0.1-0.8,0-1.1,0.2c0.1,0,0.5,0.1,0.7,0c0,0.1,0,0.1,0,0.2
	c-0.2-0.1-0.2,0.3-0.4,0.2c0.1-0.3-0.1,0-0.2-0.3c-0.1,0.2-0.1,0.4-0.3,0.4c0-0.4-0.3-0.6-0.5-0.6c0.1,0,0.4-0.4,0.1-0.2
	c-0.3,0.2-0.7,0.1-0.9,0.1c0.2,0-0.1,0.2-0.1,0.2c-0.1-0.1-0.2-0.2-0.3-0.2c-0.2,0.6-0.3-0.2-0.5,0c0,0.1,0.3,0.3,0.1,0.3
	c-0.2,0-0.1-0.3-0.3-0.3c-0.1,0.6-0.2,0.7-0.6,0.7c0-0.2-0.1-0.7-0.3-0.5c0.3,0.3-0.3,0.5,0,0.7c-0.1,0-0.2,0-0.3,0
	c0.3-0.3-0.2-0.3-0.1-0.1c-0.3-0.2,0.3-0.6,0.1-0.7c-0.4,0.4-0.1,0.3-0.3,0.8c0-0.2-0.1-0.3-0.3-0.4c0,0.1-0.1,0.2-0.2,0.2
	c0-0.1-0.1-0.1-0.1-0.2c0.1,0,0.1,0.1,0.1,0.1c0.1-0.3,0.2-0.3,0.1-0.5c0,0.1-0.1,0.2-0.2,0.1c-0.1,0.1,0,0.4-0.2,0.3
	c0-0.2,0.3-0.4,0.1-0.6c-0.1,0.4-0.4,0.3-0.4,0c-0.1,0-0.1,0.3-0.2,0.3s-0.6-0.2-0.8,0c0.2,0,0.3,0.1,0.3,0.3c-0.1,0-0.1,0-0.2,0
	c0.1-0.4-0.2,0-0.3,0c-0.1-0.1-0.1-0.2,0.1-0.3c-0.2-0.1-0.2,0.2-0.4,0.2c-0.1-0.2,0-1.1-0.2-0.4c0,0.6,0,0.2-0.4,0
	c0,0.1,0,0.2,0,0.3c-0.5,0-0.3,0-0.6-0.3c-0.1,0.1,0,0.5-0.2,0.5c-0.1,0-0.1-0.1-0.1-0.2c0.2,0.2,0.3-0.2,0.1-0.2
	c-0.1,0.1-0.3,0.1-0.4,0.2c-0.1-0.2,0.3-0.3,0.1-0.4c-0.1,0.2-0.4,0.3-0.4-0.1c-0.3,0.3-0.6,0.3-0.8,0.7c0.1-0.2-0.1-0.3-0.2-0.4
	c0,0.1,0,0.2-0.1,0.2c-0.1-0.1-0.1-0.2-0.2-0.3c-0.3,0.4-0.9,0.6-1.2,0.5c-0.1,0.1,0.2,0.3-0.1,0.3c-0.1,0-0.1-0.1-0.1-0.2
	c0.1-0.4,0.4-0.5,0.7-0.7c-0.5,0-0.8,0.5-0.9,0.7c-0.2-0.1,0.1-0.6-0.1-0.8c-0.2,0.3,0,0.7-0.3,0.7c0.1,0.1,0.2,0.3,0.1,0.5
	c-0.2-0.3-0.3,0-0.4,0.1c-0.1-0.4,0,0-0.2,0c0,0-0.1-0.1-0.1-0.2c-0.1,0.1,0,0.5-0.2,0.5c0.2-0.5-0.3,0.3-0.4-0.2
	c0,0.3-0.2,0.5-0.5,0.4c0.2,0.2-0.2,0.3-0.3,0.4c0.1-0.3-0.4-0.2-0.4-0.5c-0.1,0.1-0.1-0.1-0.2,0c0.1,0,0.1,0.1,0,0.3
	c-0.3-0.3,0.1,0.1-0.2,0.1c-0.1-0.1-0.4-0.5-0.3-0.3c0.1,0.1,0,0.3,0.1,0.4c-0.3,0-0.3,0.4-0.4,0c0,0.2,0.1,0.2,0,0.3
	c-0.3,0.1-0.5,0-0.7-0.2c0,0.1,0,0.3-0.1,0.3c0,0,0,0,0,0c0,0,0,0-0.1,0c-0.1-0.1-0.1-0.2-0.3-0.3c0,0.2,0,0.4,0,0.7
	c-0.2-0.1-0.4-0.2-0.6,0c-0.2,0-0.3-0.6-0.3-0.4c0,0.1,0,0.2-0.1,0.2c-0.8-0.1-1.3,0.1-1.8,0.4c-0.2-0.4-0.3,0-0.6-0.2
	c0,0.3-0.2,0.4-0.2,0.6c0.1-0.3-0.1-0.4-0.2-0.5c0,0.3-0.1,0.3-0.3,0.3c0.1-0.4,0-0.1-0.2,0c0-0.1-0.2-0.1-0.2-0.2
	c0,0,0.1-0.1,0.2-0.1c-0.2-0.1-0.3,0.2-0.3-0.1c0.2-1.1,0,0-0.1,0.3c-0.2-0.3-0.3-0.7-0.5-1c0,0.2-0.3,0.3-0.3,0.1
	c0.4,0.1,0-0.8-0.1-0.6c0.1,0.1,0.2,0.2,0.1,0.4c-0.1-0.2-0.1,0-0.3,0c-0.1-0.2-0.1-0.2,0-0.5c-0.1,0-0.1-0.1-0.2-0.2
	c0,0.2,0,0.5-0.2,0.5c-0.4,0-0.4,0-0.7,0c0.1-0.3-0.1,0-0.2-0.1c0-0.2-0.2-0.4-0.2-0.5c0,0.1-0.1,0.2-0.2,0.3c0.1,0,0.2,0,0.2,0.1
	c0,0.3-0.3,0.2-0.4,0.3c0-0.2,0-0.5,0.1-0.6c-0.5,0-0.1,0.6-0.4,0.7c0.1-0.1,0-0.2-0.1-0.1c0.1-0.1,0-0.1,0.1-0.3
	c-0.2,0-0.8-0.3-0.7-0.1c0.1,0,0.3,0,0.3,0.1c-0.1,0.2-0.3,0.1-0.6,0.1c0-0.1,0-0.2-0.1-0.3c0,0.1-0.1,0.1-0.2,0
	c0,0.2-0.1,0.5-0.3,0.4c-0.1-0.1,0-0.6-0.1-0.4c0.1,0.2-0.2,0.3,0,0.5c-0.2,0-0.2-0.2-0.4-0.2c0,0.2,0.1,0.2,0.1,0.3
	c-0.1,0.1-0.1,0.2-0.2,0.2c0-0.2,0.1-0.4-0.1-0.5c-0.2,0.3,0.2,0.5-0.1,0.6c-0.1-0.1-0.1-0.3-0.3-0.4c-0.2,0.3,0.1,0.3,0.1,0.5
	c-0.4-0.1-0.3,0-0.6,0c0-0.2-0.2-0.3-0.2-0.5c0,0.2,0.1,0.3,0,0.5c-0.3-0.1-0.3,0-0.4,0.1c-0.1-0.3-0.3-0.3-0.4-0.2
	c0.2,0.3-0.1,0.1-0.2,0.2c0.1,0.1,0.2,0.1,0.2,0.2c-0.1,0-0.3,0-0.4-0.1c0-0.1,0.1-0.1,0.1-0.2c-0.4,0-0.4,0.3-0.5,0.4
	c0.1-0.2-0.1-0.3,0-0.5c-0.3,0.1-1-0.1-1,0.2c-0.3-0.1-0.1-0.6-0.3-0.7c-0.1,0.2,0.2,0.5-0.1,0.6c-0.1-0.3-0.3-0.2-0.4-0.4
	c-0.1,0.3,0.1,0.3,0,0.6c-0.3-0.1,0,0.1-0.1,0.2c-0.1-0.2-0.3,0.1-0.1-0.2c-0.3-0.2-0.1,0.3-0.3,0.3c-0.3,0-0.3-0.1-0.3-0.2
	c-0.2,0.1,0,0.3-0.2,0.3c-0.1-0.2,0-0.4-0.1-0.5c-0.1,0.1-0.1,0.5-0.3,0.5s0-0.3-0.2-0.3c0,0.2,0.1,0.3-0.1,0.3
	c0-0.1,0.1-0.4-0.1-0.5c-0.1,0.1-0.1,0.4-0.3,0.4c-0.3,0-0.3-0.2-0.4-0.3c-0.2,0.1,0.1,0.4-0.2,0.5c-0.1-0.1-0.1-0.3-0.2-0.4
	c-0.1,0.1,0,0.4-0.2,0.4c-0.2,0,0-0.4-0.3-0.2c0.1-0.1,0-0.7-0.2-0.3c-0.3-0.4-0.3-1.1-0.5-1.3c0.1,0.1,0,0.3,0,0.5
	c-0.1,0-0.2-0.4-0.3-0.1c0,0,0,0,0,0c0.1,0,0.3,0.4,0.1,0.4c-0.1-0.1,0-0.3-0.1-0.4c0,0,0,0,0,0c0,0,0,0,0,0c0,0-0.1-0.1-0.1-0.1
	c0,0.1-0.2,0-0.2,0c0,0.2-0.1,0.3-0.2,0.3c0.1-0.1-0.2-0.3-0.2-0.1c0.2,0.2,0,0.1-0.2,0c0,0.2,0,0.4-0.2,0.5c0-0.4-0.1-0.3-0.1-0.5
	c-0.1-1.1,0,0.3-0.1,0.8c-0.4,0.2-0.8,0.1-1,0.4c-0.1,0,0-0.2-0.1-0.3c-0.1,0.3-0.2,0.4-0.4,0.4c0.1,0,0,0.5-0.1,0.5
	c0-0.1,0-0.3-0.1-0.4c-0.1,0.1-0.1-0.1-0.2-0.1c0,0.1,0,0.3-0.1,0.3c-0.2-0.5-0.1-0.8-0.5-0.2c0.1,0,0,0.5-0.1,0.5
	c-0.1,0-0.1-0.4-0.2-0.1c0.3,0.2-0.1,0.2-0.2,0.3c0-0.1-0.1-0.1-0.2,0c0-0.1,0.1-0.2,0-0.3c0,0.4-0.4,0.2-0.6,0.4c0,0,0.1,0.1,0,0.1
	c-0.3,0,0-0.4-0.2-0.4c0,0.2-0.1,0.4-0.3,0.4c-0.2-0.4-0.1-0.2-0.3,0c0-0.2-0.2-0.6-0.2-0.5c-0.1,0.4-0.1,0.6-0.3,0.8
	c0-0.2-0.4-0.2-0.4-0.4c0,0.4-0.3,0-0.4,0l-0.1,0.2c-0.5,0.1-0.5-0.4-0.6-0.5c-0.2-0.1,0,0.4-0.2,0.3c0-0.1,0-0.2,0.1-0.3
	c-0.3,0-0.5-0.1-0.7-0.3c0.2,0.1,0.3-0.3,0.1-0.4c0,0.1,0,0.2,0,0.3c-0.3,0.1-0.6-0.1-0.7-0.3c-0.1,0.4-0.5,0.3-0.2,0.6
	c-0.3,0-0.2-0.3-0.4-0.4c0,0.3-0.2,0.1-0.3,0c-0.1,0.2,0,0.3,0,0.4c0,0,0,0,0.1,0.1c0,0-0.1-0.1-0.1-0.1c0,0-0.1,0.1-0.2,0
	c-0.1-0.2,0.1-0.2,0-0.3c-0.3,0.2-0.1,0.6-0.5,0.6c0.2-0.2,0.1-0.4-0.1-0.2c0-0.1,0.1-0.3,0-0.3c-0.1,0.3-0.2,0-0.4,0.2
	c0.1-0.2-0.7-0.4-0.2-0.6c-0.2,0-0.3-0.1-0.4-0.2c0,0.2,0.3,0.6,0,0.8c-0.4,0-0.2-0.3-0.2-0.5c-0.2,0.3-0.3,0.7-0.5,0.9
	c0-0.2,0.1-0.4-0.1-0.4c-0.1,0.1,0,0.4-0.2,0.4c-0.1-0.2-0.3-0.2-0.4-0.4c0,0.1,0,0.2-0.1,0.2c-0.2-0.1-0.1-0.3-0.2-0.4
	c-0.1,0.2,0.1,0.5,0,0.5c-0.2-0.3-0.4-0.7-0.9-0.8c-0.2,0.3,0.3,0.1,0.3,0.3c0,0.1,0,0.2-0.1,0.3c-0.2,0-0.2,0-0.3,0
	c-0.2-0.2-0.1-0.2-0.4-0.2c-0.3,0.1,0.2,0.3-0.1,0.3c-0.1,0,0-0.2-0.2-0.2c0,0.4-0.2,0.5-0.3,0.5c0.2,0.1,0,0.2,0.1,0.4
	c-0.3-0.2-0.4-0.2-0.6,0c0.1-0.3-0.4-0.3-0.4-0.7c-0.2,0.3,0,0.4-0.3,0.5c0.1-0.2,0-0.3-0.1-0.3c-0.1,0.1-0.2,0.2-0.3,0.3
	c-0.1-0.3,0.4-0.2,0.2-0.4c-0.1,0.1-0.1,0.1-0.3,0.1c0.1-0.2,0-0.6-0.2-0.4c0.1,0.2,0.2,0.3,0.2,0.6c-0.2-0.3-0.4-0.3-0.5-0.6
	c-0.5,0.3-0.5-0.6-0.5-0.6c-0.1,0.1,0,0.3-0.2,0.3c-0.3-0.1-0.1-0.5-0.3-0.6c-0.2,0.2,0.1,0.5-0.1,0.5s-0.1-0.2-0.3-0.2
	c-0.2,0.3-0.5,0.4-0.7,0.4c0.1,0,0,0.1,0,0.3c-0.3-0.4-0.5,0.6-0.8,0.2c0,0.1,0,0.2,0,0.3c-0.1,0-0.2,0-0.2,0c0-0.1,0-0.2-0.1-0.2
	c-0.1,0.2,0.1,0.3,0.2,0.4c-0.1,0-0.1,0-0.2,0c-0.1-0.3-0.1-0.5-0.2-0.8c-0.1,0.3,0,0.4-0.2,0.5c0-0.2-0.1-0.3-0.2-0.4
	c-0.1,0.1,0.2,0.3-0.1,0.3c-0.3-0.1-0.2-0.4-0.3-0.6c-0.2,0.3-0.1-0.5-0.2-0.2c0,0.2,0,0.5,0.1,0.6c0,0,0.1-0.1,0.1,0
	c-0.3,0.3-0.6,0.2-0.8-0.1c0,0.2-0.1,0.4-0.1,0.5c-0.1,0-0.1-0.2-0.2-0.2c-0.1,0.2,0.1,0.4-0.1,0.4c-0.1-0.3-0.3-0.6-0.6-0.8
	c-0.1,0.2,0.2,0.2,0.2,0.4c-0.1,0-0.3-0.4-0.4-0.2c0.4,0.1,0.1,0.6,0.4,0.8c0,0-0.1,0-0.1,0.1c-0.2-0.3-0.3-0.5-0.4-0.9
	c-0.1,0.1-0.1,0.3-0.2,0.3c-0.1-0.2-0.2-0.1-0.3-0.2c0-0.1,0.1-0.3,0.1-0.4c0.2,0.1,0.3,0,0.4-0.1c-0.5-0.2-0.6,0.4-0.9,0.6
	c-0.2-0.1,0-0.4-0.2-0.5c-0.1,0.2,0.1,0.2,0,0.4c-0.3-0.2-0.1,0.3-0.3,0.3c-0.1-0.2,0.1-0.3,0.2-0.5c-0.2,0-0.1-0.1-0.2-0.2
	c-0.1,0.2,0,0.5-0.2,0.5c0.1-0.3-0.1-0.4-0.3-0.5c-0.2,0.2,0.3,0.4,0.1,0.8c-0.1,0-0.1,0-0.2,0c-0.1-0.1-0.2-0.2-0.2-0.4
	c0,0.1,0,0.2-0.1,0.2c-0.2-0.2-0.5-0.5-0.7-0.2c-0.1-0.2-0.2-0.4-0.3-0.6c-0.2,0.2-0.1,0.3-0.3,0.4c-0.2-0.3-0.1,0.1-0.3,0.1
	c0.1-0.1,0-0.2-0.1-0.3c0,0.5-0.3,0.5-0.3,0.9c-0.2-0.2-0.3-0.5-0.3-0.7c0,0.4-0.2,0-0.3,0.2c0.1,0,0.1,0.1,0,0.2
	c-0.5-0.1-0.8,0.6-1.1,0.4c-0.1,0.2-0.1,0.3-0.3,0.4c0-0.1-0.2-0.1-0.2-0.2c-0.1,0.1,0.2,0.3-0.1,0.3c-0.1-0.3,0-0.6-0.2-0.8
	c0.1,0.6,0.1,0.7-0.1,0.9c-0.2-0.1,0-0.3,0.1-0.4c-0.3-0.1-0.2,0.3-0.4,0.2c0-0.1,0.2-0.2,0-0.2s-0.2,0.4-0.3,0.4
	c-0.2-0.3-0.4-0.6-0.6-0.8c0.1,0.1-0.2,0.4-0.4,0.5c0-0.2,0.3-0.3,0.1-0.5c-0.1,0.1-0.1-0.1-0.1-0.1c-0.1,0.7-0.8,2.3-1,1.8
	c0,0.1,0.1,0.6-0.1,0.6c-0.2-0.3-0.1,0.3-0.3,0c-0.1,0.1,0.1,0.4-0.1,0.4c-0.4-0.1-0.4-0.2-0.8-0.5c0,0.2-0.2,0.2-0.4,0.2
	c0-0.1,0-0.3-0.1-0.4c0,0,0,0.1,0,0.2c0,0-0.1,0-0.1,0.1c0.2,0,0.3,0.3,0.1,0.3c-0.2-0.1-0.1-0.5-0.3-0.6c-0.3,0.3-0.6-0.3-0.8-0.2
	c0.1,0,0.1,0.1,0.1,0.2c-0.4-0.1-0.4-0.3-0.5-0.4c0.2-0.2,0.2,0.1,0.3-0.1c-0.1-0.2-0.2-0.1-0.3-0.3c0,0.1,0,0.2-0.1,0.2
	c-0.1-0.1-0.1-0.2-0.2-0.3c-0.1,0.1,0,0.4-0.2,0.4c-0.3-0.4,0.4-0.5,0.2-0.7c-0.1,0.2-1,0.3-0.4,0.3c0,0.1,0,0.3-0.1,0.3
	c-0.2-0.1-0.1-0.2-0.3-0.1c0-0.2,0.2-0.5,0-0.6c-0.2,0.3,0,0.5-0.2,0.6c-0.2-0.2-0.3-0.4-0.3-0.7c-0.2,0.2-0.6,0.2-0.9,0.5
	c0-0.2-0.1-0.4-0.3-0.2c0-0.1,0-0.5-0.1-0.3c0,0.2,0.1,0.3,0.1,0.5c-0.2,0.1-0.2,0-0.4-0.1c0,0.1,0.1,0.5-0.1,0.5
	c-0.2-0.2-0.1-0.3-0.3-0.1c-0.1-0.1-0.1-0.4-0.3-0.3c0-0.1,0.1-0.1,0-0.2c-0.1-0.1-0.2,0-0.3,0c0.1-0.3-0.2-0.6-0.3-0.5
	c0.2,0,0.2,0.6,0,0.3c-0.1,0.3,0.1,0.3,0.2,0.4c-0.1,0-0.1,0.1-0.2,0.1c-0.1-0.2-0.2-0.5-0.3-0.7c-0.1,0.3,0.2,0.4,0.1,0.7
	c-0.3-0.1-0.2-0.2-0.4,0c0-0.2,0-0.3-0.2-0.3c-0.1,0.2-0.4,0.1-0.6,0.3c0-0.1,0.1-0.2,0-0.2c0,0,0,0.1-0.1,0c0,0-0.1,0-0.1,0.1
	c0.2,0.9-0.3,0.1-0.4-0.1c0.1,0,0.1,0,0.1-0.1c-0.3-0.1-0.2,0.2-0.3,0.3c-0.3-0.1-0.7,0.3-0.9,0.2c0.4-0.6,0.3-0.3-0.2-0.1
	c0.2-0.4-0.2,0.1-0.4,0c0-0.2,0.1-0.4-0.1-0.4c-0.1,0.6-0.2-0.2-0.3,0c0,0.1-0.1,0.8-0.3,0.8c0.3-0.1-0.2-0.3-0.3-0.2
	c0.2,0,0.3,0.3,0.1,0.3c-0.1,0,0-0.3-0.3-0.2c-0.1,0.1,0,0.2,0.1,0.1c-0.2,0.2,0.2,0.4,0,0.4c-0.2-0.2-0.2-0.5-0.4-0.7
	c-0.1,0.1-0.1,0.2,0,0.1c0.1,0.1,0.2,0.4,0,0.5c-0.4-0.4-0.6-0.5-0.9-0.7c0,0-0.1,0.1-0.2,0c0.1,0.3-0.1,0.7-0.5,0.5
	c0,0.1,0.1,0.2,0,0.3c-0.4-0.3,0,0.1-0.2,0.2c-0.2-0.3-0.4-0.3-0.8-0.2c0.1,0,0.3,0.1,0.2,0.2c-0.2-0.2-0.3-0.1-0.5,0
	c0.1-0.2-0.1-0.5-0.2-0.3c0.1,0,0,0.3,0.1,0.3c-0.6,0.4,0.1-0.3-0.8-0.1c0-0.2-0.1-0.3-0.2-0.4c0,0.2-0.1,0.1-0.2,0.2
	c0.2,0,0,0.3,0,0.5c-0.3-0.4-0.2,0.1-0.5,0.2c-0.3-0.3-0.5-0.1-0.8-0.5c-0.2,0.3,0.3,0.4,0,0.6c0-0.2-0.2-0.3-0.2-0.5
	c-0.2,0.1-0.5,0-0.5,0.2c-0.1-0.2-0.1-0.8-0.2-0.7c0.1,0.1,0,0.3-0.2,0.3c-0.2-0.2-0.6,0.2-0.8,0.3c-0.2-0.1,0.2-0.4,0-0.4
	c-0.1,0.1-0.3,0.1-0.5,0c0.1-0.1,0.2-0.1,0.2-0.2c-0.2,0.2-0.5,0.2-0.8,0.3c-0.1-0.3-0.3-0.4-0.2-0.8c-0.1,0-0.2-0.1-0.2-0.1
	c-0.2,0.1-0.3,0.6-0.4,0.2c0,0.1,0,0.3-0.2,0.3c0.1-0.2-0.1-0.2-0.2-0.3c-0.1,0.2,0.4,0.4,0.1,0.5c-0.1-0.4-0.3-0.6-0.2-0.9
	c-0.6-0.2-0.8-0.6-1.1-0.9c0-0.1,0.3-0.1,0.1-0.2c-0.2,0.3-0.3-0.2-0.4-0.3c0,0.4-1.3,0.4-1.2,0c0,0.2-0.4,0.2-0.4,0
	c0.2-0.2,0.6-0.7,0.5-0.9c-0.1,0.3-0.4,0.5-0.6,0.6c0-0.1-0.1-0.1-0.1-0.2c0-0.1,0.2,0,0.2-0.1c-0.4-0.2-0.6,0.8-1.2,0.9
	c0.2-1-0.2,0-0.3,0.2c0.1,0,0.1,0,0.1,0.1c0,0.1-0.1,0.1-0.2,0.1c-0.2-0.1-0.1-0.3-0.3-0.4c-0.1,0.1,0,0.4-0.2,0.4
	c-0.2-0.3-0.8-0.4-0.6-0.8c-0.1,0.2-0.2,0.4-0.4,0.4c-0.3-0.3-0.5-0.2-0.9-0.2c0.1-0.2-0.1-0.2-0.1-0.3c0.1,0,0.2,0.1,0.2,0.1
	c0-0.1,0-0.3-0.1-0.4c-0.3,0.2-0.2,0.3-0.1,0.6c-0.1,0-0.1,0.1-0.3,0c0.3-0.3-0.1-0.2-0.3-0.2c0.1-0.4-0.5-0.4-0.8-0.7
	c-0.1,0.2,0.3,0.4,0,0.4c0-0.3-1.4-0.4-1.9-0.5c0-0.2,0-0.3-0.1-0.4c-0.1,0.4-0.5,0.5-0.8,0.3c0,0.2,0,0.4-0.1,0.6
	c-0.4-0.2-0.5,0.2-0.8,0.3c-0.1-0.1,0-0.4-0.1-0.4c0,0.4-0.3-0.1-0.6,0.1c0-0.1-0.1-0.1-0.1-0.2c0-0.2,0.4-0.4,0.3-0.5
	c-0.1,0.2-0.3,0.2-0.4,0.5c-0.5,0-0.2,0.2-0.7,0c-0.1,0.1,0.1,0.2-0.1,0.2c-0.1,0-0.1-0.1-0.1-0.2c-0.2,0-0.4,0.5-0.5,0.3
	c0-0.1,0.2,0,0.2-0.2c-0.2,0-0.3,0-0.5,0c0-0.1,0-0.2,0-0.3c-0.2,0-0.6-0.1-0.7,0.1c0-0.1,0.1-0.2,0-0.3c-0.2,0.1,0.1,0.2-0.1,0.2
	c0-0.5-0.5,0-0.8-0.3c0,0.1,0,0.2,0,0.2c-0.1,0-0.1-0.1-0.3-0.1c0,0.2-0.1,0.3-0.2,0.3c0-0.1,0.1-0.2,0-0.3
	c-0.1,0.3-0.3,0.2-0.6,0.1c-0.4,0.5-0.8,0.2-1.4,0.3c0.1,0,0.1,0.2,0,0.3c-0.3-0.3-0.4,0.2-0.5,0.3c0.1-0.1-0.1-0.4-0.2-0.2
	c0.1,0,0.2,0.4,0,0.3c-0.1-0.6,0.2-1.3-0.4-0.3c-0.2,0,0.2-0.8,0-0.6c0,0.5-0.2,0.2-0.3,0c-0.2,0.3,0.1,0.5-0.1,0.6
	c-0.2-0.3-0.3-0.2-0.4-0.5c0,0.1-0.1,0.1-0.2,0c-0.1,0.2,0.1,0.3,0.1,0.4c-0.1-0.2-0.3-0.1-0.5-0.1c0.1-0.1,0.3-0.4,0-0.5
	c0,0.4-0.4,0.1-0.4,0c0.1,0.3-0.1,0.2-0.3,0.4c-0.3-0.1,0.2-0.6,0-0.6c-0.1,0.4-0.2,0.2-0.3,0.1c-0.1,0.2-0.2,0.3-0.3,0.4
	c0-0.1,0.1-0.3-0.1-0.3c0,0.2,0,0.3-0.2,0.4c0-0.1,0-0.2-0.1-0.3c0,0.2,0.1,0.4-0.3,0.3c-0.1-0.3,0,0-0.3-0.1c0-0.4,0.1-0.2,0.2-0.3
	c-0.1,0,0-0.2-0.1-0.3c-0.1,0.4-0.4,0.4-0.4,0.6c-0.1-0.1-0.2-0.4,0.1-0.6c-0.2,0-0.4,0.2-0.6-0.1c-0.1,0.3-0.2,0.3,0,0.4
	c-0.2,0.2-0.3-0.2-0.3-0.4c0.1,0,0.3-0.4,0.2-0.5c-0.2,0.1-0.1,0.5-0.4,0.6c-0.1-0.1,0.1-0.3-0.1-0.4c-0.1,0.3-0.1,0.6-0.4,0.6
	c0-0.1-0.1,0-0.2-0.1c0-0.4-0.3-0.1-0.4-0.4c0,0.3,0.3,0.3,0.2,0.6c-0.1,0.2-0.2,0.3-0.3,0.4c-0.4-0.1-0.4-0.9-0.6-0.4
	c-0.4,0-0.1-0.4-0.2-0.5c-0.1,0.2,0,0.3-0.3,0.3c-0.3-0.3-0.4-0.7-0.8-0.9c-0.1,0.3,0.3,0.2,0.2,0.4c-0.1,0-0.1,0.1-0.3,0
	c-0.1-0.2,0-0.1,0.1-0.3h-0.1c0-0.1,0-0.1-0.1-0.1c0,0.1-0.1,0.2-0.2,0.2c0-0.1,0-0.2-0.1-0.2c0,0.3,0.2,0.7-0.2,0.8
	c-0.1-0.2,0-0.2,0.1-0.4c-0.1,0-0.2-0.1-0.2-0.1c-0.1,0.2,0,0.5-0.2,0.5c-0.2-0.1,0-0.4-0.1-0.6c-0.2,0-0.1,0.6-0.2,0.5
	c-0.4-0.4-0.4-0.9-0.7-1.4c0,0.1-0.1,0-0.2,0c0,0.5,0.4,0.7,0.4,1.2c-0.3-0.3-0.2,0.2-0.4,0.2c-0.2-0.2-0.2-0.4-0.5-0.5
	c-0.2,0.2,0.3,0.1,0.1,0.4c-0.2-0.1-0.2,0.1-0.3,0.1c0.1-0.3,0.1-0.5,0-0.7c-0.2,0.4-0.1-0.4-0.4-0.3c-0.1,0.2,0.3,0.4,0,0.5
	c0-0.4-0.3-0.6-0.5-0.9c0,0.1,0,0.3-0.1,0.3c-0.3-0.3-0.4-0.2-0.7-0.4c0,0.3,0.4,0.2,0.2,0.6c-0.3,0-0.2-0.1-0.4,0
	c-0.1-0.3-0.2-0.6-0.4-0.9c0,0.4,0.1,0.6,0.2,1c-0.2,0.1-0.4-0.2-0.5-0.4c0.1,0.3-0.1,0.4-0.3,0.5c0-0.3-0.2-0.5-0.2-0.8
	c-0.2,0.4,0,0.8-0.3,0.9c-0.1-0.4-0.4-0.6-0.6-0.9c0,0.4,0.6,0.8,0.1,1.1c-0.1-0.4-0.8-0.9-0.2-1.1c-0.6,0.1-0.5-0.3-0.9-0.5
	c0,0.1-0.1,0.2-0.2,0.3c0.2,0.1,0.4,0.2,0.3,0.4c-0.2-0.3-0.3-0.2-0.4,0c-0.2-0.1,0-0.4-0.2-0.5c-0.1,0.2,0.2,0.4-0.1,0.4
	c-0.3-0.1-0.1-0.5-0.4-0.6c-0.2,0.2,0,0.3-0.2,0.4c0-0.2-0.3-0.3-0.4-0.5c-0.3,0,0.1,0.4-0.1,0.4c-0.3,0-0.2-0.3-0.3-0.4
	c0,0-0.1,0.1-0.2,0c-0.1,0.2,0.3,0.3,0,0.3c0-0.1-0.1-0.2-0.2-0.3c-0.1,0.1,0,0.3-0.2,0.3c0.1-0.2-0.2-0.2-0.2-0.3
	c0-0.1,0.1-0.3,0-0.2c-0.2,0.3,0.1,0.5-0.2,0.5c0-0.1,0-0.2-0.1-0.3c0.1,0.5-0.6-0.1-0.4,0.2c0.2,0.1-0.1,0.3-0.2,0.4
	c0.1-0.4,0-0.1-0.2-0.1c0.1-0.2,0.2-0.2,0-0.4c-0.1,0.4-0.5,0.1-0.5-0.2c-0.3,0.4-0.2,0.5,0,0.7c-0.2-0.2-0.1,0-0.3,0
	c-0.1-0.1,0.1-0.3-0.1-0.4c0,0.1-0.1,0.1-0.2,0.1c-0.2-0.3-0.2-0.7-0.5-0.9c0,0.2,0.3,0.5,0,0.6c-0.1-0.3-0.1-0.6-0.2-0.9
	c0,0.3-0.1,0.4-0.3,0.6c-0.1-0.1,0-0.6-0.1-0.5c-0.1,0.2-0.1,0.4,0,0.5c-0.4-0.1-0.5,0.1-0.7,0.3c-0.3-0.3-1.1-0.7-1-1.2
	c-0.4,0-0.2-0.3-0.3-0.3c-0.2,0-0.1,0.2-0.2,0.3c-0.1-0.4,0-0.2-0.3-0.6c-0.1,0.1-0.1,0.3-0.3,0.4c-0.1-0.2-0.7-0.5-0.5-0.1
	c-0.1-0.1-0.2-0.1-0.2-0.2c0.1-0.2,0-0.6-0.1-0.4c0,0.1,0.1,0.4-0.1,0.3c-0.2-0.3-0.9-0.7-0.8-1.1c-0.2,0.4-0.3-0.2-0.6-0.1
	c-0.1,0.2,0.2,0.1,0.1,0.4c-0.1-0.2-0.1,0-0.3,0c0.1-0.2,0-0.5-0.1-0.4c0.1,0.5-0.3,0.4-0.3,0.5c-0.1,0-0.1,0-0.2,0
	c0-0.1,0.1-0.1,0.1-0.1c-0.2-0.1-0.4,0.4-0.6,0.1c0-0.1,0.1-0.2,0.3-0.1c-0.2-0.4-1.1-0.1-1.4-0.8c0,0,0,0.2-0.1,0.1
	c0-0.1,0.1-0.2,0.1-0.2c-0.9-0.3-0.8-1.4-1.5-1.5c0.3,0.3,0.4,0.8,0.6,1.2c0,0-0.1,0-0.1,0c0,0.1,0,0.1,0,0.2c0.1,0,0.2,0.1,0.2,0.1
	c-0.1,0.1,0.1,0.2,0,0.2c-0.1,0-0.2-0.2-0.2-0.3c-0.1,0-0.1,0-0.1-0.1c0.1-0.1,0.1-0.1,0.1-0.1c0,0,0,0,0,0c-0.7,0-1.3-0.9-1.9-0.5
	c0.1-0.3-0.1,0-0.3-0.2c0-0.1,0.2-0.4-0.1-0.4c-0.2,0,0,0.2,0,0.4c-0.1,0-0.3-0.1-0.4-0.1c-0.1-0.1,0-0.2,0-0.3
	c-0.3-0.6-0.2-0.2-0.2,0.3c-0.1-0.1-0.1-0.6-0.2-0.4c0.1,0.1,0,0.3-0.1,0.3h-0.1c0.3-0.2-0.5-0.5-0.3-0.2c0.1-0.2,0.3,0.1,0.2,0.2
	c-0.3-0.2-0.4,0-0.5,0.1c-0.2-0.3-0.3-0.5-0.4-0.2c-0.2-0.4-0.8-0.7-1.2-0.6c0.6,0.2,1.1,0.7,1.3,0.9c-0.1,0-0.1,0-0.2,0
	c-0.1,0,0-0.3-0.2-0.3c0.2,0.4-0.4,0.3-0.2,0.7c-0.2-0.1-0.5,0-0.4,0.1c0-0.1,0.2,0,0.2,0.1c-0.1,0-0.2,0.1-0.1,0.1
	c0.1-0.3,0.1,0.3,0,0.2c0-0.1-0.2-0.4-0.3-0.2c0.2,0.1,0.4,0.2,0.3,0.5c-0.1,0-0.1,0-0.2,0c-0.1-0.1-0.1-0.3-0.2-0.4
	c-0.2,0.3-0.1,0.2,0,0.3c-0.1,0-0.3,0.1-0.3-0.1v-0.1c0,0.2,0,0.4-0.1,0.6c-0.1,0-0.1-0.1-0.2-0.1c-0.1,0.2,0.2,0.4-0.1,0.5
	c-0.1-0.3-0.1-0.7-0.4-1c0.1,0.4-0.4,0.4-0.1,0.6c0-0.1,0-0.2,0.1-0.2c0,0.3-0.2,0.4-0.5,0.3c0,0,0-0.1,0-0.1c0,0.1,0,0.1-0.1,0.2
	c0,0,0,0,0,0c0,0,0,0,0,0c0,0,0,0,0,0c0,0,0,0,0,0c0-0.1-0.2-0.2-0.2-0.1c0,0,0,0,0,0.1c0,0,0-0.1,0-0.1c0-0.2-0.3-0.3-0.1-0.6
	c-0.4,0-0.3-0.7-0.7-0.9c-0.1,0.6-0.1-0.2-0.3,0c0.1,0.1,0.2,0.5,0,0.5c0-0.6-0.5-0.5-0.7-0.9c0,0.2,0.1,0.8,0,0.9
	c-0.2-0.7-0.9,0.1-1.2-0.4c0,0,0,0.1-0.1,0.2c-0.1,0-0.1,0,0,0.1c0-0.2,0.3,0.1,0.2,0.2c-0.4-0.1-0.6-0.3-0.7-0.4
	c0.1,0.2-0.2,0.3-0.2,0.4c-0.2-0.2-0.4,0.1-0.4-0.4c-0.1,0.2,0,0.3,0,0.5c-0.1,0-0.1,0-0.2,0c-0.3-0.3-0.2-0.7-0.4-1
	c-0.1,0.2,0.2,0.4,0,0.5c0.1-0.3-0.1-0.2-0.3-0.3c-0.2,0.2,0.3,0.1,0.2,0.3c-0.1,0-0.1,0-0.1,0c0,0,0,0,0,0c0,0,0,0,0,0
	c0,0.1,0.2,0.3,0,0.3c0-0.1-0.1-0.2,0-0.3c0,0,0,0,0,0c-0.3,0-0.3-0.1-0.5,0c0.1-0.3,0-0.2-0.1-0.1c0-0.1,0-0.2-0.1-0.3
	c0,0.4-0.2,0-0.4,0c0,0.2,0.1,0.3-0.1,0.3c-0.1-0.6-0.5,0-0.6-0.1c0.2,0.6-0.5,0.2-0.7,0.2c0-0.2-0.1-0.7-0.3-0.6
	c0.1,0.2,0,0.7-0.2,0.8c0-0.3-0.3-0.3-0.3-0.4c0-0.1,0.3-0.5,0.1-0.3c-0.1,0.2-0.1,0.3-0.3,0.3c0-0.2,0.1-0.3-0.1-0.4
	c-0.1,0.2-0.4,0-0.5,0.2c-0.1-0.1-0.2-0.2-0.3-0.3c0,0.1,0,0.2,0,0.3c-0.1,0-0.2,0-0.3,0c-0.2,0,0-0.3-0.2-0.3
	c-0.1,0.1-0.4-0.1-0.4,0.1c0.2,0,0.2,0.1,0.2,0.3c-0.2,0.2-0.3-0.1-0.5,0c0.4,0.1,0,0.3-0.1,0.4c-0.1-0.2-0.3-0.3-0.5-0.5
	c0,0.3,0.3,0.3,0.3,0.6c-0.1,0-0.1-0.2-0.2-0.1c0,0,0,0,0,0c0,0,0.1,0.1,0,0.1c0,0,0-0.1,0-0.1c0,0,0,0,0,0c0,0,0,0,0,0
	c0-0.2-0.2-0.3-0.3-0.2c0.2,0.2,0.3,0.5,0,0.5c0.3,0,0.2,0.3,0.3,0.5c-0.1-0.2-0.1,0-0.4-0.1c-0.1-0.1-0.1-0.6-0.3-0.4
	c0.1,0,0.2,0.2,0,0.2c-0.2-0.2-0.3-0.4-0.4-0.6c-0.1,0.4,0.3,0.5,0.3,0.8c-0.3,0-0.1-0.3-0.3-0.4c-0.1,0.2,0.3,0.4-0.1,0.4
	c-0.2-0.2,0.3-0.5,0-0.5c-0.1,0,0,0.4-0.3,0.2c0-0.1,0.1-0.3,0.1-0.4c-0.3-0.2-0.2,0.2-0.4,0.1c0-0.4,0-0.3-0.2-0.1
	c-0.2-0.1,0-0.5-0.2-0.6c-0.1,0.5-0.2-0.3-0.3-0.1c0,0.1,0.1,0.1,0,0.2c-0.1-0.2-0.2-0.1-0.3,0c0-0.1,0-0.2,0.1-0.3
	c-0.3-0.2-0.3,0.1-0.4,0.2c-0.4,0-0.2-0.3-0.3-0.4c-0.1,0.2-0.3,0.4-0.5,0.5c0.1-0.1,0.1-0.5-0.1-0.3c0.3,0.2-0.2,0.3-0.3,0.1
	c-0.3,0.1,0.2,0.3-0.1,0.3c-0.2-0.1-0.5-0.6-0.5-0.6c0,0.1,0.1,0.3-0.1,0.3c0-0.3-0.3-0.3-0.4-0.5c-0.1,0.1-0.1,0.3-0.3,0.2
	c-0.2-0.2-0.3-0.3-0.4,0c0-0.4-0.2-0.3-0.4-0.4c0.1,0.4-0.2,0.5-0.1,0.7c-0.4-0.3-0.7-0.7-0.8-1.1c-0.6-0.2-0.7-0.6-1-0.4
	c-0.3,0.2-0.1,0.5-0.4,0.3c0,0.1,0.2,0.5,0.1,0.4c-0.1-0.3-0.2-0.2-0.4-0.5c0,0.1,0,0.2-0.1,0.2c0-0.3-0.5,0.1-0.6-0.6
	c-0.1,0.4,0.2,0.6,0.5,0.8c-0.3,0.1-0.2,0-0.5-0.1c-0.1,0.2-0.3,0.1-0.5,0.3c-0.1-0.1-0.1-0.2-0.2-0.3c-0.1,0.1,0,0.5-0.2,0.4
	c-0.2-0.2-0.1-0.3-0.2-0.1c-0.3,0-0.1-0.4-0.4-0.4c0,0.2-0.1,0.4-0.3,0.2c0.3-0.4-0.1-0.1-0.1-0.4c0.2-0.1,0.1-0.5,0-0.7
	c0,0.4-0.3,0.7,0,0.8c0,0.3-0.2,0.3-0.3,0.3c0.1-0.2,0.1-0.6-0.1-0.4c0.1,0,0,0.2,0,0.3c-0.2-0.1-0.4,0.2-0.4,0
	c0.1-0.3,0.2,0.1,0.2-0.3c-0.2,0-0.4,0.2-0.7,0.1c0.1-0.3,0-0.2-0.2-0.1c0-0.1,0.1-0.2,0-0.3c-0.2,0.5,0-0.4-0.2-0.1
	c-0.1,0.2,0.1,0.2,0,0.4c-0.2-0.3-0.1,0.2-0.4,0.1c0.2-0.2,0-0.4,0-0.6C38,16.4,37.2,16.5,37,16c-0.3,0,0,0.3-0.4,0.2
	c-0.1-0.4-0.3-0.4-0.3-0.8c-0.2,0.1,0,0.3-0.1,0.5c-0.1-0.4-0.6,0.1-0.7-0.4c0.1-0.1-0.1-0.3-0.1-0.4c-0.1,0.5-0.4,0-0.7,0.2
	c-0.1-0.3-0.6,0-0.8-0.3c0-0.1,0.3-0.1,0.1-0.2c-0.3,0.3-0.4,0.3-0.9,0.3c0-0.1-0.1-0.2-0.1-0.3c-0.2,0.1-0.1,0.3-0.2,0.4
	c0-0.1,0-0.2-0.2-0.2c-0.3,0.2,0.3,0.6-0.1,0.6c0-0.2-0.2-0.4,0-0.6c-0.3-0.2-0.1,0.2-0.3,0.2c-0.1-0.2-0.3,0.1-0.3-0.2
	c0.1,0,0.2,0,0.2-0.1c-0.3-0.2-0.3-0.3-0.6-0.3c0,0,0.1,0,0-0.1c-0.2,0-0.1,0.5-0.3,0.3c0-0.1,0.1-0.1,0.1-0.2c0,0-0.1,0.1-0.2,0
	c0.1-0.1,0.4-0.2,0.3-0.3c-0.2,0-0.2,0.3-0.4,0.3c-0.2-0.2,0.4-0.2,0.1-0.5c-0.2,0.2-0.4,0.4-0.7,0.4c0-0.3-0.1-0.5-0.3-0.8
	c-0.1,0.3,0.4,0.6,0.1,0.9c-0.1-0.2,0-0.3-0.3-0.3c0-0.1,0-0.2,0-0.3c-0.3,0.2-0.3-0.4-0.6-0.3c0.1,0.3,0.3,0.4,0.2,0.8
	c-0.1,0-0.1-0.1-0.2-0.1c-0.1,0.2-0.3,0.5,0,0.3c-0.1,0.2,0.1,0.4-0.1,0.4c-0.2-0.3-0.1-0.4-0.4-0.2c-0.1-0.3,0.4-0.3,0.2-0.5
	c-0.1,0.2-0.2,0.3-0.4,0.2c0-0.6-0.3-0.3-0.4-1c0,0.3,0.2,0.7,0,0.9c0-0.3,0-0.6-0.1-0.8c-0.1,0.2,0.1,0.6-0.1,0.6
	c0-0.2-0.2-0.7-0.4-0.6c0.1,0.5,0.2,0.4,0,0.8c-0.2-0.4-0.5-0.3-0.1-0.8c-0.2-0.2-0.3,0-0.4,0c0.1-0.3-0.1-0.2-0.2-0.2
	c0.1-0.3,0-0.4-0.1-0.6c-0.3,0.1-0.3-0.5-0.7-0.6c0,0.2,0.1,0.4,0.1,0.6c-0.3-0.2-0.2,0.2-0.7,0c0.1-0.3-0.3-0.3-0.2-0.6
	c-0.3,0.1-0.4-0.5-0.8-0.3c-0.1-0.3-0.3-0.6-0.6-0.9c0.1,0,0.1-0.1,0-0.1c-0.4,0.8-1.3,0.8-2,1.2c0.1-0.2-0.1-0.2-0.2-0.3
	c-0.3,0.1-0.1,0.3-0.3,0.4c0-0.2-0.2-0.4-0.4-0.5c-0.1,1-1.8,0.5-2.2,0.1c-0.1,0.2-0.3,0.2-0.4,0.4c-0.1-0.2,0.1-0.2,0-0.3
	c0,0.1-0.1,0.1-0.2,0.2c-0.1-0.1,0-0.3-0.2-0.3c-0.1,0.1,0.1,0.2,0,0.2c-0.7-0.2-0.8,0.7-1.1,1.3c-0.3-0.1-0.1,0-0.2,0.3
	c-0.2-0.3-0.2,0.2-0.3-0.1c0,0.3-0.1,0.1-0.2,0.3c0.3,0.3-0.3,0.6-0.1,0.6c0-0.1,0.2,0,0.2,0.1c-0.3,0.5-0.2,0.5-0.8,0.7
	c-0.1,0.4,0.1,0.4,0.2,0.6c-0.1,0.3-0.3,0.5-0.5,0.6c0.5-0.2-0.1,0.5,0.3,0.3c-0.1,0.2,0.2,0.2,0.1,0.4c-0.1,0-0.2-0.1-0.3,0
	c0.3,0.1,0,0.3,0,0.4c0.1,0.1,0.3-0.1,0.3,0.1c-0.1,0-0.6,0-0.4,0.2c0-0.1,0.2,0,0.2,0.1c-0.4,0-0.1,0.3,0,0.3v0.1
	c-0.1,0-0.3-0.2-0.4-0.1c0,0,0,0,0,0c0.1,0,0.3,0.1,0.3,0.3c-0.2-0.1-0.3-0.2-0.3-0.3c0,0,0,0,0,0c0,0,0,0,0,0c0-0.1,0-0.1,0-0.2
	c0,0.1-0.4,0.2-0.2,0.4c0.2-0.2,0.2,0.3-0.1,0.2c0.2,0.1,0.5,0.2,0.6,0.1c0,0.1,0.1,0.2,0,0.3c-0.1-0.1-0.8,0.1-0.7,0.3
	c0.2-0.1,0.5-0.1,0.8-0.2c-0.2,0.1-0.1,0.3,0,0.4c-0.2,0-0.2-0.1-0.3-0.2c-0.2,0.3,0.4,0.3,0.2,0.6c-0.3,0-0.2-0.2-0.3-0.3
	c-0.1,0.2-0.1,0.4,0.1,0.4c0.1-0.1,0.2-0.1,0.2,0c0.2,0.5-0.7,0.4-0.4,0.8c-0.3,0-0.8,0.4-0.8,0.6c0-0.1,0.2,0,0.2,0.1
	c-0.1,0-0.1,0.1,0,0.2c0.1-0.2,0.2-0.4,0.5-0.3c0,0.1,0.1,0.2,0.1,0.4c-0.3,0.1-0.2,0.2-0.3,0.4c-0.1-0.1-0.2-0.2-0.3-0.3
	c0,0.2,0,0.3-0.2,0.4c0.1,0.1,0.2,0.3,0.3,0.4c-0.1,0-0.3,0.3-0.1,0.4c0,0,0,0,0,0c0-0.1,0-0.2,0.1-0.2c0,0.1-0.1,0.1-0.1,0.2
	c0,0,0,0,0,0c0,0,0,0,0,0c-0.1,0.2,0,0.3,0,0.5c-0.4,0.2-0.5,0.4-0.9,0.8c0.4-0.1,1,0,0.6,0.4c0.1,0,0.2,0,0.3,0
	c0.3,0.3,0.1,1.1,0.4,1.3c-0.2,0-0.2,0.2-0.3,0.2c0.2,0.2,0.3,0.1,0.4,0.2c0,0.1-0.6-0.1-0.3,0c0.1,0,0.2,0.1,0.2,0.2
	c-0.3-0.1,0,0-0.1,0.2c-0.1,0-0.2-0.1-0.3-0.1c0,0.2-0.2,0.2-0.3,0.2c-0.1,0.4-0.4,0.4-0.4,0.9c0,0.1,0,0.2,0.1,0.1
	c0-0.1,0.1-0.2,0.1-0.3c0.2-0.1,0-0.1,0.1-0.3c0.1-0.1,0.3-0.1,0.4-0.2c-0.2,0,0.1-0.2,0.1-0.2c0.2,0.9,0,1.5,0.1,2.2
	c0-0.1,0.2-0.2,0.2,0c0,0.1-0.1,0.1-0.2,0.1c-0.2,0-0.2-0.1-0.3-0.2c0,0.3,0.3,0.3,0.4,0.5c-0.1,0.1-0.2,0-0.3-0.1
	c0.1,0.2,0,0.4,0.1,0.7"/>
<path class="st2" d="M63.4,19.1C63.4,19.1,63.4,19,63.4,19.1C63.4,19,63.4,19.1,63.4,19.1z"/>
<path class="st2" d="M70.8,18.4c0-0.1,0-0.1,0-0.2c0,0-0.1,0-0.1,0.1C70.7,18.3,70.7,18.4,70.8,18.4z"/>
<path class="st2" d="M167.7,25.1C167.7,25.1,167.8,25.2,167.7,25.1C167.8,25.1,167.7,25.1,167.7,25.1z"/>
<polygon class="st2" points="177.9,23.2 177.9,23.2 177.9,23.2 "/>
<path class="st2" d="M63.6,19.1C63.6,19.1,63.6,19.2,63.6,19.1C63.6,19.2,63.6,19.1,63.6,19.1z"/>
<path class="st2" d="M63.7,19C63.8,18.6,63.9,18.1,63.7,19L63.7,19z"/>
<path class="st2" d="M192.8,24.4C192.8,24.4,192.8,24.4,192.8,24.4C192.9,24.3,192.9,24.3,192.8,24.4z"/>
<path class="st2" d="M58.4,17.7C58.4,17.7,58.4,17.7,58.4,17.7C58.4,17.7,58.4,17.7,58.4,17.7C58.4,17.7,58.4,17.7,58.4,17.7z"/>
<path class="st2" d="M116.9,25.9C116.8,25.9,116.8,25.9,116.9,25.9C116.8,26,116.8,26,116.9,25.9z"/>
<path class="st2" d="M14.2,28.6c0-0.1-0.1-0.2-0.2-0.2C14,28.3,14.1,28.5,14.2,28.6z"/>
<path class="st2" d="M52.3,17.8C52.3,17.8,52.3,17.8,52.3,17.8C52.3,17.8,52.3,17.8,52.3,17.8C52.3,17.8,52.3,17.8,52.3,17.8z"/>
<polygon class="st2" points="14.3,22.2 14.3,22.2 14.3,22.2 "/>
<path class="st2" d="M15,17.3C15,17.3,15,17.3,15,17.3C15,17.3,15,17.3,15,17.3C15,17.3,15,17.3,15,17.3z"/>
<path class="st2" d="M248.4,12.9c0-0.1,0-0.1,0-0.2C248.4,12.8,248.4,12.8,248.4,12.9z"/>
<path class="st2" d="M197.4,23.7c0,0,0,0.1,0.1,0.1C197.4,23.7,197.5,23.5,197.4,23.7z"/>
<path class="st2" d="M240.6,13.7C240.6,13.7,240.6,13.7,240.6,13.7C240.7,13.7,240.7,13.7,240.6,13.7z"/>
<path class="st2" d="M250.3,13c0,0,0-0.1,0-0.1C250.2,12.8,250.2,12.9,250.3,13z"/>
<path class="st2" d="M245.9,13.3C246,13.3,246,13.3,245.9,13.3C246,13.3,246,13.3,245.9,13.3z"/>
<path class="st2" d="M201.1,22.4C201.1,22.4,201.1,22.4,201.1,22.4C201,22.3,201,22.3,201.1,22.4z"/>
<path class="st2" d="M197.5,23.8C197.5,23.8,197.5,23.9,197.5,23.8C197.5,23.9,197.5,23.8,197.5,23.8z"/>
</svg>
