<?xml version="1.0" encoding="utf-8"?>
<!-- Generator: Adobe Illustrator 19.1.0, SVG Export Plug-In . SVG Version: 6.00 Build 0)  -->
<svg version="1.1" id="Layer_1" xmlns="http://www.w3.org/2000/svg" xmlns:xlink="http://www.w3.org/1999/xlink" x="0px" y="0px"
	 width="268.9px" height="18.8px" viewBox="0 0 268.9 18.8" style="enable-background:new 0 0 268.9 18.8;" preserveAspectRatio="none" xml:space="preserve">
<style type="text/css">
	.st0{fill:#B6E8F2;}
	.st1{fill:#A7DDE9;}
	.st2{fill:#F7F7F7;}
</style>
<rect class="st0" width="268.9" height="18.8"/>
<rect class="st0" width="268.9" height="18.8"/>
<path class="st1" d="M67.5,10.4C67.5,10.5,67.5,10.4,67.5,10.4C67.5,10.4,67.5,10.4,67.5,10.4z"/>
<path class="st1" d="M69.5,9.8C69.5,9.8,69.5,9.8,69.5,9.8C69.5,9.7,69.5,9.8,69.5,9.8z"/>
<path class="st1" d="M55.6,11.6C55.6,11.6,55.6,11.5,55.6,11.6C55.6,11.5,55.6,11.5,55.6,11.6C55.6,11.6,55.6,11.6,55.6,11.6z"/>
<path class="st1" d="M28.6,8.1C28.6,8.1,28.6,8.1,28.6,8.1c-0.1,0-0.1,0-0.2,0C28.5,8.1,28.5,8.1,28.6,8.1z"/>
<path class="st1" d="M55.6,11.6c0,0.2,0.4,0.1,0.2,0C55.7,11.7,55.7,11.6,55.6,11.6z"/>
<path class="st1" d="M69.5,9.9C69.5,9.9,69.5,9.9,69.5,9.9C69.5,9.9,69.5,9.9,69.5,9.9z"/>
<path class="st1" d="M49,10.1c0,0,0,0,0-0.1C49,10,49,10.1,49,10.1z"/>
<path class="st1" d="M53.3,11C53.4,11.1,53.3,11,53.3,11C53.3,11,53.3,11,53.3,11z"/>
<path class="st1" d="M37.5,8.9C37.5,8.9,37.5,8.9,37.5,8.9C37.5,8.9,37.5,8.9,37.5,8.9C37.5,8.9,37.5,8.9,37.5,8.9z"/>
<path class="st1" d="M37.8,8.6c0-0.1,0-0.1-0.1-0.1C37.7,8.6,37.8,8.6,37.8,8.6z"/>
<path class="st1" d="M37.8,8.7c0,0.2-0.2,0-0.3,0.2c0,0,0,0,0,0c0.2,0,0.4,0,0.5-0.1C37.9,8.8,37.9,8.7,37.8,8.7
	C37.8,8.7,37.8,8.7,37.8,8.7z"/>
<path class="st1" d="M9.2,0.8C9,0.5,9.1,1.6,9.2,1.3C9.1,1.5,8.9,1.7,8.8,1.8C9,1.8,9.1,2.1,9,2.2c0,0,0,0.1,0,0.1
	C8.7,2.6,8.6,2.7,8.7,3.1c0-0.1,0.4-0.3,0.4,0c-0.3,0-1.2,0.6-1,0.5c0.4-0.1,0.6-0.4,1-0.3c-0.2,0.3,0.4,0.6,0,0.8
	C9.3,4,8.9,3.8,8.9,3.9c0.1,0.3,0.4,0.7,0,0.8c0.5,0.6,0.4,1.2,0.3,2.1c0.2-0.2,0-0.6,0.3-0.4c0.2-0.4,0-1,0.2-1.2
	c0.2,0-0.1,0.3,0.1,0.3c0-0.1,0-0.2,0.1-0.1C10,5.7,9.5,5.6,9.7,5.8c0.2,0,0,0,0.3-0.2C9.9,5.4,10,5.2,9.9,5c0,0.1,0.7,0.3,0.5,0.1
	C10.1,5,10,4.9,10.1,4.7c0.3,0.2,0.5-0.4,0.8-0.6c0,0.3,0.3,0.4,0.3,0.7c0.1,0.1,0.2-0.1,0.3-0.1c0,0.1,0.3,0.5,0.2,0.3
	c0-0.2-0.2-0.2-0.1-0.4c0.3-0.1,0.3,0.3,0.5,0.2C12,4.7,11.8,4.5,12,4.5c0.1,0.1,0,0.4,0.3,0.4c0-0.1,0-0.3,0.1-0.3
	c-0.1,0.5,0,0.1,0.3,0.3c-0.1,0.4-0.3,0.5-0.2,0.8c0.1-0.4,0.4-0.6,0.4-1c0.1,0.2,0.1,0,0.3,0c0.1,0.1,0,0.3,0.2,0.3
	c0.2-0.2-0.1-0.3,0.1-0.3c0.1,0.3,0.6,0.7,0.7,0.8C14,5.2,14,4.9,13.8,4.7c0.5,0,0.3,0.8,0.8,0.6c-0.2-0.1-0.3-0.3-0.3-0.6
	c0.2,0.3,0.6,0.5,0.6,0.9c0.1-0.2-0.1-0.3,0-0.5c0.3,0.2,0.2-0.3,0.5-0.2c-0.1,0.7-0.1,0.6,0.1,0.1c0.1,0.1,0,0.4,0.3,0.4
	c0.1-0.1-0.2-0.3,0.1-0.3c0.1,0.3-0.2,0.3,0,0.5c0.3,0,0-0.2,0.3-0.2c0,0.2,0.2,0.3,0.3,0.5c0.1-0.1,0-0.4,0.2-0.4s0.1,0.2,0.3,0.3
	c0.1-0.2,0.4,0,0.4-0.1c0-0.1-0.1-0.7,0.3-0.7c0,0.1-0.1,0.3,0,0.3c0-0.2,0.2-0.2,0.3-0.2c-0.1,0.3,0,0.2,0.1,0.1
	c-0.1,0.3,0.3,0.3,0.3,0.6c0.2,0.3-0.2-0.5,0.2-0.4c-0.1,0.1-0.1,0.2,0,0.3c0.1-0.1,0-0.4,0.2-0.4C18.7,5.6,18.9,5.8,19,6
	c0.1-0.4,0.1-0.6,0.3-0.8c-0.1,0.4,0.2,0.4,0.5,0.3c0,0.1,0.3,0.4,0.4,0.4c-0.2-0.4,0.3-0.7,0.5-0.8c-0.1,0.1-0.1,0.2,0,0.3
	C21,5,21,5.7,21.1,5.6c0.1-0.2-0.1-0.3,0-0.5c0.1,0.2,0.2,0.1,0.3,0c0.1,0.1,0,0.3,0.2,0.3c0.1-0.1,0-0.4,0.2-0.3
	c0,0.1,0,0.3,0.1,0.3c0.1-0.1,0.1,0,0.2,0.1c0-0.3,0.2-0.2,0.3-0.3c0.2,0.3,0.9,0.3,1,0.9c0-0.1,0-0.2,0.1-0.1
	c0.1,0.2,0.1,0.4,0.2,0.6c0.2-0.3-0.2-0.3,0-0.5c0.1,0,0.1,0.1,0.1,0.1c0.1-0.3,0-0.3-0.1-0.4C23.9,5.6,24,6,24.3,6.3
	c0.3-0.2,0.2-0.1,0.5-0.4c0,0.2-0.1,0.4,0.1,0.5C25,6.3,24.7,6,25,6c-0.1,0.1,0.1,0.4,0.2,0.2c-0.1,0,0-0.2,0.1-0.1
	c0,0.1-0.2,0.4,0,0.5c0-0.2,0.3-0.1,0.4-0.2c0.1,0.5,0.1,0.2,0.3,0c0,0.3,0.1,0.4,0.2,0.6c-0.1-0.4,0.4,0,0.3-0.4
	c0.3,0.2-0.1,0.4,0.2,0.7c0.1-0.1,0-0.5,0.2-0.4c0.3,0.2,0.4,0.5,0.4,0.9c0.1-0.2,0-0.6,0.1-0.5c0.1,0.2,0.1,0.5,0.3,0.6
	c0.1-0.1-0.2-0.3,0.1-0.3c-0.1,0.3,0.1,0.1,0.2,0.2c0,0.1-0.1,0.3,0,0.3c0.1-0.1,0.1,0.1,0.2,0.1C28.3,8,28,7.8,28.3,7.8
	c0.1,0.4,0.1,0,0.3-0.1c-0.1,0.2,0,0.2,0,0.3c0.3-0.2,0.6-0.5,1-0.3c0.1,0,0,0.3,0.2,0.3c0.1-0.2,0.3-0.4,0.5-0.6
	c0,0.4,0.1,0.2,0.2,0.5c0.2,0,0.1-0.3,0.3-0.3c0.1,0.3,0.2,0.1,0.4,0.3c0-0.4,0-0.7,0.3-0.9c0.1,0.6,0.3-0.1,0.5,0.5
	c0-0.2,0.2-0.1,0.3-0.2c0.1,0.2,0.2,0.2,0.4,0.1C32.8,7.5,32.8,8,33,7.8c-0.1,0-0.1-0.2,0-0.2c0.4,0.1,0.4,0.5,0.4,0.8
	c0.1-0.2,0.2-0.6,0.5-0.6c0.6,0.5,1.5,0.5,1.9,1.3c0-0.3-0.4-0.4-0.4-0.7c0.3,0.2,0.2-0.2,0.4,0c-0.1,0.2,0.4,0.6,0.4,0.5
	c-0.1-0.3-0.5-0.7-0.3-0.9c0,0.2,0.1,0.6,0.3,0.4c-0.2-0.2,0.2-0.3,0.1-0.6c0.1,0,0.1,0,0.2,0c0.1,0.2-0.3,0.7,0.1,0.9
	c0-0.2,0.1-0.1,0.2-0.2c-0.2,0-0.2-0.3-0.1-0.3c0.1,0.3,0.4,0.7,0.2,1c0.3,0.1,0.3-0.2,0.4-0.1c-0.1,0-0.2-0.4,0-0.3
	c0.1,0.1,0.2,0.6,0.3,0.4c0-0.1-0.1-0.2-0.1-0.3c0,0,0,0,0,0c0,0,0,0,0,0c0-0.1,0-0.3,0-0.5c0,0,0.1,0.1,0.2,0.1
	c0-0.1-0.1-0.1-0.1-0.2c0.6,0.2-0.3-0.2,0.1-0.3c0,0.2,0.6,0.3,0.2,0.4c0.3,0.2,0.2-0.2,0.4,0c0,0.1-0.1,0.1-0.1,0.2
	c0.3,0,0.2,0,0.4,0.1c0.2-0.2-0.1-0.4,0.1-0.3c0.2,0.4,0.4,0.8,0.6,1.2c0.1-0.3-0.2-1.1-0.2-1C39,8.7,39.2,8.9,39,8.9
	c-0.2-0.3-0.5-0.8-0.4-1c0.2,0.1,0.2,0.2,0.3,0.3C39,8,38.7,8,38.8,7.8c0.3,0.3,0.2,0.5,0.5,0.8c0,0,0-0.1,0-0.1c0,0,0,0,0,0
	c0,0,0,0,0,0c0-0.1,0.1-0.2,0.1-0.3c-0.1-0.1-0.2,0-0.3-0.1c0.1,0,0.1-0.1,0.2-0.1c0.1,0.1,0.3,0.4,0,0.5c0,0,0,0,0,0
	c0.2,0.1,0.3-0.1,0.5,0C40.1,8.6,39.9,8.9,40,9c0-0.1,0.1-0.2,0.1-0.3c0,0,0,0,0-0.1c-0.2-0.2-0.4-0.3-0.4-0.6
	c0.2,0.2,0.3,0.4,0.4,0.6c0,0,0,0,0,0c0,0,0,0,0,0c0.1,0.2,0.1,0.3,0.1,0.5c0-0.1,0.1,0,0.2,0c0.1-0.2-0.3-0.3,0-0.4
	c0.1,0.4,0.4,0.2,0.5,0.6c0.1-0.3-0.1-0.4,0-0.6c0.1,0,0.1,0,0.2,0c0,0.1,0,0.1,0.1,0.2c0,0,0-0.1,0.1-0.1c0,0.2-0.1,0.2-0.1,0.3
	c0.1,0,0.2,0.2,0.2,0.1c-0.1-0.1,0.1-0.4,0.2-0.4c0.1,0.4,0.3,0.3,0.4,0.6c0.1-0.2-0.2-0.4,0.1-0.4c0.1,0.2,0.2,0.3,0.1,0.5
	c0.5-0.1,0.5,1,1.1,1c0,0-0.3-0.3-0.1-0.3c0.2,0.3,0.3,0.2,0.5,0.1c0.1,0.2,0.1,0.5,0.3,0.7c0.1-0.3-0.2-0.4,0.1-0.5
	c-0.1-0.2-0.2,0-0.2-0.1c0.2,0,0.1-0.3,0.1-0.3c0.1,0.1,0.2-0.1,0.3-0.1c0,0.1,0.2,0.4,0.3,0.3c-0.1-0.2-0.3-0.3-0.3-0.5
	c0.1,0,0.2,0,0.2,0c0,0.1-0.2,0.1,0,0.2c0.2-0.1,0-0.3,0.3,0c0.1-0.2-0.1-0.2-0.1-0.3c0.3,0,0.4,0,0.6,0.1c0.1-0.1,0-0.5,0.2-0.5
	c0.3,0.5,0.3-0.1,0.7,0.4c0-0.1,0-0.3,0.2-0.3c0.1,0.3,0.2,0.6,0.3,0.9c-0.1-0.6,0.1-0.3,0.1-1c0.6,0.2,0.6,0.1,1.3,0.2
	c0,0.1-0.2,0.5,0,0.3c0.1-0.2,0.1-0.3,0.3-0.4c0.1,0,0.1,0.2,0.2,0.1c0,0-0.1-0.1,0-0.1c0.2,0.1,0.3,0.3,0.4,0.5c0-0.2,0-0.3,0-0.5
	c0.4,0.1,0.1,0.4,0.4,0.1c0,0.2,0,0.6,0.2,0.5c0-0.1,0.3,0.1,0.3-0.2c0,0.2,0.2,0.2,0.3,0.3c0.2-0.4,0.4,0.2,0.5-0.1
	c0.2,0,0,0.5,0.2,0.3c0.1-0.1,0.1-0.3,0.1-0.3c0,0.1,0.1,0,0.3,0.1c0,0.2,0.1,0.6,0.3,0.5c-0.2-0.2-0.3-0.4-0.3-0.7
	c0.1,0,0.1,0,0.2,0c0.1,0.2,0,0.6,0.2,0.8c0.1-0.2-0.2-0.6,0-0.7c0.3,0,0,0.3,0.3,0.3c0-0.2,0.2-0.3,0.4-0.2
	c-0.1,0.4,0.1,0.1,0.3,0.2c0,0.2,0,0.3,0.1,0.3c0-0.2,0.2-0.3,0.4-0.3c-0.2,0.1,0,0.4,0.1,0.5c0-0.1-0.1-0.2,0-0.2
	c0.1,0.1,0.4,0.1,0.3,0.3c-0.1-0.1-0.2,0.3-0.1,0.3c0-0.1,0.1-0.2,0.2-0.3c0,0.1,0,0.2,0.1,0.3c0.1-0.1,0.1-0.2,0.1-0.2
	c-0.1,0.3,0.1,0.3,0.2,0.2c-0.1,0.3,0.2,0.8,0.4,0.5c-0.2,0-0.4-0.4-0.1-0.4c0,0.3,0.1,0.4,0.4,0.6c0.1-0.2-0.1-0.3,0-0.5
	c0.3,0.3,0,0.1,0.3-0.1c0,0.2,0.2,0.3,0.3,0.4c0.1,0,0.1-0.2,0.2-0.3c-0.1-0.1-0.1-0.2-0.1-0.3c0.2,0.1,0.1,0.4,0.4,0.3
	c0.1-0.2-0.2-0.2-0.2-0.4c0.1,0,0.1-0.1,0.2-0.1c-0.1,0.3,0.1,0,0.2,0.2c0.1-0.2,0-0.6,0.2-0.7c0.1,0.4,0.7,0.1,0.9-0.1
	c0.1,0.1,0.2,0.3,0.3,0.4c0.1-0.2-0.2-0.4,0-0.4c0.1,0,0.1,0.4,0.2,0.2c-0.2-0.1,0.2-0.1,0.3-0.2c0.1-0.1-0.1-0.4,0.1-0.4
	c0,0.5,0.3-0.1,0.4-0.1c0.4,0.4,0,0.1,0.6,0.3c0.2-0.3-0.3,0-0.2-0.2c0-0.1,0.1-0.1,0.2-0.1c0.2-0.1,0.2,0.4,0.3,0.2
	c-0.1,0-0.2-0.3,0-0.3c0.1,0.1,0.1,0.3,0.4,0.4c-0.1,0.2,0,0.3,0.1,0.4c0.3-0.2-0.4-1,0.2-1.2c0.1,0.1,0,0.7,0.2,0.5
	c-0.2-0.2-0.1-0.5,0-0.6c0.3,0,0.1,0.5,0.3,0.3c0.1-0.3,0,0.9,0.1,0.8c0.1-0.5,0.3-0.2,0.5-0.6c0,0.2,0.1,0.3,0,0.5
	c-0.1,0-0.1-0.1-0.2,0c0,0,0.1,0,0.1,0.1c0,0.1,0,0.1,0.1,0.1c0.1-0.1,0.1-0.3,0.2-0.3c-0.1,0.3,0.1-0.1,0.2,0.2
	c0.1-0.3,0.1-0.3,0.3-0.2c0-0.1,0-0.3,0.2-0.2c0.1-0.2-0.1-0.5,0-0.5c0.1,0.3,0.1,0.3,0.3,0.1c0,0.4,0.2,0.7,0.4,1
	c0.2-0.3,0.3,0,0.5-0.3c0,0.1,0.2,0.5,0.4,0.3c-0.1,0-0.2-0.1-0.1-0.2c0.1,0,0.1,0.1,0.3,0.2c0.1-0.1-0.2-0.4,0.1-0.4
	c0,0.5,0.1-0.1,0.3,0c0,0.3,0.1,0.5,0.2,0.7c0-0.2,0-0.4,0.1-0.5c0,0.2,0.1,0,0.2,0c0.1,0.1-0.1,0.5,0.1,0.4c0-0.1,0-0.3,0.1-0.3
	c0.1,0.4,0,0.9,0.3,1.1c0.1-0.4-0.4-1.2,0-1.6c0.1,0.1,0.1,0.1,0.2,0.2c0,0.1-0.2,0.2-0.1,0.2c0-0.1,0.1-0.1,0.2-0.1
	c0,0.1,0,0.2,0.1,0.2c0-0.3-0.1-0.6-0.2-0.9c0.3,0.2,0.2-0.1,0.5,0c-0.1,0.1-0.2,0.7-0.1,0.5c0.1-0.1,0.2-0.2,0.3-0.3
	c-0.1,0.4,0,1,0.1,1c0-0.2-0.1-0.6,0.2-0.7c0,0.4,0.1-0.3,0.3,0.1c0.1-0.1-0.2-0.3,0.1-0.3c0.1,0.2,0,0.5,0.3,0.7
	c0.1-0.2-0.2-0.5,0-0.5c0.2,0,0.3,0.1,0.3,0.2c0-0.1,0.1-0.3,0.1-0.3c0.2,0,0.3,0,0.5-0.1c0,0.1,0,0.2,0.1,0.3
	c0.1-0.1-0.2-0.3,0.1-0.3c-0.1,0.2,0.3,0.6,0.2,0.4c0-0.2-0.1-0.2,0-0.3c0.1,0,0.2,0.1,0.2,0.2c0.1-0.3,0-0.3,0.2-0.4
	c0.2,0,0.1,0.5,0.3,0.3c-0.1-0.1,0.1-0.5,0.2-0.6c0.2,0,0.1,0.1,0.1,0.2c0.1-0.1,0.2,0,0.2-0.1c0-0.1-0.3-0.4-0.1-0.4
	c-0.1,0.2,0.2,0.4,0.4,0.6c0-0.1,0-0.2,0.1-0.2c0,0.3,0.1,0.1,0.3,0.2c-0.1,0.2,0.1,0.2,0.1,0.3c0,0.3-0.2,0.3-0.2,0.4
	c0.3,0.2,0.1-0.4,0.3-0.3c0.2,0.4,0.1-0.1,0.2-0.1c0.1,0.3,0.1,0.6,0.3,0.3c-0.1,0.5,0.4,1,0.4,1.2l0.1-0.1c0.1,0.1,0.2,0.6,0.4,0.4
	c-0.1-0.1-0.1-0.2-0.1-0.3c0.1,0.1,0.2-0.1,0.3-0.1c0.1,0.3,0.4,0.4,0.6,0.6c0.2-0.1-0.1-0.3,0.1-0.3c0.1,0.1,0.1,0.6,0.2,0.5
	c0-0.3,0.2-0.4,0.4-0.4c-0.2,0.1,0.1,0.5,0.1,0.8c0-0.2,0.1-0.3,0.2-0.1c0-0.1,0-0.3,0.2-0.3c0.3,0.2,0.4,0.4,0.5,0.6
	c-0.1-0.5-0.1-0.9,0.2-1c0.2,0.1,0.2,0.2,0.3,0.3c0-0.2,0.3-0.2,0.1-0.3C75,12,75,11.9,75,11.8c0.4,0,0.3,0.3,0.5,0.4
	c0.1-0.1,0-0.4,0.2-0.3c0,0.5,0.6,0.2,0.7,0.7c0.1,0,0.1-0.4,0.3-0.3c0.1,0.1,0,0.3,0.2,0.4c0.1-0.2,0.1-0.1,0.1-0.4
	c0.1,0.2,0.3,0,0.4,0c0,0.1,0.3,0.5,0.2,0.3c0-0.2-0.2-0.2-0.1-0.3c0.1,0,0.2,0.4,0.4,0.2c-0.1-0.1-0.2-0.2-0.3-0.4
	c0.2-0.1,0.3,0.3,0.3,0.1c-0.1,0-0.1-0.2,0-0.2c0.1,0.4,0.2,0.7,0.4,1c0-0.1-0.1-0.5,0.1-0.5c0.2-0.1,0.7,0.1,0.9,0.3
	c-0.1,0.3,0.1,0.4,0.1,0.8c0.5,0,0.5,0.3,0.9,0.1c0,0.2-0.1,0.3,0.2,0.4c0.1-0.3-0.2-0.6,0.1-0.8c0.1,0.2,0.2,0.2-0.1,0.3
	c0.2,0,0.2,0.1,0.3,0.2c0-0.4,0.3-0.1,0.3,0c0-0.1,0.5,0,0.3-0.2c-0.2,0.1-0.2-1,0-1.1c0.1,0.2-0.1,0.6,0.2,0.7
	c0-0.4-0.1-0.6-0.1-0.9c0.1,0.2,0.2-0.1,0.2,0.1c0,0.1-0.1,0.1,0,0.2c0-0.1,0.1-0.1,0.2-0.1c0.2,0.3,0.2,0.6,0.4,0.8
	c0.1-0.3-0.4-0.7-0.1-0.9c-0.2,0.3,0.3,0.2,0.3,0.3c0-0.2-0.3-0.2-0.2-0.5c0.3,0.3,0.4,0.3,0.5,0.5c0.1-0.2,0.3-0.1,0.5-0.1
	c0,0.4,0.1,0.3,0.2,0.5c0.1-0.2,0.1,0.2,0.3,0.2c0.1-0.2,0.2,0,0.3-0.3c0.3,0,0.1,0.3,0.3,0.4c0-0.2-0.1-0.6,0.2-0.6
	c0,0.1-0.1,0.1-0.2,0.3c0.3,0.1,0.2-0.4,0.5-0.2c-0.1,0.4,0,0.5-0.1,0.6c0.3-0.3,0.9-0.2,0.6-0.6c0.1,0.1,0.2,0,0.3,0
	c-0.1-0.4,0.1-0.1,0.2-0.3c0.3-0.3,1-1,1-1.5c0.2,0.2-0.2,0.6-0.1,0.7c0.2-0.4,0.3-0.4,0.5-0.8c0.1,0,0.2,0.4,0.3,0.2
	c-0.2,0,0-0.3,0-0.4c0.1,0,0.1,0,0.2,0c0.1,0,0,0.2,0.1,0.2c0.1-0.1,0.1-0.1,0.1-0.2c0.1,0,0.2,0,0.2,0c-0.3,0.3,0.1,0.1,0.2,0.4
	c0-0.4,0.4,0.3,0.3,0c0-0.1-0.2-0.1-0.1-0.3c0.1,0,0.2,0,0.3,0c0,0.2,0,0.4,0.1,0.5c0-0.1,0.1-0.2,0.2-0.2c0.1,0.3,0.2,0.5,0.3,0.8
	c0.1-0.2,0-0.5,0.2-0.3c0,0.3-0.1,0.5,0,0.7c0.1-0.6,0.3,0.4,0.6,0.1c-0.2,0-0.1-0.5,0-0.5c0,0.1,0.1,0.1,0.1,0.2
	c0.1-0.2-0.3-0.4,0-0.4s0,0.6,0.2,0.4c0.2-0.5,0.1,0.3,0.2,0.1c0-0.1-0.2-0.5,0.1-0.6c0.2,0-0.1,0.4,0.1,0.4c0.1-0.2,0-0.3,0.1-0.3
	c-0.1,0.4,0.6,0.4,1,0.7c0-0.2,0.3-0.3,0.1-0.4c-0.1,0.3-0.6,0.3-0.6-0.1c0.1,0,0.1,0.1,0.1,0.1c0-0.4,0.3,0,0.3-0.2
	c-0.1-0.1,0-0.1,0-0.3c0.4-0.3,0.7,0.3,0.8,0c0.1,0.5-0.1,1.6,0.2,0.4c0.1,0,0.1-0.1,0.3,0c0.1,0.2,0.1,0.2,0.4,0.5
	c0-0.2-0.1-0.3,0.2-0.3c0,0.2,0.1,0.2,0.2,0.1c-0.1,0.4,0.1,0.3,0.4,0.5c0.3-0.2,0.4-0.6,0.7-0.7c0.7,0.5,1,0.4,2.1,0.6
	c-0.2-0.1-0.4-0.1-0.5-0.3c0-0.1,0-0.2,0.1-0.1c0.1,0.4,0.4,0.2,0.7,0.2c0.4,0.3,0.4,1.1,0.7,1.2c-0.3-0.5-0.7-1.4,0-1.6
	c-0.1,0.2,0.1,0.2,0.2,0.3c0.1-0.1-0.1-0.3,0.1-0.3c0,0.1,0.1,0,0.2-0.1c0.2,0.1,0,0.3,0.3,0.4c0-0.2,0.4-0.1,0.5,0
	c0.1-0.3-0.1-0.3,0.2-0.4c-0.2-0.1-0.1-0.4,0-0.6c0.3,0,0.5-0.1,0.7-0.1c0.1,0.1,0,0.3,0.1,0.5c0.2-0.3-0.1-0.6,0.1-0.6
	c0.3,0.1,0.2,0.1,0.4,0.2c0.1-0.1-0.1-0.2,0-0.3c0.5,0,0.3,0.4,0.4,0.7c0.2-0.1-0.1-0.3,0.1-0.6c0.1,0.1,0.2-0.1,0.3-0.1
	c0,0.2,0.2,0.4,0.3,0.3c-0.1-0.2,0.2-0.2,0.1-0.3c0,0.1,0.2,0.1,0.1,0.3c0.2-0.1,0.5,0.1,0.6,0.1c-0.1-0.2-0.3-0.2-0.4-0.3
	c0-0.3,0.2-0.2,0.3-0.1c0.1-0.4-0.2-0.1-0.3-0.3c0.2,0.1,0.3-0.1,0.4,0c0.1,0.1-0.1,0.3,0.1,0.4c0.2,0,0.2-0.5,0.4-0.6
	c0.2,0.1,0.3,0.1,0.3,0.4c0.3-0.4,0.3,0.3,0.5,0.4c0.1-0.1-0.2-0.3,0.1-0.3c0.1,0.2,0.3,0.3,0.4,0.5c0-0.2,0.3-0.1,0.5,0
	c-0.3,0.3,0.1,0,0.1,0.3c-0.1,0.1-0.4,0.6-0.2,0.4c0.1-0.5,0.5-0.2,0.6-0.4c-0.1,0.2,0.1,0.3,0.1,0.4c0.6,0.1,0.4-0.7,0.9-0.3
	c-0.1-0.5,0.2-0.2,0.3-0.1c0-0.2,0.2-0.1,0.3-0.3c-0.1,0-0.2,0-0.2-0.1c0.2,0,0.3-0.2,0.5-0.3c0.2,0.3,0.7,0,0.9,0.7
	c0.1,0,0.2-0.2,0.4-0.2c-0.1,0.1,0.3,0.4,0.1,0.2c-0.1-0.2-0.2-0.6,0.1-0.6c-0.1,0.3,0.3,0.3,0.3,0.6c0.1-0.3,0.1-0.5,0-0.7
	c0.3,0.3,0.3-0.3,0.5,0.1c0.2-0.3,0.4-0.2,0.6,0c0.2-0.2-0.2-0.1-0.1-0.3c0-0.1,0.1-0.1,0.2-0.1c0.1,0,0.2,0.4,0.3,0.2
	c-0.1-0.3,0.3-0.1,0-0.4c0.7,0.4,0.4,1.2,0.7,1.7c0.2-0.2-0.1-0.4,0.1-0.4c0.2,0.2,0.1,0.6,0.2,0.8c0.2-0.2-0.1-0.4,0.1-0.4
	c0.3,0.1,0.2,0.4,0.5,0.4c0.4-0.5,1.1,0.3,1.2,0.5c0-0.5,0.5,0.2,0.6-0.2c-0.1,0-0.1-0.1-0.1-0.2c-0.1-0.1-0.3,0.2-0.3-0.1
	c0.1-0.2,0.4,0.1,0.5,0.1c0.2,0,0-0.3,0.2-0.3c0.3,0.3,0.6-0.1,0.7,0.4c0.1-0.4,0-0.5-0.2-0.4c0.1-0.1,0.1-0.2,0.3-0.2
	c0.1,0.1,0.7,0.6,0.6,0.5c-0.2-0.3-0.6-0.8-0.3-1.2c0.1,0.5,1,0.8,1.5,1c-0.2-0.3-0.6-0.4-0.7-0.7c0.4,0.1,0.6-0.3,1,0.1
	c0.1-0.5,0.9-0.1,1,0.2c0.2,0,0.4,0.2,0.5,0c-0.3,0-0.2-0.5,0-0.5c0.1,0,0.1,0.1,0.1,0.1c0,0,0,0,0,0c0.1,0.1,0.1,0.3,0.3,0.4
	c-0.1-0.3-0.1-0.7-0.1-0.8c0,0-0.1,0.1-0.1,0c0.1-0.1,0.2-0.2,0.3-0.3c0,0.1,0.3,0.1,0.3,0.2c0-0.1,0-0.3,0.2-0.3s0.4,0.4,0.7,0.3
	c-0.2-0.1-0.1-0.3-0.3-0.5c0.1,0,0.1-0.3,0.3-0.3c0,0.1,0,0.2,0,0.3c0.1,0,0.2,0,0.2-0.1c-0.5-1,0.5-0.5,0.8-0.4
	c0.5,0.2,1.2-0.2,1.5-0.3c-0.1-0.1-0.1-0.2-0.1-0.3c0.2,0,0.1,0.5,0.3,0.2c0-0.1,0-0.5,0.1-0.6c0.1,0.3,0.4,0.4,0.6,0.5
	c0.1-0.3-0.3-0.2-0.3-0.3c0.2,0.1,0-0.4,0.2-0.3c0.2,0,0.2,0.2,0.4,0.2c0.1-0.2-0.2-0.2-0.1-0.4c0.3,0.1,0.4,0.3,0.8,0.3
	c0.2,0.2,0.1,0.4,0.1,0.5c0.1-0.1,0.4,0.2,0.1,0.3c0.4,0.2,0.6-0.1,0.9-0.3c0.3,0,0.1,0.3,0.4,0.2c0,0.2,0,0.5,0.1,0.6
	c0.1-0.3-0.1-0.4,0-0.6c0.3-0.1,0-0.3,0.3-0.3c0,0.3,0.6,0.3,0.6,0.7c-0.3,0-0.5-0.5-0.7-0.3c0.3,0.1,0,0.3,0.2,0.4
	c0.2-0.1-0.1-0.2,0.1-0.2c0.1,0.2,0.4,0.3,0.6,0.2c-0.2,0.1,0.1,0.3,0.4,0.3c0.1-0.1-0.1-0.2,0-0.2c0.1,0,0,0.3,0.2,0.3
	c0.1-0.3-0.2-0.4-0.4-0.3c0.1-0.2-0.1-0.5,0.1-0.6c-0.1,0.3,0.2,0.6,0.3,0.5c0,0-0.4-0.2-0.1-0.2c0.2,0.1,0.1,0.4,0.3,0.4
	c0.2-0.2-0.1-0.2-0.1-0.3c0.5,0.2,0.8-0.4,1.3,0.1c0.1-0.1-0.1-0.2,0-0.2c0.1,0.2,0.4,0.3,0.6,0.5c0.2-0.3-0.3-0.2-0.1-0.4
	c0.1,0,0.1,0,0.2,0c0.1,0.2,0.3,0.4,0.3,0.6c-0.1-0.3,0.1-0.3,0.4-0.3c0,0.2,0.2,0.1,0.3,0.4c0.2-0.1,0.1-0.5,0.3-0.4
	c0.1,0.4,0.6,0.3,0.8,0.7c0.1-0.3-0.2-0.8,0.1-1c-0.2,0.3,0.1,0.1,0.2,0.4c0.3-0.1-0.1-0.2,0-0.5c0.3,0.1,0.4,0.2,0.6,0.4
	c0.1-0.2-0.1-0.2-0.1-0.3c0.3,0.1,0.4,0.2,0.5,0.3c0.1-0.3-0.8-0.4-0.5-0.8c-0.1,0.3,0.4,0.2,0.4,0.4c0.1,0,0.1-0.3,0.2-0.3
	c0,0.1,0,0.3,0.1,0.3c0.1-0.2-0.1-0.3,0.1-0.3c0.2,0.2,0.3,0.9,0.5,0.5c0.1,0.4-0.2,0.4,0.3,0.3c0-0.2-0.3-0.3-0.3-0.6h0.1
	c0.2,0.1,0.2,0.4,0.4,0.5c0.1-0.1,0-0.4,0.2-0.4c0.1,0,0.2,0,0.1,0.1c0,0.2-0.2,0.2-0.3,0.4c0.2,0.1,0.2-0.1,0.3-0.1
	c0,0.1-0.2,0.4,0,0.4c0.1-0.2,0.3-0.3,0.4-0.4c0.1,0.1,0,0.4,0.1,0.6c0.2-0.3,0,0.3,0.1,0.2c0.1-0.1,0.1-0.2,0.1-0.2c0,0,0,0,0,0
	c0,0,0-0.1,0-0.1c0.4,0.2-0.1-0.4,0.3-0.3c0,0.3,0.3,0.5,0.2,0.6c0.1-0.1,0.3-0.1,0.4-0.2c-0.1-0.1-0.1-0.4,0.1-0.4
	c-0.2,0.3,0.4,0.2,0.4,0.4c-0.1,0.1-0.6,0.1-0.4,0.3c0.3-0.2,0.7-0.1,0.8-0.1c0,0-0.1,0-0.1-0.1c0,0,0.1,0,0.1-0.1
	c-0.2,0-0.3-0.1-0.3-0.2c0.1,0,0.2,0,0.3,0c0.1,0.1-0.1,0.4,0.2,0.4c0.1-0.3-0.3-0.6,0-0.8c0.1,0.2,0,0.4,0.2,0.6
	c0-0.2-0.2-0.6,0-0.7c0,0.4,0.3,1,0.5,0.9c-0.4-0.2-0.1-0.7-0.3-0.9c0.1,0,0.1,0,0.2,0c0.1,0.3,0.2,0.6,0.3,0.9c0.2,0,0-0.5,0.2-0.6
	c-0.1,0.3,0.2,0.3,0,0.6h-0.1c0.3,0.2,0.1-0.3,0.3-0.2c0,0.2,0.3,0.2,0.4,0.2c-0.1,0.1-0.1,0.2,0,0.3c0.2-0.2,0.3-0.2,0.6,0
	c0.1-0.1-0.1-0.2,0.1-0.2c0.1,0,0.2,0.1,0.2,0.2c0.1-0.1,0-0.5,0.2-0.4c0.1,0.5,0.1,0.2,0.2,0c0.2,0.2,0.2,0.4,0.4,0.6
	c0-0.2-0.1-0.4-0.1-0.6c0.2,0.1,0.1,0.3,0.3,0.4c0.1-0.4,0.1-0.2,0.1,0c0-0.1,0-0.3,0.2-0.3c0.1,0,0,0.3,0.2,0.3
	c0-0.1,0-0.3,0.1-0.3c0.2,0,0.1,0.2,0.4,0.2c0.1,0.3-0.5,0.5-0.2,0.6c0-0.3,0.3-0.2,0.4-0.3c0.2,0.3,0.3,1,0.7,1
	c-0.1-0.1-0.3-0.3-0.2-0.3c0.3,0.1,0.3,0.3,0.5,0.2c-0.1,0-0.1-0.2,0.1-0.2c0,0.1,0.1,0.4,0.2,0.2c-0.2,0-0.2-0.4,0-0.4
	c0.2,0.2,0.5,0.6,0.7,0.6c0-0.2,0-0.3-0.1-0.4c0.3,0.1,0.2,0.3,0.4,0.4c0.1-0.3-0.1-0.5-0.1-0.8c0.1,0,0.2,0.1,0.3,0
	c-0.1,0-0.1-0.1,0-0.1c0.1,0.2,0.3,0.3,0.2,0.6c0.5-0.1,0.6,0.4,1,0.3c0-0.4,0-1.2,0.7-1.1c0.1-0.1-0.1-0.2,0.1-0.2
	c0.2,0.2,0-0.2,0.5,0.1c0.2-0.1-0.1-0.3,0.2-0.4c0,0.1,0,0.2,0,0.3c-0.2,1-0.1,0.1,0.3-0.1c0,0.1-0.1,0.3,0.1,0.3
	c0-0.1-0.1-0.2,0-0.2c0,0.2,0.2,0.3,0.3,0.4c0.1-0.2-0.1-0.2,0-0.4c0,0.1,0.6,0.1,0.4,0c-0.2,0-0.3-0.1-0.3-0.2
	c0.5-0.1,0.7,0.2,1,0.1c0,0.4,0.3,0.1,0.4,0.5c0-0.3,0.1,0.1,0.2-0.1c-0.2-0.2,0.2-0.2,0-0.6c0.1,0.1,0.2,0.1,0.2,0.2
	c-0.1,0.2-0.1,0.4,0.1,0.4c0.1-0.4,0.2,0.2,0.3,0c-0.1,0-0.1-0.1,0-0.1c0.1,0,0.2,0,0.2-0.1c-0.4,0.1-0.5-0.3-0.2-0.4
	c0,0.1,0,0.2,0.1,0.3c-0.1-0.5,0.3-0.6,0.8-0.5c0.1,0.2,0,0.4,0.1,0.5c0.1-0.3,0.4-0.3,0.3-0.7c0.3,0.1,0.1,0.6,0.3,0.2
	c0.1,0.1,0.4,0.6,0.7,0.3c0.1,0.2,0.3,0.4,0.3,0.7c0.6,0.1,0.7,0.1,1,0c0,0.3,1.2,0.6,1.1,0.2c-0.3,0.1-0.2-0.3-0.2-0.6
	c0.4,0.2,0.3,0.1,1,0.1c-0.1-0.1-0.2-0.5,0.1-0.6c0.1,0.3,0.1,0.2,0.4,0.3c0-0.3,0.1-0.3,0.2-0.5c0.1,0.1,0.1,0.3,0.2,0.4
	c0.2-0.1-0.1-0.2,0.1-0.2c0.1,0,0,0.2,0.1,0.3c0.1-0.1,0.1,0,0.1,0.1c0.1-0.3-0.2-0.3-0.1-0.5c0.2,0.1,0.2,0.3,0.3,0.4
	c0.3-0.2,0.5-0.1,0.7,0.1c0.3-0.8,1,0,1.6-0.1c-0.1-0.1-0.3-0.3-0.1-0.3c-0.2,0.2,0.5,0.3,0.5,0.2c-0.2,0-0.3-0.1-0.3-0.2
	c0.3,0,0.2,0,0.4,0.2c0.5-0.4,0.9,0,1.4-0.3c0,0.1,0,0.5,0.1,0.3c0.1-0.1-0.1-0.2,0.1-0.2c0.2,0.2,0.2,0,0.4,0.2
	c0-0.4,0.3-0.4,0.4-0.2c0.1-0.2-0.1-0.3,0.1-0.3c0,0.1,0.1,0.1,0.2,0.2c0.2-0.2,0.3-0.3,0.4-0.3c-0.1,0-0.2-0.3,0-0.3
	c0,0.3,0.3,0.3,0.1,0.5c0.3,0.3,0.3,0.3,0.7,0.6c0.1-0.4,0.5,0.3,0.6,0c-0.1-0.1,0.4-0.1,0.4-0.2c-0.1-0.2-0.1-0.7,0.2-0.8
	c-0.1,0.2,0.1,0.2,0.3,0.3c-0.2-0.3,0.1-0.4,0.3-0.7c-0.2,0.4,0.1,0.1,0.1,0.1c0.2,0.1,0.6,0.7,0.9,0.8c-0.1-0.2-0.2-0.3-0.2-0.5
	c0.2,0.2,0.2,0.2,0.3,0.1c0.1,0,0,0.3,0.2,0.3c-0.1-0.3,0.1-0.2,0.3-0.4c-0.2,0-0.1-0.2-0.1-0.4c0.1,0,0.1,0.1,0.2,0
	c0,0.1-0.1,0.6,0.1,0.4c0-0.1,0-0.3,0.1-0.3c0.2,0.2,0.3,0.3,0.4,0.7c0-0.1,0-0.3,0.1-0.3c0.1,0.3,0,0.7,0.1,1.1
	c0.3-0.4-0.2-1,0.2-1.4c0.1,0.1,0.3,0.1,0.3,0.3c0,0.1-0.1,0.3,0,0.3c0.2-0.3-0.1,0.3,0.1,0.3c0.1-0.2,0.2-0.3,0.4-0.3
	c0,0.1,0,0.2,0,0.3c-0.1,0-0.2-0.2-0.2,0c0.3,0.1,0.2,0.8,0.5,0.7c-0.1-0.3,0-0.1,0.3-0.1c-0.1-0.5,0.4,0.1,0.3-0.3
	c0.3,0.2,0.8-0.1,1.1,0.4c0.1,0,0.1-0.3,0.2-0.3c0,0.9,0.7,0.5,0.8,1.3c0.1-0.4,0.4,0.1,0.7,0.1c0.1-0.1-0.1-0.2,0.1-0.2
	c0.2,0.2,0.4,0.1,0.5,0.3c0-0.1,0-0.2,0.1-0.2c0,0.3,0,0.2,0.3,0.1c0,0.3-0.3,0.3,0,0.4c0.1-0.2,0-0.5,0.2-0.5c0.1,0,0,0.5,0.1,0.3
	c0.1-0.1,0.1-0.3,0.2-0.3c0.2,0.3,0.3,0.2,0.6,0.2c0,0.2,0,0.3,0.1,0.3c0.1-0.2,0.2,0.1,0.3,0.1c0.2-0.5-0.1,0-0.2-0.3
	c0.1-0.1,0.3-0.1,0.4-0.2c0,0.3,0.1,0.1,0.2,0c0,0.3,0.4,0.5,0.6,0.7c0.1-0.2-0.1-0.2-0.1-0.4c0.3,0,0-0.2,0.2-0.3
	c0.2,0-0.2,0.5,0.1,0.5c0-0.1,0.1-0.3,0.2-0.3c0,0.3,0.2,0.4,0.3,0.6c0.3,0.1-0.4-0.6-0.1-0.8c0.6,0.4,0.1,1.1,0.3,1.7
	c0-0.3,0-0.5,0.2-0.6c-0.2-0.3,0-0.4-0.1-0.6c0.4,0.1,0.6,0.9,0.9,1c-0.2-0.1-0.1-0.2-0.2-0.4c0.4,0,0.2,0.3,0.5,0.4
	c0.1-0.5-0.2-0.4-0.3-0.7c0.2,0.2,0.4,0,0.5,0.2c-0.3,0.3,0.1,0.3,0.1,0.7c0.1-0.1,0.1-0.2,0.2-0.2c0.3,0.3,0,0.7,0.3,1
	c0.1,0.6,0-0.8,0.1-0.8c0.1,0.1,0.1,0.3,0.3,0.4c0.1-0.3-0.1-0.4,0.2-0.5c-0.1,0.3,0.3,0.9,0.3,0.7c0-0.1-0.2-0.5,0-0.5
	c0,0.2,0.1,0.4,0.2,0.5c0.4-0.4,0.6,0.3,0.7,0.5c0.2-0.1,0-0.2,0-0.3c0.3,0,0.3-0.1,0.4-0.3c0.2,0.1,0.2,0.3,0.3,0.5
	c0.1-0.2-0.1-0.4,0.1-0.4s0.3,0.1,0.3,0.1c0-0.4,0.1,0.1,0.2-0.1c-0.1,0-0.1-0.1,0-0.3c0.3,0,0.5-0.1,0.8,0.2c0-0.1,0-0.2,0.1-0.2
	c0,0.1,0.1,0.4,0.3,0.2c-0.1-0.1-0.1-0.2-0.1-0.3c0.3-0.1,0.2,0,0.4,0.2c0.2-0.4-0.1-0.2-0.1-0.4c0.3,0,0.2-0.4,0.5-0.6
	c0,0.2-0.2,0.5-0.1,0.6c0.1,0,0.1-0.3,0.2-0.3s0.1,0.4,0.2,0.3c0-0.4,0-0.6,0-0.9c0.1,0.3,0.3-0.1,0.6,0c0.1-0.3-0.4-0.2-0.2-0.5
	c0.4,0.1,0.1,0.4,0.4,0c0.1,0,0.2,0,0.2,0c0,0.1,0,0.3-0.1,0.4c0.1,0,0.2,0.2,0.3,0.3c0-0.2,0.1-0.2,0.2-0.3c-0.1,0-0.2-0.1-0.1-0.2
	c0-0.1,0.1-0.1,0.2-0.1c0,0.2,0.2,0.1,0.2,0.4c0-0.3,0-0.3,0.2-0.1c0.1-0.3-0.1-0.3,0-0.6c0.1,0.1,0.1,0.2,0.3,0
	c0,0.2-0.3,0.2-0.1,0.3c0.1-0.3,0,0.5,0.2,0.1c-0.1,0-0.1-0.2,0.1-0.2c0.2,0.6,1.1,1.1,0.4,1.7c0.4,0.1,0.3,0,0.6,0
	c0,0.2,0.1,0.3,0.1,0.4c0,0.2,0,0.3,0,0.4c0-0.2,0-0.6,0.2-0.9c-0.1,0.3,0.3,0.4,0,0.6c0.3,0.1,0.7,0.4,0.3,0.6c0.2,0,0.3,0,0.4-0.2
	c0-0.2-0.4-0.4-0.2-0.5c0.1,0.3,0.2,0.3,0.3,0.1c0.1,0.4,0.6,0.3,0.8,0.7c0-0.2,0.1-0.1,0.2-0.2c-0.2,0-0.2-0.2-0.2-0.4
	c0.3,0.2,0.9,0.8,0.9,0.7c0-0.2-0.4-0.1-0.3-0.4c0.2,0,0.3,0.3,0.5,0.2c-0.1-0.2-0.4-0.2-0.3-0.5c0.1,0,0.2,0,0.3,0.1
	C192,16,192,16,192,15.8c0.4,0,0.2,0.3,0.3,0.4c0-0.4,0.1-0.1,0.2-0.2c-0.1,0-0.1-0.1-0.1-0.3c0.2,0.2,0.3,0.8,0.6,0.7
	c-0.1,0-0.2-0.4-0.1-0.3c0.3,0.1,0.4,0.4,0.6,0.6c0.1-0.3,0-0.3,0-0.5c0.3,0.1,0.1-0.4,0.4-0.3c-0.2,0.2-0.1,0.3-0.1,0.5
	c0.3-0.1,0.2-0.3,0.6,0c0,0,0-0.1,0.1-0.2c0,0,0.1,0,0-0.1c-0.2,0.2,0-0.1,0.1-0.1c-0.1-0.2-0.2,0.1-0.2-0.1c0.1,0,0.1-0.1,0.2-0.1
	c0.3,0,0.2,0.5,0.4,0.3c-0.1-0.1-0.3-0.4-0.1-0.5c0.1,0.7,0.8,1.3,0.8,1.8c0.2-0.4,0.1-0.7,0.5-1c0.2,0.1,0.4,0.2,0.6,0.4
	c0.1-0.3,0.4,0,0.6,0.2c0-0.3-0.2-0.3-0.1-0.7c0.3,0,0.2,0,0.3,0.1c0.2-0.1,0.1-0.5,0.2-0.5c0.1,0.1,0.1,0.3,0.1,0.5
	c0.2,0.2-0.1-0.6,0.1-0.6c0.3,0.4,1.3,1,1.3,1.2c0-0.1-0.1-0.2,0-0.3c0,0.1,0.3,0.1,0.3,0.2c0,0,0,0.1,0,0.1
	c0.1-0.1,0.2,0.3,0.3,0.1c-0.1-0.2-0.1-0.2-0.2-0.3c0-0.1,0-0.2,0.1-0.2c0.1,0,0.1,0.2,0.2,0.2c0.1-0.3-0.1-0.3-0.2-0.4
	c0.6,0.3,0.8,0.5,1,1c0.1-0.2,0.3,0.1,0.4,0.1c0-0.2,0-0.5,0.1-0.5c0.1,0.2,0.1,0,0.3,0.1c-0.1,0.1,0,0.2,0.1,0.3
	c0-0.4,0.2,0.2,0.3-0.1c-0.2-0.2-0.3-0.1-0.4-0.3c0.2,0,0.4,0,0.5-0.1c-0.1,0-0.1-0.2,0-0.2c0,0.2,0.1,0.5,0.2,0.6
	c0-0.2-0.1-0.2,0-0.5c0.2,0.2,0.1,0.1,0.1-0.1c0.1,0,0.2,0,0.3,0c0.1-0.3-0.2,0-0.1-0.2c0.3-0.1,0.4,0,0.6,0c-0.1,0,0-0.4,0.1-0.4
	c-0.1,0.4,0.2,0.1,0.3,0.4c0.3-0.2,0-0.5,0.2-0.7c0.1,0,0,0.2,0.1,0.3c0.1-0.4,0-0.6,0.3-0.8c0.1,0.4,0.4,0.2,0.1,0.4
	c0,0.1,0,0.1,0.1,0.2c0-0.1,0-0.2,0.1-0.2c-0.2,0.3,0.4,0.7,0.5,0.8c0-0.1-0.1-0.2,0.1-0.3c0.4,0.2,0.3,0.7,0.5,1
	c0.1-0.3-0.1-0.4,0-0.7c0.2,0.2,0.4,0.4,0.7,0.4c0.2-0.3-0.3-0.1-0.2-0.3c0.1-0.1,0.1-0.1,0.3-0.1c-0.1,0.1-0.1,0.2,0,0.3
	c0.2-0.3-0.1-0.3,0-0.5c0.4,0,0.1,0.3,0.3,0.4c0.2-0.2,0-0.4,0.2-0.5c0.2,0.6,0.6,1.1,1,1.6c0-0.2,0-0.5,0.2-0.6
	c0.1,0.4,0.1,0.1,0.2,0c0.1,0.1,0,0.3,0.1,0.3c0.1-0.3-0.1-0.3,0-0.7c0.1,0.1,0.2,0.3,0.3,0.1c-0.3,0-0.2-0.6-0.1-0.7
	c-0.1,0.4,0.3,0.4,0.1,0.8c0.2,0.1,0.3,0.2,0.4,0.3c0-0.1-0.1-0.2-0.1-0.2c-0.1-0.1-0.4-0.5-0.3-0.7c0.4-0.1,0.1,0.6,0.3,0.5
	c0-0.1,0-0.3,0.1-0.3c0.1,0.2,0.1,0.5,0.3,0.6c0.1-0.3-0.4-0.6,0-0.7c0,0.1,0.1,0.3,0.3,0.4c0-0.3,0-0.2,0.1-0.3
	c-0.5-0.2-0.5-1-0.3-1.2c0.3,0-0.2,0.7,0.2,0.5c-0.1-0.1,0.2-0.4,0.2-0.5c0.2,0.2-0.2,0.3,0.1,0.3s-0.1-0.4,0.2-0.4
	c0,0.3,0.4,0.3,0.3,0.6c0.3-0.3,0.4,0.3,0.4,0.1c-0.1,0,0-0.4,0.1-0.3c0,0,0.4,0.4,0.6,0.4c-0.1,0-0.2-0.3-0.1-0.3
	c0.2,0.1,0.2,0.3,0.3,0.4c0.1-0.3-0.2-0.4-0.3-0.6c0.4,0.2,0.2,0.2,0.3,0c0.4,0.2,0.2,0.8,0.7,0.7c-0.2,0-0.3-0.1-0.3-0.2
	c0.3,0,0.4,0.1,0.7,0c-0.1-0.1-0.1-0.4,0-0.4c0,0.1,0.1,0.2,0.1,0.4c-0.2,0.1-0.4,0.5-0.1,0.2c-0.3,1.2-0.1,0.9,0.1,0.2
	c0-0.2,0-0.4,0.1-0.4c0.1,0.3,0.1,0.6,0.3,0.2c0.1,0.1,0,0.6,0.3,0.3c0.1,0.2-0.1,0.6,0,0.7c0.2-0.3,0-0.6,0.4-0.7
	c-0.2,0.1-0.1,0.4,0.1,0.5c0.1-0.1-0.2-0.3,0.1-0.3c0.1,0.1,0.2,0.3,0.3,0.7c0.2,0,0.2,0.3,0.4,0.1c-0.1,0-0.1-0.6,0.1-0.3
	c0.1-0.2-0.2-0.5,0.1-0.6c0.3,0,0.3,0.3,0.5,0.4c0.1-0.3,0.2-0.1,0.3,0c0-0.2,0.1-0.4,0.1-0.4c0.4,0.1-0.1,0.3,0.2,0.4
	c0.1-0.1,0-0.5,0.2-0.5c0.2,0.1,0.4,0.3,0.4,0.6c0.1-0.2,0.4,0.1,0.4,0.4c0-0.2,0.1-0.3,0.2-0.3c0,0.1-0.3,0.5-0.2,0.4
	c0.4-0.3,0.2,0,0.6-0.3c-0.1,0.3,0.1,0.6-0.2,0.8c0,0-0.1,0-0.1,0.1c0.4-0.2,0.1,0.3,0.5,0.2c0.3-0.3,0.1-0.5,0.3-0.7
	c0,0.2-0.1,0.4,0.1,0.5c0.1-0.3,0.4-0.5,0.3-0.8c0.4,0,0.8,0.1,0.5,0.6c0.4,0.1,0.2-0.3,0.3-0.5c0,0,0,0,0,0c-0.1,0-0.2,0-0.2-0.1
	c0.1,0,0.2,0,0.2,0.1c0,0,0,0,0,0c0,0,0,0,0,0c0.1,0.2,0.1,0.6,0.4,0.4c-0.2-0.2-0.3-0.4-0.3-0.8c0.1,0,0.1,0.1,0.2,0.2
	c0.1-0.1-0.2-0.3,0.1-0.3c0,0.1,0,0.2,0.1,0.3c0-0.2,0.1-0.4,0.3-0.4c-0.1,0.2,0.3,0.3,0.4,0.2c0,0.2-0.1,0.4,0.1,0.4
	c0.1-0.2-0.1-0.2,0-0.4c0.1,0.2,0.3,0,0.3,0.1c0.1-0.1,0.1,0.8,0.4,0.3c-0.1,0.3-0.1,0.6,0.1,0.8c0.1-0.3-0.2-0.7,0.1-0.9
	c0.1,0.3,0.3-0.1,0.5,0.3c0.1-0.1-0.1-0.2,0.1-0.2c0.1,0.3,0.1,0.1,0.3,0c0,0.2,0,0.5,0.2,0.6c0.2-0.4,0.2,0.2,0.3,0.2
	c0.2-0.3-0.3-0.4,0.1-0.5c0,0.4,0.6,0.7,0.7,0.2c0.1,0.2,0.2,0.8,0.5,0.7c-0.1-0.1-0.2-0.6,0-0.7c0,0.1-0.1,0.5,0,0.2
	c0-0.7,0.8-1.3,0.2-1.8c0.1,0,0.3,0.1,0.3,0c-0.3-0.1,0.1-0.4,0.2-0.5c0.3,0.1,0.1,0.3,0.3,0c-0.1,0.2,0.1,0.2-0.1,0.3
	c0.4-0.2,0.2,0,0.5,0.2c0.1-0.4-0.4-0.3-0.3-0.7c0.3-0.1,0.3,0.2,0.4,0.1c-0.1,0-0.1-0.2,0-0.2c0.1,0.2-0.1,0.6,0.2,0.7
	c0.2-0.2-0.1-0.3,0.1-0.3s-0.1,0.4,0.1,0.3c0.3-0.1-0.1-0.3,0.2-0.4c0,0.3,0.2,0.2,0.3,0.3c0,0.3-0.3,0.3-0.4,0.4
	c0.4,0,0.7-0.2,0.7-0.4c0.1,0.1,0.2,0.4,0.4,0.2c0.2,0.1-0.1,0.4,0.1,0.5c0.3-0.4,0.2,0.3,0.4,0.4c0.1-0.2-0.1-0.3,0-0.5
	c0.4-0.1,0.2,0.8,0.4,0.9c0.1-0.1,0-0.5,0.2-0.5c0,0.1,0.1,0.1,0.1,0.2c0-0.5,0.1-0.1,0.3-0.4c0,0,0,0,0-0.1c0,0,0,0,0,0.1
	c0,0.2,0,0.5,0.1,0.3c0.1-0.1-0.1-0.2,0.1-0.2c0.1,0.1,0,0.8,0.2,0.7c-0.2,0,0.1-0.3,0.1-0.3c-0.1,0.3,0,0.2,0.2,0.1
	c0,0.1,0,0.5,0.1,0.4c0.1-0.1-0.1-0.2,0.1-0.2c0.1,0,0.1,0.4,0.3,0.2c-0.1-0.1-0.1-0.2-0.1-0.4c0.2-0.1,0.2,0.3,0.3,0c0,0,0,0,0,0
	c0,0,0,0,0,0c-0.1-0.1-0.2-0.3-0.1-0.3c0.1,0,0,0.2,0.1,0.3c0,0,0,0,0,0c0,0,0,0,0.1,0c0.1-0.3-0.1-0.7,0-0.7c0.2,0,0.1,0.3,0.3,0
	c-0.3,0,0-0.4,0.1-0.4c0,0.1,0.1,0.1,0.1,0.2c-0.4-0.1,0.1,0.3-0.2,0.4c0.3,0.1,0.2-0.4,0.4-0.5c-0.1,0.4-0.3,0.8-0.3,1.1
	c0.2-0.3,0.2-0.8,0.6-0.8c0,0-0.3,0.3-0.1,0.3c0.1-0.4,0.2-0.1,0.4-0.4c0.1,0.2-0.1,0.5,0.1,0.7c0.1-0.5,0-0.4,0.1-0.8
	c0.1,0.1,0.4,0.1,0.4,0.2c0.1-0.1,0-0.5,0.2-0.5c0.1,0.5,0.1-0.2,0.5-0.1c-0.1,0.2-0.1,0.7,0,0.5c-0.2-0.4,0.3-0.5,0.3-1
	c0.4,0.2,0-0.3,0.4-0.3c0,0.1-0.1,0.3,0,0.3c0.1-0.3,0.3-0.1,0.5,0c0.2-0.3-0.3-0.5,0-0.6c0.2,0.2,0.3,0.5,0.5,0.6
	c0.1-0.3-0.1-0.4-0.1-0.6c0.1,0.1,0.1,0.1,0.2,0c0,0.1,0,0.5,0.1,0.3c0-0.1-0.1-0.2,0.1-0.3c0.1,0,0,0.3,0.2,0.3
	c0.2-0.2-0.2-0.4,0-0.5c0,0.5,0.5,0.6,0.7,1c0.1-0.2,0-0.5,0.2-0.5c-0.2,0.8,0.4,0.3,0.3,1c0.3,0,0.2-0.3,0.4-0.3
	c0.1,0.1,0.1,0.5,0.2,0.3c0-0.2-0.3-0.4-0.1-0.5c0.1,0,0.4,0.4,0.3,0.2c-0.1-0.3-0.8-0.5-0.3-0.9c0.2,0.3,0.8,0,0.8,0.6
	c0-0.1,0-0.2,0.1-0.2c0.1,0.4,0.2,0.8,0.3,1.2c0.3-0.2-0.2-0.4,0.2-0.7c0.3,0.3,0.5,0.6,0.8,0.9c0.1-0.2-0.2-0.4,0.1-0.4
	c0.1,0.2,0.3,0.2,0.3,0.4c0.1-0.2-0.2-0.4,0-0.4c0.1,0,0.1,0.1,0.2,0.1c0,0,0-0.2,0.1-0.1c-0.1,0.2-0.2,0.2-0.1,0.4
	c0.2,0.1,0.2-0.3,0.5-0.1c0.2,0.4,0.6,0.7,0.9,1c0.1,0,0.1-0.1,0.1-0.2c0,0,0,0,0,0c0,0,0,0,0,0c0-0.1-0.1-0.2,0-0.3
	c0.2,0.1-0.1,0.1,0,0.3c0,0,0,0,0,0c0.1,0,0.3,0.1,0.3,0c-0.2,0-0.3-0.3-0.1-0.2c0.1,0,0.1,0.1,0.2,0c0,0-0.1-0.1,0-0.1
	c0.2,0.1,0.6,0.5,0.9,0.2c-0.5,0.1-0.1-0.6-0.4-0.4c0.1-0.2-0.1-0.2,0-0.4c0.4,0.1,0.3,0.5,0.4,0.6c0-0.2,0.1-0.2,0.2-0.2
	c-0.3,0.1-0.2-0.4,0-0.5c0.1,0.3,0.2,0.5,0.3,0.6c-0.2,0.3,0.1,0.1,0.4,0.3c-0.3,0-0.2-0.6,0-0.7c-0.2,0.7,0.1,0,0.2,0.4
	c0-0.3-0.1-0.5-0.1-0.8c0.1,0,0.1,0,0.2,0c0,0.3,0.2,0.8,0.4,0.7c-0.1,0,0-0.4,0.1-0.3c0.1,0.1,0.2,0.2,0.3,0.4
	c-0.2-0.4-0.3-0.6,0-1c0.4,0.4,0.5,1,0.7,1.2c0-0.2-0.1-0.2-0.1-0.5c0.3,0.2,0.1-0.1,0.3-0.1c0,0.2,0.3,0.3,0.4,0.1
	c-0.3,0-0.1-0.3-0.2-0.4c0.1,0,0.2,0.1,0.2,0c-0.1-0.1-0.2-0.5,0.1-0.6c0.1,0.2,0.3,0.5,0.5,0.2c0,0.2-0.3,0.2,0,0.2
	c0.1-0.2,0.1-0.4,0.4-0.1c0.1-0.2-0.2-0.5,0-0.6c0,0.1,0,0.4,0.1,0.3c0-0.1-0.1-0.3,0.1-0.2c0-0.3-0.3-0.6,0-0.8
	c0.3,0.1,0.6,0.2,0.8,0.7c0.1-0.4,0.3,0.2,0.4,0c-0.1,0-0.2-0.3,0-0.3c0.1,0.1,0.1,0.3,0.4,0.3c0,0.2,0,0.3,0.1,0.4
	c0-0.3,0-0.2,0.2,0c0.1-0.2,0-0.3,0.2-0.3c0.1,0,0.2,0.3,0.3,0.1c-0.2-0.4,0.9-0.6,1-0.2c0-0.1,0.1-0.2,0.1-0.2c0,0-0.1-0.1-0.1-0.1
	c-0.1-0.1-0.2-0.1-0.1-0.3c0.2,0.2,0.1,0,0-0.2c0.1,0,0.1,0,0.2,0c0,0.1,0,0.2,0,0.2c0-0.1,0-0.2,0.1-0.2c-0.1,0.2-0.2,0.4-0.2,0.5
	c0,0,0.1,0,0.1,0.1c0,0,0,0,0,0.1c0,0,0,0,0,0c0-0.4,0.1-0.6,0.3-0.8c0.2,0.1,0.6,0.1,0.4-0.2c0.2,0,0.2,0.5,0.4,0.2
	c-0.2-0.1,0.1-0.4,0.3-0.3c-0.1,0.3-0.2,0.4,0,0.6c0-0.2,0.1-0.4,0.2-0.2c0.1-0.2-0.1-0.3,0-0.5c0.4,0.1-0.1-0.4,0.3-0.4
	c0.1,0,0,0.3,0.1,0.3c0.2-0.2-0.1-0.4,0.1-0.5c0.2,0.2,0.4,0.9,0.8,0.5c-0.2-0.1-0.4-0.2-0.4-0.4c0.2,0.1,0.2,0.1,0.4,0
	c0,0.1,0,0.3,0.1,0.3c0.2-0.2-0.1-0.5,0.2-0.7c0,0.1,0.1,0.5,0.2,0.6c0-0.2,0.1-0.3,0.2-0.3c0,0.2,0.1,0.2,0.2,0.1
	c-0.2,0.4,0.2,0.1,0.3,0.4c0-0.4,0.1-0.4,0.2-0.5c0.2,0.1,0.3,0.3,0.4,0.5c-0.1-0.4-0.2-0.8-0.1-1.1c0.1,0.3,0.5,0.2,0.5,0.5
	c0-0.1,0-0.2,0.1-0.2c0.3,0.1,0.1,0.5,0.2,0.7c0.3-0.6,0.2,0.2,0.5,0c0,0.2,0.4,0.5,0.4,0.5c0-0.2-0.1-0.6,0-0.6
	c0.1,0.1,0,0.8,0.2,0.6c0,0-0.1,0-0.1-0.1c0.2-0.1,0.2,0.1,0.3,0c0-0.1,0.1-0.4-0.1-0.4c0.2,0.1,0.3-0.3,0.4,0
	c0.1-0.2,0-0.6,0.2-0.6c0,0.7,0.1-0.2,0.3,0.4c0.2,0,0.1-0.5,0.3-0.5c-0.2,0.5,0.4-0.1,0.5,0.3c0-0.1-0.1-0.5,0.1-0.5
	c0,0.4,0.4,1.1,1.1,1.4c-0.1-0.3-0.6-0.2-0.5-0.6c0.2,0.3,0.2-0.2,0.4-0.2c0.3,0.2,0.4,0,0.8,0.3c0.1-0.1,0.1-0.2,0.2-0.2
	c0.2,0.3,0.3-0.1,0.6,0.2c0-0.3-0.2-0.6,0.1-0.8c0,0.3-0.2,0.4,0,0.7c0.2-0.2,0.5-0.2,0.7-0.5c0,0.1,0.6,0.1,0.8-0.2
	c0.2,0,0.4,0.4,0.3,0.2c-0.1-0.4,0.2-0.4,0.4-0.5c0-0.1,0.1-0.3,0.2-0.3c-0.1,0.1,0,0.4,0.1,0.2c0-0.2,0.1-0.1,0.2-0.4
	c0,0.1,0,0.2,0.1,0.2c0.1-0.1-0.2-0.3,0.1-0.3c0.2,0,0.1,0.2,0.2,0.3c-0.4,0.4-0.4,1,0,0.2c0.2,0,0.3-0.2,0.5-0.1
	c-0.1-0.4,0.7-0.5,0.5-1.1c0.1,0,0.2,0.1,0.2,0.2c0,0.1-0.1,0.2,0,0.3c0-0.1,0.1-0.1,0.1,0c0,0.1,0,0.2,0,0.2c0.2-0.5,0-0.7-0.1-0.9
	c0.1,0,0.2,0.1,0.2,0.1c0.2-2.3,0.1-4.8,0.4-6.7V0H8.9v0.5C9.1,0.5,9.2,0.6,9.2,0.8z"/>
<path class="st1" d="M39.3,8.5C39.3,8.5,39.3,8.5,39.3,8.5C39.3,8.5,39.3,8.5,39.3,8.5C39.3,8.5,39.3,8.5,39.3,8.5z"/>
<path class="st1" d="M199.5,17.1C199.5,17.1,199.5,17.1,199.5,17.1C199.5,17.1,199.4,17.1,199.5,17.1z"/>
<path class="st1" d="M40.1,8.7C40.1,8.7,40.1,8.7,40.1,8.7C40.1,8.7,40.1,8.7,40.1,8.7C40.1,8.7,40.1,8.7,40.1,8.7z"/>
<path class="st1" d="M120.9,11C120.9,11,120.8,11,120.9,11C120.8,11.1,120.9,11.1,120.9,11z"/>
<path class="st1" d="M125.2,10C125.2,10,125.2,10,125.2,10C125.2,9.9,125.2,10,125.2,10z"/>
<polygon class="st1" points="134,10.8 134,10.8 134,10.8 "/>
<path class="st1" d="M107.1,11.9C107.1,11.9,107.1,11.9,107.1,11.9C107.1,11.9,107.1,11.9,107.1,11.9z"/>
<path class="st1" d="M120.8,11C120.8,11,120.8,11,120.8,11C120.8,11,120.8,11,120.8,11z"/>
<path class="st1" d="M119.1,12C119.1,11.9,119.1,11.9,119.1,12C119.1,11.9,119.1,11.9,119.1,12z"/>
<path class="st1" d="M119.1,12.1c0.1-0.1,0.1-0.1,0-0.2C119.1,12,119,12.1,119.1,12.1z"/>
<path class="st1" d="M134.2,10.9c0-0.1,0.1-0.2,0.1-0.2c-0.1,0-0.2,0.1-0.3,0.1C134.1,10.9,134.1,10.9,134.2,10.9z"/>
<path class="st1" d="M192.1,16.2c0.1,0.1,0.1,0.3,0.1,0.5c0.2-0.3,0.1,0.2,0.3,0.2c0.1-0.2-0.1-0.3-0.1-0.5
	C192.3,16.3,192.2,16.2,192.1,16.2z"/>
<path class="st1" d="M140.9,11.9C141,12.1,140.9,12,140.9,11.9C140.9,11.9,140.9,11.9,140.9,11.9z"/>
<path class="st1" d="M192.1,16.2C192.1,16.1,192.1,16.1,192.1,16.2C192.1,16.1,192.1,16.1,192.1,16.2z"/>
<path class="st1" d="M199.5,17C199.5,17,199.6,17,199.5,17C199.6,17,199.5,17,199.5,17z"/>
<path class="st1" d="M136.3,11.4c0,0.1,0,0.1,0.1,0.1C136.3,11.5,136.3,11.5,136.3,11.4z"/>
<path class="st1" d="M136.4,11.6c0,0.1,0.1,0.2,0.1,0.3C136.6,11.7,136.4,11.6,136.4,11.6z"/>
<path class="st1" d="M189.2,16.2C189.2,16.4,189.2,16.5,189.2,16.2L189.2,16.2z"/>
<path class="st2" d="M46.1,8.4c0,0,0,0,0-0.1C46.1,8.3,46.1,8.4,46.1,8.4z"/>
<path class="st2" d="M116.2,10.3C116.2,10.2,116.2,10.2,116.2,10.3C116.2,10.2,116.2,10.2,116.2,10.3z"/>
<path class="st2" d="M25.7,6.4C25.7,6.4,25.7,6.4,25.7,6.4c-0.1,0-0.1,0-0.2,0C25.6,6.4,25.6,6.4,25.7,6.4z"/>
<path class="st2" d="M66.6,8.2C66.6,8.2,66.6,8.2,66.6,8.2C66.6,8.2,66.6,8.2,66.6,8.2z"/>
<path class="st2" d="M52.7,9.9C52.7,9.9,52.7,9.8,52.7,9.9C52.7,9.8,52.7,9.8,52.7,9.9C52.7,9.9,52.7,9.9,52.7,9.9z"/>
<path class="st2" d="M66.6,8.1C66.6,8.1,66.6,8.1,66.6,8.1C66.6,8,66.6,8.1,66.6,8.1z"/>
<path class="st2" d="M64.6,8.7C64.6,8.8,64.6,8.7,64.6,8.7C64.6,8.7,64.6,8.7,64.6,8.7z"/>
<path class="st2" d="M50.4,9.3C50.5,9.4,50.4,9.3,50.4,9.3C50.4,9.3,50.4,9.3,50.4,9.3z"/>
<path class="st2" d="M52.7,9.9c0,0.2,0.4,0.1,0.2,0C52.8,10,52.8,9.9,52.7,9.9z"/>
<path class="st2" d="M104.2,10.2C104.2,10.2,104.2,10.2,104.2,10.2C104.2,10.2,104.2,10.2,104.2,10.2z"/>
<path class="st2" d="M202.1,14.8C202.1,14.8,202.1,14.8,202.1,14.8C202.1,14.8,202.1,14.8,202.1,14.8z"/>
<path class="st2" d="M196.6,15.4C196.6,15.4,196.6,15.4,196.6,15.4C196.6,15.4,196.5,15.4,196.6,15.4z"/>
<path class="st2" d="M189.2,14.5c0.1,0.1,0.1,0.3,0.1,0.5c0.2-0.3,0.1,0.2,0.3,0.2c0.1-0.2-0.1-0.3-0.1-0.5
	C189.4,14.6,189.3,14.5,189.2,14.5z"/>
<path class="st2" d="M196.6,15.3C196.6,15.3,196.7,15.3,196.6,15.3C196.7,15.3,196.6,15.3,196.6,15.3z"/>
<path class="st2" d="M116.2,10.4c0.1-0.1,0.1-0.1,0-0.2C116.2,10.3,116.1,10.4,116.2,10.4z"/>
<path class="st2" d="M189.2,14.5C189.2,14.4,189.2,14.4,189.2,14.5C189.2,14.4,189.2,14.4,189.2,14.5z"/>
<path class="st2" d="M122.3,8.3C122.3,8.3,122.3,8.3,122.3,8.3C122.3,8.2,122.3,8.3,122.3,8.3z"/>
<path class="st2" d="M118,9.3C118,9.3,117.9,9.3,118,9.3C117.9,9.4,118,9.4,118,9.3z"/>
<path class="st2" d="M131.3,9.2c0-0.1,0.1-0.2,0.1-0.2c-0.1,0-0.2,0.1-0.3,0.1C131.2,9.2,131.2,9.2,131.3,9.2z"/>
<path class="st2" d="M117.9,9.3C117.9,9.3,117.9,9.3,117.9,9.3C117.9,9.3,117.9,9.3,117.9,9.3z"/>
<polygon class="st2" points="131.1,9.1 131.1,9.1 131.1,9.1 "/>
<path class="st2" d="M138,10.2C138.1,10.4,138,10.3,138,10.2C138,10.2,138,10.2,138,10.2z"/>
<path class="st2" d="M186.3,14.5C186.3,14.7,186.3,14.8,186.3,14.5L186.3,14.5z"/>
<path class="st2" d="M133.4,9.7c0,0.1,0,0.1,0.1,0.1C133.4,9.8,133.4,9.8,133.4,9.7z"/>
<path class="st2" d="M133.5,9.9c0,0.1,0.1,0.2,0.1,0.3C133.7,10,133.5,9.9,133.5,9.9z"/>
<path class="st2" d="M36.4,6.8C36.4,6.8,36.4,6.8,36.4,6.8C36.4,6.8,36.4,6.8,36.4,6.8C36.4,6.8,36.4,6.8,36.4,6.8z"/>
<path class="st2" d="M34.9,6.9c0-0.1,0-0.1-0.1-0.1C34.8,6.9,34.9,6.9,34.9,6.9z"/>
<path class="st2" d="M37.2,7C37.2,7,37.2,7,37.2,7C37.2,7,37.2,7,37.2,7C37.2,7,37.2,7,37.2,7z"/>
<path class="st2" d="M34.6,7.2C34.6,7.2,34.6,7.2,34.6,7.2C34.6,7.2,34.6,7.2,34.6,7.2C34.6,7.2,34.6,7.2,34.6,7.2z"/>
<path class="st2" d="M34.9,7c0,0.2-0.2,0-0.3,0.2c0,0,0,0,0,0c0.2,0,0.4,0,0.5-0.1C35,7.1,35,7,34.9,7C34.9,7,34.9,7,34.9,7z"/>
<path class="st2" d="M6.2,0.4C6.4,0.3,6,0.1,6,0.2C6.1,0.5,6.4,0.9,6,1c0.5,0.6,0.4,1.2,0.3,2.1c0.2-0.2,0-0.6,0.3-0.4
	c0.2-0.4,0-1,0.2-1.2c0.2,0-0.1,0.3,0.1,0.3c0-0.1,0-0.2,0.1-0.1C7.1,2,6.6,1.9,6.8,2.1c0.2,0,0,0,0.3-0.2C7,1.7,7.1,1.5,7,1.3
	c0,0.1,0.7,0.3,0.5,0.1C7.2,1.3,7.1,1.2,7.2,1C7.5,1.2,7.7,0.6,8,0.4c0,0.3,0.3,0.4,0.3,0.7C8.4,1.2,8.5,1,8.6,1
	c0,0.1,0.3,0.5,0.2,0.3c0-0.2-0.2-0.2-0.1-0.4C9,0.8,9,1.2,9.2,1.1C9.1,1,8.9,0.8,9.1,0.8c0.1,0.1,0,0.4,0.3,0.4
	c0-0.1,0-0.3,0.1-0.3C9.4,1.4,9.5,1,9.8,1.2C9.7,1.6,9.5,1.7,9.6,2C9.7,1.6,10,1.4,10,1c0.1,0.2,0.1,0,0.3,0c0.1,0.1,0,0.3,0.2,0.3
	C10.7,1.1,10.4,1,10.6,1c0.1,0.3,0.6,0.7,0.7,0.8c-0.2-0.3-0.2-0.6-0.4-0.8c0.5,0,0.3,0.8,0.8,0.6c-0.2-0.1-0.3-0.3-0.3-0.6
	C11.6,1.3,12,1.5,12,1.9c0.1-0.2-0.1-0.3,0-0.5c0.3,0.2,0.2-0.3,0.5-0.2c-0.1,0.7-0.1,0.6,0.1,0.1c0.1,0.1,0,0.4,0.3,0.4
	C13,1.6,12.7,1.4,13,1.4c0.1,0.3-0.2,0.3,0,0.5c0.3,0,0-0.2,0.3-0.2c0,0.2,0.2,0.3,0.3,0.5c0.1-0.1,0-0.4,0.2-0.4s0.1,0.2,0.3,0.3
	c0.1-0.2,0.4,0,0.4-0.1c0-0.1-0.1-0.7,0.3-0.7c0,0.1-0.1,0.3,0,0.3c0-0.2,0.2-0.2,0.3-0.2c-0.1,0.3,0,0.2,0.1,0.1
	c-0.1,0.3,0.3,0.3,0.3,0.6c0.2,0.3-0.2-0.5,0.2-0.4c-0.1,0.1-0.1,0.2,0,0.3c0.1-0.1,0-0.4,0.2-0.4c-0.1,0.3,0.1,0.5,0.2,0.7
	c0.1-0.4,0.1-0.6,0.3-0.8c-0.1,0.4,0.2,0.4,0.5,0.3c0,0.1,0.3,0.4,0.4,0.4c-0.2-0.4,0.3-0.7,0.5-0.8c-0.1,0.1-0.1,0.2,0,0.3
	c0.3-0.4,0.3,0.3,0.4,0.2c0.1-0.2-0.1-0.3,0-0.5c0.1,0.2,0.2,0.1,0.3,0c0.1,0.1,0,0.3,0.2,0.3c0.1-0.1,0-0.4,0.2-0.3
	c0,0.1,0,0.3,0.1,0.3c0.1-0.1,0.1,0,0.2,0.1c0-0.3,0.2-0.2,0.3-0.3c0.2,0.3,0.9,0.3,1,0.9c0-0.1,0-0.2,0.1-0.1
	c0.1,0.2,0.1,0.4,0.2,0.6c0.2-0.3-0.2-0.3,0-0.5c0.1,0,0.1,0.1,0.1,0.1c0.1-0.3,0-0.3-0.1-0.4c0.2-0.2,0.3,0.2,0.6,0.5
	c0.3-0.2,0.2-0.1,0.5-0.4c0,0.2-0.1,0.4,0.1,0.5c0.1-0.1-0.2-0.4,0.1-0.4c-0.1,0.1,0.1,0.4,0.2,0.2c-0.1,0,0-0.2,0.1-0.1
	c0,0.1-0.2,0.4,0,0.5c0-0.2,0.3-0.1,0.4-0.2c0.1,0.5,0.1,0.2,0.3,0c0,0.3,0.1,0.4,0.2,0.6c-0.1-0.4,0.4,0,0.3-0.4
	c0.3,0.2-0.1,0.4,0.2,0.7c0.1-0.1,0-0.5,0.2-0.4c0.3,0.2,0.4,0.5,0.4,0.9c0.1-0.2,0-0.6,0.1-0.5c0.1,0.2,0.1,0.5,0.3,0.6
	c0.1-0.1-0.2-0.3,0.1-0.3C24.8,4.2,25,4,25.1,4.1c0,0.1-0.1,0.3,0,0.3c0.1-0.1,0.1,0.1,0.2,0.1c0.1-0.2-0.2-0.4,0.1-0.4
	c0.1,0.4,0.1,0,0.3-0.1c-0.1,0.2,0,0.2,0,0.3c0.3-0.2,0.6-0.5,1-0.3c0.1,0,0,0.3,0.2,0.3c0.1-0.2,0.3-0.4,0.5-0.6
	c0,0.4,0.1,0.2,0.2,0.5c0.2,0,0.1-0.3,0.3-0.3C28,4.2,28.1,4,28.3,4.2c0-0.4,0-0.7,0.3-0.9c0.1,0.6,0.3-0.1,0.5,0.5
	c0-0.2,0.2-0.1,0.3-0.2c0.1,0.2,0.2,0.2,0.4,0.1c0.1,0.1,0.1,0.6,0.3,0.4c-0.1,0-0.1-0.2,0-0.2c0.4,0.1,0.4,0.5,0.4,0.8
	c0.1-0.2,0.2-0.6,0.5-0.6c0.6,0.5,1.5,0.5,1.9,1.3c0-0.3-0.4-0.4-0.4-0.7c0.3,0.2,0.2-0.2,0.4,0c-0.1,0.2,0.4,0.6,0.4,0.5
	c-0.1-0.3-0.5-0.7-0.3-0.9c0,0.2,0.1,0.6,0.3,0.4c-0.2-0.2,0.2-0.3,0.1-0.6c0.1,0,0.1,0,0.2,0c0.1,0.2-0.3,0.7,0.1,0.9
	c0-0.2,0.1-0.1,0.2-0.2c-0.2,0-0.2-0.3-0.1-0.3c0.1,0.3,0.4,0.7,0.2,1c0.3,0.1,0.3-0.2,0.4-0.1c-0.1,0-0.2-0.4,0-0.3
	c0.1,0.1,0.2,0.6,0.3,0.4c0-0.1-0.1-0.2-0.1-0.3c0,0,0,0,0,0c0,0,0,0,0,0c0-0.1,0-0.3,0-0.5c0,0,0.1,0.1,0.2,0.1
	c0-0.1-0.1-0.1-0.1-0.2c0.6,0.2-0.3-0.2,0.1-0.3c0,0.2,0.6,0.3,0.2,0.4c0.3,0.2,0.2-0.2,0.4,0c0,0.1-0.1,0.1-0.1,0.2
	c0.3,0,0.2,0,0.4,0.1c0.2-0.2-0.1-0.4,0.1-0.3c0.2,0.4,0.4,0.8,0.6,1.2c0.1-0.3-0.2-1.1-0.2-1c-0.1,0.1,0.1,0.3-0.1,0.3
	c-0.2-0.3-0.5-0.8-0.4-1c0.2,0.1,0.2,0.2,0.3,0.3c0.1-0.2-0.2-0.2-0.1-0.4c0.3,0.3,0.2,0.5,0.5,0.8c0,0,0-0.1,0-0.1c0,0,0,0,0,0
	c0,0,0,0,0,0c0-0.1,0.1-0.2,0.1-0.3c-0.1-0.1-0.2,0-0.3-0.1c0.1,0,0.1-0.1,0.2-0.1c0.1,0.1,0.3,0.4,0,0.5c0,0,0,0,0,0
	c0.2,0.1,0.3-0.1,0.5,0c0.3,0.1,0.1,0.4,0.2,0.5c0-0.1,0.1-0.2,0.1-0.3c0,0,0,0,0-0.1c-0.2-0.2-0.4-0.3-0.4-0.6
	C37,4.6,37.1,4.8,37.2,5c0,0,0,0,0,0c0,0,0,0,0,0c0.1,0.2,0.1,0.3,0.1,0.5c0-0.1,0.1,0,0.2,0c0.1-0.2-0.3-0.3,0-0.4
	c0.1,0.4,0.4,0.2,0.5,0.6c0.1-0.3-0.1-0.4,0-0.6c0.1,0,0.1,0,0.2,0c0,0.1,0,0.1,0.1,0.2c0,0,0-0.1,0.1-0.1c0,0.2-0.1,0.2-0.1,0.3
	c0.1,0,0.2,0.2,0.2,0.1c-0.1-0.1,0.1-0.4,0.2-0.4c0.1,0.4,0.3,0.3,0.4,0.6c0.1-0.2-0.2-0.4,0.1-0.4c0.1,0.2,0.2,0.3,0.1,0.5
	c0.5-0.1,0.5,1,1.1,1c0,0-0.3-0.3-0.1-0.3c0.2,0.3,0.3,0.2,0.5,0.1c0.1,0.2,0.1,0.5,0.3,0.7c0.1-0.3-0.2-0.4,0.1-0.5
	c-0.1-0.2-0.2,0-0.2-0.1c0.2,0,0.1-0.3,0.1-0.3c0.1,0.1,0.2-0.1,0.3-0.1c0,0.1,0.2,0.4,0.3,0.3c-0.1-0.2-0.3-0.3-0.3-0.5
	c0.1,0,0.2,0,0.2,0c0,0.1-0.2,0.1,0,0.2c0.2-0.1,0-0.3,0.3,0c0.1-0.2-0.1-0.2-0.1-0.3c0.3,0,0.4,0,0.6,0.1c0.1-0.1,0-0.5,0.2-0.5
	c0.3,0.5,0.3-0.1,0.7,0.4c0-0.1,0-0.3,0.2-0.3c0.1,0.3,0.2,0.6,0.3,0.9c-0.1-0.6,0.1-0.3,0.1-1c0.6,0.2,0.6,0.1,1.3,0.2
	c0,0.1-0.2,0.5,0,0.3c0.1-0.2,0.1-0.3,0.3-0.4c0.1,0,0.1,0.2,0.2,0.1c0,0-0.1-0.1,0-0.1c0.2,0.1,0.3,0.3,0.4,0.5c0-0.2,0-0.3,0-0.5
	c0.4,0.1,0.1,0.4,0.4,0.1c0,0.2,0,0.6,0.2,0.5c0-0.1,0.3,0.1,0.3-0.2c0,0.2,0.2,0.2,0.3,0.3c0.2-0.4,0.4,0.2,0.5-0.1
	c0.2,0,0,0.5,0.2,0.3c0.1-0.1,0.1-0.3,0.1-0.3c0,0.1,0.1,0,0.3,0.1c0,0.2,0.1,0.6,0.3,0.5c-0.2-0.2-0.3-0.4-0.3-0.7
	c0.1,0,0.1,0,0.2,0c0.1,0.2,0,0.6,0.2,0.8c0.1-0.2-0.2-0.6,0-0.7c0.3,0,0,0.3,0.3,0.3c0-0.2,0.2-0.3,0.4-0.2
	c-0.1,0.4,0.1,0.1,0.3,0.2c0,0.2,0,0.3,0.1,0.3c0-0.2,0.2-0.3,0.4-0.3c-0.2,0.1,0,0.4,0.1,0.5c0-0.1-0.1-0.2,0-0.2
	c0.1,0.1,0.4,0.1,0.3,0.3c-0.1-0.1-0.2,0.3-0.1,0.3c0-0.1,0.1-0.2,0.2-0.3c0,0.1,0,0.2,0.1,0.3C51,7.5,51,7.4,51,7.4
	c-0.1,0.3,0.1,0.3,0.2,0.2c-0.1,0.3,0.2,0.8,0.4,0.5c-0.2,0-0.4-0.4-0.1-0.4c0,0.3,0.1,0.4,0.4,0.6c0.1-0.2-0.1-0.3,0-0.5
	c0.3,0.3,0,0.1,0.3-0.1c0,0.2,0.2,0.3,0.3,0.4c0.1,0,0.1-0.2,0.2-0.3c-0.1-0.1-0.1-0.2-0.1-0.3c0.2,0.1,0.1,0.4,0.4,0.3
	c0.1-0.2-0.2-0.2-0.2-0.4c0.1,0,0.1-0.1,0.2-0.1c-0.1,0.3,0.1,0,0.2,0.2c0.1-0.2,0-0.6,0.2-0.7c0.1,0.4,0.7,0.1,0.9-0.1
	c0.1,0.1,0.2,0.3,0.3,0.4c0.1-0.2-0.2-0.4,0-0.4c0.1,0,0.1,0.4,0.2,0.2c-0.2-0.1,0.2-0.1,0.3-0.2c0.1-0.1-0.1-0.4,0.1-0.4
	c0,0.5,0.3-0.1,0.4-0.1c0.4,0.4,0,0.1,0.6,0.3c0.2-0.3-0.3,0-0.2-0.2c0-0.1,0.1-0.1,0.2-0.1c0.2-0.1,0.2,0.4,0.3,0.2
	c-0.1,0-0.2-0.3,0-0.3c0.1,0.1,0.1,0.3,0.4,0.4c-0.1,0.2,0,0.3,0.1,0.4c0.3-0.2-0.4-1,0.2-1.2c0.1,0.1,0,0.7,0.2,0.5
	c-0.2-0.2-0.1-0.5,0-0.6c0.3,0,0.1,0.5,0.3,0.3c0.1-0.3,0,0.9,0.1,0.8c0.1-0.5,0.3-0.2,0.5-0.6c0,0.2,0.1,0.3,0,0.5
	c-0.1,0-0.1-0.1-0.2,0c0,0,0.1,0,0.1,0.1c0,0.1,0,0.1,0.1,0.1c0.1-0.1,0.1-0.3,0.2-0.3c-0.1,0.3,0.1-0.1,0.2,0.2
	c0.1-0.3,0.1-0.3,0.3-0.2c0-0.1,0-0.3,0.2-0.2c0.1-0.2-0.1-0.5,0-0.5c0.1,0.3,0.1,0.3,0.3,0.1c0,0.4,0.2,0.7,0.4,1
	c0.2-0.3,0.3,0,0.5-0.3c0,0.1,0.2,0.5,0.4,0.3c-0.1,0-0.2-0.1-0.1-0.2c0.1,0,0.1,0.1,0.3,0.2c0.1-0.1-0.2-0.4,0.1-0.4
	c0,0.5,0.1-0.1,0.3,0c0,0.3,0.1,0.5,0.2,0.7c0-0.2,0-0.4,0.1-0.5c0,0.2,0.1,0,0.2,0C62,6.8,61.8,7.2,62,7.1c0-0.1,0-0.3,0.1-0.3
	c0.1,0.4,0,0.9,0.3,1.1c0.1-0.4-0.4-1.2,0-1.6c0.1,0.1,0.1,0.1,0.2,0.2c0,0.1-0.2,0.2-0.1,0.2c0-0.1,0.1-0.1,0.2-0.1
	c0,0.1,0,0.2,0.1,0.2c0-0.3-0.1-0.6-0.2-0.9c0.3,0.2,0.2-0.1,0.5,0C63,6,62.9,6.6,63,6.4c0.1-0.1,0.2-0.2,0.3-0.3
	c-0.1,0.4,0,1,0.1,1c0-0.2-0.1-0.6,0.2-0.7c0,0.4,0.1-0.3,0.3,0.1C64,6.4,63.7,6.2,64,6.2c0.1,0.2,0,0.5,0.3,0.7
	c0.1-0.2-0.2-0.5,0-0.5c0.2,0,0.3,0.1,0.3,0.2c0-0.1,0.1-0.3,0.1-0.3c0.2,0,0.3,0,0.5-0.1c0,0.1,0,0.2,0.1,0.3
	c0.1-0.1-0.2-0.3,0.1-0.3c-0.1,0.2,0.3,0.6,0.2,0.4c0-0.2-0.1-0.2,0-0.3c0.1,0,0.2,0.1,0.2,0.2c0.1-0.3,0-0.3,0.2-0.4
	c0.2,0,0.1,0.5,0.3,0.3c-0.1-0.1,0.1-0.5,0.2-0.6c0.2,0,0.1,0.1,0.1,0.2c0.1-0.1,0.2,0,0.2-0.1c0-0.1-0.3-0.4-0.1-0.4
	c-0.1,0.2,0.2,0.4,0.4,0.6c0-0.1,0-0.2,0.1-0.2c0,0.3,0.1,0.1,0.3,0.2c-0.1,0.2,0.1,0.2,0.1,0.3c0,0.3-0.2,0.3-0.2,0.4
	c0.3,0.2,0.1-0.4,0.3-0.3c0.2,0.4,0.1-0.1,0.2-0.1C68,6.7,68,7,68.2,6.7c-0.1,0.5,0.4,1,0.4,1.2l0.1-0.1c0.1,0.1,0.2,0.6,0.4,0.4
	C69,8.1,69,8,69,7.9c0.1,0.1,0.2-0.1,0.3-0.1c0.1,0.3,0.4,0.4,0.6,0.6c0.2-0.1-0.1-0.3,0.1-0.3c0.1,0.1,0.1,0.6,0.2,0.5
	c0-0.3,0.2-0.4,0.4-0.4c-0.2,0.1,0.1,0.5,0.1,0.8c0-0.2,0.1-0.3,0.2-0.1c0-0.1,0-0.3,0.2-0.3c0.3,0.2,0.4,0.4,0.5,0.6
	c-0.1-0.5-0.1-0.9,0.2-1C72,8.3,72,8.4,72.1,8.5c0-0.2,0.3-0.2,0.1-0.3c-0.1,0.1-0.1,0-0.1-0.1c0.4,0,0.3,0.3,0.5,0.4
	c0.1-0.1,0-0.4,0.2-0.3c0,0.5,0.6,0.2,0.7,0.7c0.1,0,0.1-0.4,0.3-0.3c0.1,0.1,0,0.3,0.2,0.4c0.1-0.2,0.1-0.1,0.1-0.4
	c0.1,0.2,0.3,0,0.4,0c0,0.1,0.3,0.5,0.2,0.3c0-0.2-0.2-0.2-0.1-0.3c0.1,0,0.2,0.4,0.4,0.2c-0.1-0.1-0.2-0.2-0.3-0.4
	C74.9,8.3,75,8.7,75,8.5c-0.1,0-0.1-0.2,0-0.2c0.1,0.4,0.2,0.7,0.4,1c0-0.1-0.1-0.5,0.1-0.5c0.2-0.1,0.7,0.1,0.9,0.3
	c-0.1,0.3,0.1,0.4,0.1,0.8c0.5,0,0.5,0.3,0.9,0.1c0,0.2-0.1,0.3,0.2,0.4c0.1-0.3-0.2-0.6,0.1-0.8c0.1,0.2,0.2,0.2-0.1,0.3
	c0.2,0,0.2,0.1,0.3,0.2c0-0.4,0.3-0.1,0.3,0c0-0.1,0.5,0,0.3-0.2c-0.2,0.1-0.2-1,0-1.1c0.1,0.2-0.1,0.6,0.2,0.7
	c0-0.4-0.1-0.6-0.1-0.9c0.1,0.2,0.2-0.1,0.2,0.1c0,0.1-0.1,0.1,0,0.2c0-0.1,0.1-0.1,0.2-0.1c0.2,0.3,0.2,0.6,0.4,0.8
	c0.1-0.3-0.4-0.7-0.1-0.9C79.1,9,79.6,8.9,79.6,9c0-0.2-0.3-0.2-0.2-0.5c0.3,0.3,0.4,0.3,0.5,0.5c0.1-0.2,0.3-0.1,0.5-0.1
	c0,0.4,0.1,0.3,0.2,0.5c0.1-0.2,0.1,0.2,0.3,0.2c0.1-0.2,0.2,0,0.3-0.3c0.3,0,0.1,0.3,0.3,0.4c0-0.2-0.1-0.6,0.2-0.6
	c0,0.1-0.1,0.1-0.2,0.3C81.8,9.5,81.7,9,82,9.2c-0.1,0.4,0,0.5-0.1,0.6c0.3-0.3,0.9-0.2,0.6-0.6c0.1,0.1,0.2,0,0.3,0
	c-0.1-0.4,0.1-0.1,0.2-0.3c0.3-0.3,1-1,1-1.5c0.2,0.2-0.2,0.6-0.1,0.7c0.2-0.4,0.3-0.4,0.5-0.8c0.1,0,0.2,0.4,0.3,0.2
	c-0.2,0,0-0.3,0-0.4c0.1,0,0.1,0,0.2,0c0.1,0,0,0.2,0.1,0.2c0.1-0.1,0.1-0.1,0.1-0.2c0.1,0,0.2,0,0.2,0c-0.3,0.3,0.1,0.1,0.2,0.4
	c0-0.4,0.4,0.3,0.3,0c0-0.1-0.2-0.1-0.1-0.3c0.1,0,0.2,0,0.3,0c0,0.2,0,0.4,0.1,0.5c0-0.1,0.1-0.2,0.2-0.2c0.1,0.3,0.2,0.5,0.3,0.8
	c0.1-0.2,0-0.5,0.2-0.3c0,0.3-0.1,0.5,0,0.7c0.1-0.6,0.3,0.4,0.6,0.1c-0.2,0-0.1-0.5,0-0.5c0,0.1,0.1,0.1,0.1,0.2
	c0.1-0.2-0.3-0.4,0-0.4s0,0.6,0.2,0.4c0.2-0.5,0.1,0.3,0.2,0.1c0-0.1-0.2-0.5,0.1-0.6c0.2,0-0.1,0.4,0.1,0.4c0.1-0.2,0-0.3,0.1-0.3
	c-0.1,0.4,0.6,0.4,1,0.7c0-0.2,0.3-0.3,0.1-0.4c-0.1,0.3-0.6,0.3-0.6-0.1c0.1,0,0.1,0.1,0.1,0.1c0-0.4,0.3,0,0.3-0.2
	c-0.1-0.1,0-0.1,0-0.3c0.4-0.3,0.7,0.3,0.8,0c0.1,0.5-0.1,1.6,0.2,0.4c0.1,0,0.1-0.1,0.3,0c0.1,0.2,0.1,0.2,0.4,0.5
	c0-0.2-0.1-0.3,0.2-0.3c0,0.2,0.1,0.2,0.2,0.1c-0.1,0.4,0.1,0.3,0.4,0.5c0.3-0.2,0.4-0.6,0.7-0.7c0.7,0.5,1,0.4,2.1,0.6
	c-0.2-0.1-0.4-0.1-0.5-0.3c0-0.1,0-0.2,0.1-0.1c0.1,0.4,0.4,0.2,0.7,0.2c0.4,0.3,0.4,1.1,0.7,1.2c-0.3-0.5-0.7-1.4,0-1.6
	c-0.1,0.2,0.1,0.2,0.2,0.3c0.1-0.1-0.1-0.3,0.1-0.3c0,0.1,0.1,0,0.2-0.1c0.2,0.1,0,0.3,0.3,0.4c0-0.2,0.4-0.1,0.5,0
	c0.1-0.3-0.1-0.3,0.2-0.4c-0.2-0.1-0.1-0.4,0-0.6c0.3,0,0.5-0.1,0.7-0.1c0.1,0.1,0,0.3,0.1,0.5c0.2-0.3-0.1-0.6,0.1-0.6
	c0.3,0.1,0.2,0.1,0.4,0.2c0.1-0.1-0.1-0.2,0-0.3c0.5,0,0.3,0.4,0.4,0.7c0.2-0.1-0.1-0.3,0.1-0.6c0.1,0.1,0.2-0.1,0.3-0.1
	c0,0.2,0.2,0.4,0.3,0.3c-0.1-0.2,0.2-0.2,0.1-0.3c0,0.1,0.2,0.1,0.1,0.3c0.2-0.1,0.5,0.1,0.6,0.1c-0.1-0.2-0.3-0.2-0.4-0.3
	c0-0.3,0.2-0.2,0.3-0.1c0.1-0.4-0.2-0.1-0.3-0.3c0.2,0.1,0.3-0.1,0.4,0c0.1,0.1-0.1,0.3,0.1,0.4c0.2,0,0.2-0.5,0.4-0.6
	c0.2,0.1,0.3,0.1,0.3,0.4c0.3-0.4,0.3,0.3,0.5,0.4c0.1-0.1-0.2-0.3,0.1-0.3c0.1,0.2,0.3,0.3,0.4,0.5c0-0.2,0.3-0.1,0.5,0
	c-0.3,0.3,0.1,0,0.1,0.3c-0.1,0.1-0.4,0.6-0.2,0.4c0.1-0.5,0.5-0.2,0.6-0.4c-0.1,0.2,0.1,0.3,0.1,0.4c0.6,0.1,0.4-0.7,0.9-0.3
	c-0.1-0.5,0.2-0.2,0.3-0.1c0-0.2,0.2-0.1,0.3-0.3c-0.1,0-0.2,0-0.2-0.1c0.2,0,0.3-0.2,0.5-0.3c0.2,0.3,0.7,0,0.9,0.7
	c0.1,0,0.2-0.2,0.4-0.2c-0.1,0.1,0.3,0.4,0.1,0.2c-0.1-0.2-0.2-0.6,0.1-0.6c-0.1,0.3,0.3,0.3,0.3,0.6c0.1-0.3,0.1-0.5,0-0.7
	c0.3,0.3,0.3-0.3,0.5,0.1c0.2-0.3,0.4-0.2,0.6,0c0.2-0.2-0.2-0.1-0.1-0.3c0-0.1,0.1-0.1,0.2-0.1c0.1,0,0.2,0.4,0.3,0.2
	c-0.1-0.3,0.3-0.1,0-0.4c0.7,0.4,0.4,1.2,0.7,1.7c0.2-0.2-0.1-0.4,0.1-0.4c0.2,0.2,0.1,0.6,0.2,0.8c0.2-0.2-0.1-0.4,0.1-0.4
	c0.3,0.1,0.2,0.4,0.5,0.4c0.4-0.5,1.1,0.3,1.2,0.5c0-0.5,0.5,0.2,0.6-0.2c-0.1,0-0.1-0.1-0.1-0.2c-0.1-0.1-0.3,0.2-0.3-0.1
	c0.1-0.2,0.4,0.1,0.5,0.1c0.2,0,0-0.3,0.2-0.3c0.3,0.3,0.6-0.1,0.7,0.4c0.1-0.4,0-0.5-0.2-0.4c0.1-0.1,0.1-0.2,0.3-0.2
	c0.1,0.1,0.7,0.6,0.6,0.5c-0.2-0.3-0.6-0.8-0.3-1.2c0.1,0.5,1,0.8,1.5,1c-0.2-0.3-0.6-0.4-0.7-0.7c0.4,0.1,0.6-0.3,1,0.1
	c0.1-0.5,0.9-0.1,1,0.2c0.2,0,0.4,0.2,0.5,0c-0.3,0-0.2-0.5,0-0.5c0.1,0,0.1,0.1,0.1,0.1c0,0,0,0,0,0c0.1,0.1,0.1,0.3,0.3,0.4
	c-0.1-0.3-0.1-0.7-0.1-0.8c0,0-0.1,0.1-0.1,0c0.1-0.1,0.2-0.2,0.3-0.3c0,0.1,0.3,0.1,0.3,0.2c0-0.1,0-0.3,0.2-0.3s0.4,0.4,0.7,0.3
	c-0.2-0.1-0.1-0.3-0.3-0.5c0.1,0,0.1-0.3,0.3-0.3c0,0.1,0,0.2,0,0.3c0.1,0,0.2,0,0.2-0.1c-0.5-1,0.5-0.5,0.8-0.4
	c0.5,0.2,1.2-0.2,1.5-0.3c-0.1-0.1-0.1-0.2-0.1-0.3c0.2,0,0.1,0.5,0.3,0.2c0-0.1,0-0.5,0.1-0.6c0.1,0.3,0.4,0.4,0.6,0.5
	c0.1-0.3-0.3-0.2-0.3-0.3c0.2,0.1,0-0.4,0.2-0.3c0.2,0,0.2,0.2,0.4,0.2c0.1-0.2-0.2-0.2-0.1-0.4c0.3,0.1,0.4,0.3,0.8,0.3
	c0.2,0.2,0.1,0.4,0.1,0.5c0.1-0.1,0.4,0.2,0.1,0.3c0.4,0.2,0.6-0.1,0.9-0.3c0.3,0,0.1,0.3,0.4,0.2c0,0.2,0,0.5,0.1,0.6
	c0.1-0.3-0.1-0.4,0-0.6c0.3-0.1,0-0.3,0.3-0.3c0,0.3,0.6,0.3,0.6,0.7c-0.3,0-0.5-0.5-0.7-0.3c0.3,0.1,0,0.3,0.2,0.4
	c0.2-0.1-0.1-0.2,0.1-0.2c0.1,0.2,0.4,0.3,0.6,0.2c-0.2,0.1,0.1,0.3,0.4,0.3c0.1-0.1-0.1-0.2,0-0.2c0.1,0,0,0.3,0.2,0.3
	c0.1-0.3-0.2-0.4-0.4-0.3c0.1-0.2-0.1-0.5,0.1-0.6c-0.1,0.3,0.2,0.6,0.3,0.5c0,0-0.4-0.2-0.1-0.2c0.2,0.1,0.1,0.4,0.3,0.4
	c0.2-0.2-0.1-0.2-0.1-0.3c0.5,0.2,0.8-0.4,1.3,0.1c0.1-0.1-0.1-0.2,0-0.2c0.1,0.2,0.4,0.3,0.6,0.5c0.2-0.3-0.3-0.2-0.1-0.4
	c0.1,0,0.1,0,0.2,0c0.1,0.2,0.3,0.4,0.3,0.6c-0.1-0.3,0.1-0.3,0.4-0.3c0,0.2,0.2,0.1,0.3,0.4c0.2-0.1,0.1-0.5,0.3-0.4
	c0.1,0.4,0.6,0.3,0.8,0.7c0.1-0.3-0.2-0.8,0.1-1c-0.2,0.3,0.1,0.1,0.2,0.4c0.3-0.1-0.1-0.2,0-0.5c0.3,0.1,0.4,0.2,0.6,0.4
	c0.1-0.2-0.1-0.2-0.1-0.3c0.3,0.1,0.4,0.2,0.5,0.3c0.1-0.3-0.8-0.4-0.5-0.8c-0.1,0.3,0.4,0.2,0.4,0.4c0.1,0,0.1-0.3,0.2-0.3
	c0,0.1,0,0.3,0.1,0.3c0.1-0.2-0.1-0.3,0.1-0.3c0.2,0.2,0.3,0.9,0.5,0.5c0.1,0.4-0.2,0.4,0.3,0.3c0-0.2-0.3-0.3-0.3-0.6h0.1
	c0.2,0.1,0.2,0.4,0.4,0.5c0.1-0.1,0-0.4,0.2-0.4c0.1,0,0.2,0,0.1,0.1c0,0.2-0.2,0.2-0.3,0.4c0.2,0.1,0.2-0.1,0.3-0.1
	c0,0.1-0.2,0.4,0,0.4c0.1-0.2,0.3-0.3,0.4-0.4c0.1,0.1,0,0.4,0.1,0.6c0.2-0.3,0,0.3,0.1,0.2c0.1-0.1,0.1-0.2,0.1-0.2c0,0,0,0,0,0
	c0,0,0-0.1,0-0.1c0.4,0.2-0.1-0.4,0.3-0.3c0,0.3,0.3,0.5,0.2,0.6c0.1-0.1,0.3-0.1,0.4-0.2c-0.1-0.1-0.1-0.4,0.1-0.4
	c-0.2,0.3,0.4,0.2,0.4,0.4c-0.1,0.1-0.6,0.1-0.4,0.3c0.3-0.2,0.7-0.1,0.8-0.1c0,0-0.1,0-0.1-0.1c0,0,0.1,0,0.1-0.1
	c-0.2,0-0.3-0.1-0.3-0.2c0.1,0,0.2,0,0.3,0c0.1,0.1-0.1,0.4,0.2,0.4c0.1-0.3-0.3-0.6,0-0.8c0.1,0.2,0,0.4,0.2,0.6
	c0-0.2-0.2-0.6,0-0.7c0,0.4,0.3,1,0.5,0.9c-0.4-0.2-0.1-0.7-0.3-0.9c0.1,0,0.1,0,0.2,0c0.1,0.3,0.2,0.6,0.3,0.9c0.2,0,0-0.5,0.2-0.6
	c-0.1,0.3,0.2,0.3,0,0.6h-0.1c0.3,0.2,0.1-0.3,0.3-0.2c0,0.2,0.3,0.2,0.4,0.2c-0.1,0.1-0.1,0.2,0,0.3c0.2-0.2,0.3-0.2,0.6,0
	c0.1-0.1-0.1-0.2,0.1-0.2c0.1,0,0.2,0.1,0.2,0.2c0.1-0.1,0-0.5,0.2-0.4c0.1,0.5,0.1,0.2,0.2,0c0.2,0.2,0.2,0.4,0.4,0.6
	c0-0.2-0.1-0.4-0.1-0.6c0.2,0.1,0.1,0.3,0.3,0.4c0.1-0.4,0.1-0.2,0.1,0c0-0.1,0-0.3,0.2-0.3c0.1,0,0,0.3,0.2,0.3
	c0-0.1,0-0.3,0.1-0.3c0.2,0,0.1,0.2,0.4,0.2c0.1,0.3-0.5,0.5-0.2,0.6c0-0.3,0.3-0.2,0.4-0.3c0.2,0.3,0.3,1,0.7,1
	c-0.1-0.1-0.3-0.3-0.2-0.3c0.3,0.1,0.3,0.3,0.5,0.2c-0.1,0-0.1-0.2,0.1-0.2c0,0.1,0.1,0.4,0.2,0.2c-0.2,0-0.2-0.4,0-0.4
	c0.2,0.2,0.5,0.6,0.7,0.6c0-0.2,0-0.3-0.1-0.4c0.3,0.1,0.2,0.3,0.4,0.4c0.1-0.3-0.1-0.5-0.1-0.8c0.1,0,0.2,0.1,0.3,0
	c-0.1,0-0.1-0.1,0-0.1c0.1,0.2,0.3,0.3,0.2,0.6c0.5-0.1,0.6,0.4,1,0.3c0-0.4,0-1.2,0.7-1.1c0.1-0.1-0.1-0.2,0.1-0.2
	c0.2,0.2,0-0.2,0.5,0.1c0.2-0.1-0.1-0.3,0.2-0.4c0,0.1,0,0.2,0,0.3c-0.2,1-0.1,0.1,0.3-0.1c0,0.1-0.1,0.3,0.1,0.3
	c0-0.1-0.1-0.2,0-0.2c0,0.2,0.2,0.3,0.3,0.4c0.1-0.2-0.1-0.2,0-0.4c0,0.1,0.6,0.1,0.4,0c-0.2,0-0.3-0.1-0.3-0.2
	c0.5-0.1,0.7,0.2,1,0.1c0,0.4,0.3,0.1,0.4,0.5c0-0.3,0.1,0.1,0.2-0.1c-0.2-0.2,0.2-0.2,0-0.6C147.9,8,148,8,148,8.1
	c-0.1,0.2-0.1,0.4,0.1,0.4c0.1-0.4,0.2,0.2,0.3,0c-0.1,0-0.1-0.1,0-0.1c0.1,0,0.2,0,0.2-0.1c-0.4,0.1-0.5-0.3-0.2-0.4
	c0,0.1,0,0.2,0.1,0.3c-0.1-0.5,0.3-0.6,0.8-0.5c0.1,0.2,0,0.4,0.1,0.5c0.1-0.3,0.4-0.3,0.3-0.7c0.3,0.1,0.1,0.6,0.3,0.2
	c0.1,0.1,0.4,0.6,0.7,0.3c0.1,0.2,0.3,0.4,0.3,0.7c0.6,0.1,0.7,0.1,1,0c0,0.3,1.2,0.6,1.1,0.2c-0.3,0.1-0.2-0.3-0.2-0.6
	c0.4,0.2,0.3,0.1,1,0.1c-0.1-0.1-0.2-0.5,0.1-0.6c0.1,0.3,0.1,0.2,0.4,0.3c0-0.3,0.1-0.3,0.2-0.5c0.1,0.1,0.1,0.3,0.2,0.4
	c0.2-0.1-0.1-0.2,0.1-0.2c0.1,0,0,0.2,0.1,0.3c0.1-0.1,0.1,0,0.1,0.1c0.1-0.3-0.2-0.3-0.1-0.5c0.2,0.1,0.2,0.3,0.3,0.4
	c0.3-0.2,0.5-0.1,0.7,0.1c0.3-0.8,1,0,1.6-0.1c-0.1-0.1-0.3-0.3-0.1-0.3C157.3,8,158,8.1,158,8c-0.2,0-0.3-0.1-0.3-0.2
	c0.3,0,0.2,0,0.4,0.2c0.5-0.4,0.9,0,1.4-0.3c0,0.1,0,0.5,0.1,0.3c0.1-0.1-0.1-0.2,0.1-0.2c0.2,0.2,0.2,0,0.4,0.2
	c0-0.4,0.3-0.4,0.4-0.2c0.1-0.2-0.1-0.3,0.1-0.3c0,0.1,0.1,0.1,0.2,0.2c0.2-0.2,0.3-0.3,0.4-0.3c-0.1,0-0.2-0.3,0-0.3
	c0,0.3,0.3,0.3,0.1,0.5c0.3,0.3,0.3,0.3,0.7,0.6c0.1-0.4,0.5,0.3,0.6,0C162.5,8.1,163,8.1,163,8c-0.1-0.2-0.1-0.7,0.2-0.8
	c-0.1,0.2,0.1,0.2,0.3,0.3c-0.2-0.3,0.1-0.4,0.3-0.7c-0.2,0.4,0.1,0.1,0.1,0.1c0.2,0.1,0.6,0.7,0.9,0.8c-0.1-0.2-0.2-0.3-0.2-0.5
	c0.2,0.2,0.2,0.2,0.3,0.1c0.1,0,0,0.3,0.2,0.3c-0.1-0.3,0.1-0.2,0.3-0.4c-0.2,0-0.1-0.2-0.1-0.4c0.1,0,0.1,0.1,0.2,0
	c0,0.1-0.1,0.6,0.1,0.4c0-0.1,0-0.3,0.1-0.3c0.2,0.2,0.3,0.3,0.4,0.7c0-0.1,0-0.3,0.1-0.3c0.1,0.3,0,0.7,0.1,1.1
	c0.3-0.4-0.2-1,0.2-1.4c0.1,0.1,0.3,0.1,0.3,0.3c0,0.1-0.1,0.3,0,0.3c0.2-0.3-0.1,0.3,0.1,0.3c0.1-0.2,0.2-0.3,0.4-0.3
	c0,0.1,0,0.2,0,0.3c-0.1,0-0.2-0.2-0.2,0c0.3,0.1,0.2,0.8,0.5,0.7c-0.1-0.3,0-0.1,0.3-0.1c-0.1-0.5,0.4,0.1,0.3-0.3
	c0.3,0.2,0.8-0.1,1.1,0.4c0.1,0,0.1-0.3,0.2-0.3c0,0.9,0.7,0.5,0.8,1.3c0.1-0.4,0.4,0.1,0.7,0.1c0.1-0.1-0.1-0.2,0.1-0.2
	c0.2,0.2,0.4,0.1,0.5,0.3c0-0.1,0-0.2,0.1-0.2c0,0.3,0,0.2,0.3,0.1c0,0.3-0.3,0.3,0,0.4c0.1-0.2,0-0.5,0.2-0.5c0.1,0,0,0.5,0.1,0.3
	c0.1-0.1,0.1-0.3,0.2-0.3c0.2,0.3,0.3,0.2,0.6,0.2c0,0.2,0,0.3,0.1,0.3c0.1-0.2,0.2,0.1,0.3,0.1c0.2-0.5-0.1,0-0.2-0.3
	c0.1-0.1,0.3-0.1,0.4-0.2c0,0.3,0.1,0.1,0.2,0c0,0.3,0.4,0.5,0.6,0.7c0.1-0.2-0.1-0.2-0.1-0.4c0.3,0,0-0.2,0.2-0.3
	c0.2,0-0.2,0.5,0.1,0.5c0-0.1,0.1-0.3,0.2-0.3c0,0.3,0.2,0.4,0.3,0.6c0.3,0.1-0.4-0.6-0.1-0.8c0.6,0.4,0.1,1.1,0.3,1.7
	c0-0.3,0-0.5,0.2-0.6c-0.2-0.3,0-0.4-0.1-0.6c0.4,0.1,0.6,0.9,0.9,1c-0.2-0.1-0.1-0.2-0.2-0.4c0.4,0,0.2,0.3,0.5,0.4
	c0.1-0.5-0.2-0.4-0.3-0.7c0.2,0.2,0.4,0,0.5,0.2c-0.3,0.3,0.1,0.3,0.1,0.7c0.1-0.1,0.1-0.2,0.2-0.2c0.3,0.3,0,0.7,0.3,1
	c0.1,0.6,0-0.8,0.1-0.8c0.1,0.1,0.1,0.3,0.3,0.4c0.1-0.3-0.1-0.4,0.2-0.5c-0.1,0.3,0.3,0.9,0.3,0.7c0-0.1-0.2-0.5,0-0.5
	c0,0.2,0.1,0.4,0.2,0.5c0.4-0.4,0.6,0.3,0.7,0.5c0.2-0.1,0-0.2,0-0.3c0.3,0,0.3-0.1,0.4-0.3c0.2,0.1,0.2,0.3,0.3,0.5
	c0.1-0.2-0.1-0.4,0.1-0.4c0.2,0,0.3,0.1,0.3,0.1c0-0.4,0.1,0.1,0.2-0.1c-0.1,0-0.1-0.1,0-0.3c0.3,0,0.5-0.1,0.8,0.2
	c0-0.1,0-0.2,0.1-0.2c0,0.1,0.1,0.4,0.3,0.2c-0.1-0.1-0.1-0.2-0.1-0.3c0.3-0.1,0.2,0,0.4,0.2c0.2-0.4-0.1-0.2-0.1-0.4
	c0.3,0,0.2-0.4,0.5-0.6c0,0.2-0.2,0.5-0.1,0.6c0.1,0,0.1-0.3,0.2-0.3c0.1,0,0.1,0.4,0.2,0.3c0-0.4,0-0.6,0-0.9
	c0.1,0.3,0.3-0.1,0.6,0c0.1-0.3-0.4-0.2-0.2-0.5c0.4,0.1,0.1,0.4,0.4,0c0.1,0,0.2,0,0.2,0c0,0.1,0,0.3-0.1,0.4
	c0.1,0,0.2,0.2,0.3,0.3c0-0.2,0.1-0.2,0.2-0.3c-0.1,0-0.2-0.1-0.1-0.2c0-0.1,0.1-0.1,0.2-0.1c0,0.2,0.2,0.1,0.2,0.4
	c0-0.3,0-0.3,0.2-0.1c0.1-0.3-0.1-0.3,0-0.6c0.1,0.1,0.1,0.2,0.3,0c0,0.2-0.3,0.2-0.1,0.3c0.1-0.3,0,0.5,0.2,0.1
	c-0.1,0-0.1-0.2,0.1-0.2c0.2,0.6,1.1,1.1,0.4,1.7c0.4,0.1,0.3,0,0.6,0c0,0.2,0.1,0.3,0.1,0.4c0,0.2,0,0.3,0,0.4c0-0.2,0-0.6,0.2-0.9
	c-0.1,0.3,0.3,0.4,0,0.6c0.3,0.1,0.7,0.4,0.3,0.6c0.2,0,0.3,0,0.4-0.2c0-0.2-0.4-0.4-0.2-0.5c0.1,0.3,0.2,0.3,0.3,0.1
	c0.1,0.4,0.6,0.3,0.8,0.7c0-0.2,0.1-0.1,0.2-0.2c-0.2,0-0.2-0.2-0.2-0.4c0.3,0.2,0.9,0.8,0.9,0.7c0-0.2-0.4-0.1-0.3-0.4
	c0.2,0,0.3,0.3,0.5,0.2c-0.1-0.2-0.4-0.2-0.3-0.5c0.1,0,0.2,0,0.3,0.1c-0.1-0.1-0.1-0.2-0.1-0.3c0.4,0,0.2,0.3,0.3,0.4
	c0-0.4,0.1-0.1,0.2-0.2c-0.1,0-0.1-0.1-0.1-0.3c0.2,0.2,0.3,0.8,0.6,0.7c-0.1,0-0.2-0.4-0.1-0.3c0.3,0.1,0.4,0.4,0.6,0.6
	c0.1-0.3,0-0.3,0-0.5c0.3,0.1,0.1-0.4,0.4-0.3c-0.2,0.2-0.1,0.3-0.1,0.5c0.3-0.1,0.2-0.3,0.6,0c0,0,0-0.1,0.1-0.2c0,0,0.1,0,0-0.1
	c-0.2,0.2,0-0.1,0.1-0.1c-0.1-0.2-0.2,0.1-0.2-0.1c0.1,0,0.1-0.1,0.2-0.1c0.3,0,0.2,0.5,0.4,0.3c-0.1-0.1-0.3-0.4-0.1-0.5
	c0.1,0.7,0.8,1.3,0.8,1.8c0.2-0.4,0.1-0.7,0.5-1c0.2,0.1,0.4,0.2,0.6,0.4c0.1-0.3,0.4,0,0.6,0.2c0-0.3-0.2-0.3-0.1-0.7
	c0.3,0,0.2,0,0.3,0.1c0.2-0.1,0.1-0.5,0.2-0.5c0.1,0.1,0.1,0.3,0.1,0.5c0.2,0.2-0.1-0.6,0.1-0.6c0.3,0.4,1.3,1,1.3,1.2
	c0-0.1-0.1-0.2,0-0.3c0,0.1,0.3,0.1,0.3,0.2c0,0,0,0.1,0,0.1c0.1-0.1,0.2,0.3,0.3,0.1c-0.1-0.2-0.1-0.2-0.2-0.3c0-0.1,0-0.2,0.1-0.2
	c0.1,0,0.1,0.2,0.2,0.2c0.1-0.3-0.1-0.3-0.2-0.4c0.6,0.3,0.8,0.5,1,1c0.1-0.2,0.3,0.1,0.4,0.1c0-0.2,0-0.5,0.1-0.5
	c0.1,0.2,0.1,0,0.3,0.1c-0.1,0.1,0,0.2,0.1,0.3c0-0.4,0.2,0.2,0.3-0.1c-0.2-0.2-0.3-0.1-0.4-0.3c0.2,0,0.4,0,0.5-0.1
	c-0.1,0-0.1-0.2,0-0.2c0,0.2,0.1,0.5,0.2,0.6c0-0.2-0.1-0.2,0-0.5c0.2,0.2,0.1,0.1,0.1-0.1c0.1,0,0.2,0,0.3,0c0.1-0.3-0.2,0-0.1-0.2
	c0.3-0.1,0.4,0,0.6,0c-0.1,0,0-0.4,0.1-0.4c-0.1,0.4,0.2,0.1,0.3,0.4c0.3-0.2,0-0.5,0.2-0.7c0.1,0,0,0.2,0.1,0.3
	c0.1-0.4,0-0.6,0.3-0.8c0.1,0.4,0.4,0.2,0.1,0.4c0,0.1,0,0.1,0.1,0.2c0-0.1,0-0.2,0.1-0.2c-0.2,0.3,0.4,0.7,0.5,0.8
	c0-0.1-0.1-0.2,0.1-0.3c0.4,0.2,0.3,0.7,0.5,1c0.1-0.3-0.1-0.4,0-0.7c0.2,0.2,0.4,0.4,0.7,0.4c0.2-0.3-0.3-0.1-0.2-0.3
	c0.1-0.1,0.1-0.1,0.3-0.1c-0.1,0.1-0.1,0.2,0,0.3c0.2-0.3-0.1-0.3,0-0.5c0.4,0,0.1,0.3,0.3,0.4c0.2-0.2,0-0.4,0.2-0.5
	c0.2,0.6,0.6,1.1,1,1.6c0-0.2,0-0.5,0.2-0.6c0.1,0.4,0.1,0.1,0.2,0c0.1,0.1,0,0.3,0.1,0.3c0.1-0.3-0.1-0.3,0-0.7
	c0.1,0.1,0.2,0.3,0.3,0.1c-0.3,0-0.2-0.6-0.1-0.7c-0.1,0.4,0.3,0.4,0.1,0.8c0.2,0.1,0.3,0.2,0.4,0.3c0-0.1-0.1-0.2-0.1-0.2
	c-0.1-0.1-0.4-0.5-0.3-0.7c0.4-0.1,0.1,0.6,0.3,0.5c0-0.1,0-0.3,0.1-0.3c0.1,0.2,0.1,0.5,0.3,0.6c0.1-0.3-0.4-0.6,0-0.7
	c0,0.1,0.1,0.3,0.3,0.4c0-0.3,0-0.2,0.1-0.3c-0.5-0.2-0.5-1-0.3-1.2c0.3,0-0.2,0.7,0.2,0.5c-0.1-0.1,0.2-0.4,0.2-0.5
	c0.2,0.2-0.2,0.3,0.1,0.3c0.3,0-0.1-0.4,0.2-0.4c0,0.3,0.4,0.3,0.3,0.6c0.3-0.3,0.4,0.3,0.4,0.1c-0.1,0,0-0.4,0.1-0.3
	c0,0,0.4,0.4,0.6,0.4c-0.1,0-0.2-0.3-0.1-0.3c0.2,0.1,0.2,0.3,0.3,0.4c0.1-0.3-0.2-0.4-0.3-0.6c0.4,0.2,0.2,0.2,0.3,0
	c0.4,0.2,0.2,0.8,0.7,0.7c-0.2,0-0.3-0.1-0.3-0.2c0.3,0,0.4,0.1,0.7,0c-0.1-0.1-0.1-0.4,0-0.4c0,0.1,0.1,0.2,0.1,0.4
	c-0.2,0.1-0.4,0.5-0.1,0.2c-0.3,1.2-0.1,0.9,0.1,0.2c0-0.2,0-0.4,0.1-0.4c0.1,0.3,0.1,0.6,0.3,0.2c0.1,0.1,0,0.6,0.3,0.3
	c0.1,0.2-0.1,0.6,0,0.7c0.2-0.3,0-0.6,0.4-0.7c-0.2,0.1-0.1,0.4,0.1,0.5c0.1-0.1-0.2-0.3,0.1-0.3c0.1,0.1,0.2,0.3,0.3,0.7
	c0.2,0,0.2,0.3,0.4,0.1c-0.1,0-0.1-0.6,0.1-0.3c0.1-0.2-0.2-0.5,0.1-0.6c0.3,0,0.3,0.3,0.5,0.4c0.1-0.3,0.2-0.1,0.3,0
	c0-0.2,0.1-0.4,0.1-0.4c0.4,0.1-0.1,0.3,0.2,0.4c0.1-0.1,0-0.5,0.2-0.5c0.2,0.1,0.4,0.3,0.4,0.6c0.1-0.2,0.4,0.1,0.4,0.4
	c0-0.2,0.1-0.3,0.2-0.3c0,0.1-0.3,0.5-0.2,0.4c0.4-0.3,0.2,0,0.6-0.3c-0.1,0.3,0.1,0.6-0.2,0.8c0,0-0.1,0-0.1,0.1
	c0.4-0.2,0.1,0.3,0.5,0.2c0.3-0.3,0.1-0.5,0.3-0.7c0,0.2-0.1,0.4,0.1,0.5c0.1-0.3,0.4-0.5,0.3-0.8c0.4,0,0.8,0.1,0.5,0.6
	c0.4,0.1,0.2-0.3,0.3-0.5c0,0,0,0,0,0c-0.1,0-0.2,0-0.2-0.1c0.1,0,0.2,0,0.2,0.1c0,0,0,0,0,0c0,0,0,0,0,0c0.1,0.2,0.1,0.6,0.4,0.4
	c-0.2-0.2-0.3-0.4-0.3-0.8c0.1,0,0.1,0.1,0.2,0.2c0.1-0.1-0.2-0.3,0.1-0.3c0,0.1,0,0.2,0.1,0.3c0-0.2,0.1-0.4,0.3-0.4
	c-0.1,0.2,0.3,0.3,0.4,0.2c0,0.2-0.1,0.4,0.1,0.4c0.1-0.2-0.1-0.2,0-0.4c0.1,0.2,0.3,0,0.3,0.1c0.1-0.1,0.1,0.8,0.4,0.3
	c-0.1,0.3-0.1,0.6,0.1,0.8c0.1-0.3-0.2-0.7,0.1-0.9c0.1,0.3,0.3-0.1,0.5,0.3c0.1-0.1-0.1-0.2,0.1-0.2c0.1,0.3,0.1,0.1,0.3,0
	c0,0.2,0,0.5,0.2,0.6c0.2-0.4,0.2,0.2,0.3,0.2c0.2-0.3-0.3-0.4,0.1-0.5c0,0.4,0.6,0.7,0.7,0.2c0.1,0.2,0.2,0.8,0.5,0.7
	c-0.1-0.1-0.2-0.6,0-0.7c0,0.1-0.1,0.5,0,0.2c0-0.7,0.8-1.3,0.2-1.8c0.1,0,0.3,0.1,0.3,0c-0.3-0.1,0.1-0.4,0.2-0.5
	c0.3,0.1,0.1,0.3,0.3,0c-0.1,0.2,0.1,0.2-0.1,0.3c0.4-0.2,0.2,0,0.5,0.2c0.1-0.4-0.4-0.3-0.3-0.7c0.3-0.1,0.3,0.2,0.4,0.1
	c-0.1,0-0.1-0.2,0-0.2c0.1,0.2-0.1,0.6,0.2,0.7c0.2-0.2-0.1-0.3,0.1-0.3c0.2,0-0.1,0.4,0.1,0.3c0.3-0.1-0.1-0.3,0.2-0.4
	c0,0.3,0.2,0.2,0.3,0.3c0,0.3-0.3,0.3-0.4,0.4c0.4,0,0.7-0.2,0.7-0.4c0.1,0.1,0.2,0.4,0.4,0.2c0.2,0.1-0.1,0.4,0.1,0.5
	c0.3-0.4,0.2,0.3,0.4,0.4c0.1-0.2-0.1-0.3,0-0.5c0.4-0.1,0.2,0.8,0.4,0.9c0.1-0.1,0-0.5,0.2-0.5c0,0.1,0.1,0.1,0.1,0.2
	c0-0.5,0.1-0.1,0.3-0.4c0,0,0,0,0-0.1c0,0,0,0,0,0.1c0,0.2,0,0.5,0.1,0.3c0.1-0.1-0.1-0.2,0.1-0.2c0.1,0.1,0,0.8,0.2,0.7
	c-0.2,0,0.1-0.3,0.1-0.3c-0.1,0.3,0,0.2,0.2,0.1c0,0.1,0,0.5,0.1,0.4c0.1-0.1-0.1-0.2,0.1-0.2c0.1,0,0.1,0.4,0.3,0.2
	c-0.1-0.1-0.1-0.2-0.1-0.4c0.2-0.1,0.2,0.3,0.3,0c0,0,0,0,0,0c0,0,0,0,0,0c-0.1-0.1-0.2-0.3-0.1-0.3c0.1,0,0,0.2,0.1,0.3
	c0,0,0,0,0,0c0,0,0,0,0.1,0c0.1-0.3-0.1-0.7,0-0.7c0.2,0,0.1,0.3,0.3,0c-0.3,0,0-0.4,0.1-0.4c0,0.1,0.1,0.1,0.1,0.2
	c-0.4-0.1,0.1,0.3-0.2,0.4c0.3,0.1,0.2-0.4,0.4-0.5c-0.1,0.4-0.3,0.8-0.3,1.1c0.2-0.3,0.2-0.8,0.6-0.8c0,0-0.3,0.3-0.1,0.3
	c0.1-0.4,0.2-0.1,0.4-0.4c0.1,0.2-0.1,0.5,0.1,0.7c0.1-0.5,0-0.4,0.1-0.8c0.1,0.1,0.4,0.1,0.4,0.2c0.1-0.1,0-0.5,0.2-0.5
	c0.1,0.5,0.1-0.2,0.5-0.1c-0.1,0.2-0.1,0.7,0,0.5c-0.2-0.4,0.3-0.5,0.3-1c0.4,0.2,0-0.3,0.4-0.3c0,0.1-0.1,0.3,0,0.3
	c0.1-0.3,0.3-0.1,0.5,0c0.2-0.3-0.3-0.5,0-0.6c0.2,0.2,0.3,0.5,0.5,0.6c0.1-0.3-0.1-0.4-0.1-0.6c0.1,0.1,0.1,0.1,0.2,0
	c0,0.1,0,0.5,0.1,0.3c0-0.1-0.1-0.2,0.1-0.3c0.1,0,0,0.3,0.2,0.3c0.2-0.2-0.2-0.4,0-0.5c0,0.5,0.5,0.6,0.7,1c0.1-0.2,0-0.5,0.2-0.5
	c-0.2,0.8,0.4,0.3,0.3,1c0.3,0,0.2-0.3,0.4-0.3c0.1,0.1,0.1,0.5,0.2,0.3c0-0.2-0.3-0.4-0.1-0.5c0.1,0,0.4,0.4,0.3,0.2
	c-0.1-0.3-0.8-0.5-0.3-0.9c0.2,0.3,0.8,0,0.8,0.6c0-0.1,0-0.2,0.1-0.2c0.1,0.4,0.2,0.8,0.3,1.2c0.3-0.2-0.2-0.4,0.2-0.7
	c0.3,0.3,0.5,0.6,0.8,0.9c0.1-0.2-0.2-0.4,0.1-0.4c0.1,0.2,0.3,0.2,0.3,0.4c0.1-0.2-0.2-0.4,0-0.4c0.1,0,0.1,0.1,0.2,0.1
	c0,0,0-0.2,0.1-0.1c-0.1,0.2-0.2,0.2-0.1,0.4c0.2,0.1,0.2-0.3,0.5-0.1c0.2,0.4,0.6,0.7,0.9,1c0.1,0,0.1-0.1,0.1-0.2c0,0,0,0,0,0
	c0,0,0,0,0,0c0-0.1-0.1-0.2,0-0.3c0.2,0.1-0.1,0.1,0,0.3c0,0,0,0,0,0c0.1,0,0.3,0.1,0.3,0c-0.2,0-0.3-0.3-0.1-0.2
	c0.1,0,0.1,0.1,0.2,0c0,0-0.1-0.1,0-0.1c0.2,0.1,0.6,0.5,0.9,0.2c-0.5,0.1-0.1-0.6-0.4-0.4c0.1-0.2-0.1-0.2,0-0.4
	c0.4,0.1,0.3,0.5,0.4,0.6c0-0.2,0.1-0.2,0.2-0.2c-0.3,0.1-0.2-0.4,0-0.5c0.1,0.3,0.2,0.5,0.3,0.6c-0.2,0.3,0.1,0.1,0.4,0.3
	c-0.3,0-0.2-0.6,0-0.7c-0.2,0.7,0.1,0,0.2,0.4c0-0.3-0.1-0.5-0.1-0.8c0.1,0,0.1,0,0.2,0c0,0.3,0.2,0.8,0.4,0.7c-0.1,0,0-0.4,0.1-0.3
	c0.1,0.1,0.2,0.2,0.3,0.4c-0.2-0.4-0.3-0.6,0-1c0.4,0.4,0.5,1,0.7,1.2c0-0.2-0.1-0.2-0.1-0.5c0.3,0.2,0.1-0.1,0.3-0.1
	c0,0.2,0.3,0.3,0.4,0.1c-0.3,0-0.1-0.3-0.2-0.4c0.1,0,0.2,0.1,0.2,0c-0.1-0.1-0.2-0.5,0.1-0.6c0.1,0.2,0.3,0.5,0.5,0.2
	c0,0.2-0.3,0.2,0,0.2c0.1-0.2,0.1-0.4,0.4-0.1c0.1-0.2-0.2-0.5,0-0.6c0,0.1,0,0.4,0.1,0.3c0-0.1-0.1-0.3,0.1-0.2
	c0-0.3-0.3-0.6,0-0.8c0.3,0.1,0.6,0.2,0.8,0.7c0.1-0.4,0.3,0.2,0.4,0c-0.1,0-0.2-0.3,0-0.3c0.1,0.1,0.1,0.3,0.4,0.3
	c0,0.2,0,0.3,0.1,0.4c0-0.3,0-0.2,0.2,0c0.1-0.2,0-0.3,0.2-0.3c0.1,0,0.2,0.3,0.3,0.1c-0.2-0.4,0.9-0.6,1-0.2c0-0.1,0.1-0.2,0.1-0.2
	c0,0-0.1-0.1-0.1-0.1c-0.1-0.1-0.2-0.1-0.1-0.3c0.2,0.2,0.1,0,0-0.2c0.1,0,0.1,0,0.2,0c0,0.1,0,0.2,0,0.2c0-0.1,0-0.2,0.1-0.2
	c-0.1,0.2-0.2,0.4-0.2,0.5c0,0,0.1,0,0.1,0.1c0,0,0,0,0,0.1c0,0,0,0,0,0c0-0.4,0.1-0.6,0.3-0.8c0.2,0.1,0.6,0.1,0.4-0.2
	c0.2,0,0.2,0.5,0.4,0.2c-0.2-0.1,0.1-0.4,0.3-0.3c-0.1,0.3-0.2,0.4,0,0.6c0-0.2,0.1-0.4,0.2-0.2c0.1-0.2-0.1-0.3,0-0.5
	c0.4,0.1-0.1-0.4,0.3-0.4c0.1,0,0,0.3,0.1,0.3c0.2-0.2-0.1-0.4,0.1-0.5c0.2,0.2,0.4,0.9,0.8,0.5c-0.2-0.1-0.4-0.2-0.4-0.4
	c0.2,0.1,0.2,0.1,0.4,0c0,0.1,0,0.3,0.1,0.3c0.2-0.2-0.1-0.5,0.2-0.7c0,0.1,0.1,0.5,0.2,0.6c0-0.2,0.1-0.3,0.2-0.3
	c0,0.2,0.1,0.2,0.2,0.1c-0.2,0.4,0.2,0.1,0.3,0.4c0-0.4,0.1-0.4,0.2-0.5c0.2,0.1,0.3,0.3,0.4,0.5c-0.1-0.4-0.2-0.8-0.1-1.1
	c0.1,0.3,0.5,0.2,0.5,0.5c0-0.1,0-0.2,0.1-0.2c0.3,0.1,0.1,0.5,0.2,0.7c0.3-0.6,0.2,0.2,0.5,0c0,0.2,0.4,0.5,0.4,0.5
	c0-0.2-0.1-0.6,0-0.6c0.1,0.1,0,0.8,0.2,0.6c0,0-0.1,0-0.1-0.1c0.2-0.1,0.2,0.1,0.3,0c0-0.1,0.1-0.4-0.1-0.4c0.2,0.1,0.3-0.3,0.4,0
	c0.1-0.2,0-0.6,0.2-0.6c0,0.7,0.1-0.2,0.3,0.4c0.2,0,0.1-0.5,0.3-0.5c-0.2,0.5,0.4-0.1,0.5,0.3c0-0.1-0.1-0.5,0.1-0.5
	c0,0.4,0.4,1.1,1.1,1.4c-0.1-0.3-0.6-0.2-0.5-0.6c0.2,0.3,0.2-0.2,0.4-0.2c0.3,0.2,0.4,0,0.8,0.3c0.1-0.1,0.1-0.2,0.2-0.2
	c0.2,0.3,0.3-0.1,0.6,0.2c0-0.3-0.2-0.6,0.1-0.8c0,0.3-0.2,0.4,0,0.7c0.2-0.2,0.5-0.2,0.7-0.5c0,0.1,0.6,0.1,0.8-0.2
	c0.2,0,0.4,0.4,0.3,0.2c-0.1-0.4,0.2-0.4,0.4-0.5c0-0.1,0.1-0.3,0.2-0.3c-0.1,0.1,0,0.4,0.1,0.2c0-0.2,0.1-0.1,0.2-0.4
	c0,0.1,0,0.2,0.1,0.2c0.1-0.1-0.2-0.3,0.1-0.3c0.2,0,0.1,0.2,0.2,0.3c-0.4,0.4-0.4,1,0,0.2c0.2,0,0.3-0.2,0.5-0.1
	c-0.1-0.4,0.7-0.5,0.5-1.1c0.1,0,0.2,0.1,0.2,0.2c0,0.1-0.1,0.2,0,0.3c0-0.1,0.1-0.1,0.1,0c0,0.1,0,0.2,0,0.2c0.2-0.5,0-0.7-0.1-0.9
	c0.1,0,0.2,0.1,0.2,0.1c0.2-2.3,0.1-4.8,0.4-6.7V0H6.2C6.3,0.2,6.4,0.3,6.2,0.4z"/>
</svg>
