<?xml version="1.0" encoding="utf-8"?>
<!-- Generator: Adobe Illustrator 19.1.0, SVG Export Plug-In . SVG Version: 6.00 Build 0)  -->
<svg version="1.1" id="Layer_1" xmlns="http://www.w3.org/2000/svg" xmlns:xlink="http://www.w3.org/1999/xlink" x="0px" y="0px"
	 width="232.7px" height="64.7px" viewBox="0 0 232.7 64.7" style="enable-background:new 0 0 232.7 64.7;" xml:space="preserve" preserveAspectRatio="none">
<style type="text/css">
	.st0{fill:#B07F48;}
	.st1{fill:#845F37;}
	.st2{fill:#FFDC49;}
	.st3{fill:#FFD549;}
	.st4{fill:#E0E0E0;}
	.st5{fill:none;}
	.st6{fill:#C4C5C6;stroke:#C4C5C6;stroke-width:1.775;stroke-linecap:round;stroke-linejoin:round;}
	.st7{fill:#C8D6EC;stroke:#FFFFFF;stroke-width:1.775;}
	.st8{fill:#BCA30B;}
	.st9{fill:#213A8F;}
	.st10{fill:none;stroke:#FFFFFF;stroke-width:0.8875;}
</style>
<polyline class="st0" points="232.7,64.7 232.7,0 0,0 0,64.7 "/>
<line class="st0" x1="232.7" y1="0" x2="232.7" y2="64.7"/>
<polyline class="st1" points="186.3,64.7 184.3,35.3 27.7,35.3 25.6,64.7 "/>
<polyline class="st2" points="185.8,64.7 184.3,35.3 27.7,35.3 26.1,64.7 "/>
<polyline class="st3" points="185.6,60.4 184.3,35.3 27.7,35.3 26.3,60.4 "/>
<path class="st1" d="M230.3,50.2c0,0,1-2.2-0.3-5.4c-1.1-2.6-3.5-3.9-3.5-3.9l0-2.1l-30.2-5.5L230.3,50.2"/>
<path class="st4" d="M9.3,8l12,6.5l1.3-8.3C22.6,6.1,12.5,7.5,9.3,8z"/>
<polyline class="st1" points="223.7,53.6 226.5,39 46.5,7.4 23.5,5.3 21.7,15.9 43.8,21.9 223.7,53.6 "/>
<g>
	<path class="st4" d="M6.1,7.4l16.4,7.9l1-9.8C23.5,5.5,9.3,6.9,6.1,7.4z"/>
	<line class="st5" x1="49.8" y1="8" x2="94.9" y2="16"/>
	<polygon class="st1" points="49.8,8 46.5,7.4 23.5,5.3 21.7,15.9 43.8,21.9 127.1,36.6 45.5,17 	"/>
</g>
<path class="st4" d="M7.8,6.3C7,6.2,6.3,6.7,6.1,7.5C5.9,8.3,6.5,9,7.3,9.2l3.2,0.5L11,6.9L7.8,6.3z"/>
<g>
	<g>
		<path class="st4" d="M9.3,8l12,6.5l1.3-8.3C22.6,6.1,12.5,7.5,9.3,8z"/>
	</g>
	<g>
		<path class="st4" d="M6.1,7.4l16.4,7.9l1-9.8C23.5,5.5,9.3,6.9,6.1,7.4z"/>
		<line class="st5" x1="49.8" y1="8" x2="94.9" y2="16"/>
		<polygon class="st1" points="49.8,8 46.5,7.4 23.5,5.3 21.7,15.9 43.8,21.9 127.1,36.6 45.5,17 		"/>
	</g>
</g>
<g>
	<g>
		<g>
			<path class="st4" d="M9.3,8l12,6.5l1.3-8.3C22.6,6.1,12.5,7.5,9.3,8z"/>
		</g>
		<g>
			<path class="st1" d="M6.1,7.4l16.4,7.9l1-9.8C23.5,5.5,9.3,6.9,6.1,7.4z"/>
			<line class="st5" x1="127.1" y1="36.6" x2="43.8" y2="21.9"/>
		</g>
	</g>
	<path class="st1" d="M7.8,6.3C7,6.2,6.3,6.7,6.1,7.5C5.9,8.3,6.5,9,7.3,9.2l3.2,0.5L11,6.9L7.8,6.3z"/>
</g>
<path class="st6" d="M5.9,10.5l12,6.5l1.3-8.3C19.2,8.7,9.1,10.1,5.9,10.5z"/>
<polyline class="st7" points="220.3,56.3 223.1,41.6 43,10 20.2,7.9 18.4,18.5 40.4,24.5 220.3,56.3 "/>
<path class="st8" d="M3.7,8.8C2.9,8.7,2.2,9.2,2,10c-0.2,0.8,0.4,1.5,1.2,1.7l3.2,0.5l0.5-2.9L3.7,8.8z"/>
<polygon class="st9" points="20,15.5 127.4,34 128.1,30.6 20.6,12.2 "/>
<path class="st9" d="M227.3,50.2c1.1-5.5-2.8-8-2.8-8L221.9,57"/>
<polyline class="st9" points="221.2,45 213.9,43.7 212.9,50.3 "/>
<line class="st10" x1="19.5" y1="16.8" x2="221" y2="51.6"/>
<line class="st10" x1="20.2" y1="10.7" x2="221.8" y2="45.4"/>
<path class="st9" d="M2.1,9.9c-0.2,0.8,0.4,1.5,1.2,1.7l0.5-2.9C2.9,8.6,2.2,9.1,2.1,9.9z"/>
</svg>
