<?xml version="1.0" encoding="utf-8"?>
<!-- Generator: Adobe Illustrator 19.1.0, SVG Export Plug-In . SVG Version: 6.00 Build 0)  -->
<svg version="1.1" id="Layer_1" xmlns="http://www.w3.org/2000/svg" xmlns:xlink="http://www.w3.org/1999/xlink" x="0px" y="0px"
	 width="235.7px" height="58.7px" viewBox="0 0 235.7 58.7" style="enable-background:new 0 0 235.7 58.7;" xml:space="preserve" preserveAspectRatio="none">
<style type="text/css">
	.st0{fill:#B07F48;}
	.st1{fill:#845F37;}
	.st2{fill:#C5F4FC;}
	.st3{fill:#A4EFFC;}
	.st4{fill:#E0E0E0;}
	.st5{fill:none;}
	.st6{fill:#C4C5C6;stroke:#C4C5C6;stroke-width:1.775;stroke-linecap:round;stroke-linejoin:round;}
	.st7{fill:#C8D6EC;stroke:#FFFFFF;stroke-width:1.775;}
	.st8{fill:#BCA30B;}
	.st9{fill:#213A8F;}
	.st10{fill:none;stroke:#FFFFFF;stroke-width:0.8875;}
</style>
<polyline class="st0" points="235.7,58.7 235.7,0 0,0 0,58.7 "/>
<polyline class="st1" points="186.4,58.7 184.3,29 27.7,29 25.6,58.7 "/>
<polyline class="st2" points="185.8,58.7 184.3,29 27.7,29 26,58.7 "/>
<polyline class="st3" points="185.6,54.1 184.3,29 27.7,29 26.3,54.1 "/>
<path class="st1" d="M226.3,41.1l0-2.1l-30.1-5.9l33.8,17.2c0,0,1.1-2.2-0.2-5.4C228.7,42.4,226.3,41.1,226.3,41.1z"/>
<path class="st4" d="M21.4,11.9l1.4-8.3c0,0-10.1,1.3-13.3,1.7L21.4,11.9z"/>
<polyline class="st1" points="223.3,53.8 226.2,39.2 46.7,5.2 23.8,2.8 21.8,13.3 43.8,19.6 223.3,53.8 "/>
<g>
	<path class="st4" d="M22.5,12.8L23.7,3c0,0-14.2,1.2-17.4,1.6L22.5,12.8z"/>
	<line class="st5" x1="50" y1="5.8" x2="95" y2="14.4"/>
	<polygon class="st1" points="50,5.8 46.7,5.2 23.8,2.8 21.8,13.3 43.8,19.6 126.9,35.5 45.5,14.8 	"/>
</g>
<path class="st4" d="M6.3,4.8C6.1,5.6,6.7,6.3,7.5,6.5L10.7,7l0.5-2.9L8,3.6C7.2,3.4,6.5,4,6.3,4.8z"/>
<g>
	<g>
		<path class="st4" d="M21.4,11.9l1.4-8.3c0,0-10.1,1.3-13.3,1.7L21.4,11.9z"/>
	</g>
	<g>
		<path class="st4" d="M22.5,12.8L23.7,3c0,0-14.2,1.2-17.4,1.6L22.5,12.8z"/>
		<line class="st5" x1="50" y1="5.8" x2="95" y2="14.4"/>
		<polygon class="st1" points="50,5.8 46.7,5.2 23.8,2.8 21.8,13.3 43.8,19.6 126.9,35.5 45.5,14.8 		"/>
	</g>
</g>
<g>
	<g>
		<g>
			<path class="st4" d="M21.4,11.9l1.4-8.3c0,0-10.1,1.3-13.3,1.7L21.4,11.9z"/>
		</g>
		<g>
			<path class="st1" d="M22.5,12.8L23.7,3c0,0-14.2,1.2-17.4,1.6L22.5,12.8z"/>
			<line class="st5" x1="126.9" y1="35.5" x2="43.8" y2="19.6"/>
		</g>
	</g>
	<path class="st1" d="M6.3,4.8C6.1,5.6,6.7,6.3,7.5,6.5L10.7,7l0.5-2.9L8,3.6C7.2,3.4,6.5,4,6.3,4.8z"/>
</g>
<path class="st6" d="M17.9,14.4l1.4-8.3c0,0-10.1,1.3-13.3,1.7L17.9,14.4z"/>
<polyline class="st7" points="219.9,56.4 222.8,41.8 43.2,7.7 20.4,5.4 18.4,15.9 40.4,22.2 219.9,56.4 "/>
<path class="st8" d="M2.2,7.2C2,8,2.6,8.7,3.4,8.9l3.2,0.6l0.5-2.9L3.9,6C3.1,5.9,2.4,6.4,2.2,7.2z"/>
<polygon class="st9" points="20.1,12.9 127.3,32.9 128,29.5 20.7,9.7 "/>
<path class="st9" d="M221.5,57.2c0,0,4.2-1.3,5.5-6.8c1.1-5.5-2.7-8-2.7-8L221.5,57.2"/>
<polygon class="st9" points="212.5,50.3 219.8,51.8 220.8,45.1 213.6,43.7 "/>
<line class="st10" x1="19.6" y1="14.2" x2="220.6" y2="51.7"/>
<line class="st10" x1="20.4" y1="8.2" x2="221.5" y2="45.6"/>
<path class="st9" d="M2.3,7.1C2.1,7.9,2.6,8.6,3.4,8.8L3.9,6C3.1,5.8,2.4,6.3,2.3,7.1z"/>
</svg>
