<?xml version="1.0" encoding="utf-8"?>
<!-- Generator: Adobe Illustrator 19.1.0, SVG Export Plug-In . SVG Version: 6.00 Build 0)  -->
<svg version="1.1" id="Layer_1" xmlns="http://www.w3.org/2000/svg" xmlns:xlink="http://www.w3.org/1999/xlink" x="0px" y="0px"
	 width="231.7px" height="60.3px" viewBox="0 0 231.7 60.3" style="enable-background:new 0 0 231.7 60.3;" xml:space="preserve" preserveAspectRatio="none">
<style type="text/css">
	.st0{fill:#B07F48;}
	.st1{fill:#845F37;}
	.st2{fill:#D7F9A0;}
	.st3{fill:#B2FF4D;}
	.st4{fill:#E0E0E0;}
	.st5{fill:none;}
	.st6{fill:#C4C5C6;stroke:#C4C5C6;stroke-width:1.775;stroke-linecap:round;stroke-linejoin:round;}
	.st7{fill:#C8D6EC;stroke:#FFFFFF;stroke-width:1.775;}
	.st8{fill:#BCA30B;}
	.st9{fill:#213A8F;}
	.st10{fill:none;stroke:#FFFFFF;stroke-width:0.8875;}
</style>
<polyline class="st0" points="231.7,60.3 231.7,0 0,0 0,60.3 "/>
<polyline class="st1" points="186.4,60.3 184.3,30.3 27.7,30.3 25.6,60.3 "/>
<polyline class="st2" points="185.9,60.3 184.3,30.3 27.7,30.3 26,60.3 "/>
<polygon class="st3" points="27.7,30.3 26.3,55.4 185.6,55.4 184.3,30.3 "/>
<path class="st1" d="M225.4,41.6l0-2.1l-30.2-5.6l33.9,16.9c0,0,1-2.2-0.3-5.4C227.8,42.9,225.4,41.6,225.4,41.6z"/>
<g>
	<g>
		<g>
			<path class="st4" d="M20.3,14.2l1.4-8.3c0,0-10.1,1.3-13.3,1.8L20.3,14.2z"/>
			<polygon class="st1" points="22.6,5.1 20.7,15.7 42.7,21.8 222.5,54.3 225.3,39.7 45.5,7.3 			"/>
		</g>
		<g>
			<path class="st4" d="M21.4,15.1l1.1-9.8c0,0-14.2,1.4-17.4,1.8L21.4,15.1z"/>
			<line class="st5" x1="48.8" y1="7.9" x2="93.9" y2="16.1"/>
			<polygon class="st1" points="48.8,7.9 45.5,7.3 22.6,5.1 20.7,15.7 42.7,21.8 126,36.9 44.4,16.9 			"/>
		</g>
	</g>
	<path class="st4" d="M5.1,7.2C4.9,8,5.5,8.8,6.3,8.9l3.2,0.5L10,6.6L6.8,6C6,5.9,5.3,6.4,5.1,7.2z"/>
	<g>
		<g>
			<path class="st4" d="M20.3,14.2l1.4-8.3c0,0-10.1,1.3-13.3,1.8L20.3,14.2z"/>
		</g>
		<g>
			<path class="st4" d="M21.4,15.1l1.1-9.8c0,0-14.2,1.4-17.4,1.8L21.4,15.1z"/>
			<line class="st5" x1="48.8" y1="7.9" x2="93.9" y2="16.1"/>
			<polygon class="st1" points="48.8,7.9 45.5,7.3 22.6,5.1 20.7,15.7 42.7,21.8 126,36.9 44.4,16.9 			"/>
		</g>
	</g>
</g>
<g>
	<g>
		<g>
			<path class="st4" d="M20.3,14.2l1.4-8.3c0,0-10.1,1.3-13.3,1.8L20.3,14.2z"/>
		</g>
		<g>
			<path class="st1" d="M21.4,15.1l1.1-9.8c0,0-14.2,1.4-17.4,1.8L21.4,15.1z"/>
			<line class="st5" x1="126" y1="36.9" x2="42.7" y2="21.8"/>
		</g>
	</g>
	<path class="st1" d="M5.1,7.2C4.9,8,5.5,8.8,6.3,8.9l3.2,0.5L10,6.6L6.8,6C6,5.9,5.3,6.4,5.1,7.2z"/>
</g>
<g>
	<g>
		<g>
			<g>
				<path class="st6" d="M16.8,16.8l1.4-8.3c0,0-10.1,1.3-13.3,1.8L16.8,16.8z"/>
				<polygon class="st7" points="19.2,7.7 17.3,18.3 39.4,24.4 219.1,56.9 222,42.3 42,9.9 				"/>
			</g>
		</g>
	</g>
</g>
<path class="st8" d="M1,9.7c-0.2,0.8,0.4,1.5,1.2,1.7l3.2,0.5l0.5-2.9L2.7,8.5C1.9,8.4,1.2,8.9,1,9.7z"/>
<polygon class="st9" points="19,15.3 126.3,34.3 127,30.8 19.6,12 "/>
<path class="st9" d="M220.7,57.7c0,0,4.2-1.3,5.4-6.8c1.1-5.5-2.8-8-2.8-8L220.7,57.7"/>
<polygon class="st9" points="211.7,50.9 219,52.3 220,45.7 212.8,44.3 "/>
<line class="st10" x1="18.5" y1="16.6" x2="219.8" y2="52.3"/>
<line class="st10" x1="19.2" y1="10.5" x2="220.7" y2="46.1"/>
<path class="st9" d="M1.1,9.6c-0.2,0.8,0.4,1.5,1.2,1.7l0.5-2.9C2,8.3,1.2,8.8,1.1,9.6z"/>
</svg>
