<?xml version="1.0" encoding="utf-8"?>
<!-- Generator: Adobe Illustrator 19.1.0, SVG Export Plug-In . SVG Version: 6.00 Build 0)  -->
<svg version="1.1" id="Layer_1" xmlns="http://www.w3.org/2000/svg" xmlns:xlink="http://www.w3.org/1999/xlink" x="0px" y="0px"
	 width="255.9px" height="24.6px" viewBox="0 0 255.9 24.6" style="enable-background:new 0 0 255.9 24.6;" xml:space="preserve" preserveAspectRatio="none">
<style type="text/css">
	.st0{fill:#D4D8DA;}
	.st1{fill:#AFAFAF;}
	.st2{fill:#EF0917;stroke:#D10000;stroke-width:0.1903;stroke-linecap:round;stroke-linejoin:round;}
	.st3{fill:#FFD600;stroke:#FFBC0C;stroke-width:0.1903;stroke-linecap:round;stroke-linejoin:round;}
	.st4{fill:#009D2E;stroke:#00742E;stroke-width:0.1903;stroke-linecap:round;stroke-linejoin:round;}
	.st5{fill:#FFFFFF;stroke:#808080;stroke-width:0.6;}
	.st6{fill:#9C9B9B;}
	.st7{fill:none;stroke:#808080;stroke-width:0.6;}
	.st8{fill:none;stroke:#9C9B9B;stroke-width:0.675;stroke-linecap:round;}
	.st9{fill:#DEDEDE;}
</style>
<path class="st0" d="M255.9,24.6V2.1c0-1.1-0.8-2-1.7-2L1.7,0C0.8,0,0,0.9,0,2v22.6"/>
<rect x="0" y="8.8" class="st1" width="255.9" height="0.3"/>
<circle class="st2" cx="5.2" cy="4.2" r="1.4"/>
<circle class="st3" cx="9.5" cy="4.2" r="1.4"/>
<circle class="st4" cx="13.7" cy="4.2" r="1.4"/>
<path class="st5" d="M23.8,12.4H4.7c-0.5,0-0.9,0.4-0.9,0.9V20c0,0.5,0.4,0.9,0.9,0.9h19.1c0.5,0,0.9-0.4,0.9-0.9v-6.7
	C24.7,12.8,24.3,12.4,23.8,12.4z"/>
<path class="st5" d="M39.1,12.4h-8.8c-0.5,0-0.9,0.4-0.9,0.9V20c0,0.5,0.4,0.9,0.9,0.9h8.8c0.5,0,0.9-0.4,0.9-0.9v-6.7
	C40,12.8,39.6,12.4,39.1,12.4z"/>
<path class="st5" d="M243.8,12.4h-198c-0.5,0-0.9,0.4-0.9,0.9V20c0,0.5,0.4,0.9,0.9,0.9h198c0.5,0,0.9-0.4,0.9-0.9v-6.7
	C244.7,12.8,244.3,12.4,243.8,12.4z"/>
<polygon class="st6" points="9.7,18.4 9.7,14.9 6.7,16.7 "/>
<polygon class="st6" points="18.1,18.4 21.1,16.7 18.1,14.9 "/>
<line class="st7" x1="13.7" y1="12.4" x2="13.7" y2="20.6"/>
<g>
	<g>
		<g>
			<path class="st8" d="M36.3,15.1c0.4,0.4,0.6,1,0.6,1.6c0,1.3-1,2.3-2.3,2.3"/>
			<path class="st6" d="M33,19.1c0.7,0.3,1.7,0.8,2.3,1.3l-0.5-1.3l0.5-1.3C34.6,18.3,33.7,18.8,33,19.1z"/>
		</g>
	</g>
	<g>
		<g>
			<path class="st8" d="M32.6,18.4c-0.4-0.4-0.6-1-0.6-1.6c0-1.3,1-2.3,2.3-2.3"/>
			<path class="st6" d="M34.2,14.4l-0.5,1.3c0.6-0.5,1.5-1,2.3-1.3c-0.7-0.3-1.7-0.8-2.3-1.3L34.2,14.4z"/>
		</g>
	</g>
</g>
<g>
	<path class="st9" d="M49.4,17c-0.3,0.2-0.6,0.2-0.9,0.3l0.6,2.1c0.1,0.3,0.3,0.4,0.6,0.3c0.2,0,0.4-0.3,0.3-0.6L49.4,17z"/>
	<path class="st9" d="M49.4,13.7c-0.9-0.5-2.1-0.2-2.7,0.8c-0.5,0.9-0.2,2.1,0.8,2.7c0.9,0.5,2.1,0.2,2.7-0.8
		C50.7,15.5,50.4,14.3,49.4,13.7z M49.7,16.2c-0.4,0.7-1.3,1-2,0.6c-0.7-0.4-1-1.3-0.6-2c0.4-0.7,1.3-1,2-0.6
		C49.8,14.6,50.1,15.5,49.7,16.2z"/>
</g>
</svg>
